G04 #@! TF.GenerationSoftware,KiCad,Pcbnew,(5.1.5)-3*
G04 #@! TF.CreationDate,2020-08-29T09:18:06-04:00*
G04 #@! TF.ProjectId,AudioBox,41756469-6f42-46f7-982e-6b696361645f,rev?*
G04 #@! TF.SameCoordinates,Original*
G04 #@! TF.FileFunction,Soldermask,Top*
G04 #@! TF.FilePolarity,Negative*
%FSLAX46Y46*%
G04 Gerber Fmt 4.6, Leading zero omitted, Abs format (unit mm)*
G04 Created by KiCad (PCBNEW (5.1.5)-3) date 2020-08-29 09:18:06*
%MOMM*%
%LPD*%
G04 APERTURE LIST*
%ADD10C,0.100000*%
G04 APERTURE END LIST*
D10*
G36*
X119115592Y-100916134D02*
G01*
X119222344Y-100937368D01*
X119423459Y-101020673D01*
X119604458Y-101141613D01*
X119758385Y-101295540D01*
X119879325Y-101476539D01*
X119962630Y-101677654D01*
X120005098Y-101891157D01*
X120005098Y-102108843D01*
X119962630Y-102322346D01*
X119879325Y-102523461D01*
X119758385Y-102704460D01*
X119604458Y-102858387D01*
X119423459Y-102979327D01*
X119222344Y-103062632D01*
X119115592Y-103083866D01*
X119008842Y-103105100D01*
X118791154Y-103105100D01*
X118577652Y-103062632D01*
X118376537Y-102979327D01*
X118195538Y-102858387D01*
X118041611Y-102704460D01*
X117920671Y-102523461D01*
X117837366Y-102322346D01*
X117794898Y-102108843D01*
X117794898Y-101891157D01*
X117837366Y-101677654D01*
X117920671Y-101476539D01*
X118041611Y-101295540D01*
X118195538Y-101141613D01*
X118376537Y-101020673D01*
X118577652Y-100937368D01*
X118684404Y-100916134D01*
X118791154Y-100894900D01*
X119008842Y-100894900D01*
X119115592Y-100916134D01*
G37*
G36*
X102915594Y-100916134D02*
G01*
X103022346Y-100937368D01*
X103223461Y-101020673D01*
X103404460Y-101141613D01*
X103558387Y-101295540D01*
X103679327Y-101476539D01*
X103762632Y-101677654D01*
X103805100Y-101891157D01*
X103805100Y-102108843D01*
X103762632Y-102322346D01*
X103679327Y-102523461D01*
X103558387Y-102704460D01*
X103404460Y-102858387D01*
X103223461Y-102979327D01*
X103022346Y-103062632D01*
X102915594Y-103083866D01*
X102808844Y-103105100D01*
X102591156Y-103105100D01*
X102377654Y-103062632D01*
X102176539Y-102979327D01*
X101995540Y-102858387D01*
X101841613Y-102704460D01*
X101720673Y-102523461D01*
X101637368Y-102322346D01*
X101594900Y-102108843D01*
X101594900Y-101891157D01*
X101637368Y-101677654D01*
X101720673Y-101476539D01*
X101841613Y-101295540D01*
X101995540Y-101141613D01*
X102176539Y-101020673D01*
X102377654Y-100937368D01*
X102484406Y-100916134D01*
X102591156Y-100894900D01*
X102808844Y-100894900D01*
X102915594Y-100916134D01*
G37*
G36*
X98715592Y-100916134D02*
G01*
X98822344Y-100937368D01*
X99023459Y-101020673D01*
X99204458Y-101141613D01*
X99358385Y-101295540D01*
X99479325Y-101476539D01*
X99562630Y-101677654D01*
X99605098Y-101891157D01*
X99605098Y-102108843D01*
X99562630Y-102322346D01*
X99479325Y-102523461D01*
X99358385Y-102704460D01*
X99204458Y-102858387D01*
X99023459Y-102979327D01*
X98822344Y-103062632D01*
X98715592Y-103083866D01*
X98608842Y-103105100D01*
X98391154Y-103105100D01*
X98177652Y-103062632D01*
X97976537Y-102979327D01*
X97795538Y-102858387D01*
X97641611Y-102704460D01*
X97520671Y-102523461D01*
X97437366Y-102322346D01*
X97394898Y-102108843D01*
X97394898Y-101891157D01*
X97437366Y-101677654D01*
X97520671Y-101476539D01*
X97641611Y-101295540D01*
X97795538Y-101141613D01*
X97976537Y-101020673D01*
X98177652Y-100937368D01*
X98284404Y-100916134D01*
X98391154Y-100894900D01*
X98608842Y-100894900D01*
X98715592Y-100916134D01*
G37*
G36*
X82515594Y-100916134D02*
G01*
X82622346Y-100937368D01*
X82823461Y-101020673D01*
X83004460Y-101141613D01*
X83158387Y-101295540D01*
X83279327Y-101476539D01*
X83362632Y-101677654D01*
X83405100Y-101891157D01*
X83405100Y-102108843D01*
X83362632Y-102322346D01*
X83279327Y-102523461D01*
X83158387Y-102704460D01*
X83004460Y-102858387D01*
X82823461Y-102979327D01*
X82622346Y-103062632D01*
X82515594Y-103083866D01*
X82408844Y-103105100D01*
X82191156Y-103105100D01*
X81977654Y-103062632D01*
X81776539Y-102979327D01*
X81595540Y-102858387D01*
X81441613Y-102704460D01*
X81320673Y-102523461D01*
X81237368Y-102322346D01*
X81194900Y-102108843D01*
X81194900Y-101891157D01*
X81237368Y-101677654D01*
X81320673Y-101476539D01*
X81441613Y-101295540D01*
X81595540Y-101141613D01*
X81776539Y-101020673D01*
X81977654Y-100937368D01*
X82084406Y-100916134D01*
X82191156Y-100894900D01*
X82408844Y-100894900D01*
X82515594Y-100916134D01*
G37*
G36*
X57915592Y-100916134D02*
G01*
X58022344Y-100937368D01*
X58223459Y-101020673D01*
X58404458Y-101141613D01*
X58558385Y-101295540D01*
X58679325Y-101476539D01*
X58762630Y-101677654D01*
X58805098Y-101891157D01*
X58805098Y-102108843D01*
X58762630Y-102322346D01*
X58679325Y-102523461D01*
X58558385Y-102704460D01*
X58404458Y-102858387D01*
X58223459Y-102979327D01*
X58022344Y-103062632D01*
X57915592Y-103083866D01*
X57808842Y-103105100D01*
X57591154Y-103105100D01*
X57377652Y-103062632D01*
X57176537Y-102979327D01*
X56995538Y-102858387D01*
X56841611Y-102704460D01*
X56720671Y-102523461D01*
X56637366Y-102322346D01*
X56594898Y-102108843D01*
X56594898Y-101891157D01*
X56637366Y-101677654D01*
X56720671Y-101476539D01*
X56841611Y-101295540D01*
X56995538Y-101141613D01*
X57176537Y-101020673D01*
X57377652Y-100937368D01*
X57484404Y-100916134D01*
X57591154Y-100894900D01*
X57808842Y-100894900D01*
X57915592Y-100916134D01*
G37*
G36*
X78315592Y-100916134D02*
G01*
X78422344Y-100937368D01*
X78623459Y-101020673D01*
X78804458Y-101141613D01*
X78958385Y-101295540D01*
X79079325Y-101476539D01*
X79162630Y-101677654D01*
X79205098Y-101891157D01*
X79205098Y-102108843D01*
X79162630Y-102322346D01*
X79079325Y-102523461D01*
X78958385Y-102704460D01*
X78804458Y-102858387D01*
X78623459Y-102979327D01*
X78422344Y-103062632D01*
X78315592Y-103083866D01*
X78208842Y-103105100D01*
X77991154Y-103105100D01*
X77777652Y-103062632D01*
X77576537Y-102979327D01*
X77395538Y-102858387D01*
X77241611Y-102704460D01*
X77120671Y-102523461D01*
X77037366Y-102322346D01*
X76994898Y-102108843D01*
X76994898Y-101891157D01*
X77037366Y-101677654D01*
X77120671Y-101476539D01*
X77241611Y-101295540D01*
X77395538Y-101141613D01*
X77576537Y-101020673D01*
X77777652Y-100937368D01*
X77884404Y-100916134D01*
X77991154Y-100894900D01*
X78208842Y-100894900D01*
X78315592Y-100916134D01*
G37*
G36*
X62115594Y-100916134D02*
G01*
X62222346Y-100937368D01*
X62423461Y-101020673D01*
X62604460Y-101141613D01*
X62758387Y-101295540D01*
X62879327Y-101476539D01*
X62962632Y-101677654D01*
X63005100Y-101891157D01*
X63005100Y-102108843D01*
X62962632Y-102322346D01*
X62879327Y-102523461D01*
X62758387Y-102704460D01*
X62604460Y-102858387D01*
X62423461Y-102979327D01*
X62222346Y-103062632D01*
X62115594Y-103083866D01*
X62008844Y-103105100D01*
X61791156Y-103105100D01*
X61577654Y-103062632D01*
X61376539Y-102979327D01*
X61195540Y-102858387D01*
X61041613Y-102704460D01*
X60920673Y-102523461D01*
X60837368Y-102322346D01*
X60794900Y-102108843D01*
X60794900Y-101891157D01*
X60837368Y-101677654D01*
X60920673Y-101476539D01*
X61041613Y-101295540D01*
X61195540Y-101141613D01*
X61376539Y-101020673D01*
X61577654Y-100937368D01*
X61684406Y-100916134D01*
X61791156Y-100894900D01*
X62008844Y-100894900D01*
X62115594Y-100916134D01*
G37*
G36*
X41715594Y-100916134D02*
G01*
X41822346Y-100937368D01*
X42023461Y-101020673D01*
X42204460Y-101141613D01*
X42358387Y-101295540D01*
X42479327Y-101476539D01*
X42562632Y-101677654D01*
X42605100Y-101891157D01*
X42605100Y-102108843D01*
X42562632Y-102322346D01*
X42479327Y-102523461D01*
X42358387Y-102704460D01*
X42204460Y-102858387D01*
X42023461Y-102979327D01*
X41822346Y-103062632D01*
X41715594Y-103083866D01*
X41608844Y-103105100D01*
X41391156Y-103105100D01*
X41177654Y-103062632D01*
X40976539Y-102979327D01*
X40795540Y-102858387D01*
X40641613Y-102704460D01*
X40520673Y-102523461D01*
X40437368Y-102322346D01*
X40394900Y-102108843D01*
X40394900Y-101891157D01*
X40437368Y-101677654D01*
X40520673Y-101476539D01*
X40641613Y-101295540D01*
X40795540Y-101141613D01*
X40976539Y-101020673D01*
X41177654Y-100937368D01*
X41284406Y-100916134D01*
X41391156Y-100894900D01*
X41608844Y-100894900D01*
X41715594Y-100916134D01*
G37*
G36*
X82515594Y-88316134D02*
G01*
X82622346Y-88337368D01*
X82823461Y-88420673D01*
X83004460Y-88541613D01*
X83158387Y-88695540D01*
X83279327Y-88876539D01*
X83362632Y-89077654D01*
X83405100Y-89291157D01*
X83405100Y-89508843D01*
X83362632Y-89722346D01*
X83279327Y-89923461D01*
X83158387Y-90104460D01*
X83004460Y-90258387D01*
X82823461Y-90379327D01*
X82622346Y-90462632D01*
X82515594Y-90483866D01*
X82408844Y-90505100D01*
X82191156Y-90505100D01*
X81977654Y-90462632D01*
X81776539Y-90379327D01*
X81595540Y-90258387D01*
X81441613Y-90104460D01*
X81320673Y-89923461D01*
X81237368Y-89722346D01*
X81194900Y-89508843D01*
X81194900Y-89291157D01*
X81237368Y-89077654D01*
X81320673Y-88876539D01*
X81441613Y-88695540D01*
X81595540Y-88541613D01*
X81776539Y-88420673D01*
X81977654Y-88337368D01*
X82084406Y-88316134D01*
X82191156Y-88294900D01*
X82408844Y-88294900D01*
X82515594Y-88316134D01*
G37*
G36*
X102915594Y-88316134D02*
G01*
X103022346Y-88337368D01*
X103223461Y-88420673D01*
X103404460Y-88541613D01*
X103558387Y-88695540D01*
X103679327Y-88876539D01*
X103762632Y-89077654D01*
X103805100Y-89291157D01*
X103805100Y-89508843D01*
X103762632Y-89722346D01*
X103679327Y-89923461D01*
X103558387Y-90104460D01*
X103404460Y-90258387D01*
X103223461Y-90379327D01*
X103022346Y-90462632D01*
X102915594Y-90483866D01*
X102808844Y-90505100D01*
X102591156Y-90505100D01*
X102377654Y-90462632D01*
X102176539Y-90379327D01*
X101995540Y-90258387D01*
X101841613Y-90104460D01*
X101720673Y-89923461D01*
X101637368Y-89722346D01*
X101594900Y-89508843D01*
X101594900Y-89291157D01*
X101637368Y-89077654D01*
X101720673Y-88876539D01*
X101841613Y-88695540D01*
X101995540Y-88541613D01*
X102176539Y-88420673D01*
X102377654Y-88337368D01*
X102484406Y-88316134D01*
X102591156Y-88294900D01*
X102808844Y-88294900D01*
X102915594Y-88316134D01*
G37*
G36*
X119115592Y-88316134D02*
G01*
X119222344Y-88337368D01*
X119423459Y-88420673D01*
X119604458Y-88541613D01*
X119758385Y-88695540D01*
X119879325Y-88876539D01*
X119962630Y-89077654D01*
X120005098Y-89291157D01*
X120005098Y-89508843D01*
X119962630Y-89722346D01*
X119879325Y-89923461D01*
X119758385Y-90104460D01*
X119604458Y-90258387D01*
X119423459Y-90379327D01*
X119222344Y-90462632D01*
X119115592Y-90483866D01*
X119008842Y-90505100D01*
X118791154Y-90505100D01*
X118577652Y-90462632D01*
X118376537Y-90379327D01*
X118195538Y-90258387D01*
X118041611Y-90104460D01*
X117920671Y-89923461D01*
X117837366Y-89722346D01*
X117794898Y-89508843D01*
X117794898Y-89291157D01*
X117837366Y-89077654D01*
X117920671Y-88876539D01*
X118041611Y-88695540D01*
X118195538Y-88541613D01*
X118376537Y-88420673D01*
X118577652Y-88337368D01*
X118684404Y-88316134D01*
X118791154Y-88294900D01*
X119008842Y-88294900D01*
X119115592Y-88316134D01*
G37*
G36*
X62115594Y-88316134D02*
G01*
X62222346Y-88337368D01*
X62423461Y-88420673D01*
X62604460Y-88541613D01*
X62758387Y-88695540D01*
X62879327Y-88876539D01*
X62962632Y-89077654D01*
X63005100Y-89291157D01*
X63005100Y-89508843D01*
X62962632Y-89722346D01*
X62879327Y-89923461D01*
X62758387Y-90104460D01*
X62604460Y-90258387D01*
X62423461Y-90379327D01*
X62222346Y-90462632D01*
X62008844Y-90505100D01*
X61791156Y-90505100D01*
X61577654Y-90462632D01*
X61376539Y-90379327D01*
X61195540Y-90258387D01*
X61041613Y-90104460D01*
X60920673Y-89923461D01*
X60837368Y-89722346D01*
X60794900Y-89508843D01*
X60794900Y-89291157D01*
X60837368Y-89077654D01*
X60920673Y-88876539D01*
X61041613Y-88695540D01*
X61195540Y-88541613D01*
X61376539Y-88420673D01*
X61577654Y-88337368D01*
X61684406Y-88316134D01*
X61791156Y-88294900D01*
X62008844Y-88294900D01*
X62115594Y-88316134D01*
G37*
G36*
X78315592Y-88316134D02*
G01*
X78422344Y-88337368D01*
X78623459Y-88420673D01*
X78804458Y-88541613D01*
X78958385Y-88695540D01*
X79079325Y-88876539D01*
X79162630Y-89077654D01*
X79205098Y-89291157D01*
X79205098Y-89508843D01*
X79162630Y-89722346D01*
X79079325Y-89923461D01*
X78958385Y-90104460D01*
X78804458Y-90258387D01*
X78623459Y-90379327D01*
X78422344Y-90462632D01*
X78208842Y-90505100D01*
X77991154Y-90505100D01*
X77777652Y-90462632D01*
X77576537Y-90379327D01*
X77395538Y-90258387D01*
X77241611Y-90104460D01*
X77120671Y-89923461D01*
X77037366Y-89722346D01*
X76994898Y-89508843D01*
X76994898Y-89291157D01*
X77037366Y-89077654D01*
X77120671Y-88876539D01*
X77241611Y-88695540D01*
X77395538Y-88541613D01*
X77576537Y-88420673D01*
X77777652Y-88337368D01*
X77884404Y-88316134D01*
X77991154Y-88294900D01*
X78208842Y-88294900D01*
X78315592Y-88316134D01*
G37*
G36*
X41715594Y-88316134D02*
G01*
X41822346Y-88337368D01*
X42023461Y-88420673D01*
X42204460Y-88541613D01*
X42358387Y-88695540D01*
X42479327Y-88876539D01*
X42562632Y-89077654D01*
X42605100Y-89291157D01*
X42605100Y-89508843D01*
X42562632Y-89722346D01*
X42479327Y-89923461D01*
X42358387Y-90104460D01*
X42204460Y-90258387D01*
X42023461Y-90379327D01*
X41822346Y-90462632D01*
X41608844Y-90505100D01*
X41391156Y-90505100D01*
X41177654Y-90462632D01*
X40976539Y-90379327D01*
X40795540Y-90258387D01*
X40641613Y-90104460D01*
X40520673Y-89923461D01*
X40437368Y-89722346D01*
X40394900Y-89508843D01*
X40394900Y-89291157D01*
X40437368Y-89077654D01*
X40520673Y-88876539D01*
X40641613Y-88695540D01*
X40795540Y-88541613D01*
X40976539Y-88420673D01*
X41177654Y-88337368D01*
X41284406Y-88316134D01*
X41391156Y-88294900D01*
X41608844Y-88294900D01*
X41715594Y-88316134D01*
G37*
G36*
X57915592Y-88316134D02*
G01*
X58022344Y-88337368D01*
X58223459Y-88420673D01*
X58404458Y-88541613D01*
X58558385Y-88695540D01*
X58679325Y-88876539D01*
X58762630Y-89077654D01*
X58805098Y-89291157D01*
X58805098Y-89508843D01*
X58762630Y-89722346D01*
X58679325Y-89923461D01*
X58558385Y-90104460D01*
X58404458Y-90258387D01*
X58223459Y-90379327D01*
X58022344Y-90462632D01*
X57808842Y-90505100D01*
X57591154Y-90505100D01*
X57377652Y-90462632D01*
X57176537Y-90379327D01*
X56995538Y-90258387D01*
X56841611Y-90104460D01*
X56720671Y-89923461D01*
X56637366Y-89722346D01*
X56594898Y-89508843D01*
X56594898Y-89291157D01*
X56637366Y-89077654D01*
X56720671Y-88876539D01*
X56841611Y-88695540D01*
X56995538Y-88541613D01*
X57176537Y-88420673D01*
X57377652Y-88337368D01*
X57484404Y-88316134D01*
X57591154Y-88294900D01*
X57808842Y-88294900D01*
X57915592Y-88316134D01*
G37*
G36*
X98715592Y-88316134D02*
G01*
X98822344Y-88337368D01*
X99023459Y-88420673D01*
X99204458Y-88541613D01*
X99358385Y-88695540D01*
X99479325Y-88876539D01*
X99562630Y-89077654D01*
X99605098Y-89291157D01*
X99605098Y-89508843D01*
X99562630Y-89722346D01*
X99479325Y-89923461D01*
X99358385Y-90104460D01*
X99204458Y-90258387D01*
X99023459Y-90379327D01*
X98822344Y-90462632D01*
X98715592Y-90483866D01*
X98608842Y-90505100D01*
X98391154Y-90505100D01*
X98177652Y-90462632D01*
X97976537Y-90379327D01*
X97795538Y-90258387D01*
X97641611Y-90104460D01*
X97520671Y-89923461D01*
X97437366Y-89722346D01*
X97394898Y-89508843D01*
X97394898Y-89291157D01*
X97437366Y-89077654D01*
X97520671Y-88876539D01*
X97641611Y-88695540D01*
X97795538Y-88541613D01*
X97976537Y-88420673D01*
X98177652Y-88337368D01*
X98284404Y-88316134D01*
X98391154Y-88294900D01*
X98608842Y-88294900D01*
X98715592Y-88316134D01*
G37*
G36*
X73764499Y-78303445D02*
G01*
X73801995Y-78314820D01*
X73836554Y-78333292D01*
X73866847Y-78358153D01*
X73891708Y-78388446D01*
X73910180Y-78423005D01*
X73921555Y-78460501D01*
X73926000Y-78505638D01*
X73926000Y-79244362D01*
X73921555Y-79289499D01*
X73910180Y-79326995D01*
X73891708Y-79361554D01*
X73866847Y-79391847D01*
X73836554Y-79416708D01*
X73801995Y-79435180D01*
X73764499Y-79446555D01*
X73719362Y-79451000D01*
X73080638Y-79451000D01*
X73035501Y-79446555D01*
X72998005Y-79435180D01*
X72963446Y-79416708D01*
X72933153Y-79391847D01*
X72908292Y-79361554D01*
X72889820Y-79326995D01*
X72878445Y-79289499D01*
X72874000Y-79244362D01*
X72874000Y-78505638D01*
X72878445Y-78460501D01*
X72889820Y-78423005D01*
X72908292Y-78388446D01*
X72933153Y-78358153D01*
X72963446Y-78333292D01*
X72998005Y-78314820D01*
X73035501Y-78303445D01*
X73080638Y-78299000D01*
X73719362Y-78299000D01*
X73764499Y-78303445D01*
G37*
G36*
X78189499Y-78278445D02*
G01*
X78226995Y-78289820D01*
X78261554Y-78308292D01*
X78291847Y-78333153D01*
X78316708Y-78363446D01*
X78335180Y-78398005D01*
X78346555Y-78435501D01*
X78351000Y-78480638D01*
X78351000Y-79119362D01*
X78346555Y-79164499D01*
X78335180Y-79201995D01*
X78316708Y-79236554D01*
X78291847Y-79266847D01*
X78261554Y-79291708D01*
X78226995Y-79310180D01*
X78189499Y-79321555D01*
X78144362Y-79326000D01*
X77405638Y-79326000D01*
X77360501Y-79321555D01*
X77323005Y-79310180D01*
X77288446Y-79291708D01*
X77258153Y-79266847D01*
X77233292Y-79236554D01*
X77214820Y-79201995D01*
X77203445Y-79164499D01*
X77199000Y-79119362D01*
X77199000Y-78480638D01*
X77203445Y-78435501D01*
X77214820Y-78398005D01*
X77233292Y-78363446D01*
X77258153Y-78333153D01*
X77288446Y-78308292D01*
X77323005Y-78289820D01*
X77360501Y-78278445D01*
X77405638Y-78274000D01*
X78144362Y-78274000D01*
X78189499Y-78278445D01*
G37*
G36*
X76439499Y-78278445D02*
G01*
X76476995Y-78289820D01*
X76511554Y-78308292D01*
X76541847Y-78333153D01*
X76566708Y-78363446D01*
X76585180Y-78398005D01*
X76596555Y-78435501D01*
X76601000Y-78480638D01*
X76601000Y-79119362D01*
X76596555Y-79164499D01*
X76585180Y-79201995D01*
X76566708Y-79236554D01*
X76541847Y-79266847D01*
X76511554Y-79291708D01*
X76476995Y-79310180D01*
X76439499Y-79321555D01*
X76394362Y-79326000D01*
X75655638Y-79326000D01*
X75610501Y-79321555D01*
X75573005Y-79310180D01*
X75538446Y-79291708D01*
X75508153Y-79266847D01*
X75483292Y-79236554D01*
X75464820Y-79201995D01*
X75453445Y-79164499D01*
X75449000Y-79119362D01*
X75449000Y-78480638D01*
X75453445Y-78435501D01*
X75464820Y-78398005D01*
X75483292Y-78363446D01*
X75508153Y-78333153D01*
X75538446Y-78308292D01*
X75573005Y-78289820D01*
X75610501Y-78278445D01*
X75655638Y-78274000D01*
X76394362Y-78274000D01*
X76439499Y-78278445D01*
G37*
G36*
X94664499Y-78128445D02*
G01*
X94701995Y-78139820D01*
X94736554Y-78158292D01*
X94766847Y-78183153D01*
X94791708Y-78213446D01*
X94810180Y-78248005D01*
X94821555Y-78285501D01*
X94826000Y-78330638D01*
X94826000Y-79069362D01*
X94821555Y-79114499D01*
X94810180Y-79151995D01*
X94791708Y-79186554D01*
X94766847Y-79216847D01*
X94736554Y-79241708D01*
X94701995Y-79260180D01*
X94664499Y-79271555D01*
X94619362Y-79276000D01*
X93980638Y-79276000D01*
X93935501Y-79271555D01*
X93898005Y-79260180D01*
X93863446Y-79241708D01*
X93833153Y-79216847D01*
X93808292Y-79186554D01*
X93789820Y-79151995D01*
X93778445Y-79114499D01*
X93774000Y-79069362D01*
X93774000Y-78330638D01*
X93778445Y-78285501D01*
X93789820Y-78248005D01*
X93808292Y-78213446D01*
X93833153Y-78183153D01*
X93863446Y-78158292D01*
X93898005Y-78139820D01*
X93935501Y-78128445D01*
X93980638Y-78124000D01*
X94619362Y-78124000D01*
X94664499Y-78128445D01*
G37*
G36*
X98564499Y-78178445D02*
G01*
X98601995Y-78189820D01*
X98636554Y-78208292D01*
X98666847Y-78233153D01*
X98691708Y-78263446D01*
X98710180Y-78298005D01*
X98721555Y-78335501D01*
X98726000Y-78380638D01*
X98726000Y-79019362D01*
X98721555Y-79064499D01*
X98710180Y-79101995D01*
X98691708Y-79136554D01*
X98666847Y-79166847D01*
X98636554Y-79191708D01*
X98601995Y-79210180D01*
X98564499Y-79221555D01*
X98519362Y-79226000D01*
X97780638Y-79226000D01*
X97735501Y-79221555D01*
X97698005Y-79210180D01*
X97663446Y-79191708D01*
X97633153Y-79166847D01*
X97608292Y-79136554D01*
X97589820Y-79101995D01*
X97578445Y-79064499D01*
X97574000Y-79019362D01*
X97574000Y-78380638D01*
X97578445Y-78335501D01*
X97589820Y-78298005D01*
X97608292Y-78263446D01*
X97633153Y-78233153D01*
X97663446Y-78208292D01*
X97698005Y-78189820D01*
X97735501Y-78178445D01*
X97780638Y-78174000D01*
X98519362Y-78174000D01*
X98564499Y-78178445D01*
G37*
G36*
X100314499Y-78178445D02*
G01*
X100351995Y-78189820D01*
X100386554Y-78208292D01*
X100416847Y-78233153D01*
X100441708Y-78263446D01*
X100460180Y-78298005D01*
X100471555Y-78335501D01*
X100476000Y-78380638D01*
X100476000Y-79019362D01*
X100471555Y-79064499D01*
X100460180Y-79101995D01*
X100441708Y-79136554D01*
X100416847Y-79166847D01*
X100386554Y-79191708D01*
X100351995Y-79210180D01*
X100314499Y-79221555D01*
X100269362Y-79226000D01*
X99530638Y-79226000D01*
X99485501Y-79221555D01*
X99448005Y-79210180D01*
X99413446Y-79191708D01*
X99383153Y-79166847D01*
X99358292Y-79136554D01*
X99339820Y-79101995D01*
X99328445Y-79064499D01*
X99324000Y-79019362D01*
X99324000Y-78380638D01*
X99328445Y-78335501D01*
X99339820Y-78298005D01*
X99358292Y-78263446D01*
X99383153Y-78233153D01*
X99413446Y-78208292D01*
X99448005Y-78189820D01*
X99485501Y-78178445D01*
X99530638Y-78174000D01*
X100269362Y-78174000D01*
X100314499Y-78178445D01*
G37*
G36*
X45514499Y-77578445D02*
G01*
X45551995Y-77589820D01*
X45586554Y-77608292D01*
X45616847Y-77633153D01*
X45641708Y-77663446D01*
X45660180Y-77698005D01*
X45671555Y-77735501D01*
X45676000Y-77780638D01*
X45676000Y-78419362D01*
X45671555Y-78464499D01*
X45660180Y-78501995D01*
X45641708Y-78536554D01*
X45616847Y-78566847D01*
X45586554Y-78591708D01*
X45551995Y-78610180D01*
X45514499Y-78621555D01*
X45469362Y-78626000D01*
X44730638Y-78626000D01*
X44685501Y-78621555D01*
X44648005Y-78610180D01*
X44613446Y-78591708D01*
X44583153Y-78566847D01*
X44558292Y-78536554D01*
X44539820Y-78501995D01*
X44528445Y-78464499D01*
X44524000Y-78419362D01*
X44524000Y-77780638D01*
X44528445Y-77735501D01*
X44539820Y-77698005D01*
X44558292Y-77663446D01*
X44583153Y-77633153D01*
X44613446Y-77608292D01*
X44648005Y-77589820D01*
X44685501Y-77578445D01*
X44730638Y-77574000D01*
X45469362Y-77574000D01*
X45514499Y-77578445D01*
G37*
G36*
X43764499Y-77578445D02*
G01*
X43801995Y-77589820D01*
X43836554Y-77608292D01*
X43866847Y-77633153D01*
X43891708Y-77663446D01*
X43910180Y-77698005D01*
X43921555Y-77735501D01*
X43926000Y-77780638D01*
X43926000Y-78419362D01*
X43921555Y-78464499D01*
X43910180Y-78501995D01*
X43891708Y-78536554D01*
X43866847Y-78566847D01*
X43836554Y-78591708D01*
X43801995Y-78610180D01*
X43764499Y-78621555D01*
X43719362Y-78626000D01*
X42980638Y-78626000D01*
X42935501Y-78621555D01*
X42898005Y-78610180D01*
X42863446Y-78591708D01*
X42833153Y-78566847D01*
X42808292Y-78536554D01*
X42789820Y-78501995D01*
X42778445Y-78464499D01*
X42774000Y-78419362D01*
X42774000Y-77780638D01*
X42778445Y-77735501D01*
X42789820Y-77698005D01*
X42808292Y-77663446D01*
X42833153Y-77633153D01*
X42863446Y-77608292D01*
X42898005Y-77589820D01*
X42935501Y-77578445D01*
X42980638Y-77574000D01*
X43719362Y-77574000D01*
X43764499Y-77578445D01*
G37*
G36*
X48889499Y-77403445D02*
G01*
X48926995Y-77414820D01*
X48961554Y-77433292D01*
X48991847Y-77458153D01*
X49016708Y-77488446D01*
X49035180Y-77523005D01*
X49046555Y-77560501D01*
X49051000Y-77605638D01*
X49051000Y-78344362D01*
X49046555Y-78389499D01*
X49035180Y-78426995D01*
X49016708Y-78461554D01*
X48991847Y-78491847D01*
X48961554Y-78516708D01*
X48926995Y-78535180D01*
X48889499Y-78546555D01*
X48844362Y-78551000D01*
X48205638Y-78551000D01*
X48160501Y-78546555D01*
X48123005Y-78535180D01*
X48088446Y-78516708D01*
X48058153Y-78491847D01*
X48033292Y-78461554D01*
X48014820Y-78426995D01*
X48003445Y-78389499D01*
X47999000Y-78344362D01*
X47999000Y-77605638D01*
X48003445Y-77560501D01*
X48014820Y-77523005D01*
X48033292Y-77488446D01*
X48058153Y-77458153D01*
X48088446Y-77433292D01*
X48123005Y-77414820D01*
X48160501Y-77403445D01*
X48205638Y-77399000D01*
X48844362Y-77399000D01*
X48889499Y-77403445D01*
G37*
G36*
X55964499Y-77478445D02*
G01*
X56001995Y-77489820D01*
X56036554Y-77508292D01*
X56066847Y-77533153D01*
X56091708Y-77563446D01*
X56110180Y-77598005D01*
X56121555Y-77635501D01*
X56126000Y-77680638D01*
X56126000Y-78319362D01*
X56121555Y-78364499D01*
X56110180Y-78401995D01*
X56091708Y-78436554D01*
X56066847Y-78466847D01*
X56036554Y-78491708D01*
X56001995Y-78510180D01*
X55964499Y-78521555D01*
X55919362Y-78526000D01*
X55180638Y-78526000D01*
X55135501Y-78521555D01*
X55098005Y-78510180D01*
X55063446Y-78491708D01*
X55033153Y-78466847D01*
X55008292Y-78436554D01*
X54989820Y-78401995D01*
X54978445Y-78364499D01*
X54974000Y-78319362D01*
X54974000Y-77680638D01*
X54978445Y-77635501D01*
X54989820Y-77598005D01*
X55008292Y-77563446D01*
X55033153Y-77533153D01*
X55063446Y-77508292D01*
X55098005Y-77489820D01*
X55135501Y-77478445D01*
X55180638Y-77474000D01*
X55919362Y-77474000D01*
X55964499Y-77478445D01*
G37*
G36*
X53464499Y-77378445D02*
G01*
X53501995Y-77389820D01*
X53536554Y-77408292D01*
X53566847Y-77433153D01*
X53591708Y-77463446D01*
X53610180Y-77498005D01*
X53621555Y-77535501D01*
X53626000Y-77580638D01*
X53626000Y-78319362D01*
X53621555Y-78364499D01*
X53610180Y-78401995D01*
X53591708Y-78436554D01*
X53566847Y-78466847D01*
X53536554Y-78491708D01*
X53501995Y-78510180D01*
X53464499Y-78521555D01*
X53419362Y-78526000D01*
X52780638Y-78526000D01*
X52735501Y-78521555D01*
X52698005Y-78510180D01*
X52663446Y-78491708D01*
X52633153Y-78466847D01*
X52608292Y-78436554D01*
X52589820Y-78401995D01*
X52578445Y-78364499D01*
X52574000Y-78319362D01*
X52574000Y-77580638D01*
X52578445Y-77535501D01*
X52589820Y-77498005D01*
X52608292Y-77463446D01*
X52633153Y-77433153D01*
X52663446Y-77408292D01*
X52698005Y-77389820D01*
X52735501Y-77378445D01*
X52780638Y-77374000D01*
X53419362Y-77374000D01*
X53464499Y-77378445D01*
G37*
G36*
X57714499Y-77478445D02*
G01*
X57751995Y-77489820D01*
X57786554Y-77508292D01*
X57816847Y-77533153D01*
X57841708Y-77563446D01*
X57860180Y-77598005D01*
X57871555Y-77635501D01*
X57876000Y-77680638D01*
X57876000Y-78319362D01*
X57871555Y-78364499D01*
X57860180Y-78401995D01*
X57841708Y-78436554D01*
X57816847Y-78466847D01*
X57786554Y-78491708D01*
X57751995Y-78510180D01*
X57714499Y-78521555D01*
X57669362Y-78526000D01*
X56930638Y-78526000D01*
X56885501Y-78521555D01*
X56848005Y-78510180D01*
X56813446Y-78491708D01*
X56783153Y-78466847D01*
X56758292Y-78436554D01*
X56739820Y-78401995D01*
X56728445Y-78364499D01*
X56724000Y-78319362D01*
X56724000Y-77680638D01*
X56728445Y-77635501D01*
X56739820Y-77598005D01*
X56758292Y-77563446D01*
X56783153Y-77533153D01*
X56813446Y-77508292D01*
X56848005Y-77489820D01*
X56885501Y-77478445D01*
X56930638Y-77474000D01*
X57669362Y-77474000D01*
X57714499Y-77478445D01*
G37*
G36*
X71126000Y-78031000D02*
G01*
X69274000Y-78031000D01*
X69274000Y-77379000D01*
X71126000Y-77379000D01*
X71126000Y-78031000D01*
G37*
G36*
X84526000Y-78031000D02*
G01*
X82674000Y-78031000D01*
X82674000Y-77379000D01*
X84526000Y-77379000D01*
X84526000Y-78031000D01*
G37*
G36*
X63726000Y-78031000D02*
G01*
X61874000Y-78031000D01*
X61874000Y-77379000D01*
X63726000Y-77379000D01*
X63726000Y-78031000D01*
G37*
G36*
X91926000Y-78031000D02*
G01*
X90074000Y-78031000D01*
X90074000Y-77379000D01*
X91926000Y-77379000D01*
X91926000Y-78031000D01*
G37*
G36*
X73764499Y-76553445D02*
G01*
X73801995Y-76564820D01*
X73836554Y-76583292D01*
X73866847Y-76608153D01*
X73891708Y-76638446D01*
X73910180Y-76673005D01*
X73921555Y-76710501D01*
X73926000Y-76755638D01*
X73926000Y-77494362D01*
X73921555Y-77539499D01*
X73910180Y-77576995D01*
X73891708Y-77611554D01*
X73866847Y-77641847D01*
X73836554Y-77666708D01*
X73801995Y-77685180D01*
X73764499Y-77696555D01*
X73719362Y-77701000D01*
X73080638Y-77701000D01*
X73035501Y-77696555D01*
X72998005Y-77685180D01*
X72963446Y-77666708D01*
X72933153Y-77641847D01*
X72908292Y-77611554D01*
X72889820Y-77576995D01*
X72878445Y-77539499D01*
X72874000Y-77494362D01*
X72874000Y-76755638D01*
X72878445Y-76710501D01*
X72889820Y-76673005D01*
X72908292Y-76638446D01*
X72933153Y-76608153D01*
X72963446Y-76583292D01*
X72998005Y-76564820D01*
X73035501Y-76553445D01*
X73080638Y-76549000D01*
X73719362Y-76549000D01*
X73764499Y-76553445D01*
G37*
G36*
X94664499Y-76378445D02*
G01*
X94701995Y-76389820D01*
X94736554Y-76408292D01*
X94766847Y-76433153D01*
X94791708Y-76463446D01*
X94810180Y-76498005D01*
X94821555Y-76535501D01*
X94826000Y-76580638D01*
X94826000Y-77319362D01*
X94821555Y-77364499D01*
X94810180Y-77401995D01*
X94791708Y-77436554D01*
X94766847Y-77466847D01*
X94736554Y-77491708D01*
X94701995Y-77510180D01*
X94664499Y-77521555D01*
X94619362Y-77526000D01*
X93980638Y-77526000D01*
X93935501Y-77521555D01*
X93898005Y-77510180D01*
X93863446Y-77491708D01*
X93833153Y-77466847D01*
X93808292Y-77436554D01*
X93789820Y-77401995D01*
X93778445Y-77364499D01*
X93774000Y-77319362D01*
X93774000Y-76580638D01*
X93778445Y-76535501D01*
X93789820Y-76498005D01*
X93808292Y-76463446D01*
X93833153Y-76433153D01*
X93863446Y-76408292D01*
X93898005Y-76389820D01*
X93935501Y-76378445D01*
X93980638Y-76374000D01*
X94619362Y-76374000D01*
X94664499Y-76378445D01*
G37*
G36*
X48889499Y-75653445D02*
G01*
X48926995Y-75664820D01*
X48961554Y-75683292D01*
X48991847Y-75708153D01*
X49016708Y-75738446D01*
X49035180Y-75773005D01*
X49046555Y-75810501D01*
X49051000Y-75855638D01*
X49051000Y-76594362D01*
X49046555Y-76639499D01*
X49035180Y-76676995D01*
X49016708Y-76711554D01*
X48991847Y-76741847D01*
X48961554Y-76766708D01*
X48926995Y-76785180D01*
X48889499Y-76796555D01*
X48844362Y-76801000D01*
X48205638Y-76801000D01*
X48160501Y-76796555D01*
X48123005Y-76785180D01*
X48088446Y-76766708D01*
X48058153Y-76741847D01*
X48033292Y-76711554D01*
X48014820Y-76676995D01*
X48003445Y-76639499D01*
X47999000Y-76594362D01*
X47999000Y-75855638D01*
X48003445Y-75810501D01*
X48014820Y-75773005D01*
X48033292Y-75738446D01*
X48058153Y-75708153D01*
X48088446Y-75683292D01*
X48123005Y-75664820D01*
X48160501Y-75653445D01*
X48205638Y-75649000D01*
X48844362Y-75649000D01*
X48889499Y-75653445D01*
G37*
G36*
X53464499Y-75628445D02*
G01*
X53501995Y-75639820D01*
X53536554Y-75658292D01*
X53566847Y-75683153D01*
X53591708Y-75713446D01*
X53610180Y-75748005D01*
X53621555Y-75785501D01*
X53626000Y-75830638D01*
X53626000Y-76569362D01*
X53621555Y-76614499D01*
X53610180Y-76651995D01*
X53591708Y-76686554D01*
X53566847Y-76716847D01*
X53536554Y-76741708D01*
X53501995Y-76760180D01*
X53464499Y-76771555D01*
X53419362Y-76776000D01*
X52780638Y-76776000D01*
X52735501Y-76771555D01*
X52698005Y-76760180D01*
X52663446Y-76741708D01*
X52633153Y-76716847D01*
X52608292Y-76686554D01*
X52589820Y-76651995D01*
X52578445Y-76614499D01*
X52574000Y-76569362D01*
X52574000Y-75830638D01*
X52578445Y-75785501D01*
X52589820Y-75748005D01*
X52608292Y-75713446D01*
X52633153Y-75683153D01*
X52663446Y-75658292D01*
X52698005Y-75639820D01*
X52735501Y-75628445D01*
X52780638Y-75624000D01*
X53419362Y-75624000D01*
X53464499Y-75628445D01*
G37*
G36*
X91926000Y-76761000D02*
G01*
X90074000Y-76761000D01*
X90074000Y-76109000D01*
X91926000Y-76109000D01*
X91926000Y-76761000D01*
G37*
G36*
X71126000Y-76761000D02*
G01*
X69274000Y-76761000D01*
X69274000Y-76109000D01*
X71126000Y-76109000D01*
X71126000Y-76761000D01*
G37*
G36*
X63726000Y-76761000D02*
G01*
X61874000Y-76761000D01*
X61874000Y-76109000D01*
X63726000Y-76109000D01*
X63726000Y-76761000D01*
G37*
G36*
X84526000Y-76761000D02*
G01*
X82674000Y-76761000D01*
X82674000Y-76109000D01*
X84526000Y-76109000D01*
X84526000Y-76761000D01*
G37*
G36*
X79764499Y-75003445D02*
G01*
X79801995Y-75014820D01*
X79836554Y-75033292D01*
X79866847Y-75058153D01*
X79891708Y-75088446D01*
X79910180Y-75123005D01*
X79921555Y-75160501D01*
X79926000Y-75205638D01*
X79926000Y-75944362D01*
X79921555Y-75989499D01*
X79910180Y-76026995D01*
X79891708Y-76061554D01*
X79866847Y-76091847D01*
X79836554Y-76116708D01*
X79801995Y-76135180D01*
X79764499Y-76146555D01*
X79719362Y-76151000D01*
X79080638Y-76151000D01*
X79035501Y-76146555D01*
X78998005Y-76135180D01*
X78963446Y-76116708D01*
X78933153Y-76091847D01*
X78908292Y-76061554D01*
X78889820Y-76026995D01*
X78878445Y-75989499D01*
X78874000Y-75944362D01*
X78874000Y-75205638D01*
X78878445Y-75160501D01*
X78889820Y-75123005D01*
X78908292Y-75088446D01*
X78933153Y-75058153D01*
X78963446Y-75033292D01*
X78998005Y-75014820D01*
X79035501Y-75003445D01*
X79080638Y-74999000D01*
X79719362Y-74999000D01*
X79764499Y-75003445D01*
G37*
G36*
X59864499Y-74903445D02*
G01*
X59901995Y-74914820D01*
X59936554Y-74933292D01*
X59966847Y-74958153D01*
X59991708Y-74988446D01*
X60010180Y-75023005D01*
X60021555Y-75060501D01*
X60026000Y-75105638D01*
X60026000Y-75844362D01*
X60021555Y-75889499D01*
X60010180Y-75926995D01*
X59991708Y-75961554D01*
X59966847Y-75991847D01*
X59936554Y-76016708D01*
X59901995Y-76035180D01*
X59864499Y-76046555D01*
X59819362Y-76051000D01*
X59180638Y-76051000D01*
X59135501Y-76046555D01*
X59098005Y-76035180D01*
X59063446Y-76016708D01*
X59033153Y-75991847D01*
X59008292Y-75961554D01*
X58989820Y-75926995D01*
X58978445Y-75889499D01*
X58974000Y-75844362D01*
X58974000Y-75105638D01*
X58978445Y-75060501D01*
X58989820Y-75023005D01*
X59008292Y-74988446D01*
X59033153Y-74958153D01*
X59063446Y-74933292D01*
X59098005Y-74914820D01*
X59135501Y-74903445D01*
X59180638Y-74899000D01*
X59819362Y-74899000D01*
X59864499Y-74903445D01*
G37*
G36*
X101134239Y-69311467D02*
G01*
X101448282Y-69373934D01*
X102039926Y-69619001D01*
X102366184Y-69837000D01*
X102572391Y-69974783D01*
X103025217Y-70427609D01*
X103057551Y-70476000D01*
X103380999Y-70960074D01*
X103626066Y-71551718D01*
X103626066Y-71551719D01*
X103751000Y-72179803D01*
X103751000Y-72820197D01*
X103709865Y-73026995D01*
X103626066Y-73448282D01*
X103380999Y-74039926D01*
X103095986Y-74466477D01*
X103025217Y-74572391D01*
X102572391Y-75025217D01*
X102518308Y-75061354D01*
X102039926Y-75380999D01*
X101448282Y-75626066D01*
X101161286Y-75683153D01*
X100820197Y-75751000D01*
X100179803Y-75751000D01*
X99838714Y-75683153D01*
X99551718Y-75626066D01*
X98960074Y-75380999D01*
X98481692Y-75061354D01*
X98427609Y-75025217D01*
X97974783Y-74572391D01*
X97904014Y-74466477D01*
X97619001Y-74039926D01*
X97373934Y-73448282D01*
X97290135Y-73026995D01*
X97249000Y-72820197D01*
X97249000Y-72179803D01*
X97373934Y-71551719D01*
X97373934Y-71551718D01*
X97619001Y-70960074D01*
X97942449Y-70476000D01*
X97974783Y-70427609D01*
X98427609Y-69974783D01*
X98633816Y-69837000D01*
X98960074Y-69619001D01*
X99551718Y-69373934D01*
X99865761Y-69311467D01*
X100179803Y-69249000D01*
X100820197Y-69249000D01*
X101134239Y-69311467D01*
G37*
G36*
X43134239Y-69311467D02*
G01*
X43448282Y-69373934D01*
X44039926Y-69619001D01*
X44366184Y-69837000D01*
X44572391Y-69974783D01*
X45025217Y-70427609D01*
X45057551Y-70476000D01*
X45380999Y-70960074D01*
X45626066Y-71551718D01*
X45626066Y-71551719D01*
X45751000Y-72179803D01*
X45751000Y-72820197D01*
X45709865Y-73026995D01*
X45626066Y-73448282D01*
X45380999Y-74039926D01*
X45095986Y-74466477D01*
X45025217Y-74572391D01*
X44572391Y-75025217D01*
X44518308Y-75061354D01*
X44039926Y-75380999D01*
X43448282Y-75626066D01*
X43161286Y-75683153D01*
X42820197Y-75751000D01*
X42179803Y-75751000D01*
X41838714Y-75683153D01*
X41551718Y-75626066D01*
X40960074Y-75380999D01*
X40481692Y-75061354D01*
X40427609Y-75025217D01*
X39974783Y-74572391D01*
X39904014Y-74466477D01*
X39619001Y-74039926D01*
X39373934Y-73448282D01*
X39290135Y-73026995D01*
X39249000Y-72820197D01*
X39249000Y-72179803D01*
X39373934Y-71551719D01*
X39373934Y-71551718D01*
X39619001Y-70960074D01*
X39942449Y-70476000D01*
X39974783Y-70427609D01*
X40427609Y-69974783D01*
X40633816Y-69837000D01*
X40960074Y-69619001D01*
X41551718Y-69373934D01*
X41865761Y-69311467D01*
X42179803Y-69249000D01*
X42820197Y-69249000D01*
X43134239Y-69311467D01*
G37*
G36*
X63726000Y-75491000D02*
G01*
X61874000Y-75491000D01*
X61874000Y-74839000D01*
X63726000Y-74839000D01*
X63726000Y-75491000D01*
G37*
G36*
X71126000Y-75491000D02*
G01*
X69274000Y-75491000D01*
X69274000Y-74839000D01*
X71126000Y-74839000D01*
X71126000Y-75491000D01*
G37*
G36*
X91926000Y-75491000D02*
G01*
X90074000Y-75491000D01*
X90074000Y-74839000D01*
X91926000Y-74839000D01*
X91926000Y-75491000D01*
G37*
G36*
X84526000Y-75491000D02*
G01*
X82674000Y-75491000D01*
X82674000Y-74839000D01*
X84526000Y-74839000D01*
X84526000Y-75491000D01*
G37*
G36*
X73764499Y-74028445D02*
G01*
X73801995Y-74039820D01*
X73836554Y-74058292D01*
X73866847Y-74083153D01*
X73891708Y-74113446D01*
X73910180Y-74148005D01*
X73921555Y-74185501D01*
X73926000Y-74230638D01*
X73926000Y-74969362D01*
X73921555Y-75014499D01*
X73910180Y-75051995D01*
X73891708Y-75086554D01*
X73866847Y-75116847D01*
X73836554Y-75141708D01*
X73801995Y-75160180D01*
X73764499Y-75171555D01*
X73719362Y-75176000D01*
X73080638Y-75176000D01*
X73035501Y-75171555D01*
X72998005Y-75160180D01*
X72963446Y-75141708D01*
X72933153Y-75116847D01*
X72908292Y-75086554D01*
X72889820Y-75051995D01*
X72878445Y-75014499D01*
X72874000Y-74969362D01*
X72874000Y-74230638D01*
X72878445Y-74185501D01*
X72889820Y-74148005D01*
X72908292Y-74113446D01*
X72933153Y-74083153D01*
X72963446Y-74058292D01*
X72998005Y-74039820D01*
X73035501Y-74028445D01*
X73080638Y-74024000D01*
X73719362Y-74024000D01*
X73764499Y-74028445D01*
G37*
G36*
X94664499Y-73828445D02*
G01*
X94701995Y-73839820D01*
X94736554Y-73858292D01*
X94766847Y-73883153D01*
X94791708Y-73913446D01*
X94810180Y-73948005D01*
X94821555Y-73985501D01*
X94826000Y-74030638D01*
X94826000Y-74769362D01*
X94821555Y-74814499D01*
X94810180Y-74851995D01*
X94791708Y-74886554D01*
X94766847Y-74916847D01*
X94736554Y-74941708D01*
X94701995Y-74960180D01*
X94664499Y-74971555D01*
X94619362Y-74976000D01*
X93980638Y-74976000D01*
X93935501Y-74971555D01*
X93898005Y-74960180D01*
X93863446Y-74941708D01*
X93833153Y-74916847D01*
X93808292Y-74886554D01*
X93789820Y-74851995D01*
X93778445Y-74814499D01*
X93774000Y-74769362D01*
X93774000Y-74030638D01*
X93778445Y-73985501D01*
X93789820Y-73948005D01*
X93808292Y-73913446D01*
X93833153Y-73883153D01*
X93863446Y-73858292D01*
X93898005Y-73839820D01*
X93935501Y-73828445D01*
X93980638Y-73824000D01*
X94619362Y-73824000D01*
X94664499Y-73828445D01*
G37*
G36*
X79764499Y-73253445D02*
G01*
X79801995Y-73264820D01*
X79836554Y-73283292D01*
X79866847Y-73308153D01*
X79891708Y-73338446D01*
X79910180Y-73373005D01*
X79921555Y-73410501D01*
X79926000Y-73455638D01*
X79926000Y-74194362D01*
X79921555Y-74239499D01*
X79910180Y-74276995D01*
X79891708Y-74311554D01*
X79866847Y-74341847D01*
X79836554Y-74366708D01*
X79801995Y-74385180D01*
X79764499Y-74396555D01*
X79719362Y-74401000D01*
X79080638Y-74401000D01*
X79035501Y-74396555D01*
X78998005Y-74385180D01*
X78963446Y-74366708D01*
X78933153Y-74341847D01*
X78908292Y-74311554D01*
X78889820Y-74276995D01*
X78878445Y-74239499D01*
X78874000Y-74194362D01*
X78874000Y-73455638D01*
X78878445Y-73410501D01*
X78889820Y-73373005D01*
X78908292Y-73338446D01*
X78933153Y-73308153D01*
X78963446Y-73283292D01*
X78998005Y-73264820D01*
X79035501Y-73253445D01*
X79080638Y-73249000D01*
X79719362Y-73249000D01*
X79764499Y-73253445D01*
G37*
G36*
X59864499Y-73153445D02*
G01*
X59901995Y-73164820D01*
X59936554Y-73183292D01*
X59966847Y-73208153D01*
X59991708Y-73238446D01*
X60010180Y-73273005D01*
X60021555Y-73310501D01*
X60026000Y-73355638D01*
X60026000Y-74094362D01*
X60021555Y-74139499D01*
X60010180Y-74176995D01*
X59991708Y-74211554D01*
X59966847Y-74241847D01*
X59936554Y-74266708D01*
X59901995Y-74285180D01*
X59864499Y-74296555D01*
X59819362Y-74301000D01*
X59180638Y-74301000D01*
X59135501Y-74296555D01*
X59098005Y-74285180D01*
X59063446Y-74266708D01*
X59033153Y-74241847D01*
X59008292Y-74211554D01*
X58989820Y-74176995D01*
X58978445Y-74139499D01*
X58974000Y-74094362D01*
X58974000Y-73355638D01*
X58978445Y-73310501D01*
X58989820Y-73273005D01*
X59008292Y-73238446D01*
X59033153Y-73208153D01*
X59063446Y-73183292D01*
X59098005Y-73164820D01*
X59135501Y-73153445D01*
X59180638Y-73149000D01*
X59819362Y-73149000D01*
X59864499Y-73153445D01*
G37*
G36*
X91926000Y-74221000D02*
G01*
X90074000Y-74221000D01*
X90074000Y-73569000D01*
X91926000Y-73569000D01*
X91926000Y-74221000D01*
G37*
G36*
X63726000Y-74221000D02*
G01*
X61874000Y-74221000D01*
X61874000Y-73569000D01*
X63726000Y-73569000D01*
X63726000Y-74221000D01*
G37*
G36*
X71126000Y-74221000D02*
G01*
X69274000Y-74221000D01*
X69274000Y-73569000D01*
X71126000Y-73569000D01*
X71126000Y-74221000D01*
G37*
G36*
X84526000Y-74221000D02*
G01*
X82674000Y-74221000D01*
X82674000Y-73569000D01*
X84526000Y-73569000D01*
X84526000Y-74221000D01*
G37*
G36*
X73764499Y-72278445D02*
G01*
X73801995Y-72289820D01*
X73836554Y-72308292D01*
X73866847Y-72333153D01*
X73891708Y-72363446D01*
X73910180Y-72398005D01*
X73921555Y-72435501D01*
X73926000Y-72480638D01*
X73926000Y-73219362D01*
X73921555Y-73264499D01*
X73910180Y-73301995D01*
X73891708Y-73336554D01*
X73866847Y-73366847D01*
X73836554Y-73391708D01*
X73801995Y-73410180D01*
X73764499Y-73421555D01*
X73719362Y-73426000D01*
X73080638Y-73426000D01*
X73035501Y-73421555D01*
X72998005Y-73410180D01*
X72963446Y-73391708D01*
X72933153Y-73366847D01*
X72908292Y-73336554D01*
X72889820Y-73301995D01*
X72878445Y-73264499D01*
X72874000Y-73219362D01*
X72874000Y-72480638D01*
X72878445Y-72435501D01*
X72889820Y-72398005D01*
X72908292Y-72363446D01*
X72933153Y-72333153D01*
X72963446Y-72308292D01*
X72998005Y-72289820D01*
X73035501Y-72278445D01*
X73080638Y-72274000D01*
X73719362Y-72274000D01*
X73764499Y-72278445D01*
G37*
G36*
X48764499Y-72103445D02*
G01*
X48801995Y-72114820D01*
X48836554Y-72133292D01*
X48866847Y-72158153D01*
X48891708Y-72188446D01*
X48910180Y-72223005D01*
X48921555Y-72260501D01*
X48926000Y-72305638D01*
X48926000Y-73044362D01*
X48921555Y-73089499D01*
X48910180Y-73126995D01*
X48891708Y-73161554D01*
X48866847Y-73191847D01*
X48836554Y-73216708D01*
X48801995Y-73235180D01*
X48764499Y-73246555D01*
X48719362Y-73251000D01*
X48080638Y-73251000D01*
X48035501Y-73246555D01*
X47998005Y-73235180D01*
X47963446Y-73216708D01*
X47933153Y-73191847D01*
X47908292Y-73161554D01*
X47889820Y-73126995D01*
X47878445Y-73089499D01*
X47874000Y-73044362D01*
X47874000Y-72305638D01*
X47878445Y-72260501D01*
X47889820Y-72223005D01*
X47908292Y-72188446D01*
X47933153Y-72158153D01*
X47963446Y-72133292D01*
X47998005Y-72114820D01*
X48035501Y-72103445D01*
X48080638Y-72099000D01*
X48719362Y-72099000D01*
X48764499Y-72103445D01*
G37*
G36*
X94664499Y-72078445D02*
G01*
X94701995Y-72089820D01*
X94736554Y-72108292D01*
X94766847Y-72133153D01*
X94791708Y-72163446D01*
X94810180Y-72198005D01*
X94821555Y-72235501D01*
X94826000Y-72280638D01*
X94826000Y-73019362D01*
X94821555Y-73064499D01*
X94810180Y-73101995D01*
X94791708Y-73136554D01*
X94766847Y-73166847D01*
X94736554Y-73191708D01*
X94701995Y-73210180D01*
X94664499Y-73221555D01*
X94619362Y-73226000D01*
X93980638Y-73226000D01*
X93935501Y-73221555D01*
X93898005Y-73210180D01*
X93863446Y-73191708D01*
X93833153Y-73166847D01*
X93808292Y-73136554D01*
X93789820Y-73101995D01*
X93778445Y-73064499D01*
X93774000Y-73019362D01*
X93774000Y-72280638D01*
X93778445Y-72235501D01*
X93789820Y-72198005D01*
X93808292Y-72163446D01*
X93833153Y-72133153D01*
X93863446Y-72108292D01*
X93898005Y-72089820D01*
X93935501Y-72078445D01*
X93980638Y-72074000D01*
X94619362Y-72074000D01*
X94664499Y-72078445D01*
G37*
G36*
X53664499Y-72003445D02*
G01*
X53701995Y-72014820D01*
X53736554Y-72033292D01*
X53766847Y-72058153D01*
X53791708Y-72088446D01*
X53810180Y-72123005D01*
X53821555Y-72160501D01*
X53826000Y-72205638D01*
X53826000Y-72944362D01*
X53821555Y-72989499D01*
X53810180Y-73026995D01*
X53791708Y-73061554D01*
X53766847Y-73091847D01*
X53736554Y-73116708D01*
X53701995Y-73135180D01*
X53664499Y-73146555D01*
X53619362Y-73151000D01*
X52980638Y-73151000D01*
X52935501Y-73146555D01*
X52898005Y-73135180D01*
X52863446Y-73116708D01*
X52833153Y-73091847D01*
X52808292Y-73061554D01*
X52789820Y-73026995D01*
X52778445Y-72989499D01*
X52774000Y-72944362D01*
X52774000Y-72205638D01*
X52778445Y-72160501D01*
X52789820Y-72123005D01*
X52808292Y-72088446D01*
X52833153Y-72058153D01*
X52863446Y-72033292D01*
X52898005Y-72014820D01*
X52935501Y-72003445D01*
X52980638Y-71999000D01*
X53619362Y-71999000D01*
X53664499Y-72003445D01*
G37*
G36*
X48764499Y-70353445D02*
G01*
X48801995Y-70364820D01*
X48836554Y-70383292D01*
X48866847Y-70408153D01*
X48891708Y-70438446D01*
X48910180Y-70473005D01*
X48921555Y-70510501D01*
X48926000Y-70555638D01*
X48926000Y-71294362D01*
X48921555Y-71339499D01*
X48910180Y-71376995D01*
X48891708Y-71411554D01*
X48866847Y-71441847D01*
X48836554Y-71466708D01*
X48801995Y-71485180D01*
X48764499Y-71496555D01*
X48719362Y-71501000D01*
X48080638Y-71501000D01*
X48035501Y-71496555D01*
X47998005Y-71485180D01*
X47963446Y-71466708D01*
X47933153Y-71441847D01*
X47908292Y-71411554D01*
X47889820Y-71376995D01*
X47878445Y-71339499D01*
X47874000Y-71294362D01*
X47874000Y-70555638D01*
X47878445Y-70510501D01*
X47889820Y-70473005D01*
X47908292Y-70438446D01*
X47933153Y-70408153D01*
X47963446Y-70383292D01*
X47998005Y-70364820D01*
X48035501Y-70353445D01*
X48080638Y-70349000D01*
X48719362Y-70349000D01*
X48764499Y-70353445D01*
G37*
G36*
X53664499Y-70253445D02*
G01*
X53701995Y-70264820D01*
X53736554Y-70283292D01*
X53766847Y-70308153D01*
X53791708Y-70338446D01*
X53810180Y-70373005D01*
X53821555Y-70410501D01*
X53826000Y-70455638D01*
X53826000Y-71194362D01*
X53821555Y-71239499D01*
X53810180Y-71276995D01*
X53791708Y-71311554D01*
X53766847Y-71341847D01*
X53736554Y-71366708D01*
X53701995Y-71385180D01*
X53664499Y-71396555D01*
X53619362Y-71401000D01*
X52980638Y-71401000D01*
X52935501Y-71396555D01*
X52898005Y-71385180D01*
X52863446Y-71366708D01*
X52833153Y-71341847D01*
X52808292Y-71311554D01*
X52789820Y-71276995D01*
X52778445Y-71239499D01*
X52774000Y-71194362D01*
X52774000Y-70455638D01*
X52778445Y-70410501D01*
X52789820Y-70373005D01*
X52808292Y-70338446D01*
X52833153Y-70308153D01*
X52863446Y-70283292D01*
X52898005Y-70264820D01*
X52935501Y-70253445D01*
X52980638Y-70249000D01*
X53619362Y-70249000D01*
X53664499Y-70253445D01*
G37*
G36*
X68814499Y-69578445D02*
G01*
X68851995Y-69589820D01*
X68886554Y-69608292D01*
X68916847Y-69633153D01*
X68941708Y-69663446D01*
X68960180Y-69698005D01*
X68971555Y-69735501D01*
X68976000Y-69780638D01*
X68976000Y-70419362D01*
X68971555Y-70464499D01*
X68960180Y-70501995D01*
X68941708Y-70536554D01*
X68916847Y-70566847D01*
X68886554Y-70591708D01*
X68851995Y-70610180D01*
X68814499Y-70621555D01*
X68769362Y-70626000D01*
X68030638Y-70626000D01*
X67985501Y-70621555D01*
X67948005Y-70610180D01*
X67913446Y-70591708D01*
X67883153Y-70566847D01*
X67858292Y-70536554D01*
X67839820Y-70501995D01*
X67828445Y-70464499D01*
X67824000Y-70419362D01*
X67824000Y-69780638D01*
X67828445Y-69735501D01*
X67839820Y-69698005D01*
X67858292Y-69663446D01*
X67883153Y-69633153D01*
X67913446Y-69608292D01*
X67948005Y-69589820D01*
X67985501Y-69578445D01*
X68030638Y-69574000D01*
X68769362Y-69574000D01*
X68814499Y-69578445D01*
G37*
G36*
X67064499Y-69578445D02*
G01*
X67101995Y-69589820D01*
X67136554Y-69608292D01*
X67166847Y-69633153D01*
X67191708Y-69663446D01*
X67210180Y-69698005D01*
X67221555Y-69735501D01*
X67226000Y-69780638D01*
X67226000Y-70419362D01*
X67221555Y-70464499D01*
X67210180Y-70501995D01*
X67191708Y-70536554D01*
X67166847Y-70566847D01*
X67136554Y-70591708D01*
X67101995Y-70610180D01*
X67064499Y-70621555D01*
X67019362Y-70626000D01*
X66280638Y-70626000D01*
X66235501Y-70621555D01*
X66198005Y-70610180D01*
X66163446Y-70591708D01*
X66133153Y-70566847D01*
X66108292Y-70536554D01*
X66089820Y-70501995D01*
X66078445Y-70464499D01*
X66074000Y-70419362D01*
X66074000Y-69780638D01*
X66078445Y-69735501D01*
X66089820Y-69698005D01*
X66108292Y-69663446D01*
X66133153Y-69633153D01*
X66163446Y-69608292D01*
X66198005Y-69589820D01*
X66235501Y-69578445D01*
X66280638Y-69574000D01*
X67019362Y-69574000D01*
X67064499Y-69578445D01*
G37*
G36*
X86814499Y-69428445D02*
G01*
X86851995Y-69439820D01*
X86886554Y-69458292D01*
X86916847Y-69483153D01*
X86941708Y-69513446D01*
X86960180Y-69548005D01*
X86971555Y-69585501D01*
X86976000Y-69630638D01*
X86976000Y-70269362D01*
X86971555Y-70314499D01*
X86960180Y-70351995D01*
X86941708Y-70386554D01*
X86916847Y-70416847D01*
X86886554Y-70441708D01*
X86851995Y-70460180D01*
X86814499Y-70471555D01*
X86769362Y-70476000D01*
X86030638Y-70476000D01*
X85985501Y-70471555D01*
X85948005Y-70460180D01*
X85913446Y-70441708D01*
X85883153Y-70416847D01*
X85858292Y-70386554D01*
X85839820Y-70351995D01*
X85828445Y-70314499D01*
X85824000Y-70269362D01*
X85824000Y-69630638D01*
X85828445Y-69585501D01*
X85839820Y-69548005D01*
X85858292Y-69513446D01*
X85883153Y-69483153D01*
X85913446Y-69458292D01*
X85948005Y-69439820D01*
X85985501Y-69428445D01*
X86030638Y-69424000D01*
X86769362Y-69424000D01*
X86814499Y-69428445D01*
G37*
G36*
X88564499Y-69428445D02*
G01*
X88601995Y-69439820D01*
X88636554Y-69458292D01*
X88666847Y-69483153D01*
X88691708Y-69513446D01*
X88710180Y-69548005D01*
X88721555Y-69585501D01*
X88726000Y-69630638D01*
X88726000Y-70269362D01*
X88721555Y-70314499D01*
X88710180Y-70351995D01*
X88691708Y-70386554D01*
X88666847Y-70416847D01*
X88636554Y-70441708D01*
X88601995Y-70460180D01*
X88564499Y-70471555D01*
X88519362Y-70476000D01*
X87780638Y-70476000D01*
X87735501Y-70471555D01*
X87698005Y-70460180D01*
X87663446Y-70441708D01*
X87633153Y-70416847D01*
X87608292Y-70386554D01*
X87589820Y-70351995D01*
X87578445Y-70314499D01*
X87574000Y-70269362D01*
X87574000Y-69630638D01*
X87578445Y-69585501D01*
X87589820Y-69548005D01*
X87608292Y-69513446D01*
X87633153Y-69483153D01*
X87663446Y-69458292D01*
X87698005Y-69439820D01*
X87735501Y-69428445D01*
X87780638Y-69424000D01*
X88519362Y-69424000D01*
X88564499Y-69428445D01*
G37*
G36*
X117551000Y-67851000D02*
G01*
X115249000Y-67851000D01*
X115249000Y-64949000D01*
X117551000Y-64949000D01*
X117551000Y-67851000D01*
G37*
G36*
X100764499Y-64778445D02*
G01*
X100801995Y-64789820D01*
X100836554Y-64808292D01*
X100866847Y-64833153D01*
X100891708Y-64863446D01*
X100910180Y-64898005D01*
X100921555Y-64935501D01*
X100926000Y-64980638D01*
X100926000Y-65619362D01*
X100921555Y-65664499D01*
X100910180Y-65701995D01*
X100891708Y-65736554D01*
X100866847Y-65766847D01*
X100836554Y-65791708D01*
X100801995Y-65810180D01*
X100764499Y-65821555D01*
X100719362Y-65826000D01*
X99980638Y-65826000D01*
X99935501Y-65821555D01*
X99898005Y-65810180D01*
X99863446Y-65791708D01*
X99833153Y-65766847D01*
X99808292Y-65736554D01*
X99789820Y-65701995D01*
X99778445Y-65664499D01*
X99774000Y-65619362D01*
X99774000Y-64980638D01*
X99778445Y-64935501D01*
X99789820Y-64898005D01*
X99808292Y-64863446D01*
X99833153Y-64833153D01*
X99863446Y-64808292D01*
X99898005Y-64789820D01*
X99935501Y-64778445D01*
X99980638Y-64774000D01*
X100719362Y-64774000D01*
X100764499Y-64778445D01*
G37*
G36*
X99014499Y-64778445D02*
G01*
X99051995Y-64789820D01*
X99086554Y-64808292D01*
X99116847Y-64833153D01*
X99141708Y-64863446D01*
X99160180Y-64898005D01*
X99171555Y-64935501D01*
X99176000Y-64980638D01*
X99176000Y-65619362D01*
X99171555Y-65664499D01*
X99160180Y-65701995D01*
X99141708Y-65736554D01*
X99116847Y-65766847D01*
X99086554Y-65791708D01*
X99051995Y-65810180D01*
X99014499Y-65821555D01*
X98969362Y-65826000D01*
X98230638Y-65826000D01*
X98185501Y-65821555D01*
X98148005Y-65810180D01*
X98113446Y-65791708D01*
X98083153Y-65766847D01*
X98058292Y-65736554D01*
X98039820Y-65701995D01*
X98028445Y-65664499D01*
X98024000Y-65619362D01*
X98024000Y-64980638D01*
X98028445Y-64935501D01*
X98039820Y-64898005D01*
X98058292Y-64863446D01*
X98083153Y-64833153D01*
X98113446Y-64808292D01*
X98148005Y-64789820D01*
X98185501Y-64778445D01*
X98230638Y-64774000D01*
X98969362Y-64774000D01*
X99014499Y-64778445D01*
G37*
G36*
X106351000Y-64901000D02*
G01*
X103649000Y-64901000D01*
X103649000Y-61999000D01*
X106351000Y-61999000D01*
X106351000Y-64901000D01*
G37*
G36*
X110413512Y-61803927D02*
G01*
X110562812Y-61833624D01*
X110726784Y-61901544D01*
X110874354Y-62000147D01*
X110999853Y-62125646D01*
X111098456Y-62273216D01*
X111166376Y-62437188D01*
X111201000Y-62611259D01*
X111201000Y-62788741D01*
X111166376Y-62962812D01*
X111098456Y-63126784D01*
X110999853Y-63274354D01*
X110874354Y-63399853D01*
X110726784Y-63498456D01*
X110562812Y-63566376D01*
X110413512Y-63596073D01*
X110388742Y-63601000D01*
X110211258Y-63601000D01*
X110186488Y-63596073D01*
X110037188Y-63566376D01*
X109873216Y-63498456D01*
X109725646Y-63399853D01*
X109600147Y-63274354D01*
X109501544Y-63126784D01*
X109433624Y-62962812D01*
X109399000Y-62788741D01*
X109399000Y-62611259D01*
X109433624Y-62437188D01*
X109501544Y-62273216D01*
X109600147Y-62125646D01*
X109725646Y-62000147D01*
X109873216Y-61901544D01*
X110037188Y-61833624D01*
X110186488Y-61803927D01*
X110211258Y-61799000D01*
X110388742Y-61799000D01*
X110413512Y-61803927D01*
G37*
G36*
X117413512Y-61803927D02*
G01*
X117562812Y-61833624D01*
X117726784Y-61901544D01*
X117874354Y-62000147D01*
X117999853Y-62125646D01*
X118098456Y-62273216D01*
X118166376Y-62437188D01*
X118201000Y-62611259D01*
X118201000Y-62788741D01*
X118166376Y-62962812D01*
X118098456Y-63126784D01*
X117999853Y-63274354D01*
X117874354Y-63399853D01*
X117726784Y-63498456D01*
X117562812Y-63566376D01*
X117413512Y-63596073D01*
X117388742Y-63601000D01*
X117211258Y-63601000D01*
X117186488Y-63596073D01*
X117037188Y-63566376D01*
X116873216Y-63498456D01*
X116725646Y-63399853D01*
X116600147Y-63274354D01*
X116501544Y-63126784D01*
X116433624Y-62962812D01*
X116399000Y-62788741D01*
X116399000Y-62611259D01*
X116433624Y-62437188D01*
X116501544Y-62273216D01*
X116600147Y-62125646D01*
X116725646Y-62000147D01*
X116873216Y-61901544D01*
X117037188Y-61833624D01*
X117186488Y-61803927D01*
X117211258Y-61799000D01*
X117388742Y-61799000D01*
X117413512Y-61803927D01*
G37*
G36*
X99014499Y-61878445D02*
G01*
X99051995Y-61889820D01*
X99086554Y-61908292D01*
X99116847Y-61933153D01*
X99141708Y-61963446D01*
X99160180Y-61998005D01*
X99171555Y-62035501D01*
X99176000Y-62080638D01*
X99176000Y-62719362D01*
X99171555Y-62764499D01*
X99160180Y-62801995D01*
X99141708Y-62836554D01*
X99116847Y-62866847D01*
X99086554Y-62891708D01*
X99051995Y-62910180D01*
X99014499Y-62921555D01*
X98969362Y-62926000D01*
X98230638Y-62926000D01*
X98185501Y-62921555D01*
X98148005Y-62910180D01*
X98113446Y-62891708D01*
X98083153Y-62866847D01*
X98058292Y-62836554D01*
X98039820Y-62801995D01*
X98028445Y-62764499D01*
X98024000Y-62719362D01*
X98024000Y-62080638D01*
X98028445Y-62035501D01*
X98039820Y-61998005D01*
X98058292Y-61963446D01*
X98083153Y-61933153D01*
X98113446Y-61908292D01*
X98148005Y-61889820D01*
X98185501Y-61878445D01*
X98230638Y-61874000D01*
X98969362Y-61874000D01*
X99014499Y-61878445D01*
G37*
G36*
X96014499Y-61878445D02*
G01*
X96051995Y-61889820D01*
X96086554Y-61908292D01*
X96116847Y-61933153D01*
X96141708Y-61963446D01*
X96160180Y-61998005D01*
X96171555Y-62035501D01*
X96176000Y-62080638D01*
X96176000Y-62719362D01*
X96171555Y-62764499D01*
X96160180Y-62801995D01*
X96141708Y-62836554D01*
X96116847Y-62866847D01*
X96086554Y-62891708D01*
X96051995Y-62910180D01*
X96014499Y-62921555D01*
X95969362Y-62926000D01*
X95230638Y-62926000D01*
X95185501Y-62921555D01*
X95148005Y-62910180D01*
X95113446Y-62891708D01*
X95083153Y-62866847D01*
X95058292Y-62836554D01*
X95039820Y-62801995D01*
X95028445Y-62764499D01*
X95024000Y-62719362D01*
X95024000Y-62080638D01*
X95028445Y-62035501D01*
X95039820Y-61998005D01*
X95058292Y-61963446D01*
X95083153Y-61933153D01*
X95113446Y-61908292D01*
X95148005Y-61889820D01*
X95185501Y-61878445D01*
X95230638Y-61874000D01*
X95969362Y-61874000D01*
X96014499Y-61878445D01*
G37*
G36*
X94264499Y-61878445D02*
G01*
X94301995Y-61889820D01*
X94336554Y-61908292D01*
X94366847Y-61933153D01*
X94391708Y-61963446D01*
X94410180Y-61998005D01*
X94421555Y-62035501D01*
X94426000Y-62080638D01*
X94426000Y-62719362D01*
X94421555Y-62764499D01*
X94410180Y-62801995D01*
X94391708Y-62836554D01*
X94366847Y-62866847D01*
X94336554Y-62891708D01*
X94301995Y-62910180D01*
X94264499Y-62921555D01*
X94219362Y-62926000D01*
X93480638Y-62926000D01*
X93435501Y-62921555D01*
X93398005Y-62910180D01*
X93363446Y-62891708D01*
X93333153Y-62866847D01*
X93308292Y-62836554D01*
X93289820Y-62801995D01*
X93278445Y-62764499D01*
X93274000Y-62719362D01*
X93274000Y-62080638D01*
X93278445Y-62035501D01*
X93289820Y-61998005D01*
X93308292Y-61963446D01*
X93333153Y-61933153D01*
X93363446Y-61908292D01*
X93398005Y-61889820D01*
X93435501Y-61878445D01*
X93480638Y-61874000D01*
X94219362Y-61874000D01*
X94264499Y-61878445D01*
G37*
G36*
X100764499Y-61878445D02*
G01*
X100801995Y-61889820D01*
X100836554Y-61908292D01*
X100866847Y-61933153D01*
X100891708Y-61963446D01*
X100910180Y-61998005D01*
X100921555Y-62035501D01*
X100926000Y-62080638D01*
X100926000Y-62719362D01*
X100921555Y-62764499D01*
X100910180Y-62801995D01*
X100891708Y-62836554D01*
X100866847Y-62866847D01*
X100836554Y-62891708D01*
X100801995Y-62910180D01*
X100764499Y-62921555D01*
X100719362Y-62926000D01*
X99980638Y-62926000D01*
X99935501Y-62921555D01*
X99898005Y-62910180D01*
X99863446Y-62891708D01*
X99833153Y-62866847D01*
X99808292Y-62836554D01*
X99789820Y-62801995D01*
X99778445Y-62764499D01*
X99774000Y-62719362D01*
X99774000Y-62080638D01*
X99778445Y-62035501D01*
X99789820Y-61998005D01*
X99808292Y-61963446D01*
X99833153Y-61933153D01*
X99863446Y-61908292D01*
X99898005Y-61889820D01*
X99935501Y-61878445D01*
X99980638Y-61874000D01*
X100719362Y-61874000D01*
X100764499Y-61878445D01*
G37*
G36*
X110451000Y-60451000D02*
G01*
X107549000Y-60451000D01*
X107549000Y-57549000D01*
X110451000Y-57549000D01*
X110451000Y-60451000D01*
G37*
G36*
X119551000Y-60451000D02*
G01*
X117249000Y-60451000D01*
X117249000Y-57549000D01*
X119551000Y-57549000D01*
X119551000Y-60451000D01*
G37*
G36*
X50926000Y-59936000D02*
G01*
X49074000Y-59936000D01*
X49074000Y-59284000D01*
X50926000Y-59284000D01*
X50926000Y-59936000D01*
G37*
G36*
X63326000Y-59936000D02*
G01*
X61474000Y-59936000D01*
X61474000Y-59284000D01*
X63326000Y-59284000D01*
X63326000Y-59936000D01*
G37*
G36*
X55926000Y-59936000D02*
G01*
X54074000Y-59936000D01*
X54074000Y-59284000D01*
X55926000Y-59284000D01*
X55926000Y-59936000D01*
G37*
G36*
X43526000Y-59936000D02*
G01*
X41674000Y-59936000D01*
X41674000Y-59284000D01*
X43526000Y-59284000D01*
X43526000Y-59936000D01*
G37*
G36*
X43526000Y-58666000D02*
G01*
X41674000Y-58666000D01*
X41674000Y-58014000D01*
X43526000Y-58014000D01*
X43526000Y-58666000D01*
G37*
G36*
X50926000Y-58666000D02*
G01*
X49074000Y-58666000D01*
X49074000Y-58014000D01*
X50926000Y-58014000D01*
X50926000Y-58666000D01*
G37*
G36*
X63326000Y-58666000D02*
G01*
X61474000Y-58666000D01*
X61474000Y-58014000D01*
X63326000Y-58014000D01*
X63326000Y-58666000D01*
G37*
G36*
X55926000Y-58666000D02*
G01*
X54074000Y-58666000D01*
X54074000Y-58014000D01*
X55926000Y-58014000D01*
X55926000Y-58666000D01*
G37*
G36*
X99039499Y-56878445D02*
G01*
X99076995Y-56889820D01*
X99111554Y-56908292D01*
X99141847Y-56933153D01*
X99166708Y-56963446D01*
X99185180Y-56998005D01*
X99196555Y-57035501D01*
X99201000Y-57080638D01*
X99201000Y-57719362D01*
X99196555Y-57764499D01*
X99185180Y-57801995D01*
X99166708Y-57836554D01*
X99141847Y-57866847D01*
X99111554Y-57891708D01*
X99076995Y-57910180D01*
X99039499Y-57921555D01*
X98994362Y-57926000D01*
X98255638Y-57926000D01*
X98210501Y-57921555D01*
X98173005Y-57910180D01*
X98138446Y-57891708D01*
X98108153Y-57866847D01*
X98083292Y-57836554D01*
X98064820Y-57801995D01*
X98053445Y-57764499D01*
X98049000Y-57719362D01*
X98049000Y-57080638D01*
X98053445Y-57035501D01*
X98064820Y-56998005D01*
X98083292Y-56963446D01*
X98108153Y-56933153D01*
X98138446Y-56908292D01*
X98173005Y-56889820D01*
X98210501Y-56878445D01*
X98255638Y-56874000D01*
X98994362Y-56874000D01*
X99039499Y-56878445D01*
G37*
G36*
X100789499Y-56878445D02*
G01*
X100826995Y-56889820D01*
X100861554Y-56908292D01*
X100891847Y-56933153D01*
X100916708Y-56963446D01*
X100935180Y-56998005D01*
X100946555Y-57035501D01*
X100951000Y-57080638D01*
X100951000Y-57719362D01*
X100946555Y-57764499D01*
X100935180Y-57801995D01*
X100916708Y-57836554D01*
X100891847Y-57866847D01*
X100861554Y-57891708D01*
X100826995Y-57910180D01*
X100789499Y-57921555D01*
X100744362Y-57926000D01*
X100005638Y-57926000D01*
X99960501Y-57921555D01*
X99923005Y-57910180D01*
X99888446Y-57891708D01*
X99858153Y-57866847D01*
X99833292Y-57836554D01*
X99814820Y-57801995D01*
X99803445Y-57764499D01*
X99799000Y-57719362D01*
X99799000Y-57080638D01*
X99803445Y-57035501D01*
X99814820Y-56998005D01*
X99833292Y-56963446D01*
X99858153Y-56933153D01*
X99888446Y-56908292D01*
X99923005Y-56889820D01*
X99960501Y-56878445D01*
X100005638Y-56874000D01*
X100744362Y-56874000D01*
X100789499Y-56878445D01*
G37*
G36*
X96014499Y-56878445D02*
G01*
X96051995Y-56889820D01*
X96086554Y-56908292D01*
X96116847Y-56933153D01*
X96141708Y-56963446D01*
X96160180Y-56998005D01*
X96171555Y-57035501D01*
X96176000Y-57080638D01*
X96176000Y-57719362D01*
X96171555Y-57764499D01*
X96160180Y-57801995D01*
X96141708Y-57836554D01*
X96116847Y-57866847D01*
X96086554Y-57891708D01*
X96051995Y-57910180D01*
X96014499Y-57921555D01*
X95969362Y-57926000D01*
X95230638Y-57926000D01*
X95185501Y-57921555D01*
X95148005Y-57910180D01*
X95113446Y-57891708D01*
X95083153Y-57866847D01*
X95058292Y-57836554D01*
X95039820Y-57801995D01*
X95028445Y-57764499D01*
X95024000Y-57719362D01*
X95024000Y-57080638D01*
X95028445Y-57035501D01*
X95039820Y-56998005D01*
X95058292Y-56963446D01*
X95083153Y-56933153D01*
X95113446Y-56908292D01*
X95148005Y-56889820D01*
X95185501Y-56878445D01*
X95230638Y-56874000D01*
X95969362Y-56874000D01*
X96014499Y-56878445D01*
G37*
G36*
X94264499Y-56878445D02*
G01*
X94301995Y-56889820D01*
X94336554Y-56908292D01*
X94366847Y-56933153D01*
X94391708Y-56963446D01*
X94410180Y-56998005D01*
X94421555Y-57035501D01*
X94426000Y-57080638D01*
X94426000Y-57719362D01*
X94421555Y-57764499D01*
X94410180Y-57801995D01*
X94391708Y-57836554D01*
X94366847Y-57866847D01*
X94336554Y-57891708D01*
X94301995Y-57910180D01*
X94264499Y-57921555D01*
X94219362Y-57926000D01*
X93480638Y-57926000D01*
X93435501Y-57921555D01*
X93398005Y-57910180D01*
X93363446Y-57891708D01*
X93333153Y-57866847D01*
X93308292Y-57836554D01*
X93289820Y-57801995D01*
X93278445Y-57764499D01*
X93274000Y-57719362D01*
X93274000Y-57080638D01*
X93278445Y-57035501D01*
X93289820Y-56998005D01*
X93308292Y-56963446D01*
X93333153Y-56933153D01*
X93363446Y-56908292D01*
X93398005Y-56889820D01*
X93435501Y-56878445D01*
X93480638Y-56874000D01*
X94219362Y-56874000D01*
X94264499Y-56878445D01*
G37*
G36*
X63326000Y-57396000D02*
G01*
X61474000Y-57396000D01*
X61474000Y-56744000D01*
X63326000Y-56744000D01*
X63326000Y-57396000D01*
G37*
G36*
X55926000Y-57396000D02*
G01*
X54074000Y-57396000D01*
X54074000Y-56744000D01*
X55926000Y-56744000D01*
X55926000Y-57396000D01*
G37*
G36*
X50926000Y-57396000D02*
G01*
X49074000Y-57396000D01*
X49074000Y-56744000D01*
X50926000Y-56744000D01*
X50926000Y-57396000D01*
G37*
G36*
X43526000Y-57396000D02*
G01*
X41674000Y-57396000D01*
X41674000Y-56744000D01*
X43526000Y-56744000D01*
X43526000Y-57396000D01*
G37*
G36*
X80600209Y-56128445D02*
G01*
X80637705Y-56139820D01*
X80672264Y-56158292D01*
X80702557Y-56183153D01*
X80727418Y-56213446D01*
X80745890Y-56248005D01*
X80757265Y-56285501D01*
X80761710Y-56330638D01*
X80761710Y-57069362D01*
X80757265Y-57114499D01*
X80745890Y-57151995D01*
X80727418Y-57186554D01*
X80702557Y-57216847D01*
X80672264Y-57241708D01*
X80637705Y-57260180D01*
X80600209Y-57271555D01*
X80555072Y-57276000D01*
X79916348Y-57276000D01*
X79871211Y-57271555D01*
X79833715Y-57260180D01*
X79799156Y-57241708D01*
X79768863Y-57216847D01*
X79744002Y-57186554D01*
X79725530Y-57151995D01*
X79714155Y-57114499D01*
X79709710Y-57069362D01*
X79709710Y-56330638D01*
X79714155Y-56285501D01*
X79725530Y-56248005D01*
X79744002Y-56213446D01*
X79768863Y-56183153D01*
X79799156Y-56158292D01*
X79833715Y-56139820D01*
X79871211Y-56128445D01*
X79916348Y-56124000D01*
X80555072Y-56124000D01*
X80600209Y-56128445D01*
G37*
G36*
X78985924Y-56128445D02*
G01*
X79023420Y-56139820D01*
X79057979Y-56158292D01*
X79088272Y-56183153D01*
X79113133Y-56213446D01*
X79131605Y-56248005D01*
X79142980Y-56285501D01*
X79147425Y-56330638D01*
X79147425Y-57069362D01*
X79142980Y-57114499D01*
X79131605Y-57151995D01*
X79113133Y-57186554D01*
X79088272Y-57216847D01*
X79057979Y-57241708D01*
X79023420Y-57260180D01*
X78985924Y-57271555D01*
X78940787Y-57276000D01*
X78302063Y-57276000D01*
X78256926Y-57271555D01*
X78219430Y-57260180D01*
X78184871Y-57241708D01*
X78154578Y-57216847D01*
X78129717Y-57186554D01*
X78111245Y-57151995D01*
X78099870Y-57114499D01*
X78095425Y-57069362D01*
X78095425Y-56330638D01*
X78099870Y-56285501D01*
X78111245Y-56248005D01*
X78129717Y-56213446D01*
X78154578Y-56183153D01*
X78184871Y-56158292D01*
X78219430Y-56139820D01*
X78256926Y-56128445D01*
X78302063Y-56124000D01*
X78940787Y-56124000D01*
X78985924Y-56128445D01*
G37*
G36*
X74114499Y-56028445D02*
G01*
X74151995Y-56039820D01*
X74186554Y-56058292D01*
X74216847Y-56083153D01*
X74241708Y-56113446D01*
X74260180Y-56148005D01*
X74271555Y-56185501D01*
X74276000Y-56230638D01*
X74276000Y-56969362D01*
X74271555Y-57014499D01*
X74260180Y-57051995D01*
X74241708Y-57086554D01*
X74216847Y-57116847D01*
X74186554Y-57141708D01*
X74151995Y-57160180D01*
X74114499Y-57171555D01*
X74069362Y-57176000D01*
X73430638Y-57176000D01*
X73385501Y-57171555D01*
X73348005Y-57160180D01*
X73313446Y-57141708D01*
X73283153Y-57116847D01*
X73258292Y-57086554D01*
X73239820Y-57051995D01*
X73228445Y-57014499D01*
X73224000Y-56969362D01*
X73224000Y-56230638D01*
X73228445Y-56185501D01*
X73239820Y-56148005D01*
X73258292Y-56113446D01*
X73283153Y-56083153D01*
X73313446Y-56058292D01*
X73348005Y-56039820D01*
X73385501Y-56028445D01*
X73430638Y-56024000D01*
X74069362Y-56024000D01*
X74114499Y-56028445D01*
G37*
G36*
X72528784Y-56028445D02*
G01*
X72566280Y-56039820D01*
X72600839Y-56058292D01*
X72631132Y-56083153D01*
X72655993Y-56113446D01*
X72674465Y-56148005D01*
X72685840Y-56185501D01*
X72690285Y-56230638D01*
X72690285Y-56969362D01*
X72685840Y-57014499D01*
X72674465Y-57051995D01*
X72655993Y-57086554D01*
X72631132Y-57116847D01*
X72600839Y-57141708D01*
X72566280Y-57160180D01*
X72528784Y-57171555D01*
X72483647Y-57176000D01*
X71844923Y-57176000D01*
X71799786Y-57171555D01*
X71762290Y-57160180D01*
X71727731Y-57141708D01*
X71697438Y-57116847D01*
X71672577Y-57086554D01*
X71654105Y-57051995D01*
X71642730Y-57014499D01*
X71638285Y-56969362D01*
X71638285Y-56230638D01*
X71642730Y-56185501D01*
X71654105Y-56148005D01*
X71672577Y-56113446D01*
X71697438Y-56083153D01*
X71727731Y-56058292D01*
X71762290Y-56039820D01*
X71799786Y-56028445D01*
X71844923Y-56024000D01*
X72483647Y-56024000D01*
X72528784Y-56028445D01*
G37*
G36*
X63326000Y-56126000D02*
G01*
X61474000Y-56126000D01*
X61474000Y-55474000D01*
X63326000Y-55474000D01*
X63326000Y-56126000D01*
G37*
G36*
X55926000Y-56126000D02*
G01*
X54074000Y-56126000D01*
X54074000Y-55474000D01*
X55926000Y-55474000D01*
X55926000Y-56126000D01*
G37*
G36*
X43526000Y-56126000D02*
G01*
X41674000Y-56126000D01*
X41674000Y-55474000D01*
X43526000Y-55474000D01*
X43526000Y-56126000D01*
G37*
G36*
X50926000Y-56126000D02*
G01*
X49074000Y-56126000D01*
X49074000Y-55474000D01*
X50926000Y-55474000D01*
X50926000Y-56126000D01*
G37*
G36*
X80600209Y-54378445D02*
G01*
X80637705Y-54389820D01*
X80672264Y-54408292D01*
X80702557Y-54433153D01*
X80727418Y-54463446D01*
X80745890Y-54498005D01*
X80757265Y-54535501D01*
X80761710Y-54580638D01*
X80761710Y-55319362D01*
X80757265Y-55364499D01*
X80745890Y-55401995D01*
X80727418Y-55436554D01*
X80702557Y-55466847D01*
X80672264Y-55491708D01*
X80637705Y-55510180D01*
X80600209Y-55521555D01*
X80555072Y-55526000D01*
X79916348Y-55526000D01*
X79871211Y-55521555D01*
X79833715Y-55510180D01*
X79799156Y-55491708D01*
X79768863Y-55466847D01*
X79744002Y-55436554D01*
X79725530Y-55401995D01*
X79714155Y-55364499D01*
X79709710Y-55319362D01*
X79709710Y-54580638D01*
X79714155Y-54535501D01*
X79725530Y-54498005D01*
X79744002Y-54463446D01*
X79768863Y-54433153D01*
X79799156Y-54408292D01*
X79833715Y-54389820D01*
X79871211Y-54378445D01*
X79916348Y-54374000D01*
X80555072Y-54374000D01*
X80600209Y-54378445D01*
G37*
G36*
X78985924Y-54378445D02*
G01*
X79023420Y-54389820D01*
X79057979Y-54408292D01*
X79088272Y-54433153D01*
X79113133Y-54463446D01*
X79131605Y-54498005D01*
X79142980Y-54535501D01*
X79147425Y-54580638D01*
X79147425Y-55319362D01*
X79142980Y-55364499D01*
X79131605Y-55401995D01*
X79113133Y-55436554D01*
X79088272Y-55466847D01*
X79057979Y-55491708D01*
X79023420Y-55510180D01*
X78985924Y-55521555D01*
X78940787Y-55526000D01*
X78302063Y-55526000D01*
X78256926Y-55521555D01*
X78219430Y-55510180D01*
X78184871Y-55491708D01*
X78154578Y-55466847D01*
X78129717Y-55436554D01*
X78111245Y-55401995D01*
X78099870Y-55364499D01*
X78095425Y-55319362D01*
X78095425Y-54580638D01*
X78099870Y-54535501D01*
X78111245Y-54498005D01*
X78129717Y-54463446D01*
X78154578Y-54433153D01*
X78184871Y-54408292D01*
X78219430Y-54389820D01*
X78256926Y-54378445D01*
X78302063Y-54374000D01*
X78940787Y-54374000D01*
X78985924Y-54378445D01*
G37*
G36*
X100714499Y-54278445D02*
G01*
X100751995Y-54289820D01*
X100786554Y-54308292D01*
X100816847Y-54333153D01*
X100841708Y-54363446D01*
X100860180Y-54398005D01*
X100871555Y-54435501D01*
X100876000Y-54480638D01*
X100876000Y-55219362D01*
X100871555Y-55264499D01*
X100860180Y-55301995D01*
X100841708Y-55336554D01*
X100816847Y-55366847D01*
X100786554Y-55391708D01*
X100751995Y-55410180D01*
X100714499Y-55421555D01*
X100669362Y-55426000D01*
X100030638Y-55426000D01*
X99985501Y-55421555D01*
X99948005Y-55410180D01*
X99913446Y-55391708D01*
X99883153Y-55366847D01*
X99858292Y-55336554D01*
X99839820Y-55301995D01*
X99828445Y-55264499D01*
X99824000Y-55219362D01*
X99824000Y-54480638D01*
X99828445Y-54435501D01*
X99839820Y-54398005D01*
X99858292Y-54363446D01*
X99883153Y-54333153D01*
X99913446Y-54308292D01*
X99948005Y-54289820D01*
X99985501Y-54278445D01*
X100030638Y-54274000D01*
X100669362Y-54274000D01*
X100714499Y-54278445D01*
G37*
G36*
X72528784Y-54278445D02*
G01*
X72566280Y-54289820D01*
X72600839Y-54308292D01*
X72631132Y-54333153D01*
X72655993Y-54363446D01*
X72674465Y-54398005D01*
X72685840Y-54435501D01*
X72690285Y-54480638D01*
X72690285Y-55219362D01*
X72685840Y-55264499D01*
X72674465Y-55301995D01*
X72655993Y-55336554D01*
X72631132Y-55366847D01*
X72600839Y-55391708D01*
X72566280Y-55410180D01*
X72528784Y-55421555D01*
X72483647Y-55426000D01*
X71844923Y-55426000D01*
X71799786Y-55421555D01*
X71762290Y-55410180D01*
X71727731Y-55391708D01*
X71697438Y-55366847D01*
X71672577Y-55336554D01*
X71654105Y-55301995D01*
X71642730Y-55264499D01*
X71638285Y-55219362D01*
X71638285Y-54480638D01*
X71642730Y-54435501D01*
X71654105Y-54398005D01*
X71672577Y-54363446D01*
X71697438Y-54333153D01*
X71727731Y-54308292D01*
X71762290Y-54289820D01*
X71799786Y-54278445D01*
X71844923Y-54274000D01*
X72483647Y-54274000D01*
X72528784Y-54278445D01*
G37*
G36*
X74114499Y-54278445D02*
G01*
X74151995Y-54289820D01*
X74186554Y-54308292D01*
X74216847Y-54333153D01*
X74241708Y-54363446D01*
X74260180Y-54398005D01*
X74271555Y-54435501D01*
X74276000Y-54480638D01*
X74276000Y-55219362D01*
X74271555Y-55264499D01*
X74260180Y-55301995D01*
X74241708Y-55336554D01*
X74216847Y-55366847D01*
X74186554Y-55391708D01*
X74151995Y-55410180D01*
X74114499Y-55421555D01*
X74069362Y-55426000D01*
X73430638Y-55426000D01*
X73385501Y-55421555D01*
X73348005Y-55410180D01*
X73313446Y-55391708D01*
X73283153Y-55366847D01*
X73258292Y-55336554D01*
X73239820Y-55301995D01*
X73228445Y-55264499D01*
X73224000Y-55219362D01*
X73224000Y-54480638D01*
X73228445Y-54435501D01*
X73239820Y-54398005D01*
X73258292Y-54363446D01*
X73283153Y-54333153D01*
X73313446Y-54308292D01*
X73348005Y-54289820D01*
X73385501Y-54278445D01*
X73430638Y-54274000D01*
X74069362Y-54274000D01*
X74114499Y-54278445D01*
G37*
G36*
X100714499Y-52528445D02*
G01*
X100751995Y-52539820D01*
X100786554Y-52558292D01*
X100816847Y-52583153D01*
X100841708Y-52613446D01*
X100860180Y-52648005D01*
X100871555Y-52685501D01*
X100876000Y-52730638D01*
X100876000Y-53469362D01*
X100871555Y-53514499D01*
X100860180Y-53551995D01*
X100841708Y-53586554D01*
X100816847Y-53616847D01*
X100786554Y-53641708D01*
X100751995Y-53660180D01*
X100714499Y-53671555D01*
X100669362Y-53676000D01*
X100030638Y-53676000D01*
X99985501Y-53671555D01*
X99948005Y-53660180D01*
X99913446Y-53641708D01*
X99883153Y-53616847D01*
X99858292Y-53586554D01*
X99839820Y-53551995D01*
X99828445Y-53514499D01*
X99824000Y-53469362D01*
X99824000Y-52730638D01*
X99828445Y-52685501D01*
X99839820Y-52648005D01*
X99858292Y-52613446D01*
X99883153Y-52583153D01*
X99913446Y-52558292D01*
X99948005Y-52539820D01*
X99985501Y-52528445D01*
X100030638Y-52524000D01*
X100669362Y-52524000D01*
X100714499Y-52528445D01*
G37*
G36*
X72528784Y-49678445D02*
G01*
X72566280Y-49689820D01*
X72600839Y-49708292D01*
X72631132Y-49733153D01*
X72655993Y-49763446D01*
X72674465Y-49798005D01*
X72685840Y-49835501D01*
X72690285Y-49880638D01*
X72690285Y-50619362D01*
X72685840Y-50664499D01*
X72674465Y-50701995D01*
X72655993Y-50736554D01*
X72631132Y-50766847D01*
X72600839Y-50791708D01*
X72566280Y-50810180D01*
X72528784Y-50821555D01*
X72483647Y-50826000D01*
X71844923Y-50826000D01*
X71799786Y-50821555D01*
X71762290Y-50810180D01*
X71727731Y-50791708D01*
X71697438Y-50766847D01*
X71672577Y-50736554D01*
X71654105Y-50701995D01*
X71642730Y-50664499D01*
X71638285Y-50619362D01*
X71638285Y-49880638D01*
X71642730Y-49835501D01*
X71654105Y-49798005D01*
X71672577Y-49763446D01*
X71697438Y-49733153D01*
X71727731Y-49708292D01*
X71762290Y-49689820D01*
X71799786Y-49678445D01*
X71844923Y-49674000D01*
X72483647Y-49674000D01*
X72528784Y-49678445D01*
G37*
G36*
X82214499Y-49678445D02*
G01*
X82251995Y-49689820D01*
X82286554Y-49708292D01*
X82316847Y-49733153D01*
X82341708Y-49763446D01*
X82360180Y-49798005D01*
X82371555Y-49835501D01*
X82376000Y-49880638D01*
X82376000Y-50619362D01*
X82371555Y-50664499D01*
X82360180Y-50701995D01*
X82341708Y-50736554D01*
X82316847Y-50766847D01*
X82286554Y-50791708D01*
X82251995Y-50810180D01*
X82214499Y-50821555D01*
X82169362Y-50826000D01*
X81530638Y-50826000D01*
X81485501Y-50821555D01*
X81448005Y-50810180D01*
X81413446Y-50791708D01*
X81383153Y-50766847D01*
X81358292Y-50736554D01*
X81339820Y-50701995D01*
X81328445Y-50664499D01*
X81324000Y-50619362D01*
X81324000Y-49880638D01*
X81328445Y-49835501D01*
X81339820Y-49798005D01*
X81358292Y-49763446D01*
X81383153Y-49733153D01*
X81413446Y-49708292D01*
X81448005Y-49689820D01*
X81485501Y-49678445D01*
X81530638Y-49674000D01*
X82169362Y-49674000D01*
X82214499Y-49678445D01*
G37*
G36*
X70914499Y-49678445D02*
G01*
X70951995Y-49689820D01*
X70986554Y-49708292D01*
X71016847Y-49733153D01*
X71041708Y-49763446D01*
X71060180Y-49798005D01*
X71071555Y-49835501D01*
X71076000Y-49880638D01*
X71076000Y-50619362D01*
X71071555Y-50664499D01*
X71060180Y-50701995D01*
X71041708Y-50736554D01*
X71016847Y-50766847D01*
X70986554Y-50791708D01*
X70951995Y-50810180D01*
X70914499Y-50821555D01*
X70869362Y-50826000D01*
X70230638Y-50826000D01*
X70185501Y-50821555D01*
X70148005Y-50810180D01*
X70113446Y-50791708D01*
X70083153Y-50766847D01*
X70058292Y-50736554D01*
X70039820Y-50701995D01*
X70028445Y-50664499D01*
X70024000Y-50619362D01*
X70024000Y-49880638D01*
X70028445Y-49835501D01*
X70039820Y-49798005D01*
X70058292Y-49763446D01*
X70083153Y-49733153D01*
X70113446Y-49708292D01*
X70148005Y-49689820D01*
X70185501Y-49678445D01*
X70230638Y-49674000D01*
X70869362Y-49674000D01*
X70914499Y-49678445D01*
G37*
G36*
X75757354Y-49678445D02*
G01*
X75794850Y-49689820D01*
X75829409Y-49708292D01*
X75859702Y-49733153D01*
X75884563Y-49763446D01*
X75903035Y-49798005D01*
X75914410Y-49835501D01*
X75918855Y-49880638D01*
X75918855Y-50619362D01*
X75914410Y-50664499D01*
X75903035Y-50701995D01*
X75884563Y-50736554D01*
X75859702Y-50766847D01*
X75829409Y-50791708D01*
X75794850Y-50810180D01*
X75757354Y-50821555D01*
X75712217Y-50826000D01*
X75073493Y-50826000D01*
X75028356Y-50821555D01*
X74990860Y-50810180D01*
X74956301Y-50791708D01*
X74926008Y-50766847D01*
X74901147Y-50736554D01*
X74882675Y-50701995D01*
X74871300Y-50664499D01*
X74866855Y-50619362D01*
X74866855Y-49880638D01*
X74871300Y-49835501D01*
X74882675Y-49798005D01*
X74901147Y-49763446D01*
X74926008Y-49733153D01*
X74956301Y-49708292D01*
X74990860Y-49689820D01*
X75028356Y-49678445D01*
X75073493Y-49674000D01*
X75712217Y-49674000D01*
X75757354Y-49678445D01*
G37*
G36*
X74114499Y-49678445D02*
G01*
X74151995Y-49689820D01*
X74186554Y-49708292D01*
X74216847Y-49733153D01*
X74241708Y-49763446D01*
X74260180Y-49798005D01*
X74271555Y-49835501D01*
X74276000Y-49880638D01*
X74276000Y-50619362D01*
X74271555Y-50664499D01*
X74260180Y-50701995D01*
X74241708Y-50736554D01*
X74216847Y-50766847D01*
X74186554Y-50791708D01*
X74151995Y-50810180D01*
X74114499Y-50821555D01*
X74069362Y-50826000D01*
X73430638Y-50826000D01*
X73385501Y-50821555D01*
X73348005Y-50810180D01*
X73313446Y-50791708D01*
X73283153Y-50766847D01*
X73258292Y-50736554D01*
X73239820Y-50701995D01*
X73228445Y-50664499D01*
X73224000Y-50619362D01*
X73224000Y-49880638D01*
X73228445Y-49835501D01*
X73239820Y-49798005D01*
X73258292Y-49763446D01*
X73283153Y-49733153D01*
X73313446Y-49708292D01*
X73348005Y-49689820D01*
X73385501Y-49678445D01*
X73430638Y-49674000D01*
X74069362Y-49674000D01*
X74114499Y-49678445D01*
G37*
G36*
X78985924Y-49678445D02*
G01*
X79023420Y-49689820D01*
X79057979Y-49708292D01*
X79088272Y-49733153D01*
X79113133Y-49763446D01*
X79131605Y-49798005D01*
X79142980Y-49835501D01*
X79147425Y-49880638D01*
X79147425Y-50619362D01*
X79142980Y-50664499D01*
X79131605Y-50701995D01*
X79113133Y-50736554D01*
X79088272Y-50766847D01*
X79057979Y-50791708D01*
X79023420Y-50810180D01*
X78985924Y-50821555D01*
X78940787Y-50826000D01*
X78302063Y-50826000D01*
X78256926Y-50821555D01*
X78219430Y-50810180D01*
X78184871Y-50791708D01*
X78154578Y-50766847D01*
X78129717Y-50736554D01*
X78111245Y-50701995D01*
X78099870Y-50664499D01*
X78095425Y-50619362D01*
X78095425Y-49880638D01*
X78099870Y-49835501D01*
X78111245Y-49798005D01*
X78129717Y-49763446D01*
X78154578Y-49733153D01*
X78184871Y-49708292D01*
X78219430Y-49689820D01*
X78256926Y-49678445D01*
X78302063Y-49674000D01*
X78940787Y-49674000D01*
X78985924Y-49678445D01*
G37*
G36*
X80600209Y-49678445D02*
G01*
X80637705Y-49689820D01*
X80672264Y-49708292D01*
X80702557Y-49733153D01*
X80727418Y-49763446D01*
X80745890Y-49798005D01*
X80757265Y-49835501D01*
X80761710Y-49880638D01*
X80761710Y-50619362D01*
X80757265Y-50664499D01*
X80745890Y-50701995D01*
X80727418Y-50736554D01*
X80702557Y-50766847D01*
X80672264Y-50791708D01*
X80637705Y-50810180D01*
X80600209Y-50821555D01*
X80555072Y-50826000D01*
X79916348Y-50826000D01*
X79871211Y-50821555D01*
X79833715Y-50810180D01*
X79799156Y-50791708D01*
X79768863Y-50766847D01*
X79744002Y-50736554D01*
X79725530Y-50701995D01*
X79714155Y-50664499D01*
X79709710Y-50619362D01*
X79709710Y-49880638D01*
X79714155Y-49835501D01*
X79725530Y-49798005D01*
X79744002Y-49763446D01*
X79768863Y-49733153D01*
X79799156Y-49708292D01*
X79833715Y-49689820D01*
X79871211Y-49678445D01*
X79916348Y-49674000D01*
X80555072Y-49674000D01*
X80600209Y-49678445D01*
G37*
G36*
X77371639Y-49678445D02*
G01*
X77409135Y-49689820D01*
X77443694Y-49708292D01*
X77473987Y-49733153D01*
X77498848Y-49763446D01*
X77517320Y-49798005D01*
X77528695Y-49835501D01*
X77533140Y-49880638D01*
X77533140Y-50619362D01*
X77528695Y-50664499D01*
X77517320Y-50701995D01*
X77498848Y-50736554D01*
X77473987Y-50766847D01*
X77443694Y-50791708D01*
X77409135Y-50810180D01*
X77371639Y-50821555D01*
X77326502Y-50826000D01*
X76687778Y-50826000D01*
X76642641Y-50821555D01*
X76605145Y-50810180D01*
X76570586Y-50791708D01*
X76540293Y-50766847D01*
X76515432Y-50736554D01*
X76496960Y-50701995D01*
X76485585Y-50664499D01*
X76481140Y-50619362D01*
X76481140Y-49880638D01*
X76485585Y-49835501D01*
X76496960Y-49798005D01*
X76515432Y-49763446D01*
X76540293Y-49733153D01*
X76570586Y-49708292D01*
X76605145Y-49689820D01*
X76642641Y-49678445D01*
X76687778Y-49674000D01*
X77326502Y-49674000D01*
X77371639Y-49678445D01*
G37*
G36*
X80600209Y-47928445D02*
G01*
X80637705Y-47939820D01*
X80672264Y-47958292D01*
X80702557Y-47983153D01*
X80727418Y-48013446D01*
X80745890Y-48048005D01*
X80757265Y-48085501D01*
X80761710Y-48130638D01*
X80761710Y-48869362D01*
X80757265Y-48914499D01*
X80745890Y-48951995D01*
X80727418Y-48986554D01*
X80702557Y-49016847D01*
X80672264Y-49041708D01*
X80637705Y-49060180D01*
X80600209Y-49071555D01*
X80555072Y-49076000D01*
X79916348Y-49076000D01*
X79871211Y-49071555D01*
X79833715Y-49060180D01*
X79799156Y-49041708D01*
X79768863Y-49016847D01*
X79744002Y-48986554D01*
X79725530Y-48951995D01*
X79714155Y-48914499D01*
X79709710Y-48869362D01*
X79709710Y-48130638D01*
X79714155Y-48085501D01*
X79725530Y-48048005D01*
X79744002Y-48013446D01*
X79768863Y-47983153D01*
X79799156Y-47958292D01*
X79833715Y-47939820D01*
X79871211Y-47928445D01*
X79916348Y-47924000D01*
X80555072Y-47924000D01*
X80600209Y-47928445D01*
G37*
G36*
X77371639Y-47928445D02*
G01*
X77409135Y-47939820D01*
X77443694Y-47958292D01*
X77473987Y-47983153D01*
X77498848Y-48013446D01*
X77517320Y-48048005D01*
X77528695Y-48085501D01*
X77533140Y-48130638D01*
X77533140Y-48869362D01*
X77528695Y-48914499D01*
X77517320Y-48951995D01*
X77498848Y-48986554D01*
X77473987Y-49016847D01*
X77443694Y-49041708D01*
X77409135Y-49060180D01*
X77371639Y-49071555D01*
X77326502Y-49076000D01*
X76687778Y-49076000D01*
X76642641Y-49071555D01*
X76605145Y-49060180D01*
X76570586Y-49041708D01*
X76540293Y-49016847D01*
X76515432Y-48986554D01*
X76496960Y-48951995D01*
X76485585Y-48914499D01*
X76481140Y-48869362D01*
X76481140Y-48130638D01*
X76485585Y-48085501D01*
X76496960Y-48048005D01*
X76515432Y-48013446D01*
X76540293Y-47983153D01*
X76570586Y-47958292D01*
X76605145Y-47939820D01*
X76642641Y-47928445D01*
X76687778Y-47924000D01*
X77326502Y-47924000D01*
X77371639Y-47928445D01*
G37*
G36*
X75757354Y-47928445D02*
G01*
X75794850Y-47939820D01*
X75829409Y-47958292D01*
X75859702Y-47983153D01*
X75884563Y-48013446D01*
X75903035Y-48048005D01*
X75914410Y-48085501D01*
X75918855Y-48130638D01*
X75918855Y-48869362D01*
X75914410Y-48914499D01*
X75903035Y-48951995D01*
X75884563Y-48986554D01*
X75859702Y-49016847D01*
X75829409Y-49041708D01*
X75794850Y-49060180D01*
X75757354Y-49071555D01*
X75712217Y-49076000D01*
X75073493Y-49076000D01*
X75028356Y-49071555D01*
X74990860Y-49060180D01*
X74956301Y-49041708D01*
X74926008Y-49016847D01*
X74901147Y-48986554D01*
X74882675Y-48951995D01*
X74871300Y-48914499D01*
X74866855Y-48869362D01*
X74866855Y-48130638D01*
X74871300Y-48085501D01*
X74882675Y-48048005D01*
X74901147Y-48013446D01*
X74926008Y-47983153D01*
X74956301Y-47958292D01*
X74990860Y-47939820D01*
X75028356Y-47928445D01*
X75073493Y-47924000D01*
X75712217Y-47924000D01*
X75757354Y-47928445D01*
G37*
G36*
X82214499Y-47928445D02*
G01*
X82251995Y-47939820D01*
X82286554Y-47958292D01*
X82316847Y-47983153D01*
X82341708Y-48013446D01*
X82360180Y-48048005D01*
X82371555Y-48085501D01*
X82376000Y-48130638D01*
X82376000Y-48869362D01*
X82371555Y-48914499D01*
X82360180Y-48951995D01*
X82341708Y-48986554D01*
X82316847Y-49016847D01*
X82286554Y-49041708D01*
X82251995Y-49060180D01*
X82214499Y-49071555D01*
X82169362Y-49076000D01*
X81530638Y-49076000D01*
X81485501Y-49071555D01*
X81448005Y-49060180D01*
X81413446Y-49041708D01*
X81383153Y-49016847D01*
X81358292Y-48986554D01*
X81339820Y-48951995D01*
X81328445Y-48914499D01*
X81324000Y-48869362D01*
X81324000Y-48130638D01*
X81328445Y-48085501D01*
X81339820Y-48048005D01*
X81358292Y-48013446D01*
X81383153Y-47983153D01*
X81413446Y-47958292D01*
X81448005Y-47939820D01*
X81485501Y-47928445D01*
X81530638Y-47924000D01*
X82169362Y-47924000D01*
X82214499Y-47928445D01*
G37*
G36*
X74114499Y-47928445D02*
G01*
X74151995Y-47939820D01*
X74186554Y-47958292D01*
X74216847Y-47983153D01*
X74241708Y-48013446D01*
X74260180Y-48048005D01*
X74271555Y-48085501D01*
X74276000Y-48130638D01*
X74276000Y-48869362D01*
X74271555Y-48914499D01*
X74260180Y-48951995D01*
X74241708Y-48986554D01*
X74216847Y-49016847D01*
X74186554Y-49041708D01*
X74151995Y-49060180D01*
X74114499Y-49071555D01*
X74069362Y-49076000D01*
X73430638Y-49076000D01*
X73385501Y-49071555D01*
X73348005Y-49060180D01*
X73313446Y-49041708D01*
X73283153Y-49016847D01*
X73258292Y-48986554D01*
X73239820Y-48951995D01*
X73228445Y-48914499D01*
X73224000Y-48869362D01*
X73224000Y-48130638D01*
X73228445Y-48085501D01*
X73239820Y-48048005D01*
X73258292Y-48013446D01*
X73283153Y-47983153D01*
X73313446Y-47958292D01*
X73348005Y-47939820D01*
X73385501Y-47928445D01*
X73430638Y-47924000D01*
X74069362Y-47924000D01*
X74114499Y-47928445D01*
G37*
G36*
X72528784Y-47928445D02*
G01*
X72566280Y-47939820D01*
X72600839Y-47958292D01*
X72631132Y-47983153D01*
X72655993Y-48013446D01*
X72674465Y-48048005D01*
X72685840Y-48085501D01*
X72690285Y-48130638D01*
X72690285Y-48869362D01*
X72685840Y-48914499D01*
X72674465Y-48951995D01*
X72655993Y-48986554D01*
X72631132Y-49016847D01*
X72600839Y-49041708D01*
X72566280Y-49060180D01*
X72528784Y-49071555D01*
X72483647Y-49076000D01*
X71844923Y-49076000D01*
X71799786Y-49071555D01*
X71762290Y-49060180D01*
X71727731Y-49041708D01*
X71697438Y-49016847D01*
X71672577Y-48986554D01*
X71654105Y-48951995D01*
X71642730Y-48914499D01*
X71638285Y-48869362D01*
X71638285Y-48130638D01*
X71642730Y-48085501D01*
X71654105Y-48048005D01*
X71672577Y-48013446D01*
X71697438Y-47983153D01*
X71727731Y-47958292D01*
X71762290Y-47939820D01*
X71799786Y-47928445D01*
X71844923Y-47924000D01*
X72483647Y-47924000D01*
X72528784Y-47928445D01*
G37*
G36*
X70914499Y-47928445D02*
G01*
X70951995Y-47939820D01*
X70986554Y-47958292D01*
X71016847Y-47983153D01*
X71041708Y-48013446D01*
X71060180Y-48048005D01*
X71071555Y-48085501D01*
X71076000Y-48130638D01*
X71076000Y-48869362D01*
X71071555Y-48914499D01*
X71060180Y-48951995D01*
X71041708Y-48986554D01*
X71016847Y-49016847D01*
X70986554Y-49041708D01*
X70951995Y-49060180D01*
X70914499Y-49071555D01*
X70869362Y-49076000D01*
X70230638Y-49076000D01*
X70185501Y-49071555D01*
X70148005Y-49060180D01*
X70113446Y-49041708D01*
X70083153Y-49016847D01*
X70058292Y-48986554D01*
X70039820Y-48951995D01*
X70028445Y-48914499D01*
X70024000Y-48869362D01*
X70024000Y-48130638D01*
X70028445Y-48085501D01*
X70039820Y-48048005D01*
X70058292Y-48013446D01*
X70083153Y-47983153D01*
X70113446Y-47958292D01*
X70148005Y-47939820D01*
X70185501Y-47928445D01*
X70230638Y-47924000D01*
X70869362Y-47924000D01*
X70914499Y-47928445D01*
G37*
G36*
X78985924Y-47928445D02*
G01*
X79023420Y-47939820D01*
X79057979Y-47958292D01*
X79088272Y-47983153D01*
X79113133Y-48013446D01*
X79131605Y-48048005D01*
X79142980Y-48085501D01*
X79147425Y-48130638D01*
X79147425Y-48869362D01*
X79142980Y-48914499D01*
X79131605Y-48951995D01*
X79113133Y-48986554D01*
X79088272Y-49016847D01*
X79057979Y-49041708D01*
X79023420Y-49060180D01*
X78985924Y-49071555D01*
X78940787Y-49076000D01*
X78302063Y-49076000D01*
X78256926Y-49071555D01*
X78219430Y-49060180D01*
X78184871Y-49041708D01*
X78154578Y-49016847D01*
X78129717Y-48986554D01*
X78111245Y-48951995D01*
X78099870Y-48914499D01*
X78095425Y-48869362D01*
X78095425Y-48130638D01*
X78099870Y-48085501D01*
X78111245Y-48048005D01*
X78129717Y-48013446D01*
X78154578Y-47983153D01*
X78184871Y-47958292D01*
X78219430Y-47939820D01*
X78256926Y-47928445D01*
X78302063Y-47924000D01*
X78940787Y-47924000D01*
X78985924Y-47928445D01*
G37*
G36*
X47864499Y-47678445D02*
G01*
X47901995Y-47689820D01*
X47936554Y-47708292D01*
X47966847Y-47733153D01*
X47991708Y-47763446D01*
X48010180Y-47798005D01*
X48021555Y-47835501D01*
X48026000Y-47880638D01*
X48026000Y-48519362D01*
X48021555Y-48564499D01*
X48010180Y-48601995D01*
X47991708Y-48636554D01*
X47966847Y-48666847D01*
X47936554Y-48691708D01*
X47901995Y-48710180D01*
X47864499Y-48721555D01*
X47819362Y-48726000D01*
X47080638Y-48726000D01*
X47035501Y-48721555D01*
X46998005Y-48710180D01*
X46963446Y-48691708D01*
X46933153Y-48666847D01*
X46908292Y-48636554D01*
X46889820Y-48601995D01*
X46878445Y-48564499D01*
X46874000Y-48519362D01*
X46874000Y-47880638D01*
X46878445Y-47835501D01*
X46889820Y-47798005D01*
X46908292Y-47763446D01*
X46933153Y-47733153D01*
X46963446Y-47708292D01*
X46998005Y-47689820D01*
X47035501Y-47678445D01*
X47080638Y-47674000D01*
X47819362Y-47674000D01*
X47864499Y-47678445D01*
G37*
G36*
X43464499Y-47678445D02*
G01*
X43501995Y-47689820D01*
X43536554Y-47708292D01*
X43566847Y-47733153D01*
X43591708Y-47763446D01*
X43610180Y-47798005D01*
X43621555Y-47835501D01*
X43626000Y-47880638D01*
X43626000Y-48519362D01*
X43621555Y-48564499D01*
X43610180Y-48601995D01*
X43591708Y-48636554D01*
X43566847Y-48666847D01*
X43536554Y-48691708D01*
X43501995Y-48710180D01*
X43464499Y-48721555D01*
X43419362Y-48726000D01*
X42680638Y-48726000D01*
X42635501Y-48721555D01*
X42598005Y-48710180D01*
X42563446Y-48691708D01*
X42533153Y-48666847D01*
X42508292Y-48636554D01*
X42489820Y-48601995D01*
X42478445Y-48564499D01*
X42474000Y-48519362D01*
X42474000Y-47880638D01*
X42478445Y-47835501D01*
X42489820Y-47798005D01*
X42508292Y-47763446D01*
X42533153Y-47733153D01*
X42563446Y-47708292D01*
X42598005Y-47689820D01*
X42635501Y-47678445D01*
X42680638Y-47674000D01*
X43419362Y-47674000D01*
X43464499Y-47678445D01*
G37*
G36*
X45214499Y-47678445D02*
G01*
X45251995Y-47689820D01*
X45286554Y-47708292D01*
X45316847Y-47733153D01*
X45341708Y-47763446D01*
X45360180Y-47798005D01*
X45371555Y-47835501D01*
X45376000Y-47880638D01*
X45376000Y-48519362D01*
X45371555Y-48564499D01*
X45360180Y-48601995D01*
X45341708Y-48636554D01*
X45316847Y-48666847D01*
X45286554Y-48691708D01*
X45251995Y-48710180D01*
X45214499Y-48721555D01*
X45169362Y-48726000D01*
X44430638Y-48726000D01*
X44385501Y-48721555D01*
X44348005Y-48710180D01*
X44313446Y-48691708D01*
X44283153Y-48666847D01*
X44258292Y-48636554D01*
X44239820Y-48601995D01*
X44228445Y-48564499D01*
X44224000Y-48519362D01*
X44224000Y-47880638D01*
X44228445Y-47835501D01*
X44239820Y-47798005D01*
X44258292Y-47763446D01*
X44283153Y-47733153D01*
X44313446Y-47708292D01*
X44348005Y-47689820D01*
X44385501Y-47678445D01*
X44430638Y-47674000D01*
X45169362Y-47674000D01*
X45214499Y-47678445D01*
G37*
G36*
X49614499Y-47678445D02*
G01*
X49651995Y-47689820D01*
X49686554Y-47708292D01*
X49716847Y-47733153D01*
X49741708Y-47763446D01*
X49760180Y-47798005D01*
X49771555Y-47835501D01*
X49776000Y-47880638D01*
X49776000Y-48519362D01*
X49771555Y-48564499D01*
X49760180Y-48601995D01*
X49741708Y-48636554D01*
X49716847Y-48666847D01*
X49686554Y-48691708D01*
X49651995Y-48710180D01*
X49614499Y-48721555D01*
X49569362Y-48726000D01*
X48830638Y-48726000D01*
X48785501Y-48721555D01*
X48748005Y-48710180D01*
X48713446Y-48691708D01*
X48683153Y-48666847D01*
X48658292Y-48636554D01*
X48639820Y-48601995D01*
X48628445Y-48564499D01*
X48624000Y-48519362D01*
X48624000Y-47880638D01*
X48628445Y-47835501D01*
X48639820Y-47798005D01*
X48658292Y-47763446D01*
X48683153Y-47733153D01*
X48713446Y-47708292D01*
X48748005Y-47689820D01*
X48785501Y-47678445D01*
X48830638Y-47674000D01*
X49569362Y-47674000D01*
X49614499Y-47678445D01*
G37*
G36*
X57989499Y-47628445D02*
G01*
X58026995Y-47639820D01*
X58061554Y-47658292D01*
X58091847Y-47683153D01*
X58116708Y-47713446D01*
X58135180Y-47748005D01*
X58146555Y-47785501D01*
X58151000Y-47830638D01*
X58151000Y-48469362D01*
X58146555Y-48514499D01*
X58135180Y-48551995D01*
X58116708Y-48586554D01*
X58091847Y-48616847D01*
X58061554Y-48641708D01*
X58026995Y-48660180D01*
X57989499Y-48671555D01*
X57944362Y-48676000D01*
X57205638Y-48676000D01*
X57160501Y-48671555D01*
X57123005Y-48660180D01*
X57088446Y-48641708D01*
X57058153Y-48616847D01*
X57033292Y-48586554D01*
X57014820Y-48551995D01*
X57003445Y-48514499D01*
X56999000Y-48469362D01*
X56999000Y-47830638D01*
X57003445Y-47785501D01*
X57014820Y-47748005D01*
X57033292Y-47713446D01*
X57058153Y-47683153D01*
X57088446Y-47658292D01*
X57123005Y-47639820D01*
X57160501Y-47628445D01*
X57205638Y-47624000D01*
X57944362Y-47624000D01*
X57989499Y-47628445D01*
G37*
G36*
X56239499Y-47628445D02*
G01*
X56276995Y-47639820D01*
X56311554Y-47658292D01*
X56341847Y-47683153D01*
X56366708Y-47713446D01*
X56385180Y-47748005D01*
X56396555Y-47785501D01*
X56401000Y-47830638D01*
X56401000Y-48469362D01*
X56396555Y-48514499D01*
X56385180Y-48551995D01*
X56366708Y-48586554D01*
X56341847Y-48616847D01*
X56311554Y-48641708D01*
X56276995Y-48660180D01*
X56239499Y-48671555D01*
X56194362Y-48676000D01*
X55455638Y-48676000D01*
X55410501Y-48671555D01*
X55373005Y-48660180D01*
X55338446Y-48641708D01*
X55308153Y-48616847D01*
X55283292Y-48586554D01*
X55264820Y-48551995D01*
X55253445Y-48514499D01*
X55249000Y-48469362D01*
X55249000Y-47830638D01*
X55253445Y-47785501D01*
X55264820Y-47748005D01*
X55283292Y-47713446D01*
X55308153Y-47683153D01*
X55338446Y-47658292D01*
X55373005Y-47639820D01*
X55410501Y-47628445D01*
X55455638Y-47624000D01*
X56194362Y-47624000D01*
X56239499Y-47628445D01*
G37*
G36*
X60939499Y-47628445D02*
G01*
X60976995Y-47639820D01*
X61011554Y-47658292D01*
X61041847Y-47683153D01*
X61066708Y-47713446D01*
X61085180Y-47748005D01*
X61096555Y-47785501D01*
X61101000Y-47830638D01*
X61101000Y-48469362D01*
X61096555Y-48514499D01*
X61085180Y-48551995D01*
X61066708Y-48586554D01*
X61041847Y-48616847D01*
X61011554Y-48641708D01*
X60976995Y-48660180D01*
X60939499Y-48671555D01*
X60894362Y-48676000D01*
X60155638Y-48676000D01*
X60110501Y-48671555D01*
X60073005Y-48660180D01*
X60038446Y-48641708D01*
X60008153Y-48616847D01*
X59983292Y-48586554D01*
X59964820Y-48551995D01*
X59953445Y-48514499D01*
X59949000Y-48469362D01*
X59949000Y-47830638D01*
X59953445Y-47785501D01*
X59964820Y-47748005D01*
X59983292Y-47713446D01*
X60008153Y-47683153D01*
X60038446Y-47658292D01*
X60073005Y-47639820D01*
X60110501Y-47628445D01*
X60155638Y-47624000D01*
X60894362Y-47624000D01*
X60939499Y-47628445D01*
G37*
G36*
X62689499Y-47628445D02*
G01*
X62726995Y-47639820D01*
X62761554Y-47658292D01*
X62791847Y-47683153D01*
X62816708Y-47713446D01*
X62835180Y-47748005D01*
X62846555Y-47785501D01*
X62851000Y-47830638D01*
X62851000Y-48469362D01*
X62846555Y-48514499D01*
X62835180Y-48551995D01*
X62816708Y-48586554D01*
X62791847Y-48616847D01*
X62761554Y-48641708D01*
X62726995Y-48660180D01*
X62689499Y-48671555D01*
X62644362Y-48676000D01*
X61905638Y-48676000D01*
X61860501Y-48671555D01*
X61823005Y-48660180D01*
X61788446Y-48641708D01*
X61758153Y-48616847D01*
X61733292Y-48586554D01*
X61714820Y-48551995D01*
X61703445Y-48514499D01*
X61699000Y-48469362D01*
X61699000Y-47830638D01*
X61703445Y-47785501D01*
X61714820Y-47748005D01*
X61733292Y-47713446D01*
X61758153Y-47683153D01*
X61788446Y-47658292D01*
X61823005Y-47639820D01*
X61860501Y-47628445D01*
X61905638Y-47624000D01*
X62644362Y-47624000D01*
X62689499Y-47628445D01*
G37*
G36*
X43414499Y-44253445D02*
G01*
X43451995Y-44264820D01*
X43486554Y-44283292D01*
X43516847Y-44308153D01*
X43541708Y-44338446D01*
X43560180Y-44373005D01*
X43571555Y-44410501D01*
X43576000Y-44455638D01*
X43576000Y-45194362D01*
X43571555Y-45239499D01*
X43560180Y-45276995D01*
X43541708Y-45311554D01*
X43516847Y-45341847D01*
X43486554Y-45366708D01*
X43451995Y-45385180D01*
X43414499Y-45396555D01*
X43369362Y-45401000D01*
X42730638Y-45401000D01*
X42685501Y-45396555D01*
X42648005Y-45385180D01*
X42613446Y-45366708D01*
X42583153Y-45341847D01*
X42558292Y-45311554D01*
X42539820Y-45276995D01*
X42528445Y-45239499D01*
X42524000Y-45194362D01*
X42524000Y-44455638D01*
X42528445Y-44410501D01*
X42539820Y-44373005D01*
X42558292Y-44338446D01*
X42583153Y-44308153D01*
X42613446Y-44283292D01*
X42648005Y-44264820D01*
X42685501Y-44253445D01*
X42730638Y-44249000D01*
X43369362Y-44249000D01*
X43414499Y-44253445D01*
G37*
G36*
X60314499Y-44253445D02*
G01*
X60351995Y-44264820D01*
X60386554Y-44283292D01*
X60416847Y-44308153D01*
X60441708Y-44338446D01*
X60460180Y-44373005D01*
X60471555Y-44410501D01*
X60476000Y-44455638D01*
X60476000Y-45194362D01*
X60471555Y-45239499D01*
X60460180Y-45276995D01*
X60441708Y-45311554D01*
X60416847Y-45341847D01*
X60386554Y-45366708D01*
X60351995Y-45385180D01*
X60314499Y-45396555D01*
X60269362Y-45401000D01*
X59630638Y-45401000D01*
X59585501Y-45396555D01*
X59548005Y-45385180D01*
X59513446Y-45366708D01*
X59483153Y-45341847D01*
X59458292Y-45311554D01*
X59439820Y-45276995D01*
X59428445Y-45239499D01*
X59424000Y-45194362D01*
X59424000Y-44455638D01*
X59428445Y-44410501D01*
X59439820Y-44373005D01*
X59458292Y-44338446D01*
X59483153Y-44308153D01*
X59513446Y-44283292D01*
X59548005Y-44264820D01*
X59585501Y-44253445D01*
X59630638Y-44249000D01*
X60269362Y-44249000D01*
X60314499Y-44253445D01*
G37*
G36*
X58314499Y-44253445D02*
G01*
X58351995Y-44264820D01*
X58386554Y-44283292D01*
X58416847Y-44308153D01*
X58441708Y-44338446D01*
X58460180Y-44373005D01*
X58471555Y-44410501D01*
X58476000Y-44455638D01*
X58476000Y-45194362D01*
X58471555Y-45239499D01*
X58460180Y-45276995D01*
X58441708Y-45311554D01*
X58416847Y-45341847D01*
X58386554Y-45366708D01*
X58351995Y-45385180D01*
X58314499Y-45396555D01*
X58269362Y-45401000D01*
X57630638Y-45401000D01*
X57585501Y-45396555D01*
X57548005Y-45385180D01*
X57513446Y-45366708D01*
X57483153Y-45341847D01*
X57458292Y-45311554D01*
X57439820Y-45276995D01*
X57428445Y-45239499D01*
X57424000Y-45194362D01*
X57424000Y-44455638D01*
X57428445Y-44410501D01*
X57439820Y-44373005D01*
X57458292Y-44338446D01*
X57483153Y-44308153D01*
X57513446Y-44283292D01*
X57548005Y-44264820D01*
X57585501Y-44253445D01*
X57630638Y-44249000D01*
X58269362Y-44249000D01*
X58314499Y-44253445D01*
G37*
G36*
X45214499Y-44253445D02*
G01*
X45251995Y-44264820D01*
X45286554Y-44283292D01*
X45316847Y-44308153D01*
X45341708Y-44338446D01*
X45360180Y-44373005D01*
X45371555Y-44410501D01*
X45376000Y-44455638D01*
X45376000Y-45194362D01*
X45371555Y-45239499D01*
X45360180Y-45276995D01*
X45341708Y-45311554D01*
X45316847Y-45341847D01*
X45286554Y-45366708D01*
X45251995Y-45385180D01*
X45214499Y-45396555D01*
X45169362Y-45401000D01*
X44530638Y-45401000D01*
X44485501Y-45396555D01*
X44448005Y-45385180D01*
X44413446Y-45366708D01*
X44383153Y-45341847D01*
X44358292Y-45311554D01*
X44339820Y-45276995D01*
X44328445Y-45239499D01*
X44324000Y-45194362D01*
X44324000Y-44455638D01*
X44328445Y-44410501D01*
X44339820Y-44373005D01*
X44358292Y-44338446D01*
X44383153Y-44308153D01*
X44413446Y-44283292D01*
X44448005Y-44264820D01*
X44485501Y-44253445D01*
X44530638Y-44249000D01*
X45169362Y-44249000D01*
X45214499Y-44253445D01*
G37*
G36*
X62614499Y-44253445D02*
G01*
X62651995Y-44264820D01*
X62686554Y-44283292D01*
X62716847Y-44308153D01*
X62741708Y-44338446D01*
X62760180Y-44373005D01*
X62771555Y-44410501D01*
X62776000Y-44455638D01*
X62776000Y-45194362D01*
X62771555Y-45239499D01*
X62760180Y-45276995D01*
X62741708Y-45311554D01*
X62716847Y-45341847D01*
X62686554Y-45366708D01*
X62651995Y-45385180D01*
X62614499Y-45396555D01*
X62569362Y-45401000D01*
X61930638Y-45401000D01*
X61885501Y-45396555D01*
X61848005Y-45385180D01*
X61813446Y-45366708D01*
X61783153Y-45341847D01*
X61758292Y-45311554D01*
X61739820Y-45276995D01*
X61728445Y-45239499D01*
X61724000Y-45194362D01*
X61724000Y-44455638D01*
X61728445Y-44410501D01*
X61739820Y-44373005D01*
X61758292Y-44338446D01*
X61783153Y-44308153D01*
X61813446Y-44283292D01*
X61848005Y-44264820D01*
X61885501Y-44253445D01*
X61930638Y-44249000D01*
X62569362Y-44249000D01*
X62614499Y-44253445D01*
G37*
G36*
X56014499Y-44253445D02*
G01*
X56051995Y-44264820D01*
X56086554Y-44283292D01*
X56116847Y-44308153D01*
X56141708Y-44338446D01*
X56160180Y-44373005D01*
X56171555Y-44410501D01*
X56176000Y-44455638D01*
X56176000Y-45194362D01*
X56171555Y-45239499D01*
X56160180Y-45276995D01*
X56141708Y-45311554D01*
X56116847Y-45341847D01*
X56086554Y-45366708D01*
X56051995Y-45385180D01*
X56014499Y-45396555D01*
X55969362Y-45401000D01*
X55330638Y-45401000D01*
X55285501Y-45396555D01*
X55248005Y-45385180D01*
X55213446Y-45366708D01*
X55183153Y-45341847D01*
X55158292Y-45311554D01*
X55139820Y-45276995D01*
X55128445Y-45239499D01*
X55124000Y-45194362D01*
X55124000Y-44455638D01*
X55128445Y-44410501D01*
X55139820Y-44373005D01*
X55158292Y-44338446D01*
X55183153Y-44308153D01*
X55213446Y-44283292D01*
X55248005Y-44264820D01*
X55285501Y-44253445D01*
X55330638Y-44249000D01*
X55969362Y-44249000D01*
X56014499Y-44253445D01*
G37*
G36*
X49514499Y-44253445D02*
G01*
X49551995Y-44264820D01*
X49586554Y-44283292D01*
X49616847Y-44308153D01*
X49641708Y-44338446D01*
X49660180Y-44373005D01*
X49671555Y-44410501D01*
X49676000Y-44455638D01*
X49676000Y-45194362D01*
X49671555Y-45239499D01*
X49660180Y-45276995D01*
X49641708Y-45311554D01*
X49616847Y-45341847D01*
X49586554Y-45366708D01*
X49551995Y-45385180D01*
X49514499Y-45396555D01*
X49469362Y-45401000D01*
X48830638Y-45401000D01*
X48785501Y-45396555D01*
X48748005Y-45385180D01*
X48713446Y-45366708D01*
X48683153Y-45341847D01*
X48658292Y-45311554D01*
X48639820Y-45276995D01*
X48628445Y-45239499D01*
X48624000Y-45194362D01*
X48624000Y-44455638D01*
X48628445Y-44410501D01*
X48639820Y-44373005D01*
X48658292Y-44338446D01*
X48683153Y-44308153D01*
X48713446Y-44283292D01*
X48748005Y-44264820D01*
X48785501Y-44253445D01*
X48830638Y-44249000D01*
X49469362Y-44249000D01*
X49514499Y-44253445D01*
G37*
G36*
X47714499Y-44253445D02*
G01*
X47751995Y-44264820D01*
X47786554Y-44283292D01*
X47816847Y-44308153D01*
X47841708Y-44338446D01*
X47860180Y-44373005D01*
X47871555Y-44410501D01*
X47876000Y-44455638D01*
X47876000Y-45194362D01*
X47871555Y-45239499D01*
X47860180Y-45276995D01*
X47841708Y-45311554D01*
X47816847Y-45341847D01*
X47786554Y-45366708D01*
X47751995Y-45385180D01*
X47714499Y-45396555D01*
X47669362Y-45401000D01*
X47030638Y-45401000D01*
X46985501Y-45396555D01*
X46948005Y-45385180D01*
X46913446Y-45366708D01*
X46883153Y-45341847D01*
X46858292Y-45311554D01*
X46839820Y-45276995D01*
X46828445Y-45239499D01*
X46824000Y-45194362D01*
X46824000Y-44455638D01*
X46828445Y-44410501D01*
X46839820Y-44373005D01*
X46858292Y-44338446D01*
X46883153Y-44308153D01*
X46913446Y-44283292D01*
X46948005Y-44264820D01*
X46985501Y-44253445D01*
X47030638Y-44249000D01*
X47669362Y-44249000D01*
X47714499Y-44253445D01*
G37*
G36*
X87364499Y-43728445D02*
G01*
X87401995Y-43739820D01*
X87436554Y-43758292D01*
X87466847Y-43783153D01*
X87491708Y-43813446D01*
X87510180Y-43848005D01*
X87521555Y-43885501D01*
X87526000Y-43930638D01*
X87526000Y-44569362D01*
X87521555Y-44614499D01*
X87510180Y-44651995D01*
X87491708Y-44686554D01*
X87466847Y-44716847D01*
X87436554Y-44741708D01*
X87401995Y-44760180D01*
X87364499Y-44771555D01*
X87319362Y-44776000D01*
X86580638Y-44776000D01*
X86535501Y-44771555D01*
X86498005Y-44760180D01*
X86463446Y-44741708D01*
X86433153Y-44716847D01*
X86408292Y-44686554D01*
X86389820Y-44651995D01*
X86378445Y-44614499D01*
X86374000Y-44569362D01*
X86374000Y-43930638D01*
X86378445Y-43885501D01*
X86389820Y-43848005D01*
X86408292Y-43813446D01*
X86433153Y-43783153D01*
X86463446Y-43758292D01*
X86498005Y-43739820D01*
X86535501Y-43728445D01*
X86580638Y-43724000D01*
X87319362Y-43724000D01*
X87364499Y-43728445D01*
G37*
G36*
X85614499Y-43728445D02*
G01*
X85651995Y-43739820D01*
X85686554Y-43758292D01*
X85716847Y-43783153D01*
X85741708Y-43813446D01*
X85760180Y-43848005D01*
X85771555Y-43885501D01*
X85776000Y-43930638D01*
X85776000Y-44569362D01*
X85771555Y-44614499D01*
X85760180Y-44651995D01*
X85741708Y-44686554D01*
X85716847Y-44716847D01*
X85686554Y-44741708D01*
X85651995Y-44760180D01*
X85614499Y-44771555D01*
X85569362Y-44776000D01*
X84830638Y-44776000D01*
X84785501Y-44771555D01*
X84748005Y-44760180D01*
X84713446Y-44741708D01*
X84683153Y-44716847D01*
X84658292Y-44686554D01*
X84639820Y-44651995D01*
X84628445Y-44614499D01*
X84624000Y-44569362D01*
X84624000Y-43930638D01*
X84628445Y-43885501D01*
X84639820Y-43848005D01*
X84658292Y-43813446D01*
X84683153Y-43783153D01*
X84713446Y-43758292D01*
X84748005Y-43739820D01*
X84785501Y-43728445D01*
X84830638Y-43724000D01*
X85569362Y-43724000D01*
X85614499Y-43728445D01*
G37*
G36*
X56014499Y-42503445D02*
G01*
X56051995Y-42514820D01*
X56086554Y-42533292D01*
X56116847Y-42558153D01*
X56141708Y-42588446D01*
X56160180Y-42623005D01*
X56171555Y-42660501D01*
X56176000Y-42705638D01*
X56176000Y-43444362D01*
X56171555Y-43489499D01*
X56160180Y-43526995D01*
X56141708Y-43561554D01*
X56116847Y-43591847D01*
X56086554Y-43616708D01*
X56051995Y-43635180D01*
X56014499Y-43646555D01*
X55969362Y-43651000D01*
X55330638Y-43651000D01*
X55285501Y-43646555D01*
X55248005Y-43635180D01*
X55213446Y-43616708D01*
X55183153Y-43591847D01*
X55158292Y-43561554D01*
X55139820Y-43526995D01*
X55128445Y-43489499D01*
X55124000Y-43444362D01*
X55124000Y-42705638D01*
X55128445Y-42660501D01*
X55139820Y-42623005D01*
X55158292Y-42588446D01*
X55183153Y-42558153D01*
X55213446Y-42533292D01*
X55248005Y-42514820D01*
X55285501Y-42503445D01*
X55330638Y-42499000D01*
X55969362Y-42499000D01*
X56014499Y-42503445D01*
G37*
G36*
X60314499Y-42503445D02*
G01*
X60351995Y-42514820D01*
X60386554Y-42533292D01*
X60416847Y-42558153D01*
X60441708Y-42588446D01*
X60460180Y-42623005D01*
X60471555Y-42660501D01*
X60476000Y-42705638D01*
X60476000Y-43444362D01*
X60471555Y-43489499D01*
X60460180Y-43526995D01*
X60441708Y-43561554D01*
X60416847Y-43591847D01*
X60386554Y-43616708D01*
X60351995Y-43635180D01*
X60314499Y-43646555D01*
X60269362Y-43651000D01*
X59630638Y-43651000D01*
X59585501Y-43646555D01*
X59548005Y-43635180D01*
X59513446Y-43616708D01*
X59483153Y-43591847D01*
X59458292Y-43561554D01*
X59439820Y-43526995D01*
X59428445Y-43489499D01*
X59424000Y-43444362D01*
X59424000Y-42705638D01*
X59428445Y-42660501D01*
X59439820Y-42623005D01*
X59458292Y-42588446D01*
X59483153Y-42558153D01*
X59513446Y-42533292D01*
X59548005Y-42514820D01*
X59585501Y-42503445D01*
X59630638Y-42499000D01*
X60269362Y-42499000D01*
X60314499Y-42503445D01*
G37*
G36*
X62614499Y-42503445D02*
G01*
X62651995Y-42514820D01*
X62686554Y-42533292D01*
X62716847Y-42558153D01*
X62741708Y-42588446D01*
X62760180Y-42623005D01*
X62771555Y-42660501D01*
X62776000Y-42705638D01*
X62776000Y-43444362D01*
X62771555Y-43489499D01*
X62760180Y-43526995D01*
X62741708Y-43561554D01*
X62716847Y-43591847D01*
X62686554Y-43616708D01*
X62651995Y-43635180D01*
X62614499Y-43646555D01*
X62569362Y-43651000D01*
X61930638Y-43651000D01*
X61885501Y-43646555D01*
X61848005Y-43635180D01*
X61813446Y-43616708D01*
X61783153Y-43591847D01*
X61758292Y-43561554D01*
X61739820Y-43526995D01*
X61728445Y-43489499D01*
X61724000Y-43444362D01*
X61724000Y-42705638D01*
X61728445Y-42660501D01*
X61739820Y-42623005D01*
X61758292Y-42588446D01*
X61783153Y-42558153D01*
X61813446Y-42533292D01*
X61848005Y-42514820D01*
X61885501Y-42503445D01*
X61930638Y-42499000D01*
X62569362Y-42499000D01*
X62614499Y-42503445D01*
G37*
G36*
X58314499Y-42503445D02*
G01*
X58351995Y-42514820D01*
X58386554Y-42533292D01*
X58416847Y-42558153D01*
X58441708Y-42588446D01*
X58460180Y-42623005D01*
X58471555Y-42660501D01*
X58476000Y-42705638D01*
X58476000Y-43444362D01*
X58471555Y-43489499D01*
X58460180Y-43526995D01*
X58441708Y-43561554D01*
X58416847Y-43591847D01*
X58386554Y-43616708D01*
X58351995Y-43635180D01*
X58314499Y-43646555D01*
X58269362Y-43651000D01*
X57630638Y-43651000D01*
X57585501Y-43646555D01*
X57548005Y-43635180D01*
X57513446Y-43616708D01*
X57483153Y-43591847D01*
X57458292Y-43561554D01*
X57439820Y-43526995D01*
X57428445Y-43489499D01*
X57424000Y-43444362D01*
X57424000Y-42705638D01*
X57428445Y-42660501D01*
X57439820Y-42623005D01*
X57458292Y-42588446D01*
X57483153Y-42558153D01*
X57513446Y-42533292D01*
X57548005Y-42514820D01*
X57585501Y-42503445D01*
X57630638Y-42499000D01*
X58269362Y-42499000D01*
X58314499Y-42503445D01*
G37*
G36*
X49514499Y-42503445D02*
G01*
X49551995Y-42514820D01*
X49586554Y-42533292D01*
X49616847Y-42558153D01*
X49641708Y-42588446D01*
X49660180Y-42623005D01*
X49671555Y-42660501D01*
X49676000Y-42705638D01*
X49676000Y-43444362D01*
X49671555Y-43489499D01*
X49660180Y-43526995D01*
X49641708Y-43561554D01*
X49616847Y-43591847D01*
X49586554Y-43616708D01*
X49551995Y-43635180D01*
X49514499Y-43646555D01*
X49469362Y-43651000D01*
X48830638Y-43651000D01*
X48785501Y-43646555D01*
X48748005Y-43635180D01*
X48713446Y-43616708D01*
X48683153Y-43591847D01*
X48658292Y-43561554D01*
X48639820Y-43526995D01*
X48628445Y-43489499D01*
X48624000Y-43444362D01*
X48624000Y-42705638D01*
X48628445Y-42660501D01*
X48639820Y-42623005D01*
X48658292Y-42588446D01*
X48683153Y-42558153D01*
X48713446Y-42533292D01*
X48748005Y-42514820D01*
X48785501Y-42503445D01*
X48830638Y-42499000D01*
X49469362Y-42499000D01*
X49514499Y-42503445D01*
G37*
G36*
X47714499Y-42503445D02*
G01*
X47751995Y-42514820D01*
X47786554Y-42533292D01*
X47816847Y-42558153D01*
X47841708Y-42588446D01*
X47860180Y-42623005D01*
X47871555Y-42660501D01*
X47876000Y-42705638D01*
X47876000Y-43444362D01*
X47871555Y-43489499D01*
X47860180Y-43526995D01*
X47841708Y-43561554D01*
X47816847Y-43591847D01*
X47786554Y-43616708D01*
X47751995Y-43635180D01*
X47714499Y-43646555D01*
X47669362Y-43651000D01*
X47030638Y-43651000D01*
X46985501Y-43646555D01*
X46948005Y-43635180D01*
X46913446Y-43616708D01*
X46883153Y-43591847D01*
X46858292Y-43561554D01*
X46839820Y-43526995D01*
X46828445Y-43489499D01*
X46824000Y-43444362D01*
X46824000Y-42705638D01*
X46828445Y-42660501D01*
X46839820Y-42623005D01*
X46858292Y-42588446D01*
X46883153Y-42558153D01*
X46913446Y-42533292D01*
X46948005Y-42514820D01*
X46985501Y-42503445D01*
X47030638Y-42499000D01*
X47669362Y-42499000D01*
X47714499Y-42503445D01*
G37*
G36*
X43414499Y-42503445D02*
G01*
X43451995Y-42514820D01*
X43486554Y-42533292D01*
X43516847Y-42558153D01*
X43541708Y-42588446D01*
X43560180Y-42623005D01*
X43571555Y-42660501D01*
X43576000Y-42705638D01*
X43576000Y-43444362D01*
X43571555Y-43489499D01*
X43560180Y-43526995D01*
X43541708Y-43561554D01*
X43516847Y-43591847D01*
X43486554Y-43616708D01*
X43451995Y-43635180D01*
X43414499Y-43646555D01*
X43369362Y-43651000D01*
X42730638Y-43651000D01*
X42685501Y-43646555D01*
X42648005Y-43635180D01*
X42613446Y-43616708D01*
X42583153Y-43591847D01*
X42558292Y-43561554D01*
X42539820Y-43526995D01*
X42528445Y-43489499D01*
X42524000Y-43444362D01*
X42524000Y-42705638D01*
X42528445Y-42660501D01*
X42539820Y-42623005D01*
X42558292Y-42588446D01*
X42583153Y-42558153D01*
X42613446Y-42533292D01*
X42648005Y-42514820D01*
X42685501Y-42503445D01*
X42730638Y-42499000D01*
X43369362Y-42499000D01*
X43414499Y-42503445D01*
G37*
G36*
X45214499Y-42503445D02*
G01*
X45251995Y-42514820D01*
X45286554Y-42533292D01*
X45316847Y-42558153D01*
X45341708Y-42588446D01*
X45360180Y-42623005D01*
X45371555Y-42660501D01*
X45376000Y-42705638D01*
X45376000Y-43444362D01*
X45371555Y-43489499D01*
X45360180Y-43526995D01*
X45341708Y-43561554D01*
X45316847Y-43591847D01*
X45286554Y-43616708D01*
X45251995Y-43635180D01*
X45214499Y-43646555D01*
X45169362Y-43651000D01*
X44530638Y-43651000D01*
X44485501Y-43646555D01*
X44448005Y-43635180D01*
X44413446Y-43616708D01*
X44383153Y-43591847D01*
X44358292Y-43561554D01*
X44339820Y-43526995D01*
X44328445Y-43489499D01*
X44324000Y-43444362D01*
X44324000Y-42705638D01*
X44328445Y-42660501D01*
X44339820Y-42623005D01*
X44358292Y-42588446D01*
X44383153Y-42558153D01*
X44413446Y-42533292D01*
X44448005Y-42514820D01*
X44485501Y-42503445D01*
X44530638Y-42499000D01*
X45169362Y-42499000D01*
X45214499Y-42503445D01*
G37*
G36*
X85051000Y-43001000D02*
G01*
X83149000Y-43001000D01*
X83149000Y-41699000D01*
X85051000Y-41699000D01*
X85051000Y-43001000D01*
G37*
G36*
X89051000Y-43001000D02*
G01*
X87149000Y-43001000D01*
X87149000Y-41699000D01*
X89051000Y-41699000D01*
X89051000Y-43001000D01*
G37*
G36*
X91064499Y-41328445D02*
G01*
X91101995Y-41339820D01*
X91136554Y-41358292D01*
X91166847Y-41383153D01*
X91191708Y-41413446D01*
X91210180Y-41448005D01*
X91221555Y-41485501D01*
X91226000Y-41530638D01*
X91226000Y-42269362D01*
X91221555Y-42314499D01*
X91210180Y-42351995D01*
X91191708Y-42386554D01*
X91166847Y-42416847D01*
X91136554Y-42441708D01*
X91101995Y-42460180D01*
X91064499Y-42471555D01*
X91019362Y-42476000D01*
X90380638Y-42476000D01*
X90335501Y-42471555D01*
X90298005Y-42460180D01*
X90263446Y-42441708D01*
X90233153Y-42416847D01*
X90208292Y-42386554D01*
X90189820Y-42351995D01*
X90178445Y-42314499D01*
X90174000Y-42269362D01*
X90174000Y-41530638D01*
X90178445Y-41485501D01*
X90189820Y-41448005D01*
X90208292Y-41413446D01*
X90233153Y-41383153D01*
X90263446Y-41358292D01*
X90298005Y-41339820D01*
X90335501Y-41328445D01*
X90380638Y-41324000D01*
X91019362Y-41324000D01*
X91064499Y-41328445D01*
G37*
G36*
X73420295Y-40375323D02*
G01*
X73427309Y-40377451D01*
X73441077Y-40384810D01*
X73463716Y-40394187D01*
X73487749Y-40398967D01*
X73512253Y-40398967D01*
X73536286Y-40394186D01*
X73558923Y-40384810D01*
X73572691Y-40377451D01*
X73579705Y-40375323D01*
X73593140Y-40374000D01*
X73906860Y-40374000D01*
X73920295Y-40375323D01*
X73927309Y-40377451D01*
X73941077Y-40384810D01*
X73963716Y-40394187D01*
X73987749Y-40398967D01*
X74012253Y-40398967D01*
X74036286Y-40394186D01*
X74058923Y-40384810D01*
X74072691Y-40377451D01*
X74079705Y-40375323D01*
X74093140Y-40374000D01*
X74406860Y-40374000D01*
X74420295Y-40375323D01*
X74427309Y-40377451D01*
X74441077Y-40384810D01*
X74463716Y-40394187D01*
X74487749Y-40398967D01*
X74512253Y-40398967D01*
X74536286Y-40394186D01*
X74558923Y-40384810D01*
X74572691Y-40377451D01*
X74579705Y-40375323D01*
X74593140Y-40374000D01*
X74906860Y-40374000D01*
X74920295Y-40375323D01*
X74927309Y-40377451D01*
X74941077Y-40384810D01*
X74963716Y-40394187D01*
X74987749Y-40398967D01*
X75012253Y-40398967D01*
X75036286Y-40394186D01*
X75058923Y-40384810D01*
X75072691Y-40377451D01*
X75079705Y-40375323D01*
X75093140Y-40374000D01*
X75406860Y-40374000D01*
X75420295Y-40375323D01*
X75427309Y-40377451D01*
X75441077Y-40384810D01*
X75463716Y-40394187D01*
X75487749Y-40398967D01*
X75512253Y-40398967D01*
X75536286Y-40394186D01*
X75558923Y-40384810D01*
X75572691Y-40377451D01*
X75579705Y-40375323D01*
X75593140Y-40374000D01*
X75906860Y-40374000D01*
X75920295Y-40375323D01*
X75927309Y-40377451D01*
X75941077Y-40384810D01*
X75963716Y-40394187D01*
X75987749Y-40398967D01*
X76012253Y-40398967D01*
X76036286Y-40394186D01*
X76058923Y-40384810D01*
X76072691Y-40377451D01*
X76079705Y-40375323D01*
X76093140Y-40374000D01*
X76406860Y-40374000D01*
X76420295Y-40375323D01*
X76427309Y-40377451D01*
X76441077Y-40384810D01*
X76463716Y-40394187D01*
X76487749Y-40398967D01*
X76512253Y-40398967D01*
X76536286Y-40394186D01*
X76558923Y-40384810D01*
X76572691Y-40377451D01*
X76579705Y-40375323D01*
X76593140Y-40374000D01*
X76906860Y-40374000D01*
X76920295Y-40375323D01*
X76927309Y-40377451D01*
X76941077Y-40384810D01*
X76963716Y-40394187D01*
X76987749Y-40398967D01*
X77012253Y-40398967D01*
X77036286Y-40394186D01*
X77058923Y-40384810D01*
X77072691Y-40377451D01*
X77079705Y-40375323D01*
X77093140Y-40374000D01*
X77406860Y-40374000D01*
X77420295Y-40375323D01*
X77427309Y-40377451D01*
X77441077Y-40384810D01*
X77463716Y-40394187D01*
X77487749Y-40398967D01*
X77512253Y-40398967D01*
X77536286Y-40394186D01*
X77558923Y-40384810D01*
X77572691Y-40377451D01*
X77579705Y-40375323D01*
X77593140Y-40374000D01*
X77906860Y-40374000D01*
X77920295Y-40375323D01*
X77927309Y-40377451D01*
X77941077Y-40384810D01*
X77963716Y-40394187D01*
X77987749Y-40398967D01*
X78012253Y-40398967D01*
X78036286Y-40394186D01*
X78058923Y-40384810D01*
X78072691Y-40377451D01*
X78079705Y-40375323D01*
X78093140Y-40374000D01*
X78406860Y-40374000D01*
X78420295Y-40375323D01*
X78427309Y-40377451D01*
X78441077Y-40384810D01*
X78463716Y-40394187D01*
X78487749Y-40398967D01*
X78512253Y-40398967D01*
X78536286Y-40394186D01*
X78558923Y-40384810D01*
X78572691Y-40377451D01*
X78579705Y-40375323D01*
X78593140Y-40374000D01*
X78906860Y-40374000D01*
X78920295Y-40375323D01*
X78927310Y-40377451D01*
X78933776Y-40380908D01*
X78939442Y-40385558D01*
X78944092Y-40391224D01*
X78947549Y-40397690D01*
X78949677Y-40404705D01*
X78951000Y-40418140D01*
X78951000Y-41906860D01*
X78949677Y-41920295D01*
X78947549Y-41927310D01*
X78944092Y-41933776D01*
X78939442Y-41939442D01*
X78933776Y-41944092D01*
X78927310Y-41947549D01*
X78920295Y-41949677D01*
X78906860Y-41951000D01*
X78593140Y-41951000D01*
X78579705Y-41949677D01*
X78572691Y-41947549D01*
X78558923Y-41940190D01*
X78536284Y-41930813D01*
X78512251Y-41926033D01*
X78487747Y-41926033D01*
X78463714Y-41930814D01*
X78441077Y-41940190D01*
X78427309Y-41947549D01*
X78420295Y-41949677D01*
X78406860Y-41951000D01*
X78093140Y-41951000D01*
X78079705Y-41949677D01*
X78072691Y-41947549D01*
X78058923Y-41940190D01*
X78036284Y-41930813D01*
X78012251Y-41926033D01*
X77987747Y-41926033D01*
X77963714Y-41930814D01*
X77941077Y-41940190D01*
X77927309Y-41947549D01*
X77920295Y-41949677D01*
X77906860Y-41951000D01*
X77593140Y-41951000D01*
X77579705Y-41949677D01*
X77572691Y-41947549D01*
X77558923Y-41940190D01*
X77536284Y-41930813D01*
X77512251Y-41926033D01*
X77487747Y-41926033D01*
X77463714Y-41930814D01*
X77441077Y-41940190D01*
X77427309Y-41947549D01*
X77420295Y-41949677D01*
X77406860Y-41951000D01*
X77093140Y-41951000D01*
X77079705Y-41949677D01*
X77072691Y-41947549D01*
X77058923Y-41940190D01*
X77036284Y-41930813D01*
X77012251Y-41926033D01*
X76987747Y-41926033D01*
X76963714Y-41930814D01*
X76941077Y-41940190D01*
X76927309Y-41947549D01*
X76920295Y-41949677D01*
X76906860Y-41951000D01*
X76593140Y-41951000D01*
X76579705Y-41949677D01*
X76572691Y-41947549D01*
X76558923Y-41940190D01*
X76536284Y-41930813D01*
X76512251Y-41926033D01*
X76487747Y-41926033D01*
X76463714Y-41930814D01*
X76441077Y-41940190D01*
X76427309Y-41947549D01*
X76420295Y-41949677D01*
X76406860Y-41951000D01*
X76093140Y-41951000D01*
X76079705Y-41949677D01*
X76072691Y-41947549D01*
X76058923Y-41940190D01*
X76036284Y-41930813D01*
X76012251Y-41926033D01*
X75987747Y-41926033D01*
X75963714Y-41930814D01*
X75941077Y-41940190D01*
X75927309Y-41947549D01*
X75920295Y-41949677D01*
X75906860Y-41951000D01*
X75593140Y-41951000D01*
X75579705Y-41949677D01*
X75572691Y-41947549D01*
X75558923Y-41940190D01*
X75536284Y-41930813D01*
X75512251Y-41926033D01*
X75487747Y-41926033D01*
X75463714Y-41930814D01*
X75441077Y-41940190D01*
X75427309Y-41947549D01*
X75420295Y-41949677D01*
X75406860Y-41951000D01*
X75093140Y-41951000D01*
X75079705Y-41949677D01*
X75072691Y-41947549D01*
X75058923Y-41940190D01*
X75036284Y-41930813D01*
X75012251Y-41926033D01*
X74987747Y-41926033D01*
X74963714Y-41930814D01*
X74941077Y-41940190D01*
X74927309Y-41947549D01*
X74920295Y-41949677D01*
X74906860Y-41951000D01*
X74593140Y-41951000D01*
X74579705Y-41949677D01*
X74572691Y-41947549D01*
X74558923Y-41940190D01*
X74536284Y-41930813D01*
X74512251Y-41926033D01*
X74487747Y-41926033D01*
X74463714Y-41930814D01*
X74441077Y-41940190D01*
X74427309Y-41947549D01*
X74420295Y-41949677D01*
X74406860Y-41951000D01*
X74093140Y-41951000D01*
X74079705Y-41949677D01*
X74072691Y-41947549D01*
X74058923Y-41940190D01*
X74036284Y-41930813D01*
X74012251Y-41926033D01*
X73987747Y-41926033D01*
X73963714Y-41930814D01*
X73941077Y-41940190D01*
X73927309Y-41947549D01*
X73920295Y-41949677D01*
X73906860Y-41951000D01*
X73593140Y-41951000D01*
X73579705Y-41949677D01*
X73572691Y-41947549D01*
X73558923Y-41940190D01*
X73536284Y-41930813D01*
X73512251Y-41926033D01*
X73487747Y-41926033D01*
X73463714Y-41930814D01*
X73441077Y-41940190D01*
X73427309Y-41947549D01*
X73420295Y-41949677D01*
X73406860Y-41951000D01*
X73093140Y-41951000D01*
X73079705Y-41949677D01*
X73072690Y-41947549D01*
X73066224Y-41944092D01*
X73060558Y-41939442D01*
X73055908Y-41933776D01*
X73052451Y-41927310D01*
X73050323Y-41920295D01*
X73049000Y-41906860D01*
X73049000Y-40418140D01*
X73050323Y-40404705D01*
X73052451Y-40397690D01*
X73055908Y-40391224D01*
X73060558Y-40385558D01*
X73066224Y-40380908D01*
X73072690Y-40377451D01*
X73079705Y-40375323D01*
X73093140Y-40374000D01*
X73406860Y-40374000D01*
X73420295Y-40375323D01*
G37*
G36*
X91064499Y-39578445D02*
G01*
X91101995Y-39589820D01*
X91136554Y-39608292D01*
X91166847Y-39633153D01*
X91191708Y-39663446D01*
X91210180Y-39698005D01*
X91221555Y-39735501D01*
X91226000Y-39780638D01*
X91226000Y-40519362D01*
X91221555Y-40564499D01*
X91210180Y-40601995D01*
X91191708Y-40636554D01*
X91166847Y-40666847D01*
X91136554Y-40691708D01*
X91101995Y-40710180D01*
X91064499Y-40721555D01*
X91019362Y-40726000D01*
X90380638Y-40726000D01*
X90335501Y-40721555D01*
X90298005Y-40710180D01*
X90263446Y-40691708D01*
X90233153Y-40666847D01*
X90208292Y-40636554D01*
X90189820Y-40601995D01*
X90178445Y-40564499D01*
X90174000Y-40519362D01*
X90174000Y-39780638D01*
X90178445Y-39735501D01*
X90189820Y-39698005D01*
X90208292Y-39663446D01*
X90233153Y-39633153D01*
X90263446Y-39608292D01*
X90298005Y-39589820D01*
X90335501Y-39578445D01*
X90380638Y-39574000D01*
X91019362Y-39574000D01*
X91064499Y-39578445D01*
G37*
G36*
X85051000Y-40601000D02*
G01*
X83149000Y-40601000D01*
X83149000Y-39299000D01*
X85051000Y-39299000D01*
X85051000Y-40601000D01*
G37*
G36*
X89051000Y-40601000D02*
G01*
X87149000Y-40601000D01*
X87149000Y-39299000D01*
X89051000Y-39299000D01*
X89051000Y-40601000D01*
G37*
G36*
X96239499Y-39378445D02*
G01*
X96276995Y-39389820D01*
X96311554Y-39408292D01*
X96341847Y-39433153D01*
X96366708Y-39463446D01*
X96385180Y-39498005D01*
X96396555Y-39535501D01*
X96401000Y-39580638D01*
X96401000Y-40219362D01*
X96396555Y-40264499D01*
X96385180Y-40301995D01*
X96366708Y-40336554D01*
X96341847Y-40366847D01*
X96311554Y-40391708D01*
X96276995Y-40410180D01*
X96239499Y-40421555D01*
X96194362Y-40426000D01*
X95455638Y-40426000D01*
X95410501Y-40421555D01*
X95373005Y-40410180D01*
X95338446Y-40391708D01*
X95308153Y-40366847D01*
X95283292Y-40336554D01*
X95264820Y-40301995D01*
X95253445Y-40264499D01*
X95249000Y-40219362D01*
X95249000Y-39580638D01*
X95253445Y-39535501D01*
X95264820Y-39498005D01*
X95283292Y-39463446D01*
X95308153Y-39433153D01*
X95338446Y-39408292D01*
X95373005Y-39389820D01*
X95410501Y-39378445D01*
X95455638Y-39374000D01*
X96194362Y-39374000D01*
X96239499Y-39378445D01*
G37*
G36*
X97989499Y-39378445D02*
G01*
X98026995Y-39389820D01*
X98061554Y-39408292D01*
X98091847Y-39433153D01*
X98116708Y-39463446D01*
X98135180Y-39498005D01*
X98146555Y-39535501D01*
X98151000Y-39580638D01*
X98151000Y-40219362D01*
X98146555Y-40264499D01*
X98135180Y-40301995D01*
X98116708Y-40336554D01*
X98091847Y-40366847D01*
X98061554Y-40391708D01*
X98026995Y-40410180D01*
X97989499Y-40421555D01*
X97944362Y-40426000D01*
X97205638Y-40426000D01*
X97160501Y-40421555D01*
X97123005Y-40410180D01*
X97088446Y-40391708D01*
X97058153Y-40366847D01*
X97033292Y-40336554D01*
X97014820Y-40301995D01*
X97003445Y-40264499D01*
X96999000Y-40219362D01*
X96999000Y-39580638D01*
X97003445Y-39535501D01*
X97014820Y-39498005D01*
X97033292Y-39463446D01*
X97058153Y-39433153D01*
X97088446Y-39408292D01*
X97123005Y-39389820D01*
X97160501Y-39378445D01*
X97205638Y-39374000D01*
X97944362Y-39374000D01*
X97989499Y-39378445D01*
G37*
G36*
X60364499Y-39278445D02*
G01*
X60401995Y-39289820D01*
X60436554Y-39308292D01*
X60466847Y-39333153D01*
X60491708Y-39363446D01*
X60510180Y-39398005D01*
X60521555Y-39435501D01*
X60526000Y-39480638D01*
X60526000Y-40219362D01*
X60521555Y-40264499D01*
X60510180Y-40301995D01*
X60491708Y-40336554D01*
X60466847Y-40366847D01*
X60436554Y-40391708D01*
X60401995Y-40410180D01*
X60364499Y-40421555D01*
X60319362Y-40426000D01*
X59680638Y-40426000D01*
X59635501Y-40421555D01*
X59598005Y-40410180D01*
X59563446Y-40391708D01*
X59533153Y-40366847D01*
X59508292Y-40336554D01*
X59489820Y-40301995D01*
X59478445Y-40264499D01*
X59474000Y-40219362D01*
X59474000Y-39480638D01*
X59478445Y-39435501D01*
X59489820Y-39398005D01*
X59508292Y-39363446D01*
X59533153Y-39333153D01*
X59563446Y-39308292D01*
X59598005Y-39289820D01*
X59635501Y-39278445D01*
X59680638Y-39274000D01*
X60319362Y-39274000D01*
X60364499Y-39278445D01*
G37*
G36*
X72595295Y-34050323D02*
G01*
X72602310Y-34052451D01*
X72608776Y-34055908D01*
X72614442Y-34060558D01*
X72619092Y-34066224D01*
X72622549Y-34072690D01*
X72624677Y-34079705D01*
X72626000Y-34093140D01*
X72626000Y-34406860D01*
X72624677Y-34420295D01*
X72622549Y-34427309D01*
X72615190Y-34441077D01*
X72605813Y-34463716D01*
X72601033Y-34487749D01*
X72601033Y-34512253D01*
X72605814Y-34536286D01*
X72615190Y-34558923D01*
X72622549Y-34572691D01*
X72624677Y-34579705D01*
X72626000Y-34593140D01*
X72626000Y-34906860D01*
X72624677Y-34920295D01*
X72622549Y-34927309D01*
X72615190Y-34941077D01*
X72605813Y-34963716D01*
X72601033Y-34987749D01*
X72601033Y-35012253D01*
X72605814Y-35036286D01*
X72615190Y-35058923D01*
X72622549Y-35072691D01*
X72624677Y-35079705D01*
X72626000Y-35093140D01*
X72626000Y-35406860D01*
X72624677Y-35420295D01*
X72622549Y-35427309D01*
X72615190Y-35441077D01*
X72605813Y-35463716D01*
X72601033Y-35487749D01*
X72601033Y-35512253D01*
X72605814Y-35536286D01*
X72615190Y-35558923D01*
X72622549Y-35572691D01*
X72624677Y-35579705D01*
X72626000Y-35593140D01*
X72626000Y-35906860D01*
X72624677Y-35920295D01*
X72622549Y-35927309D01*
X72615190Y-35941077D01*
X72605813Y-35963716D01*
X72601033Y-35987749D01*
X72601033Y-36012253D01*
X72605814Y-36036286D01*
X72615190Y-36058923D01*
X72622549Y-36072691D01*
X72624677Y-36079705D01*
X72626000Y-36093140D01*
X72626000Y-36406860D01*
X72624677Y-36420295D01*
X72622549Y-36427309D01*
X72615190Y-36441077D01*
X72605813Y-36463716D01*
X72601033Y-36487749D01*
X72601033Y-36512253D01*
X72605814Y-36536286D01*
X72615190Y-36558923D01*
X72622549Y-36572691D01*
X72624677Y-36579705D01*
X72626000Y-36593140D01*
X72626000Y-36906860D01*
X72624677Y-36920295D01*
X72622549Y-36927309D01*
X72615190Y-36941077D01*
X72605813Y-36963716D01*
X72601033Y-36987749D01*
X72601033Y-37012253D01*
X72605814Y-37036286D01*
X72615190Y-37058923D01*
X72622549Y-37072691D01*
X72624677Y-37079705D01*
X72626000Y-37093140D01*
X72626000Y-37406860D01*
X72624677Y-37420295D01*
X72622549Y-37427309D01*
X72615190Y-37441077D01*
X72605813Y-37463716D01*
X72601033Y-37487749D01*
X72601033Y-37512253D01*
X72605814Y-37536286D01*
X72615190Y-37558923D01*
X72622549Y-37572691D01*
X72624677Y-37579705D01*
X72626000Y-37593140D01*
X72626000Y-37906860D01*
X72624677Y-37920295D01*
X72622549Y-37927309D01*
X72615190Y-37941077D01*
X72605813Y-37963716D01*
X72601033Y-37987749D01*
X72601033Y-38012253D01*
X72605814Y-38036286D01*
X72615190Y-38058923D01*
X72622549Y-38072691D01*
X72624677Y-38079705D01*
X72626000Y-38093140D01*
X72626000Y-38406860D01*
X72624677Y-38420295D01*
X72622549Y-38427309D01*
X72615190Y-38441077D01*
X72605813Y-38463716D01*
X72601033Y-38487749D01*
X72601033Y-38512253D01*
X72605814Y-38536286D01*
X72615190Y-38558923D01*
X72622549Y-38572691D01*
X72624677Y-38579705D01*
X72626000Y-38593140D01*
X72626000Y-38906860D01*
X72624677Y-38920295D01*
X72622549Y-38927309D01*
X72615190Y-38941077D01*
X72605813Y-38963716D01*
X72601033Y-38987749D01*
X72601033Y-39012253D01*
X72605814Y-39036286D01*
X72615190Y-39058923D01*
X72622549Y-39072691D01*
X72624677Y-39079705D01*
X72626000Y-39093140D01*
X72626000Y-39406860D01*
X72624677Y-39420295D01*
X72622549Y-39427309D01*
X72615190Y-39441077D01*
X72605813Y-39463716D01*
X72601033Y-39487749D01*
X72601033Y-39512253D01*
X72605814Y-39536286D01*
X72615190Y-39558923D01*
X72622549Y-39572691D01*
X72624677Y-39579705D01*
X72626000Y-39593140D01*
X72626000Y-39906860D01*
X72624677Y-39920295D01*
X72622549Y-39927310D01*
X72619092Y-39933776D01*
X72614442Y-39939442D01*
X72608776Y-39944092D01*
X72602310Y-39947549D01*
X72595295Y-39949677D01*
X72581860Y-39951000D01*
X71093140Y-39951000D01*
X71079705Y-39949677D01*
X71072690Y-39947549D01*
X71066224Y-39944092D01*
X71060558Y-39939442D01*
X71055908Y-39933776D01*
X71052451Y-39927310D01*
X71050323Y-39920295D01*
X71049000Y-39906860D01*
X71049000Y-39593140D01*
X71050323Y-39579705D01*
X71052451Y-39572691D01*
X71059810Y-39558923D01*
X71069187Y-39536284D01*
X71073967Y-39512251D01*
X71073967Y-39487747D01*
X71069186Y-39463714D01*
X71059810Y-39441077D01*
X71052451Y-39427309D01*
X71050323Y-39420295D01*
X71049000Y-39406860D01*
X71049000Y-39093140D01*
X71050323Y-39079705D01*
X71052451Y-39072691D01*
X71059810Y-39058923D01*
X71069187Y-39036284D01*
X71073967Y-39012251D01*
X71073967Y-38987747D01*
X71069186Y-38963714D01*
X71059810Y-38941077D01*
X71052451Y-38927309D01*
X71050323Y-38920295D01*
X71049000Y-38906860D01*
X71049000Y-38593140D01*
X71050323Y-38579705D01*
X71052451Y-38572691D01*
X71059810Y-38558923D01*
X71069187Y-38536284D01*
X71073967Y-38512251D01*
X71073967Y-38487747D01*
X71069186Y-38463714D01*
X71059810Y-38441077D01*
X71052451Y-38427309D01*
X71050323Y-38420295D01*
X71049000Y-38406860D01*
X71049000Y-38093140D01*
X71050323Y-38079705D01*
X71052451Y-38072691D01*
X71059810Y-38058923D01*
X71069187Y-38036284D01*
X71073967Y-38012251D01*
X71073967Y-37987747D01*
X71069186Y-37963714D01*
X71059810Y-37941077D01*
X71052451Y-37927309D01*
X71050323Y-37920295D01*
X71049000Y-37906860D01*
X71049000Y-37593140D01*
X71050323Y-37579705D01*
X71052451Y-37572691D01*
X71059810Y-37558923D01*
X71069187Y-37536284D01*
X71073967Y-37512251D01*
X71073967Y-37487747D01*
X71069186Y-37463714D01*
X71059810Y-37441077D01*
X71052451Y-37427309D01*
X71050323Y-37420295D01*
X71049000Y-37406860D01*
X71049000Y-37093140D01*
X71050323Y-37079705D01*
X71052451Y-37072691D01*
X71059810Y-37058923D01*
X71069187Y-37036284D01*
X71073967Y-37012251D01*
X71073967Y-36987747D01*
X71069186Y-36963714D01*
X71059810Y-36941077D01*
X71052451Y-36927309D01*
X71050323Y-36920295D01*
X71049000Y-36906860D01*
X71049000Y-36593140D01*
X71050323Y-36579705D01*
X71052451Y-36572691D01*
X71059810Y-36558923D01*
X71069187Y-36536284D01*
X71073967Y-36512251D01*
X71073967Y-36487747D01*
X71069186Y-36463714D01*
X71059810Y-36441077D01*
X71052451Y-36427309D01*
X71050323Y-36420295D01*
X71049000Y-36406860D01*
X71049000Y-36093140D01*
X71050323Y-36079705D01*
X71052451Y-36072691D01*
X71059810Y-36058923D01*
X71069187Y-36036284D01*
X71073967Y-36012251D01*
X71073967Y-35987747D01*
X71069186Y-35963714D01*
X71059810Y-35941077D01*
X71052451Y-35927309D01*
X71050323Y-35920295D01*
X71049000Y-35906860D01*
X71049000Y-35593140D01*
X71050323Y-35579705D01*
X71052451Y-35572691D01*
X71059810Y-35558923D01*
X71069187Y-35536284D01*
X71073967Y-35512251D01*
X71073967Y-35487747D01*
X71069186Y-35463714D01*
X71059810Y-35441077D01*
X71052451Y-35427309D01*
X71050323Y-35420295D01*
X71049000Y-35406860D01*
X71049000Y-35093140D01*
X71050323Y-35079705D01*
X71052451Y-35072691D01*
X71059810Y-35058923D01*
X71069187Y-35036284D01*
X71073967Y-35012251D01*
X71073967Y-34987747D01*
X71069186Y-34963714D01*
X71059810Y-34941077D01*
X71052451Y-34927309D01*
X71050323Y-34920295D01*
X71049000Y-34906860D01*
X71049000Y-34593140D01*
X71050323Y-34579705D01*
X71052451Y-34572691D01*
X71059810Y-34558923D01*
X71069187Y-34536284D01*
X71073967Y-34512251D01*
X71073967Y-34487747D01*
X71069186Y-34463714D01*
X71059810Y-34441077D01*
X71052451Y-34427309D01*
X71050323Y-34420295D01*
X71049000Y-34406860D01*
X71049000Y-34093140D01*
X71050323Y-34079705D01*
X71052451Y-34072690D01*
X71055908Y-34066224D01*
X71060558Y-34060558D01*
X71066224Y-34055908D01*
X71072690Y-34052451D01*
X71079705Y-34050323D01*
X71093140Y-34049000D01*
X72581860Y-34049000D01*
X72595295Y-34050323D01*
G37*
G36*
X80920295Y-34050323D02*
G01*
X80927310Y-34052451D01*
X80933776Y-34055908D01*
X80939442Y-34060558D01*
X80944092Y-34066224D01*
X80947549Y-34072690D01*
X80949677Y-34079705D01*
X80951000Y-34093140D01*
X80951000Y-34406860D01*
X80949677Y-34420295D01*
X80947549Y-34427309D01*
X80940190Y-34441077D01*
X80930813Y-34463716D01*
X80926033Y-34487749D01*
X80926033Y-34512253D01*
X80930814Y-34536286D01*
X80940190Y-34558923D01*
X80947549Y-34572691D01*
X80949677Y-34579705D01*
X80951000Y-34593140D01*
X80951000Y-34906860D01*
X80949677Y-34920295D01*
X80947549Y-34927309D01*
X80940190Y-34941077D01*
X80930813Y-34963716D01*
X80926033Y-34987749D01*
X80926033Y-35012253D01*
X80930814Y-35036286D01*
X80940190Y-35058923D01*
X80947549Y-35072691D01*
X80949677Y-35079705D01*
X80951000Y-35093140D01*
X80951000Y-35406860D01*
X80949677Y-35420295D01*
X80947549Y-35427309D01*
X80940190Y-35441077D01*
X80930813Y-35463716D01*
X80926033Y-35487749D01*
X80926033Y-35512253D01*
X80930814Y-35536286D01*
X80940190Y-35558923D01*
X80947549Y-35572691D01*
X80949677Y-35579705D01*
X80951000Y-35593140D01*
X80951000Y-35906860D01*
X80949677Y-35920295D01*
X80947549Y-35927309D01*
X80940190Y-35941077D01*
X80930813Y-35963716D01*
X80926033Y-35987749D01*
X80926033Y-36012253D01*
X80930814Y-36036286D01*
X80940190Y-36058923D01*
X80947549Y-36072691D01*
X80949677Y-36079705D01*
X80951000Y-36093140D01*
X80951000Y-36406860D01*
X80949677Y-36420295D01*
X80947549Y-36427309D01*
X80940190Y-36441077D01*
X80930813Y-36463716D01*
X80926033Y-36487749D01*
X80926033Y-36512253D01*
X80930814Y-36536286D01*
X80940190Y-36558923D01*
X80947549Y-36572691D01*
X80949677Y-36579705D01*
X80951000Y-36593140D01*
X80951000Y-36906860D01*
X80949677Y-36920295D01*
X80947549Y-36927309D01*
X80940190Y-36941077D01*
X80930813Y-36963716D01*
X80926033Y-36987749D01*
X80926033Y-37012253D01*
X80930814Y-37036286D01*
X80940190Y-37058923D01*
X80947549Y-37072691D01*
X80949677Y-37079705D01*
X80951000Y-37093140D01*
X80951000Y-37406860D01*
X80949677Y-37420295D01*
X80947549Y-37427309D01*
X80940190Y-37441077D01*
X80930813Y-37463716D01*
X80926033Y-37487749D01*
X80926033Y-37512253D01*
X80930814Y-37536286D01*
X80940190Y-37558923D01*
X80947549Y-37572691D01*
X80949677Y-37579705D01*
X80951000Y-37593140D01*
X80951000Y-37906860D01*
X80949677Y-37920295D01*
X80947549Y-37927309D01*
X80940190Y-37941077D01*
X80930813Y-37963716D01*
X80926033Y-37987749D01*
X80926033Y-38012253D01*
X80930814Y-38036286D01*
X80940190Y-38058923D01*
X80947549Y-38072691D01*
X80949677Y-38079705D01*
X80951000Y-38093140D01*
X80951000Y-38406860D01*
X80949677Y-38420295D01*
X80947549Y-38427309D01*
X80940190Y-38441077D01*
X80930813Y-38463716D01*
X80926033Y-38487749D01*
X80926033Y-38512253D01*
X80930814Y-38536286D01*
X80940190Y-38558923D01*
X80947549Y-38572691D01*
X80949677Y-38579705D01*
X80951000Y-38593140D01*
X80951000Y-38906860D01*
X80949677Y-38920295D01*
X80947549Y-38927309D01*
X80940190Y-38941077D01*
X80930813Y-38963716D01*
X80926033Y-38987749D01*
X80926033Y-39012253D01*
X80930814Y-39036286D01*
X80940190Y-39058923D01*
X80947549Y-39072691D01*
X80949677Y-39079705D01*
X80951000Y-39093140D01*
X80951000Y-39406860D01*
X80949677Y-39420295D01*
X80947549Y-39427309D01*
X80940190Y-39441077D01*
X80930813Y-39463716D01*
X80926033Y-39487749D01*
X80926033Y-39512253D01*
X80930814Y-39536286D01*
X80940190Y-39558923D01*
X80947549Y-39572691D01*
X80949677Y-39579705D01*
X80951000Y-39593140D01*
X80951000Y-39906860D01*
X80949677Y-39920295D01*
X80947549Y-39927310D01*
X80944092Y-39933776D01*
X80939442Y-39939442D01*
X80933776Y-39944092D01*
X80927310Y-39947549D01*
X80920295Y-39949677D01*
X80906860Y-39951000D01*
X79418140Y-39951000D01*
X79404705Y-39949677D01*
X79397690Y-39947549D01*
X79391224Y-39944092D01*
X79385558Y-39939442D01*
X79380908Y-39933776D01*
X79377451Y-39927310D01*
X79375323Y-39920295D01*
X79374000Y-39906860D01*
X79374000Y-39593140D01*
X79375323Y-39579705D01*
X79377451Y-39572691D01*
X79384810Y-39558923D01*
X79394187Y-39536284D01*
X79398967Y-39512251D01*
X79398967Y-39487747D01*
X79394186Y-39463714D01*
X79384810Y-39441077D01*
X79377451Y-39427309D01*
X79375323Y-39420295D01*
X79374000Y-39406860D01*
X79374000Y-39093140D01*
X79375323Y-39079705D01*
X79377451Y-39072691D01*
X79384810Y-39058923D01*
X79394187Y-39036284D01*
X79398967Y-39012251D01*
X79398967Y-38987747D01*
X79394186Y-38963714D01*
X79384810Y-38941077D01*
X79377451Y-38927309D01*
X79375323Y-38920295D01*
X79374000Y-38906860D01*
X79374000Y-38593140D01*
X79375323Y-38579705D01*
X79377451Y-38572691D01*
X79384810Y-38558923D01*
X79394187Y-38536284D01*
X79398967Y-38512251D01*
X79398967Y-38487747D01*
X79394186Y-38463714D01*
X79384810Y-38441077D01*
X79377451Y-38427309D01*
X79375323Y-38420295D01*
X79374000Y-38406860D01*
X79374000Y-38093140D01*
X79375323Y-38079705D01*
X79377451Y-38072691D01*
X79384810Y-38058923D01*
X79394187Y-38036284D01*
X79398967Y-38012251D01*
X79398967Y-37987747D01*
X79394186Y-37963714D01*
X79384810Y-37941077D01*
X79377451Y-37927309D01*
X79375323Y-37920295D01*
X79374000Y-37906860D01*
X79374000Y-37593140D01*
X79375323Y-37579705D01*
X79377451Y-37572691D01*
X79384810Y-37558923D01*
X79394187Y-37536284D01*
X79398967Y-37512251D01*
X79398967Y-37487747D01*
X79394186Y-37463714D01*
X79384810Y-37441077D01*
X79377451Y-37427309D01*
X79375323Y-37420295D01*
X79374000Y-37406860D01*
X79374000Y-37093140D01*
X79375323Y-37079705D01*
X79377451Y-37072691D01*
X79384810Y-37058923D01*
X79394187Y-37036284D01*
X79398967Y-37012251D01*
X79398967Y-36987747D01*
X79394186Y-36963714D01*
X79384810Y-36941077D01*
X79377451Y-36927309D01*
X79375323Y-36920295D01*
X79374000Y-36906860D01*
X79374000Y-36593140D01*
X79375323Y-36579705D01*
X79377451Y-36572691D01*
X79384810Y-36558923D01*
X79394187Y-36536284D01*
X79398967Y-36512251D01*
X79398967Y-36487747D01*
X79394186Y-36463714D01*
X79384810Y-36441077D01*
X79377451Y-36427309D01*
X79375323Y-36420295D01*
X79374000Y-36406860D01*
X79374000Y-36093140D01*
X79375323Y-36079705D01*
X79377451Y-36072691D01*
X79384810Y-36058923D01*
X79394187Y-36036284D01*
X79398967Y-36012251D01*
X79398967Y-35987747D01*
X79394186Y-35963714D01*
X79384810Y-35941077D01*
X79377451Y-35927309D01*
X79375323Y-35920295D01*
X79374000Y-35906860D01*
X79374000Y-35593140D01*
X79375323Y-35579705D01*
X79377451Y-35572691D01*
X79384810Y-35558923D01*
X79394187Y-35536284D01*
X79398967Y-35512251D01*
X79398967Y-35487747D01*
X79394186Y-35463714D01*
X79384810Y-35441077D01*
X79377451Y-35427309D01*
X79375323Y-35420295D01*
X79374000Y-35406860D01*
X79374000Y-35093140D01*
X79375323Y-35079705D01*
X79377451Y-35072691D01*
X79384810Y-35058923D01*
X79394187Y-35036284D01*
X79398967Y-35012251D01*
X79398967Y-34987747D01*
X79394186Y-34963714D01*
X79384810Y-34941077D01*
X79377451Y-34927309D01*
X79375323Y-34920295D01*
X79374000Y-34906860D01*
X79374000Y-34593140D01*
X79375323Y-34579705D01*
X79377451Y-34572691D01*
X79384810Y-34558923D01*
X79394187Y-34536284D01*
X79398967Y-34512251D01*
X79398967Y-34487747D01*
X79394186Y-34463714D01*
X79384810Y-34441077D01*
X79377451Y-34427309D01*
X79375323Y-34420295D01*
X79374000Y-34406860D01*
X79374000Y-34093140D01*
X79375323Y-34079705D01*
X79377451Y-34072690D01*
X79380908Y-34066224D01*
X79385558Y-34060558D01*
X79391224Y-34055908D01*
X79397690Y-34052451D01*
X79404705Y-34050323D01*
X79418140Y-34049000D01*
X80906860Y-34049000D01*
X80920295Y-34050323D01*
G37*
G36*
X56014499Y-37953445D02*
G01*
X56051995Y-37964820D01*
X56086554Y-37983292D01*
X56116847Y-38008153D01*
X56141708Y-38038446D01*
X56160180Y-38073005D01*
X56171555Y-38110501D01*
X56176000Y-38155638D01*
X56176000Y-38894362D01*
X56171555Y-38939499D01*
X56160180Y-38976995D01*
X56141708Y-39011554D01*
X56116847Y-39041847D01*
X56086554Y-39066708D01*
X56051995Y-39085180D01*
X56014499Y-39096555D01*
X55969362Y-39101000D01*
X55330638Y-39101000D01*
X55285501Y-39096555D01*
X55248005Y-39085180D01*
X55213446Y-39066708D01*
X55183153Y-39041847D01*
X55158292Y-39011554D01*
X55139820Y-38976995D01*
X55128445Y-38939499D01*
X55124000Y-38894362D01*
X55124000Y-38155638D01*
X55128445Y-38110501D01*
X55139820Y-38073005D01*
X55158292Y-38038446D01*
X55183153Y-38008153D01*
X55213446Y-37983292D01*
X55248005Y-37964820D01*
X55285501Y-37953445D01*
X55330638Y-37949000D01*
X55969362Y-37949000D01*
X56014499Y-37953445D01*
G37*
G36*
X60364499Y-37528445D02*
G01*
X60401995Y-37539820D01*
X60436554Y-37558292D01*
X60466847Y-37583153D01*
X60491708Y-37613446D01*
X60510180Y-37648005D01*
X60521555Y-37685501D01*
X60526000Y-37730638D01*
X60526000Y-38469362D01*
X60521555Y-38514499D01*
X60510180Y-38551995D01*
X60491708Y-38586554D01*
X60466847Y-38616847D01*
X60436554Y-38641708D01*
X60401995Y-38660180D01*
X60364499Y-38671555D01*
X60319362Y-38676000D01*
X59680638Y-38676000D01*
X59635501Y-38671555D01*
X59598005Y-38660180D01*
X59563446Y-38641708D01*
X59533153Y-38616847D01*
X59508292Y-38586554D01*
X59489820Y-38551995D01*
X59478445Y-38514499D01*
X59474000Y-38469362D01*
X59474000Y-37730638D01*
X59478445Y-37685501D01*
X59489820Y-37648005D01*
X59508292Y-37613446D01*
X59533153Y-37583153D01*
X59563446Y-37558292D01*
X59598005Y-37539820D01*
X59635501Y-37528445D01*
X59680638Y-37524000D01*
X60319362Y-37524000D01*
X60364499Y-37528445D01*
G37*
G36*
X85914499Y-37528445D02*
G01*
X85951995Y-37539820D01*
X85986554Y-37558292D01*
X86016847Y-37583153D01*
X86041708Y-37613446D01*
X86060180Y-37648005D01*
X86071555Y-37685501D01*
X86076000Y-37730638D01*
X86076000Y-38369362D01*
X86071555Y-38414499D01*
X86060180Y-38451995D01*
X86041708Y-38486554D01*
X86016847Y-38516847D01*
X85986554Y-38541708D01*
X85951995Y-38560180D01*
X85914499Y-38571555D01*
X85869362Y-38576000D01*
X85130638Y-38576000D01*
X85085501Y-38571555D01*
X85048005Y-38560180D01*
X85013446Y-38541708D01*
X84983153Y-38516847D01*
X84958292Y-38486554D01*
X84939820Y-38451995D01*
X84928445Y-38414499D01*
X84924000Y-38369362D01*
X84924000Y-37730638D01*
X84928445Y-37685501D01*
X84939820Y-37648005D01*
X84958292Y-37613446D01*
X84983153Y-37583153D01*
X85013446Y-37558292D01*
X85048005Y-37539820D01*
X85085501Y-37528445D01*
X85130638Y-37524000D01*
X85869362Y-37524000D01*
X85914499Y-37528445D01*
G37*
G36*
X84164499Y-37528445D02*
G01*
X84201995Y-37539820D01*
X84236554Y-37558292D01*
X84266847Y-37583153D01*
X84291708Y-37613446D01*
X84310180Y-37648005D01*
X84321555Y-37685501D01*
X84326000Y-37730638D01*
X84326000Y-38369362D01*
X84321555Y-38414499D01*
X84310180Y-38451995D01*
X84291708Y-38486554D01*
X84266847Y-38516847D01*
X84236554Y-38541708D01*
X84201995Y-38560180D01*
X84164499Y-38571555D01*
X84119362Y-38576000D01*
X83380638Y-38576000D01*
X83335501Y-38571555D01*
X83298005Y-38560180D01*
X83263446Y-38541708D01*
X83233153Y-38516847D01*
X83208292Y-38486554D01*
X83189820Y-38451995D01*
X83178445Y-38414499D01*
X83174000Y-38369362D01*
X83174000Y-37730638D01*
X83178445Y-37685501D01*
X83189820Y-37648005D01*
X83208292Y-37613446D01*
X83233153Y-37583153D01*
X83263446Y-37558292D01*
X83298005Y-37539820D01*
X83335501Y-37528445D01*
X83380638Y-37524000D01*
X84119362Y-37524000D01*
X84164499Y-37528445D01*
G37*
G36*
X96239499Y-37178445D02*
G01*
X96276995Y-37189820D01*
X96311554Y-37208292D01*
X96341847Y-37233153D01*
X96366708Y-37263446D01*
X96385180Y-37298005D01*
X96396555Y-37335501D01*
X96401000Y-37380638D01*
X96401000Y-38019362D01*
X96396555Y-38064499D01*
X96385180Y-38101995D01*
X96366708Y-38136554D01*
X96341847Y-38166847D01*
X96311554Y-38191708D01*
X96276995Y-38210180D01*
X96239499Y-38221555D01*
X96194362Y-38226000D01*
X95455638Y-38226000D01*
X95410501Y-38221555D01*
X95373005Y-38210180D01*
X95338446Y-38191708D01*
X95308153Y-38166847D01*
X95283292Y-38136554D01*
X95264820Y-38101995D01*
X95253445Y-38064499D01*
X95249000Y-38019362D01*
X95249000Y-37380638D01*
X95253445Y-37335501D01*
X95264820Y-37298005D01*
X95283292Y-37263446D01*
X95308153Y-37233153D01*
X95338446Y-37208292D01*
X95373005Y-37189820D01*
X95410501Y-37178445D01*
X95455638Y-37174000D01*
X96194362Y-37174000D01*
X96239499Y-37178445D01*
G37*
G36*
X97989499Y-37178445D02*
G01*
X98026995Y-37189820D01*
X98061554Y-37208292D01*
X98091847Y-37233153D01*
X98116708Y-37263446D01*
X98135180Y-37298005D01*
X98146555Y-37335501D01*
X98151000Y-37380638D01*
X98151000Y-38019362D01*
X98146555Y-38064499D01*
X98135180Y-38101995D01*
X98116708Y-38136554D01*
X98091847Y-38166847D01*
X98061554Y-38191708D01*
X98026995Y-38210180D01*
X97989499Y-38221555D01*
X97944362Y-38226000D01*
X97205638Y-38226000D01*
X97160501Y-38221555D01*
X97123005Y-38210180D01*
X97088446Y-38191708D01*
X97058153Y-38166847D01*
X97033292Y-38136554D01*
X97014820Y-38101995D01*
X97003445Y-38064499D01*
X96999000Y-38019362D01*
X96999000Y-37380638D01*
X97003445Y-37335501D01*
X97014820Y-37298005D01*
X97033292Y-37263446D01*
X97058153Y-37233153D01*
X97088446Y-37208292D01*
X97123005Y-37189820D01*
X97160501Y-37178445D01*
X97205638Y-37174000D01*
X97944362Y-37174000D01*
X97989499Y-37178445D01*
G37*
G36*
X47614499Y-36928445D02*
G01*
X47651995Y-36939820D01*
X47686554Y-36958292D01*
X47716847Y-36983153D01*
X47741708Y-37013446D01*
X47760180Y-37048005D01*
X47771555Y-37085501D01*
X47776000Y-37130638D01*
X47776000Y-37869362D01*
X47771555Y-37914499D01*
X47760180Y-37951995D01*
X47741708Y-37986554D01*
X47716847Y-38016847D01*
X47686554Y-38041708D01*
X47651995Y-38060180D01*
X47614499Y-38071555D01*
X47569362Y-38076000D01*
X46930638Y-38076000D01*
X46885501Y-38071555D01*
X46848005Y-38060180D01*
X46813446Y-38041708D01*
X46783153Y-38016847D01*
X46758292Y-37986554D01*
X46739820Y-37951995D01*
X46728445Y-37914499D01*
X46724000Y-37869362D01*
X46724000Y-37130638D01*
X46728445Y-37085501D01*
X46739820Y-37048005D01*
X46758292Y-37013446D01*
X46783153Y-36983153D01*
X46813446Y-36958292D01*
X46848005Y-36939820D01*
X46885501Y-36928445D01*
X46930638Y-36924000D01*
X47569362Y-36924000D01*
X47614499Y-36928445D01*
G37*
G36*
X56014499Y-36203445D02*
G01*
X56051995Y-36214820D01*
X56086554Y-36233292D01*
X56116847Y-36258153D01*
X56141708Y-36288446D01*
X56160180Y-36323005D01*
X56171555Y-36360501D01*
X56176000Y-36405638D01*
X56176000Y-37144362D01*
X56171555Y-37189499D01*
X56160180Y-37226995D01*
X56141708Y-37261554D01*
X56116847Y-37291847D01*
X56086554Y-37316708D01*
X56051995Y-37335180D01*
X56014499Y-37346555D01*
X55969362Y-37351000D01*
X55330638Y-37351000D01*
X55285501Y-37346555D01*
X55248005Y-37335180D01*
X55213446Y-37316708D01*
X55183153Y-37291847D01*
X55158292Y-37261554D01*
X55139820Y-37226995D01*
X55128445Y-37189499D01*
X55124000Y-37144362D01*
X55124000Y-36405638D01*
X55128445Y-36360501D01*
X55139820Y-36323005D01*
X55158292Y-36288446D01*
X55183153Y-36258153D01*
X55213446Y-36233292D01*
X55248005Y-36214820D01*
X55285501Y-36203445D01*
X55330638Y-36199000D01*
X55969362Y-36199000D01*
X56014499Y-36203445D01*
G37*
G36*
X43414499Y-35503445D02*
G01*
X43451995Y-35514820D01*
X43486554Y-35533292D01*
X43516847Y-35558153D01*
X43541708Y-35588446D01*
X43560180Y-35623005D01*
X43571555Y-35660501D01*
X43576000Y-35705638D01*
X43576000Y-36444362D01*
X43571555Y-36489499D01*
X43560180Y-36526995D01*
X43541708Y-36561554D01*
X43516847Y-36591847D01*
X43486554Y-36616708D01*
X43451995Y-36635180D01*
X43414499Y-36646555D01*
X43369362Y-36651000D01*
X42730638Y-36651000D01*
X42685501Y-36646555D01*
X42648005Y-36635180D01*
X42613446Y-36616708D01*
X42583153Y-36591847D01*
X42558292Y-36561554D01*
X42539820Y-36526995D01*
X42528445Y-36489499D01*
X42524000Y-36444362D01*
X42524000Y-35705638D01*
X42528445Y-35660501D01*
X42539820Y-35623005D01*
X42558292Y-35588446D01*
X42583153Y-35558153D01*
X42613446Y-35533292D01*
X42648005Y-35514820D01*
X42685501Y-35503445D01*
X42730638Y-35499000D01*
X43369362Y-35499000D01*
X43414499Y-35503445D01*
G37*
G36*
X47614499Y-35178445D02*
G01*
X47651995Y-35189820D01*
X47686554Y-35208292D01*
X47716847Y-35233153D01*
X47741708Y-35263446D01*
X47760180Y-35298005D01*
X47771555Y-35335501D01*
X47776000Y-35380638D01*
X47776000Y-36119362D01*
X47771555Y-36164499D01*
X47760180Y-36201995D01*
X47741708Y-36236554D01*
X47716847Y-36266847D01*
X47686554Y-36291708D01*
X47651995Y-36310180D01*
X47614499Y-36321555D01*
X47569362Y-36326000D01*
X46930638Y-36326000D01*
X46885501Y-36321555D01*
X46848005Y-36310180D01*
X46813446Y-36291708D01*
X46783153Y-36266847D01*
X46758292Y-36236554D01*
X46739820Y-36201995D01*
X46728445Y-36164499D01*
X46724000Y-36119362D01*
X46724000Y-35380638D01*
X46728445Y-35335501D01*
X46739820Y-35298005D01*
X46758292Y-35263446D01*
X46783153Y-35233153D01*
X46813446Y-35208292D01*
X46848005Y-35189820D01*
X46885501Y-35178445D01*
X46930638Y-35174000D01*
X47569362Y-35174000D01*
X47614499Y-35178445D01*
G37*
G36*
X96126000Y-35681000D02*
G01*
X95374000Y-35681000D01*
X95374000Y-34519000D01*
X96126000Y-34519000D01*
X96126000Y-35681000D01*
G37*
G36*
X98026000Y-35681000D02*
G01*
X97274000Y-35681000D01*
X97274000Y-34519000D01*
X98026000Y-34519000D01*
X98026000Y-35681000D01*
G37*
G36*
X43414499Y-33753445D02*
G01*
X43451995Y-33764820D01*
X43486554Y-33783292D01*
X43516847Y-33808153D01*
X43541708Y-33838446D01*
X43560180Y-33873005D01*
X43571555Y-33910501D01*
X43576000Y-33955638D01*
X43576000Y-34694362D01*
X43571555Y-34739499D01*
X43560180Y-34776995D01*
X43541708Y-34811554D01*
X43516847Y-34841847D01*
X43486554Y-34866708D01*
X43451995Y-34885180D01*
X43414499Y-34896555D01*
X43369362Y-34901000D01*
X42730638Y-34901000D01*
X42685501Y-34896555D01*
X42648005Y-34885180D01*
X42613446Y-34866708D01*
X42583153Y-34841847D01*
X42558292Y-34811554D01*
X42539820Y-34776995D01*
X42528445Y-34739499D01*
X42524000Y-34694362D01*
X42524000Y-33955638D01*
X42528445Y-33910501D01*
X42539820Y-33873005D01*
X42558292Y-33838446D01*
X42583153Y-33808153D01*
X42613446Y-33783292D01*
X42648005Y-33764820D01*
X42685501Y-33753445D01*
X42730638Y-33749000D01*
X43369362Y-33749000D01*
X43414499Y-33753445D01*
G37*
G36*
X73420295Y-32050323D02*
G01*
X73427309Y-32052451D01*
X73441077Y-32059810D01*
X73463716Y-32069187D01*
X73487749Y-32073967D01*
X73512253Y-32073967D01*
X73536286Y-32069186D01*
X73558923Y-32059810D01*
X73572691Y-32052451D01*
X73579705Y-32050323D01*
X73593140Y-32049000D01*
X73906860Y-32049000D01*
X73920295Y-32050323D01*
X73927309Y-32052451D01*
X73941077Y-32059810D01*
X73963716Y-32069187D01*
X73987749Y-32073967D01*
X74012253Y-32073967D01*
X74036286Y-32069186D01*
X74058923Y-32059810D01*
X74072691Y-32052451D01*
X74079705Y-32050323D01*
X74093140Y-32049000D01*
X74406860Y-32049000D01*
X74420295Y-32050323D01*
X74427309Y-32052451D01*
X74441077Y-32059810D01*
X74463716Y-32069187D01*
X74487749Y-32073967D01*
X74512253Y-32073967D01*
X74536286Y-32069186D01*
X74558923Y-32059810D01*
X74572691Y-32052451D01*
X74579705Y-32050323D01*
X74593140Y-32049000D01*
X74906860Y-32049000D01*
X74920295Y-32050323D01*
X74927309Y-32052451D01*
X74941077Y-32059810D01*
X74963716Y-32069187D01*
X74987749Y-32073967D01*
X75012253Y-32073967D01*
X75036286Y-32069186D01*
X75058923Y-32059810D01*
X75072691Y-32052451D01*
X75079705Y-32050323D01*
X75093140Y-32049000D01*
X75406860Y-32049000D01*
X75420295Y-32050323D01*
X75427309Y-32052451D01*
X75441077Y-32059810D01*
X75463716Y-32069187D01*
X75487749Y-32073967D01*
X75512253Y-32073967D01*
X75536286Y-32069186D01*
X75558923Y-32059810D01*
X75572691Y-32052451D01*
X75579705Y-32050323D01*
X75593140Y-32049000D01*
X75906860Y-32049000D01*
X75920295Y-32050323D01*
X75927309Y-32052451D01*
X75941077Y-32059810D01*
X75963716Y-32069187D01*
X75987749Y-32073967D01*
X76012253Y-32073967D01*
X76036286Y-32069186D01*
X76058923Y-32059810D01*
X76072691Y-32052451D01*
X76079705Y-32050323D01*
X76093140Y-32049000D01*
X76406860Y-32049000D01*
X76420295Y-32050323D01*
X76427309Y-32052451D01*
X76441077Y-32059810D01*
X76463716Y-32069187D01*
X76487749Y-32073967D01*
X76512253Y-32073967D01*
X76536286Y-32069186D01*
X76558923Y-32059810D01*
X76572691Y-32052451D01*
X76579705Y-32050323D01*
X76593140Y-32049000D01*
X76906860Y-32049000D01*
X76920295Y-32050323D01*
X76927309Y-32052451D01*
X76941077Y-32059810D01*
X76963716Y-32069187D01*
X76987749Y-32073967D01*
X77012253Y-32073967D01*
X77036286Y-32069186D01*
X77058923Y-32059810D01*
X77072691Y-32052451D01*
X77079705Y-32050323D01*
X77093140Y-32049000D01*
X77406860Y-32049000D01*
X77420295Y-32050323D01*
X77427309Y-32052451D01*
X77441077Y-32059810D01*
X77463716Y-32069187D01*
X77487749Y-32073967D01*
X77512253Y-32073967D01*
X77536286Y-32069186D01*
X77558923Y-32059810D01*
X77572691Y-32052451D01*
X77579705Y-32050323D01*
X77593140Y-32049000D01*
X77906860Y-32049000D01*
X77920295Y-32050323D01*
X77927309Y-32052451D01*
X77941077Y-32059810D01*
X77963716Y-32069187D01*
X77987749Y-32073967D01*
X78012253Y-32073967D01*
X78036286Y-32069186D01*
X78058923Y-32059810D01*
X78072691Y-32052451D01*
X78079705Y-32050323D01*
X78093140Y-32049000D01*
X78406860Y-32049000D01*
X78420295Y-32050323D01*
X78427309Y-32052451D01*
X78441077Y-32059810D01*
X78463716Y-32069187D01*
X78487749Y-32073967D01*
X78512253Y-32073967D01*
X78536286Y-32069186D01*
X78558923Y-32059810D01*
X78572691Y-32052451D01*
X78579705Y-32050323D01*
X78593140Y-32049000D01*
X78906860Y-32049000D01*
X78920295Y-32050323D01*
X78927310Y-32052451D01*
X78933776Y-32055908D01*
X78939442Y-32060558D01*
X78944092Y-32066224D01*
X78947549Y-32072690D01*
X78949677Y-32079705D01*
X78951000Y-32093140D01*
X78951000Y-33581860D01*
X78949677Y-33595295D01*
X78947549Y-33602310D01*
X78944092Y-33608776D01*
X78939442Y-33614442D01*
X78933776Y-33619092D01*
X78927310Y-33622549D01*
X78920295Y-33624677D01*
X78906860Y-33626000D01*
X78593140Y-33626000D01*
X78579705Y-33624677D01*
X78572691Y-33622549D01*
X78558923Y-33615190D01*
X78536284Y-33605813D01*
X78512251Y-33601033D01*
X78487747Y-33601033D01*
X78463714Y-33605814D01*
X78441077Y-33615190D01*
X78427309Y-33622549D01*
X78420295Y-33624677D01*
X78406860Y-33626000D01*
X78093140Y-33626000D01*
X78079705Y-33624677D01*
X78072691Y-33622549D01*
X78058923Y-33615190D01*
X78036284Y-33605813D01*
X78012251Y-33601033D01*
X77987747Y-33601033D01*
X77963714Y-33605814D01*
X77941077Y-33615190D01*
X77927309Y-33622549D01*
X77920295Y-33624677D01*
X77906860Y-33626000D01*
X77593140Y-33626000D01*
X77579705Y-33624677D01*
X77572691Y-33622549D01*
X77558923Y-33615190D01*
X77536284Y-33605813D01*
X77512251Y-33601033D01*
X77487747Y-33601033D01*
X77463714Y-33605814D01*
X77441077Y-33615190D01*
X77427309Y-33622549D01*
X77420295Y-33624677D01*
X77406860Y-33626000D01*
X77093140Y-33626000D01*
X77079705Y-33624677D01*
X77072691Y-33622549D01*
X77058923Y-33615190D01*
X77036284Y-33605813D01*
X77012251Y-33601033D01*
X76987747Y-33601033D01*
X76963714Y-33605814D01*
X76941077Y-33615190D01*
X76927309Y-33622549D01*
X76920295Y-33624677D01*
X76906860Y-33626000D01*
X76593140Y-33626000D01*
X76579705Y-33624677D01*
X76572691Y-33622549D01*
X76558923Y-33615190D01*
X76536284Y-33605813D01*
X76512251Y-33601033D01*
X76487747Y-33601033D01*
X76463714Y-33605814D01*
X76441077Y-33615190D01*
X76427309Y-33622549D01*
X76420295Y-33624677D01*
X76406860Y-33626000D01*
X76093140Y-33626000D01*
X76079705Y-33624677D01*
X76072691Y-33622549D01*
X76058923Y-33615190D01*
X76036284Y-33605813D01*
X76012251Y-33601033D01*
X75987747Y-33601033D01*
X75963714Y-33605814D01*
X75941077Y-33615190D01*
X75927309Y-33622549D01*
X75920295Y-33624677D01*
X75906860Y-33626000D01*
X75593140Y-33626000D01*
X75579705Y-33624677D01*
X75572691Y-33622549D01*
X75558923Y-33615190D01*
X75536284Y-33605813D01*
X75512251Y-33601033D01*
X75487747Y-33601033D01*
X75463714Y-33605814D01*
X75441077Y-33615190D01*
X75427309Y-33622549D01*
X75420295Y-33624677D01*
X75406860Y-33626000D01*
X75093140Y-33626000D01*
X75079705Y-33624677D01*
X75072691Y-33622549D01*
X75058923Y-33615190D01*
X75036284Y-33605813D01*
X75012251Y-33601033D01*
X74987747Y-33601033D01*
X74963714Y-33605814D01*
X74941077Y-33615190D01*
X74927309Y-33622549D01*
X74920295Y-33624677D01*
X74906860Y-33626000D01*
X74593140Y-33626000D01*
X74579705Y-33624677D01*
X74572691Y-33622549D01*
X74558923Y-33615190D01*
X74536284Y-33605813D01*
X74512251Y-33601033D01*
X74487747Y-33601033D01*
X74463714Y-33605814D01*
X74441077Y-33615190D01*
X74427309Y-33622549D01*
X74420295Y-33624677D01*
X74406860Y-33626000D01*
X74093140Y-33626000D01*
X74079705Y-33624677D01*
X74072691Y-33622549D01*
X74058923Y-33615190D01*
X74036284Y-33605813D01*
X74012251Y-33601033D01*
X73987747Y-33601033D01*
X73963714Y-33605814D01*
X73941077Y-33615190D01*
X73927309Y-33622549D01*
X73920295Y-33624677D01*
X73906860Y-33626000D01*
X73593140Y-33626000D01*
X73579705Y-33624677D01*
X73572691Y-33622549D01*
X73558923Y-33615190D01*
X73536284Y-33605813D01*
X73512251Y-33601033D01*
X73487747Y-33601033D01*
X73463714Y-33605814D01*
X73441077Y-33615190D01*
X73427309Y-33622549D01*
X73420295Y-33624677D01*
X73406860Y-33626000D01*
X73093140Y-33626000D01*
X73079705Y-33624677D01*
X73072690Y-33622549D01*
X73066224Y-33619092D01*
X73060558Y-33614442D01*
X73055908Y-33608776D01*
X73052451Y-33602310D01*
X73050323Y-33595295D01*
X73049000Y-33581860D01*
X73049000Y-32093140D01*
X73050323Y-32079705D01*
X73052451Y-32072690D01*
X73055908Y-32066224D01*
X73060558Y-32060558D01*
X73066224Y-32055908D01*
X73072690Y-32052451D01*
X73079705Y-32050323D01*
X73093140Y-32049000D01*
X73406860Y-32049000D01*
X73420295Y-32050323D01*
G37*
G36*
X98026000Y-33481000D02*
G01*
X95374000Y-33481000D01*
X95374000Y-32319000D01*
X98026000Y-32319000D01*
X98026000Y-33481000D01*
G37*
G36*
X96239499Y-29978445D02*
G01*
X96276995Y-29989820D01*
X96311554Y-30008292D01*
X96341847Y-30033153D01*
X96366708Y-30063446D01*
X96385180Y-30098005D01*
X96396555Y-30135501D01*
X96401000Y-30180638D01*
X96401000Y-30819362D01*
X96396555Y-30864499D01*
X96385180Y-30901995D01*
X96366708Y-30936554D01*
X96341847Y-30966847D01*
X96311554Y-30991708D01*
X96276995Y-31010180D01*
X96239499Y-31021555D01*
X96194362Y-31026000D01*
X95455638Y-31026000D01*
X95410501Y-31021555D01*
X95373005Y-31010180D01*
X95338446Y-30991708D01*
X95308153Y-30966847D01*
X95283292Y-30936554D01*
X95264820Y-30901995D01*
X95253445Y-30864499D01*
X95249000Y-30819362D01*
X95249000Y-30180638D01*
X95253445Y-30135501D01*
X95264820Y-30098005D01*
X95283292Y-30063446D01*
X95308153Y-30033153D01*
X95338446Y-30008292D01*
X95373005Y-29989820D01*
X95410501Y-29978445D01*
X95455638Y-29974000D01*
X96194362Y-29974000D01*
X96239499Y-29978445D01*
G37*
G36*
X97989499Y-29978445D02*
G01*
X98026995Y-29989820D01*
X98061554Y-30008292D01*
X98091847Y-30033153D01*
X98116708Y-30063446D01*
X98135180Y-30098005D01*
X98146555Y-30135501D01*
X98151000Y-30180638D01*
X98151000Y-30819362D01*
X98146555Y-30864499D01*
X98135180Y-30901995D01*
X98116708Y-30936554D01*
X98091847Y-30966847D01*
X98061554Y-30991708D01*
X98026995Y-31010180D01*
X97989499Y-31021555D01*
X97944362Y-31026000D01*
X97205638Y-31026000D01*
X97160501Y-31021555D01*
X97123005Y-31010180D01*
X97088446Y-30991708D01*
X97058153Y-30966847D01*
X97033292Y-30936554D01*
X97014820Y-30901995D01*
X97003445Y-30864499D01*
X96999000Y-30819362D01*
X96999000Y-30180638D01*
X97003445Y-30135501D01*
X97014820Y-30098005D01*
X97033292Y-30063446D01*
X97058153Y-30033153D01*
X97088446Y-30008292D01*
X97123005Y-29989820D01*
X97160501Y-29978445D01*
X97205638Y-29974000D01*
X97944362Y-29974000D01*
X97989499Y-29978445D01*
G37*
G36*
X43134239Y-20311467D02*
G01*
X43448282Y-20373934D01*
X44039926Y-20619001D01*
X44466477Y-20904014D01*
X44572391Y-20974783D01*
X45025217Y-21427609D01*
X45095986Y-21533523D01*
X45380999Y-21960074D01*
X45626066Y-22551718D01*
X45626066Y-22551719D01*
X45726863Y-23058456D01*
X45751000Y-23179804D01*
X45751000Y-23820196D01*
X45626066Y-24448282D01*
X45380999Y-25039926D01*
X45025216Y-25572392D01*
X44572392Y-26025216D01*
X44039926Y-26380999D01*
X43448282Y-26626066D01*
X43134239Y-26688533D01*
X42820197Y-26751000D01*
X42179803Y-26751000D01*
X41865761Y-26688533D01*
X41551718Y-26626066D01*
X40960074Y-26380999D01*
X40427608Y-26025216D01*
X39974784Y-25572392D01*
X39619001Y-25039926D01*
X39373934Y-24448282D01*
X39249000Y-23820196D01*
X39249000Y-23179804D01*
X39273138Y-23058456D01*
X39373934Y-22551719D01*
X39373934Y-22551718D01*
X39619001Y-21960074D01*
X39904014Y-21533523D01*
X39974783Y-21427609D01*
X40427609Y-20974783D01*
X40533523Y-20904014D01*
X40960074Y-20619001D01*
X41551718Y-20373934D01*
X41865761Y-20311467D01*
X42179803Y-20249000D01*
X42820197Y-20249000D01*
X43134239Y-20311467D01*
G37*
G36*
X101134239Y-20311467D02*
G01*
X101448282Y-20373934D01*
X102039926Y-20619001D01*
X102466477Y-20904014D01*
X102572391Y-20974783D01*
X103025217Y-21427609D01*
X103095986Y-21533523D01*
X103380999Y-21960074D01*
X103626066Y-22551718D01*
X103626066Y-22551719D01*
X103726863Y-23058456D01*
X103751000Y-23179804D01*
X103751000Y-23820196D01*
X103626066Y-24448282D01*
X103380999Y-25039926D01*
X103025216Y-25572392D01*
X102572392Y-26025216D01*
X102039926Y-26380999D01*
X101448282Y-26626066D01*
X101134239Y-26688533D01*
X100820197Y-26751000D01*
X100179803Y-26751000D01*
X99865761Y-26688533D01*
X99551718Y-26626066D01*
X98960074Y-26380999D01*
X98427608Y-26025216D01*
X97974784Y-25572392D01*
X97619001Y-25039926D01*
X97373934Y-24448282D01*
X97249000Y-23820196D01*
X97249000Y-23179804D01*
X97273138Y-23058456D01*
X97373934Y-22551719D01*
X97373934Y-22551718D01*
X97619001Y-21960074D01*
X97904014Y-21533523D01*
X97974783Y-21427609D01*
X98427609Y-20974783D01*
X98533523Y-20904014D01*
X98960074Y-20619001D01*
X99551718Y-20373934D01*
X99865761Y-20311467D01*
X100179803Y-20249000D01*
X100820197Y-20249000D01*
X101134239Y-20311467D01*
G37*
G36*
X48301000Y-25701000D02*
G01*
X46499000Y-25701000D01*
X46499000Y-23899000D01*
X48301000Y-23899000D01*
X48301000Y-25701000D01*
G37*
G36*
X72913512Y-23903927D02*
G01*
X73062812Y-23933624D01*
X73226784Y-24001544D01*
X73374354Y-24100147D01*
X73499853Y-24225646D01*
X73598456Y-24373216D01*
X73666376Y-24537188D01*
X73701000Y-24711259D01*
X73701000Y-24888741D01*
X73666376Y-25062812D01*
X73598456Y-25226784D01*
X73499853Y-25374354D01*
X73374354Y-25499853D01*
X73226784Y-25598456D01*
X73062812Y-25666376D01*
X72913512Y-25696073D01*
X72888742Y-25701000D01*
X72711258Y-25701000D01*
X72686488Y-25696073D01*
X72537188Y-25666376D01*
X72373216Y-25598456D01*
X72225646Y-25499853D01*
X72100147Y-25374354D01*
X72001544Y-25226784D01*
X71933624Y-25062812D01*
X71899000Y-24888741D01*
X71899000Y-24711259D01*
X71933624Y-24537188D01*
X72001544Y-24373216D01*
X72100147Y-24225646D01*
X72225646Y-24100147D01*
X72373216Y-24001544D01*
X72537188Y-23933624D01*
X72686488Y-23903927D01*
X72711258Y-23899000D01*
X72888742Y-23899000D01*
X72913512Y-23903927D01*
G37*
G36*
X75453512Y-23903927D02*
G01*
X75602812Y-23933624D01*
X75766784Y-24001544D01*
X75914354Y-24100147D01*
X76039853Y-24225646D01*
X76138456Y-24373216D01*
X76206376Y-24537188D01*
X76241000Y-24711259D01*
X76241000Y-24888741D01*
X76206376Y-25062812D01*
X76138456Y-25226784D01*
X76039853Y-25374354D01*
X75914354Y-25499853D01*
X75766784Y-25598456D01*
X75602812Y-25666376D01*
X75453512Y-25696073D01*
X75428742Y-25701000D01*
X75251258Y-25701000D01*
X75226488Y-25696073D01*
X75077188Y-25666376D01*
X74913216Y-25598456D01*
X74765646Y-25499853D01*
X74640147Y-25374354D01*
X74541544Y-25226784D01*
X74473624Y-25062812D01*
X74439000Y-24888741D01*
X74439000Y-24711259D01*
X74473624Y-24537188D01*
X74541544Y-24373216D01*
X74640147Y-24225646D01*
X74765646Y-24100147D01*
X74913216Y-24001544D01*
X75077188Y-23933624D01*
X75226488Y-23903927D01*
X75251258Y-23899000D01*
X75428742Y-23899000D01*
X75453512Y-23903927D01*
G37*
G36*
X77993512Y-23903927D02*
G01*
X78142812Y-23933624D01*
X78306784Y-24001544D01*
X78454354Y-24100147D01*
X78579853Y-24225646D01*
X78678456Y-24373216D01*
X78746376Y-24537188D01*
X78781000Y-24711259D01*
X78781000Y-24888741D01*
X78746376Y-25062812D01*
X78678456Y-25226784D01*
X78579853Y-25374354D01*
X78454354Y-25499853D01*
X78306784Y-25598456D01*
X78142812Y-25666376D01*
X77993512Y-25696073D01*
X77968742Y-25701000D01*
X77791258Y-25701000D01*
X77766488Y-25696073D01*
X77617188Y-25666376D01*
X77453216Y-25598456D01*
X77305646Y-25499853D01*
X77180147Y-25374354D01*
X77081544Y-25226784D01*
X77013624Y-25062812D01*
X76979000Y-24888741D01*
X76979000Y-24711259D01*
X77013624Y-24537188D01*
X77081544Y-24373216D01*
X77180147Y-24225646D01*
X77305646Y-24100147D01*
X77453216Y-24001544D01*
X77617188Y-23933624D01*
X77766488Y-23903927D01*
X77791258Y-23899000D01*
X77968742Y-23899000D01*
X77993512Y-23903927D01*
G37*
G36*
X80533512Y-23903927D02*
G01*
X80682812Y-23933624D01*
X80846784Y-24001544D01*
X80994354Y-24100147D01*
X81119853Y-24225646D01*
X81218456Y-24373216D01*
X81286376Y-24537188D01*
X81321000Y-24711259D01*
X81321000Y-24888741D01*
X81286376Y-25062812D01*
X81218456Y-25226784D01*
X81119853Y-25374354D01*
X80994354Y-25499853D01*
X80846784Y-25598456D01*
X80682812Y-25666376D01*
X80533512Y-25696073D01*
X80508742Y-25701000D01*
X80331258Y-25701000D01*
X80306488Y-25696073D01*
X80157188Y-25666376D01*
X79993216Y-25598456D01*
X79845646Y-25499853D01*
X79720147Y-25374354D01*
X79621544Y-25226784D01*
X79553624Y-25062812D01*
X79519000Y-24888741D01*
X79519000Y-24711259D01*
X79553624Y-24537188D01*
X79621544Y-24373216D01*
X79720147Y-24225646D01*
X79845646Y-24100147D01*
X79993216Y-24001544D01*
X80157188Y-23933624D01*
X80306488Y-23903927D01*
X80331258Y-23899000D01*
X80508742Y-23899000D01*
X80533512Y-23903927D01*
G37*
G36*
X83073512Y-23903927D02*
G01*
X83222812Y-23933624D01*
X83386784Y-24001544D01*
X83534354Y-24100147D01*
X83659853Y-24225646D01*
X83758456Y-24373216D01*
X83826376Y-24537188D01*
X83861000Y-24711259D01*
X83861000Y-24888741D01*
X83826376Y-25062812D01*
X83758456Y-25226784D01*
X83659853Y-25374354D01*
X83534354Y-25499853D01*
X83386784Y-25598456D01*
X83222812Y-25666376D01*
X83073512Y-25696073D01*
X83048742Y-25701000D01*
X82871258Y-25701000D01*
X82846488Y-25696073D01*
X82697188Y-25666376D01*
X82533216Y-25598456D01*
X82385646Y-25499853D01*
X82260147Y-25374354D01*
X82161544Y-25226784D01*
X82093624Y-25062812D01*
X82059000Y-24888741D01*
X82059000Y-24711259D01*
X82093624Y-24537188D01*
X82161544Y-24373216D01*
X82260147Y-24225646D01*
X82385646Y-24100147D01*
X82533216Y-24001544D01*
X82697188Y-23933624D01*
X82846488Y-23903927D01*
X82871258Y-23899000D01*
X83048742Y-23899000D01*
X83073512Y-23903927D01*
G37*
G36*
X85613512Y-23903927D02*
G01*
X85762812Y-23933624D01*
X85926784Y-24001544D01*
X86074354Y-24100147D01*
X86199853Y-24225646D01*
X86298456Y-24373216D01*
X86366376Y-24537188D01*
X86401000Y-24711259D01*
X86401000Y-24888741D01*
X86366376Y-25062812D01*
X86298456Y-25226784D01*
X86199853Y-25374354D01*
X86074354Y-25499853D01*
X85926784Y-25598456D01*
X85762812Y-25666376D01*
X85613512Y-25696073D01*
X85588742Y-25701000D01*
X85411258Y-25701000D01*
X85386488Y-25696073D01*
X85237188Y-25666376D01*
X85073216Y-25598456D01*
X84925646Y-25499853D01*
X84800147Y-25374354D01*
X84701544Y-25226784D01*
X84633624Y-25062812D01*
X84599000Y-24888741D01*
X84599000Y-24711259D01*
X84633624Y-24537188D01*
X84701544Y-24373216D01*
X84800147Y-24225646D01*
X84925646Y-24100147D01*
X85073216Y-24001544D01*
X85237188Y-23933624D01*
X85386488Y-23903927D01*
X85411258Y-23899000D01*
X85588742Y-23899000D01*
X85613512Y-23903927D01*
G37*
G36*
X88153512Y-23903927D02*
G01*
X88302812Y-23933624D01*
X88466784Y-24001544D01*
X88614354Y-24100147D01*
X88739853Y-24225646D01*
X88838456Y-24373216D01*
X88906376Y-24537188D01*
X88941000Y-24711259D01*
X88941000Y-24888741D01*
X88906376Y-25062812D01*
X88838456Y-25226784D01*
X88739853Y-25374354D01*
X88614354Y-25499853D01*
X88466784Y-25598456D01*
X88302812Y-25666376D01*
X88153512Y-25696073D01*
X88128742Y-25701000D01*
X87951258Y-25701000D01*
X87926488Y-25696073D01*
X87777188Y-25666376D01*
X87613216Y-25598456D01*
X87465646Y-25499853D01*
X87340147Y-25374354D01*
X87241544Y-25226784D01*
X87173624Y-25062812D01*
X87139000Y-24888741D01*
X87139000Y-24711259D01*
X87173624Y-24537188D01*
X87241544Y-24373216D01*
X87340147Y-24225646D01*
X87465646Y-24100147D01*
X87613216Y-24001544D01*
X87777188Y-23933624D01*
X87926488Y-23903927D01*
X87951258Y-23899000D01*
X88128742Y-23899000D01*
X88153512Y-23903927D01*
G37*
G36*
X90693512Y-23903927D02*
G01*
X90842812Y-23933624D01*
X91006784Y-24001544D01*
X91154354Y-24100147D01*
X91279853Y-24225646D01*
X91378456Y-24373216D01*
X91446376Y-24537188D01*
X91481000Y-24711259D01*
X91481000Y-24888741D01*
X91446376Y-25062812D01*
X91378456Y-25226784D01*
X91279853Y-25374354D01*
X91154354Y-25499853D01*
X91006784Y-25598456D01*
X90842812Y-25666376D01*
X90693512Y-25696073D01*
X90668742Y-25701000D01*
X90491258Y-25701000D01*
X90466488Y-25696073D01*
X90317188Y-25666376D01*
X90153216Y-25598456D01*
X90005646Y-25499853D01*
X89880147Y-25374354D01*
X89781544Y-25226784D01*
X89713624Y-25062812D01*
X89679000Y-24888741D01*
X89679000Y-24711259D01*
X89713624Y-24537188D01*
X89781544Y-24373216D01*
X89880147Y-24225646D01*
X90005646Y-24100147D01*
X90153216Y-24001544D01*
X90317188Y-23933624D01*
X90466488Y-23903927D01*
X90491258Y-23899000D01*
X90668742Y-23899000D01*
X90693512Y-23903927D01*
G37*
G36*
X70373512Y-23903927D02*
G01*
X70522812Y-23933624D01*
X70686784Y-24001544D01*
X70834354Y-24100147D01*
X70959853Y-24225646D01*
X71058456Y-24373216D01*
X71126376Y-24537188D01*
X71161000Y-24711259D01*
X71161000Y-24888741D01*
X71126376Y-25062812D01*
X71058456Y-25226784D01*
X70959853Y-25374354D01*
X70834354Y-25499853D01*
X70686784Y-25598456D01*
X70522812Y-25666376D01*
X70373512Y-25696073D01*
X70348742Y-25701000D01*
X70171258Y-25701000D01*
X70146488Y-25696073D01*
X69997188Y-25666376D01*
X69833216Y-25598456D01*
X69685646Y-25499853D01*
X69560147Y-25374354D01*
X69461544Y-25226784D01*
X69393624Y-25062812D01*
X69359000Y-24888741D01*
X69359000Y-24711259D01*
X69393624Y-24537188D01*
X69461544Y-24373216D01*
X69560147Y-24225646D01*
X69685646Y-24100147D01*
X69833216Y-24001544D01*
X69997188Y-23933624D01*
X70146488Y-23903927D01*
X70171258Y-23899000D01*
X70348742Y-23899000D01*
X70373512Y-23903927D01*
G37*
G36*
X67833512Y-23903927D02*
G01*
X67982812Y-23933624D01*
X68146784Y-24001544D01*
X68294354Y-24100147D01*
X68419853Y-24225646D01*
X68518456Y-24373216D01*
X68586376Y-24537188D01*
X68621000Y-24711259D01*
X68621000Y-24888741D01*
X68586376Y-25062812D01*
X68518456Y-25226784D01*
X68419853Y-25374354D01*
X68294354Y-25499853D01*
X68146784Y-25598456D01*
X67982812Y-25666376D01*
X67833512Y-25696073D01*
X67808742Y-25701000D01*
X67631258Y-25701000D01*
X67606488Y-25696073D01*
X67457188Y-25666376D01*
X67293216Y-25598456D01*
X67145646Y-25499853D01*
X67020147Y-25374354D01*
X66921544Y-25226784D01*
X66853624Y-25062812D01*
X66819000Y-24888741D01*
X66819000Y-24711259D01*
X66853624Y-24537188D01*
X66921544Y-24373216D01*
X67020147Y-24225646D01*
X67145646Y-24100147D01*
X67293216Y-24001544D01*
X67457188Y-23933624D01*
X67606488Y-23903927D01*
X67631258Y-23899000D01*
X67808742Y-23899000D01*
X67833512Y-23903927D01*
G37*
G36*
X95773512Y-23903927D02*
G01*
X95922812Y-23933624D01*
X96086784Y-24001544D01*
X96234354Y-24100147D01*
X96359853Y-24225646D01*
X96458456Y-24373216D01*
X96526376Y-24537188D01*
X96561000Y-24711259D01*
X96561000Y-24888741D01*
X96526376Y-25062812D01*
X96458456Y-25226784D01*
X96359853Y-25374354D01*
X96234354Y-25499853D01*
X96086784Y-25598456D01*
X95922812Y-25666376D01*
X95773512Y-25696073D01*
X95748742Y-25701000D01*
X95571258Y-25701000D01*
X95546488Y-25696073D01*
X95397188Y-25666376D01*
X95233216Y-25598456D01*
X95085646Y-25499853D01*
X94960147Y-25374354D01*
X94861544Y-25226784D01*
X94793624Y-25062812D01*
X94759000Y-24888741D01*
X94759000Y-24711259D01*
X94793624Y-24537188D01*
X94861544Y-24373216D01*
X94960147Y-24225646D01*
X95085646Y-24100147D01*
X95233216Y-24001544D01*
X95397188Y-23933624D01*
X95546488Y-23903927D01*
X95571258Y-23899000D01*
X95748742Y-23899000D01*
X95773512Y-23903927D01*
G37*
G36*
X62753512Y-23903927D02*
G01*
X62902812Y-23933624D01*
X63066784Y-24001544D01*
X63214354Y-24100147D01*
X63339853Y-24225646D01*
X63438456Y-24373216D01*
X63506376Y-24537188D01*
X63541000Y-24711259D01*
X63541000Y-24888741D01*
X63506376Y-25062812D01*
X63438456Y-25226784D01*
X63339853Y-25374354D01*
X63214354Y-25499853D01*
X63066784Y-25598456D01*
X62902812Y-25666376D01*
X62753512Y-25696073D01*
X62728742Y-25701000D01*
X62551258Y-25701000D01*
X62526488Y-25696073D01*
X62377188Y-25666376D01*
X62213216Y-25598456D01*
X62065646Y-25499853D01*
X61940147Y-25374354D01*
X61841544Y-25226784D01*
X61773624Y-25062812D01*
X61739000Y-24888741D01*
X61739000Y-24711259D01*
X61773624Y-24537188D01*
X61841544Y-24373216D01*
X61940147Y-24225646D01*
X62065646Y-24100147D01*
X62213216Y-24001544D01*
X62377188Y-23933624D01*
X62526488Y-23903927D01*
X62551258Y-23899000D01*
X62728742Y-23899000D01*
X62753512Y-23903927D01*
G37*
G36*
X50053512Y-23903927D02*
G01*
X50202812Y-23933624D01*
X50366784Y-24001544D01*
X50514354Y-24100147D01*
X50639853Y-24225646D01*
X50738456Y-24373216D01*
X50806376Y-24537188D01*
X50841000Y-24711259D01*
X50841000Y-24888741D01*
X50806376Y-25062812D01*
X50738456Y-25226784D01*
X50639853Y-25374354D01*
X50514354Y-25499853D01*
X50366784Y-25598456D01*
X50202812Y-25666376D01*
X50053512Y-25696073D01*
X50028742Y-25701000D01*
X49851258Y-25701000D01*
X49826488Y-25696073D01*
X49677188Y-25666376D01*
X49513216Y-25598456D01*
X49365646Y-25499853D01*
X49240147Y-25374354D01*
X49141544Y-25226784D01*
X49073624Y-25062812D01*
X49039000Y-24888741D01*
X49039000Y-24711259D01*
X49073624Y-24537188D01*
X49141544Y-24373216D01*
X49240147Y-24225646D01*
X49365646Y-24100147D01*
X49513216Y-24001544D01*
X49677188Y-23933624D01*
X49826488Y-23903927D01*
X49851258Y-23899000D01*
X50028742Y-23899000D01*
X50053512Y-23903927D01*
G37*
G36*
X52593512Y-23903927D02*
G01*
X52742812Y-23933624D01*
X52906784Y-24001544D01*
X53054354Y-24100147D01*
X53179853Y-24225646D01*
X53278456Y-24373216D01*
X53346376Y-24537188D01*
X53381000Y-24711259D01*
X53381000Y-24888741D01*
X53346376Y-25062812D01*
X53278456Y-25226784D01*
X53179853Y-25374354D01*
X53054354Y-25499853D01*
X52906784Y-25598456D01*
X52742812Y-25666376D01*
X52593512Y-25696073D01*
X52568742Y-25701000D01*
X52391258Y-25701000D01*
X52366488Y-25696073D01*
X52217188Y-25666376D01*
X52053216Y-25598456D01*
X51905646Y-25499853D01*
X51780147Y-25374354D01*
X51681544Y-25226784D01*
X51613624Y-25062812D01*
X51579000Y-24888741D01*
X51579000Y-24711259D01*
X51613624Y-24537188D01*
X51681544Y-24373216D01*
X51780147Y-24225646D01*
X51905646Y-24100147D01*
X52053216Y-24001544D01*
X52217188Y-23933624D01*
X52366488Y-23903927D01*
X52391258Y-23899000D01*
X52568742Y-23899000D01*
X52593512Y-23903927D01*
G37*
G36*
X55133512Y-23903927D02*
G01*
X55282812Y-23933624D01*
X55446784Y-24001544D01*
X55594354Y-24100147D01*
X55719853Y-24225646D01*
X55818456Y-24373216D01*
X55886376Y-24537188D01*
X55921000Y-24711259D01*
X55921000Y-24888741D01*
X55886376Y-25062812D01*
X55818456Y-25226784D01*
X55719853Y-25374354D01*
X55594354Y-25499853D01*
X55446784Y-25598456D01*
X55282812Y-25666376D01*
X55133512Y-25696073D01*
X55108742Y-25701000D01*
X54931258Y-25701000D01*
X54906488Y-25696073D01*
X54757188Y-25666376D01*
X54593216Y-25598456D01*
X54445646Y-25499853D01*
X54320147Y-25374354D01*
X54221544Y-25226784D01*
X54153624Y-25062812D01*
X54119000Y-24888741D01*
X54119000Y-24711259D01*
X54153624Y-24537188D01*
X54221544Y-24373216D01*
X54320147Y-24225646D01*
X54445646Y-24100147D01*
X54593216Y-24001544D01*
X54757188Y-23933624D01*
X54906488Y-23903927D01*
X54931258Y-23899000D01*
X55108742Y-23899000D01*
X55133512Y-23903927D01*
G37*
G36*
X57673512Y-23903927D02*
G01*
X57822812Y-23933624D01*
X57986784Y-24001544D01*
X58134354Y-24100147D01*
X58259853Y-24225646D01*
X58358456Y-24373216D01*
X58426376Y-24537188D01*
X58461000Y-24711259D01*
X58461000Y-24888741D01*
X58426376Y-25062812D01*
X58358456Y-25226784D01*
X58259853Y-25374354D01*
X58134354Y-25499853D01*
X57986784Y-25598456D01*
X57822812Y-25666376D01*
X57673512Y-25696073D01*
X57648742Y-25701000D01*
X57471258Y-25701000D01*
X57446488Y-25696073D01*
X57297188Y-25666376D01*
X57133216Y-25598456D01*
X56985646Y-25499853D01*
X56860147Y-25374354D01*
X56761544Y-25226784D01*
X56693624Y-25062812D01*
X56659000Y-24888741D01*
X56659000Y-24711259D01*
X56693624Y-24537188D01*
X56761544Y-24373216D01*
X56860147Y-24225646D01*
X56985646Y-24100147D01*
X57133216Y-24001544D01*
X57297188Y-23933624D01*
X57446488Y-23903927D01*
X57471258Y-23899000D01*
X57648742Y-23899000D01*
X57673512Y-23903927D01*
G37*
G36*
X60213512Y-23903927D02*
G01*
X60362812Y-23933624D01*
X60526784Y-24001544D01*
X60674354Y-24100147D01*
X60799853Y-24225646D01*
X60898456Y-24373216D01*
X60966376Y-24537188D01*
X61001000Y-24711259D01*
X61001000Y-24888741D01*
X60966376Y-25062812D01*
X60898456Y-25226784D01*
X60799853Y-25374354D01*
X60674354Y-25499853D01*
X60526784Y-25598456D01*
X60362812Y-25666376D01*
X60213512Y-25696073D01*
X60188742Y-25701000D01*
X60011258Y-25701000D01*
X59986488Y-25696073D01*
X59837188Y-25666376D01*
X59673216Y-25598456D01*
X59525646Y-25499853D01*
X59400147Y-25374354D01*
X59301544Y-25226784D01*
X59233624Y-25062812D01*
X59199000Y-24888741D01*
X59199000Y-24711259D01*
X59233624Y-24537188D01*
X59301544Y-24373216D01*
X59400147Y-24225646D01*
X59525646Y-24100147D01*
X59673216Y-24001544D01*
X59837188Y-23933624D01*
X59986488Y-23903927D01*
X60011258Y-23899000D01*
X60188742Y-23899000D01*
X60213512Y-23903927D01*
G37*
G36*
X93233512Y-23903927D02*
G01*
X93382812Y-23933624D01*
X93546784Y-24001544D01*
X93694354Y-24100147D01*
X93819853Y-24225646D01*
X93918456Y-24373216D01*
X93986376Y-24537188D01*
X94021000Y-24711259D01*
X94021000Y-24888741D01*
X93986376Y-25062812D01*
X93918456Y-25226784D01*
X93819853Y-25374354D01*
X93694354Y-25499853D01*
X93546784Y-25598456D01*
X93382812Y-25666376D01*
X93233512Y-25696073D01*
X93208742Y-25701000D01*
X93031258Y-25701000D01*
X93006488Y-25696073D01*
X92857188Y-25666376D01*
X92693216Y-25598456D01*
X92545646Y-25499853D01*
X92420147Y-25374354D01*
X92321544Y-25226784D01*
X92253624Y-25062812D01*
X92219000Y-24888741D01*
X92219000Y-24711259D01*
X92253624Y-24537188D01*
X92321544Y-24373216D01*
X92420147Y-24225646D01*
X92545646Y-24100147D01*
X92693216Y-24001544D01*
X92857188Y-23933624D01*
X93006488Y-23903927D01*
X93031258Y-23899000D01*
X93208742Y-23899000D01*
X93233512Y-23903927D01*
G37*
G36*
X65293512Y-23903927D02*
G01*
X65442812Y-23933624D01*
X65606784Y-24001544D01*
X65754354Y-24100147D01*
X65879853Y-24225646D01*
X65978456Y-24373216D01*
X66046376Y-24537188D01*
X66081000Y-24711259D01*
X66081000Y-24888741D01*
X66046376Y-25062812D01*
X65978456Y-25226784D01*
X65879853Y-25374354D01*
X65754354Y-25499853D01*
X65606784Y-25598456D01*
X65442812Y-25666376D01*
X65293512Y-25696073D01*
X65268742Y-25701000D01*
X65091258Y-25701000D01*
X65066488Y-25696073D01*
X64917188Y-25666376D01*
X64753216Y-25598456D01*
X64605646Y-25499853D01*
X64480147Y-25374354D01*
X64381544Y-25226784D01*
X64313624Y-25062812D01*
X64279000Y-24888741D01*
X64279000Y-24711259D01*
X64313624Y-24537188D01*
X64381544Y-24373216D01*
X64480147Y-24225646D01*
X64605646Y-24100147D01*
X64753216Y-24001544D01*
X64917188Y-23933624D01*
X65066488Y-23903927D01*
X65091258Y-23899000D01*
X65268742Y-23899000D01*
X65293512Y-23903927D01*
G37*
G36*
X95773512Y-21363927D02*
G01*
X95922812Y-21393624D01*
X96086784Y-21461544D01*
X96234354Y-21560147D01*
X96359853Y-21685646D01*
X96458456Y-21833216D01*
X96526376Y-21997188D01*
X96561000Y-22171259D01*
X96561000Y-22348741D01*
X96526376Y-22522812D01*
X96458456Y-22686784D01*
X96359853Y-22834354D01*
X96234354Y-22959853D01*
X96086784Y-23058456D01*
X95922812Y-23126376D01*
X95773512Y-23156073D01*
X95748742Y-23161000D01*
X95571258Y-23161000D01*
X95546488Y-23156073D01*
X95397188Y-23126376D01*
X95233216Y-23058456D01*
X95085646Y-22959853D01*
X94960147Y-22834354D01*
X94861544Y-22686784D01*
X94793624Y-22522812D01*
X94759000Y-22348741D01*
X94759000Y-22171259D01*
X94793624Y-21997188D01*
X94861544Y-21833216D01*
X94960147Y-21685646D01*
X95085646Y-21560147D01*
X95233216Y-21461544D01*
X95397188Y-21393624D01*
X95546488Y-21363927D01*
X95571258Y-21359000D01*
X95748742Y-21359000D01*
X95773512Y-21363927D01*
G37*
G36*
X93233512Y-21363927D02*
G01*
X93382812Y-21393624D01*
X93546784Y-21461544D01*
X93694354Y-21560147D01*
X93819853Y-21685646D01*
X93918456Y-21833216D01*
X93986376Y-21997188D01*
X94021000Y-22171259D01*
X94021000Y-22348741D01*
X93986376Y-22522812D01*
X93918456Y-22686784D01*
X93819853Y-22834354D01*
X93694354Y-22959853D01*
X93546784Y-23058456D01*
X93382812Y-23126376D01*
X93233512Y-23156073D01*
X93208742Y-23161000D01*
X93031258Y-23161000D01*
X93006488Y-23156073D01*
X92857188Y-23126376D01*
X92693216Y-23058456D01*
X92545646Y-22959853D01*
X92420147Y-22834354D01*
X92321544Y-22686784D01*
X92253624Y-22522812D01*
X92219000Y-22348741D01*
X92219000Y-22171259D01*
X92253624Y-21997188D01*
X92321544Y-21833216D01*
X92420147Y-21685646D01*
X92545646Y-21560147D01*
X92693216Y-21461544D01*
X92857188Y-21393624D01*
X93006488Y-21363927D01*
X93031258Y-21359000D01*
X93208742Y-21359000D01*
X93233512Y-21363927D01*
G37*
G36*
X90693512Y-21363927D02*
G01*
X90842812Y-21393624D01*
X91006784Y-21461544D01*
X91154354Y-21560147D01*
X91279853Y-21685646D01*
X91378456Y-21833216D01*
X91446376Y-21997188D01*
X91481000Y-22171259D01*
X91481000Y-22348741D01*
X91446376Y-22522812D01*
X91378456Y-22686784D01*
X91279853Y-22834354D01*
X91154354Y-22959853D01*
X91006784Y-23058456D01*
X90842812Y-23126376D01*
X90693512Y-23156073D01*
X90668742Y-23161000D01*
X90491258Y-23161000D01*
X90466488Y-23156073D01*
X90317188Y-23126376D01*
X90153216Y-23058456D01*
X90005646Y-22959853D01*
X89880147Y-22834354D01*
X89781544Y-22686784D01*
X89713624Y-22522812D01*
X89679000Y-22348741D01*
X89679000Y-22171259D01*
X89713624Y-21997188D01*
X89781544Y-21833216D01*
X89880147Y-21685646D01*
X90005646Y-21560147D01*
X90153216Y-21461544D01*
X90317188Y-21393624D01*
X90466488Y-21363927D01*
X90491258Y-21359000D01*
X90668742Y-21359000D01*
X90693512Y-21363927D01*
G37*
G36*
X88153512Y-21363927D02*
G01*
X88302812Y-21393624D01*
X88466784Y-21461544D01*
X88614354Y-21560147D01*
X88739853Y-21685646D01*
X88838456Y-21833216D01*
X88906376Y-21997188D01*
X88941000Y-22171259D01*
X88941000Y-22348741D01*
X88906376Y-22522812D01*
X88838456Y-22686784D01*
X88739853Y-22834354D01*
X88614354Y-22959853D01*
X88466784Y-23058456D01*
X88302812Y-23126376D01*
X88153512Y-23156073D01*
X88128742Y-23161000D01*
X87951258Y-23161000D01*
X87926488Y-23156073D01*
X87777188Y-23126376D01*
X87613216Y-23058456D01*
X87465646Y-22959853D01*
X87340147Y-22834354D01*
X87241544Y-22686784D01*
X87173624Y-22522812D01*
X87139000Y-22348741D01*
X87139000Y-22171259D01*
X87173624Y-21997188D01*
X87241544Y-21833216D01*
X87340147Y-21685646D01*
X87465646Y-21560147D01*
X87613216Y-21461544D01*
X87777188Y-21393624D01*
X87926488Y-21363927D01*
X87951258Y-21359000D01*
X88128742Y-21359000D01*
X88153512Y-21363927D01*
G37*
G36*
X85613512Y-21363927D02*
G01*
X85762812Y-21393624D01*
X85926784Y-21461544D01*
X86074354Y-21560147D01*
X86199853Y-21685646D01*
X86298456Y-21833216D01*
X86366376Y-21997188D01*
X86401000Y-22171259D01*
X86401000Y-22348741D01*
X86366376Y-22522812D01*
X86298456Y-22686784D01*
X86199853Y-22834354D01*
X86074354Y-22959853D01*
X85926784Y-23058456D01*
X85762812Y-23126376D01*
X85613512Y-23156073D01*
X85588742Y-23161000D01*
X85411258Y-23161000D01*
X85386488Y-23156073D01*
X85237188Y-23126376D01*
X85073216Y-23058456D01*
X84925646Y-22959853D01*
X84800147Y-22834354D01*
X84701544Y-22686784D01*
X84633624Y-22522812D01*
X84599000Y-22348741D01*
X84599000Y-22171259D01*
X84633624Y-21997188D01*
X84701544Y-21833216D01*
X84800147Y-21685646D01*
X84925646Y-21560147D01*
X85073216Y-21461544D01*
X85237188Y-21393624D01*
X85386488Y-21363927D01*
X85411258Y-21359000D01*
X85588742Y-21359000D01*
X85613512Y-21363927D01*
G37*
G36*
X80533512Y-21363927D02*
G01*
X80682812Y-21393624D01*
X80846784Y-21461544D01*
X80994354Y-21560147D01*
X81119853Y-21685646D01*
X81218456Y-21833216D01*
X81286376Y-21997188D01*
X81321000Y-22171259D01*
X81321000Y-22348741D01*
X81286376Y-22522812D01*
X81218456Y-22686784D01*
X81119853Y-22834354D01*
X80994354Y-22959853D01*
X80846784Y-23058456D01*
X80682812Y-23126376D01*
X80533512Y-23156073D01*
X80508742Y-23161000D01*
X80331258Y-23161000D01*
X80306488Y-23156073D01*
X80157188Y-23126376D01*
X79993216Y-23058456D01*
X79845646Y-22959853D01*
X79720147Y-22834354D01*
X79621544Y-22686784D01*
X79553624Y-22522812D01*
X79519000Y-22348741D01*
X79519000Y-22171259D01*
X79553624Y-21997188D01*
X79621544Y-21833216D01*
X79720147Y-21685646D01*
X79845646Y-21560147D01*
X79993216Y-21461544D01*
X80157188Y-21393624D01*
X80306488Y-21363927D01*
X80331258Y-21359000D01*
X80508742Y-21359000D01*
X80533512Y-21363927D01*
G37*
G36*
X62753512Y-21363927D02*
G01*
X62902812Y-21393624D01*
X63066784Y-21461544D01*
X63214354Y-21560147D01*
X63339853Y-21685646D01*
X63438456Y-21833216D01*
X63506376Y-21997188D01*
X63541000Y-22171259D01*
X63541000Y-22348741D01*
X63506376Y-22522812D01*
X63438456Y-22686784D01*
X63339853Y-22834354D01*
X63214354Y-22959853D01*
X63066784Y-23058456D01*
X62902812Y-23126376D01*
X62753512Y-23156073D01*
X62728742Y-23161000D01*
X62551258Y-23161000D01*
X62526488Y-23156073D01*
X62377188Y-23126376D01*
X62213216Y-23058456D01*
X62065646Y-22959853D01*
X61940147Y-22834354D01*
X61841544Y-22686784D01*
X61773624Y-22522812D01*
X61739000Y-22348741D01*
X61739000Y-22171259D01*
X61773624Y-21997188D01*
X61841544Y-21833216D01*
X61940147Y-21685646D01*
X62065646Y-21560147D01*
X62213216Y-21461544D01*
X62377188Y-21393624D01*
X62526488Y-21363927D01*
X62551258Y-21359000D01*
X62728742Y-21359000D01*
X62753512Y-21363927D01*
G37*
G36*
X60213512Y-21363927D02*
G01*
X60362812Y-21393624D01*
X60526784Y-21461544D01*
X60674354Y-21560147D01*
X60799853Y-21685646D01*
X60898456Y-21833216D01*
X60966376Y-21997188D01*
X61001000Y-22171259D01*
X61001000Y-22348741D01*
X60966376Y-22522812D01*
X60898456Y-22686784D01*
X60799853Y-22834354D01*
X60674354Y-22959853D01*
X60526784Y-23058456D01*
X60362812Y-23126376D01*
X60213512Y-23156073D01*
X60188742Y-23161000D01*
X60011258Y-23161000D01*
X59986488Y-23156073D01*
X59837188Y-23126376D01*
X59673216Y-23058456D01*
X59525646Y-22959853D01*
X59400147Y-22834354D01*
X59301544Y-22686784D01*
X59233624Y-22522812D01*
X59199000Y-22348741D01*
X59199000Y-22171259D01*
X59233624Y-21997188D01*
X59301544Y-21833216D01*
X59400147Y-21685646D01*
X59525646Y-21560147D01*
X59673216Y-21461544D01*
X59837188Y-21393624D01*
X59986488Y-21363927D01*
X60011258Y-21359000D01*
X60188742Y-21359000D01*
X60213512Y-21363927D01*
G37*
G36*
X65293512Y-21363927D02*
G01*
X65442812Y-21393624D01*
X65606784Y-21461544D01*
X65754354Y-21560147D01*
X65879853Y-21685646D01*
X65978456Y-21833216D01*
X66046376Y-21997188D01*
X66081000Y-22171259D01*
X66081000Y-22348741D01*
X66046376Y-22522812D01*
X65978456Y-22686784D01*
X65879853Y-22834354D01*
X65754354Y-22959853D01*
X65606784Y-23058456D01*
X65442812Y-23126376D01*
X65293512Y-23156073D01*
X65268742Y-23161000D01*
X65091258Y-23161000D01*
X65066488Y-23156073D01*
X64917188Y-23126376D01*
X64753216Y-23058456D01*
X64605646Y-22959853D01*
X64480147Y-22834354D01*
X64381544Y-22686784D01*
X64313624Y-22522812D01*
X64279000Y-22348741D01*
X64279000Y-22171259D01*
X64313624Y-21997188D01*
X64381544Y-21833216D01*
X64480147Y-21685646D01*
X64605646Y-21560147D01*
X64753216Y-21461544D01*
X64917188Y-21393624D01*
X65066488Y-21363927D01*
X65091258Y-21359000D01*
X65268742Y-21359000D01*
X65293512Y-21363927D01*
G37*
G36*
X83073512Y-21363927D02*
G01*
X83222812Y-21393624D01*
X83386784Y-21461544D01*
X83534354Y-21560147D01*
X83659853Y-21685646D01*
X83758456Y-21833216D01*
X83826376Y-21997188D01*
X83861000Y-22171259D01*
X83861000Y-22348741D01*
X83826376Y-22522812D01*
X83758456Y-22686784D01*
X83659853Y-22834354D01*
X83534354Y-22959853D01*
X83386784Y-23058456D01*
X83222812Y-23126376D01*
X83073512Y-23156073D01*
X83048742Y-23161000D01*
X82871258Y-23161000D01*
X82846488Y-23156073D01*
X82697188Y-23126376D01*
X82533216Y-23058456D01*
X82385646Y-22959853D01*
X82260147Y-22834354D01*
X82161544Y-22686784D01*
X82093624Y-22522812D01*
X82059000Y-22348741D01*
X82059000Y-22171259D01*
X82093624Y-21997188D01*
X82161544Y-21833216D01*
X82260147Y-21685646D01*
X82385646Y-21560147D01*
X82533216Y-21461544D01*
X82697188Y-21393624D01*
X82846488Y-21363927D01*
X82871258Y-21359000D01*
X83048742Y-21359000D01*
X83073512Y-21363927D01*
G37*
G36*
X67833512Y-21363927D02*
G01*
X67982812Y-21393624D01*
X68146784Y-21461544D01*
X68294354Y-21560147D01*
X68419853Y-21685646D01*
X68518456Y-21833216D01*
X68586376Y-21997188D01*
X68621000Y-22171259D01*
X68621000Y-22348741D01*
X68586376Y-22522812D01*
X68518456Y-22686784D01*
X68419853Y-22834354D01*
X68294354Y-22959853D01*
X68146784Y-23058456D01*
X67982812Y-23126376D01*
X67833512Y-23156073D01*
X67808742Y-23161000D01*
X67631258Y-23161000D01*
X67606488Y-23156073D01*
X67457188Y-23126376D01*
X67293216Y-23058456D01*
X67145646Y-22959853D01*
X67020147Y-22834354D01*
X66921544Y-22686784D01*
X66853624Y-22522812D01*
X66819000Y-22348741D01*
X66819000Y-22171259D01*
X66853624Y-21997188D01*
X66921544Y-21833216D01*
X67020147Y-21685646D01*
X67145646Y-21560147D01*
X67293216Y-21461544D01*
X67457188Y-21393624D01*
X67606488Y-21363927D01*
X67631258Y-21359000D01*
X67808742Y-21359000D01*
X67833512Y-21363927D01*
G37*
G36*
X70373512Y-21363927D02*
G01*
X70522812Y-21393624D01*
X70686784Y-21461544D01*
X70834354Y-21560147D01*
X70959853Y-21685646D01*
X71058456Y-21833216D01*
X71126376Y-21997188D01*
X71161000Y-22171259D01*
X71161000Y-22348741D01*
X71126376Y-22522812D01*
X71058456Y-22686784D01*
X70959853Y-22834354D01*
X70834354Y-22959853D01*
X70686784Y-23058456D01*
X70522812Y-23126376D01*
X70373512Y-23156073D01*
X70348742Y-23161000D01*
X70171258Y-23161000D01*
X70146488Y-23156073D01*
X69997188Y-23126376D01*
X69833216Y-23058456D01*
X69685646Y-22959853D01*
X69560147Y-22834354D01*
X69461544Y-22686784D01*
X69393624Y-22522812D01*
X69359000Y-22348741D01*
X69359000Y-22171259D01*
X69393624Y-21997188D01*
X69461544Y-21833216D01*
X69560147Y-21685646D01*
X69685646Y-21560147D01*
X69833216Y-21461544D01*
X69997188Y-21393624D01*
X70146488Y-21363927D01*
X70171258Y-21359000D01*
X70348742Y-21359000D01*
X70373512Y-21363927D01*
G37*
G36*
X57673512Y-21363927D02*
G01*
X57822812Y-21393624D01*
X57986784Y-21461544D01*
X58134354Y-21560147D01*
X58259853Y-21685646D01*
X58358456Y-21833216D01*
X58426376Y-21997188D01*
X58461000Y-22171259D01*
X58461000Y-22348741D01*
X58426376Y-22522812D01*
X58358456Y-22686784D01*
X58259853Y-22834354D01*
X58134354Y-22959853D01*
X57986784Y-23058456D01*
X57822812Y-23126376D01*
X57673512Y-23156073D01*
X57648742Y-23161000D01*
X57471258Y-23161000D01*
X57446488Y-23156073D01*
X57297188Y-23126376D01*
X57133216Y-23058456D01*
X56985646Y-22959853D01*
X56860147Y-22834354D01*
X56761544Y-22686784D01*
X56693624Y-22522812D01*
X56659000Y-22348741D01*
X56659000Y-22171259D01*
X56693624Y-21997188D01*
X56761544Y-21833216D01*
X56860147Y-21685646D01*
X56985646Y-21560147D01*
X57133216Y-21461544D01*
X57297188Y-21393624D01*
X57446488Y-21363927D01*
X57471258Y-21359000D01*
X57648742Y-21359000D01*
X57673512Y-21363927D01*
G37*
G36*
X72913512Y-21363927D02*
G01*
X73062812Y-21393624D01*
X73226784Y-21461544D01*
X73374354Y-21560147D01*
X73499853Y-21685646D01*
X73598456Y-21833216D01*
X73666376Y-21997188D01*
X73701000Y-22171259D01*
X73701000Y-22348741D01*
X73666376Y-22522812D01*
X73598456Y-22686784D01*
X73499853Y-22834354D01*
X73374354Y-22959853D01*
X73226784Y-23058456D01*
X73062812Y-23126376D01*
X72913512Y-23156073D01*
X72888742Y-23161000D01*
X72711258Y-23161000D01*
X72686488Y-23156073D01*
X72537188Y-23126376D01*
X72373216Y-23058456D01*
X72225646Y-22959853D01*
X72100147Y-22834354D01*
X72001544Y-22686784D01*
X71933624Y-22522812D01*
X71899000Y-22348741D01*
X71899000Y-22171259D01*
X71933624Y-21997188D01*
X72001544Y-21833216D01*
X72100147Y-21685646D01*
X72225646Y-21560147D01*
X72373216Y-21461544D01*
X72537188Y-21393624D01*
X72686488Y-21363927D01*
X72711258Y-21359000D01*
X72888742Y-21359000D01*
X72913512Y-21363927D01*
G37*
G36*
X52593512Y-21363927D02*
G01*
X52742812Y-21393624D01*
X52906784Y-21461544D01*
X53054354Y-21560147D01*
X53179853Y-21685646D01*
X53278456Y-21833216D01*
X53346376Y-21997188D01*
X53381000Y-22171259D01*
X53381000Y-22348741D01*
X53346376Y-22522812D01*
X53278456Y-22686784D01*
X53179853Y-22834354D01*
X53054354Y-22959853D01*
X52906784Y-23058456D01*
X52742812Y-23126376D01*
X52593512Y-23156073D01*
X52568742Y-23161000D01*
X52391258Y-23161000D01*
X52366488Y-23156073D01*
X52217188Y-23126376D01*
X52053216Y-23058456D01*
X51905646Y-22959853D01*
X51780147Y-22834354D01*
X51681544Y-22686784D01*
X51613624Y-22522812D01*
X51579000Y-22348741D01*
X51579000Y-22171259D01*
X51613624Y-21997188D01*
X51681544Y-21833216D01*
X51780147Y-21685646D01*
X51905646Y-21560147D01*
X52053216Y-21461544D01*
X52217188Y-21393624D01*
X52366488Y-21363927D01*
X52391258Y-21359000D01*
X52568742Y-21359000D01*
X52593512Y-21363927D01*
G37*
G36*
X75453512Y-21363927D02*
G01*
X75602812Y-21393624D01*
X75766784Y-21461544D01*
X75914354Y-21560147D01*
X76039853Y-21685646D01*
X76138456Y-21833216D01*
X76206376Y-21997188D01*
X76241000Y-22171259D01*
X76241000Y-22348741D01*
X76206376Y-22522812D01*
X76138456Y-22686784D01*
X76039853Y-22834354D01*
X75914354Y-22959853D01*
X75766784Y-23058456D01*
X75602812Y-23126376D01*
X75453512Y-23156073D01*
X75428742Y-23161000D01*
X75251258Y-23161000D01*
X75226488Y-23156073D01*
X75077188Y-23126376D01*
X74913216Y-23058456D01*
X74765646Y-22959853D01*
X74640147Y-22834354D01*
X74541544Y-22686784D01*
X74473624Y-22522812D01*
X74439000Y-22348741D01*
X74439000Y-22171259D01*
X74473624Y-21997188D01*
X74541544Y-21833216D01*
X74640147Y-21685646D01*
X74765646Y-21560147D01*
X74913216Y-21461544D01*
X75077188Y-21393624D01*
X75226488Y-21363927D01*
X75251258Y-21359000D01*
X75428742Y-21359000D01*
X75453512Y-21363927D01*
G37*
G36*
X50053512Y-21363927D02*
G01*
X50202812Y-21393624D01*
X50366784Y-21461544D01*
X50514354Y-21560147D01*
X50639853Y-21685646D01*
X50738456Y-21833216D01*
X50806376Y-21997188D01*
X50841000Y-22171259D01*
X50841000Y-22348741D01*
X50806376Y-22522812D01*
X50738456Y-22686784D01*
X50639853Y-22834354D01*
X50514354Y-22959853D01*
X50366784Y-23058456D01*
X50202812Y-23126376D01*
X50053512Y-23156073D01*
X50028742Y-23161000D01*
X49851258Y-23161000D01*
X49826488Y-23156073D01*
X49677188Y-23126376D01*
X49513216Y-23058456D01*
X49365646Y-22959853D01*
X49240147Y-22834354D01*
X49141544Y-22686784D01*
X49073624Y-22522812D01*
X49039000Y-22348741D01*
X49039000Y-22171259D01*
X49073624Y-21997188D01*
X49141544Y-21833216D01*
X49240147Y-21685646D01*
X49365646Y-21560147D01*
X49513216Y-21461544D01*
X49677188Y-21393624D01*
X49826488Y-21363927D01*
X49851258Y-21359000D01*
X50028742Y-21359000D01*
X50053512Y-21363927D01*
G37*
G36*
X47513512Y-21363927D02*
G01*
X47662812Y-21393624D01*
X47826784Y-21461544D01*
X47974354Y-21560147D01*
X48099853Y-21685646D01*
X48198456Y-21833216D01*
X48266376Y-21997188D01*
X48301000Y-22171259D01*
X48301000Y-22348741D01*
X48266376Y-22522812D01*
X48198456Y-22686784D01*
X48099853Y-22834354D01*
X47974354Y-22959853D01*
X47826784Y-23058456D01*
X47662812Y-23126376D01*
X47513512Y-23156073D01*
X47488742Y-23161000D01*
X47311258Y-23161000D01*
X47286488Y-23156073D01*
X47137188Y-23126376D01*
X46973216Y-23058456D01*
X46825646Y-22959853D01*
X46700147Y-22834354D01*
X46601544Y-22686784D01*
X46533624Y-22522812D01*
X46499000Y-22348741D01*
X46499000Y-22171259D01*
X46533624Y-21997188D01*
X46601544Y-21833216D01*
X46700147Y-21685646D01*
X46825646Y-21560147D01*
X46973216Y-21461544D01*
X47137188Y-21393624D01*
X47286488Y-21363927D01*
X47311258Y-21359000D01*
X47488742Y-21359000D01*
X47513512Y-21363927D01*
G37*
G36*
X77993512Y-21363927D02*
G01*
X78142812Y-21393624D01*
X78306784Y-21461544D01*
X78454354Y-21560147D01*
X78579853Y-21685646D01*
X78678456Y-21833216D01*
X78746376Y-21997188D01*
X78781000Y-22171259D01*
X78781000Y-22348741D01*
X78746376Y-22522812D01*
X78678456Y-22686784D01*
X78579853Y-22834354D01*
X78454354Y-22959853D01*
X78306784Y-23058456D01*
X78142812Y-23126376D01*
X77993512Y-23156073D01*
X77968742Y-23161000D01*
X77791258Y-23161000D01*
X77766488Y-23156073D01*
X77617188Y-23126376D01*
X77453216Y-23058456D01*
X77305646Y-22959853D01*
X77180147Y-22834354D01*
X77081544Y-22686784D01*
X77013624Y-22522812D01*
X76979000Y-22348741D01*
X76979000Y-22171259D01*
X77013624Y-21997188D01*
X77081544Y-21833216D01*
X77180147Y-21685646D01*
X77305646Y-21560147D01*
X77453216Y-21461544D01*
X77617188Y-21393624D01*
X77766488Y-21363927D01*
X77791258Y-21359000D01*
X77968742Y-21359000D01*
X77993512Y-21363927D01*
G37*
G36*
X55133512Y-21363927D02*
G01*
X55282812Y-21393624D01*
X55446784Y-21461544D01*
X55594354Y-21560147D01*
X55719853Y-21685646D01*
X55818456Y-21833216D01*
X55886376Y-21997188D01*
X55921000Y-22171259D01*
X55921000Y-22348741D01*
X55886376Y-22522812D01*
X55818456Y-22686784D01*
X55719853Y-22834354D01*
X55594354Y-22959853D01*
X55446784Y-23058456D01*
X55282812Y-23126376D01*
X55133512Y-23156073D01*
X55108742Y-23161000D01*
X54931258Y-23161000D01*
X54906488Y-23156073D01*
X54757188Y-23126376D01*
X54593216Y-23058456D01*
X54445646Y-22959853D01*
X54320147Y-22834354D01*
X54221544Y-22686784D01*
X54153624Y-22522812D01*
X54119000Y-22348741D01*
X54119000Y-22171259D01*
X54153624Y-21997188D01*
X54221544Y-21833216D01*
X54320147Y-21685646D01*
X54445646Y-21560147D01*
X54593216Y-21461544D01*
X54757188Y-21393624D01*
X54906488Y-21363927D01*
X54931258Y-21359000D01*
X55108742Y-21359000D01*
X55133512Y-21363927D01*
G37*
M02*
