M48
; DRILL file {KiCad (5.1.5)-3} date 8/29/2020 9:18:11 AM
; FORMAT={-:-/ absolute / inch / decimal}
; #@! TF.CreationDate,2020-08-29T09:18:11-04:00
; #@! TF.GenerationSoftware,Kicad,Pcbnew,(5.1.5)-3
; #@! TF.FileFunction,Plated,1,2,PTH
FMAT,2
INCH
T1C0.0157
T2C0.0394
T3C0.0630
T4C0.1260
%
G90
G05
T1
X1.6102Y-1.4941
X1.6142Y-1.622
X1.6201Y-2.4823
X1.6929Y-2.002
X1.7047Y-1.2382
X1.7067Y-1.1142
X1.7677Y-3.2539
X1.7697Y-1.3504
X1.7697Y-1.561
X1.8189Y-3.7953
X1.8307Y-2.2677
X1.9173Y-3.5157
X1.9252Y-1.3957
X1.9291Y-1.1102
X1.9331Y-1.2441
X1.9409Y-2.002
X1.998Y-2.9173
X2.0157Y-1.1791
X2.0335Y-3.7953
X2.0394Y-1.5
X2.0433Y-1.6457
X2.0906Y-2.4823
X2.187Y-3.3917
X2.1929Y-2.0039
X2.2067Y-2.6339
X2.2087Y-2.9213
X2.2559Y-2.2972
X2.2579Y-1.2323
X2.2598Y-1.439
X2.2618Y-1.1063
X2.2638Y-3.252
X2.2736Y-1.5531
X2.3346Y-2.4055
X2.4232Y-1.122
X2.4272Y-1.998
X2.435Y-1.4921
X2.4665Y-2.7185
X2.5236Y-1.6201
X2.5354Y-1.2382
X2.5413Y-1.0906
X2.5689Y-2.6181
X2.5965Y-2.4134
X2.6004Y-1.3937
X2.6004Y-1.439
X2.6004Y-1.4902
X2.6024Y-1.3484
X2.6024Y-1.9941
X2.6043Y-1.8366
X2.6181Y-3.0039
X2.6339Y-2.9291
X2.6634Y-3.248
X2.6673Y-1.2126
X2.6772Y-3.7933
X2.7205Y-1.0591
X2.7244Y-2.4921
X2.7441Y-1.5059
X2.7461Y-1.5709
X2.7638Y-2.7598
X2.7677Y-1.0984
X2.7795Y-2.0709
X2.8031Y-1.2776
X2.8307Y-1.6969
X2.8563Y-3.7933
X2.8622Y-2.7165
X2.874Y-1.063
X2.8878Y-1.7283
X2.9016Y-2.7598
X2.935Y-1.4016
X2.937Y-1.1339
X2.937Y-1.5
X2.9665Y-1.0512
X2.9803Y-2.0945
X2.9961Y-1.1319
X3.0059Y-1.0866
X3.0059Y-2.9882
X3.0394Y-2.0591
X3.0492Y-1.4035
X3.0492Y-1.502
X3.063Y-3.3602
X3.0886Y-1.7165
X3.1122Y-1.0896
X3.128Y-1.2126
X3.1437Y-1.6831
X3.1614Y-2.6142
X3.187Y-1.2146
X3.2146Y-2.065
X3.2303Y-1.4823
X3.2343Y-1.3484
X3.2894Y-3.1594
X3.3622Y-2.3366
X3.4193Y-1.9094
X3.437Y-2.9291
X3.4409Y-3.0059
X3.4685Y-2.0748
X3.4685Y-2.6319
X3.4705Y-3.7894
X3.5197Y-1.2461
X3.5197Y-1.3228
X3.5709Y-1.752
X3.5807Y-2.4882
X3.5866Y-3.248
X3.5945Y-1.4744
X3.5945Y-2.2638
X3.5945Y-2.4134
X3.6161Y-1.061
X3.628Y-1.2461
X3.6299Y-1.3248
X3.6339Y-1.9173
X3.6594Y-3.7835
X3.7087Y-1.1713
X3.7106Y-1.0965
X3.7726Y-1.7589
X3.7756Y-2.5787
X3.7874Y-3.0157
X3.8051Y-2.0866
X3.811Y-2.3524
X3.815Y-1.0827
X3.8406Y-1.6516
X3.8799Y-1.9173
X3.935Y-3.3228
X3.9724Y-1.4803
X3.9764Y-1.6142
X3.9764Y-1.7539
X3.9783Y-1.2008
X3.9803Y-1.3091
X3.998Y-2.3248
X4.0236Y-2.628
X4.0315Y-2.498
X4.1457Y-3.2362
X4.1654Y-2.3248
X4.2283Y-2.937
X4.2854Y-3.7933
X4.4587Y-3.7894
X4.4685Y-2.628
X4.622Y-2.937
X4.622Y-3.2441
T2
X1.8661Y-0.8764
X1.8661Y-0.9764
X1.9661Y-0.8764
X1.9661Y-0.9764
X2.0661Y-0.8764
X2.0661Y-0.9764
X2.1661Y-0.8764
X2.1661Y-0.9764
X2.2661Y-0.8764
X2.2661Y-0.9764
X2.3661Y-0.8764
X2.3661Y-0.9764
X2.4661Y-0.8764
X2.4661Y-0.9764
X2.5661Y-0.8764
X2.5661Y-0.9764
X2.6661Y-0.8764
X2.6661Y-0.9764
X2.7661Y-0.8764
X2.7661Y-0.9764
X2.8661Y-0.8764
X2.8661Y-0.9764
X2.9661Y-0.8764
X2.9661Y-0.9764
X3.0661Y-0.8764
X3.0661Y-0.9764
X3.1661Y-0.8764
X3.1661Y-0.9764
X3.2661Y-0.8764
X3.2661Y-0.9764
X3.3661Y-0.8764
X3.3661Y-0.9764
X3.4661Y-0.8764
X3.4661Y-0.9764
X3.5661Y-0.8764
X3.5661Y-0.9764
X3.6661Y-0.8764
X3.6661Y-0.9764
X3.7661Y-0.8764
X3.7661Y-0.9764
T3
X2.437Y-3.5197
X2.437Y-4.0157
X3.0748Y-3.5197
X3.0748Y-4.0157
X3.2402Y-3.5197
X3.2402Y-4.0157
X3.878Y-3.5197
X3.878Y-4.0157
X1.6339Y-3.5197
X1.6339Y-4.0157
X2.2717Y-3.5197
X2.2717Y-4.0157
X4.0433Y-3.5197
X4.0433Y-4.0157
X4.6811Y-3.5197
X4.6811Y-4.0157
T4
X3.9567Y-0.9252
X1.6732Y-2.8543
X3.9567Y-2.8543
X1.6732Y-0.9252
T0
M30
