G04 #@! TF.GenerationSoftware,KiCad,Pcbnew,(5.1.5)-3*
G04 #@! TF.CreationDate,2020-08-29T09:18:06-04:00*
G04 #@! TF.ProjectId,AudioBox,41756469-6f42-46f7-982e-6b696361645f,rev?*
G04 #@! TF.SameCoordinates,Original*
G04 #@! TF.FileFunction,Legend,Bot*
G04 #@! TF.FilePolarity,Positive*
%FSLAX46Y46*%
G04 Gerber Fmt 4.6, Leading zero omitted, Abs format (unit mm)*
G04 Created by KiCad (PCBNEW (5.1.5)-3) date 2020-08-29 09:18:06*
%MOMM*%
%LPD*%
G04 APERTURE LIST*
%ADD10C,0.150000*%
%ADD11C,0.152400*%
%ADD12C,0.120000*%
G04 APERTURE END LIST*
D10*
X61433333Y-54704761D02*
X61290476Y-54752380D01*
X61052380Y-54752380D01*
X60957142Y-54704761D01*
X60909523Y-54657142D01*
X60861904Y-54561904D01*
X60861904Y-54466666D01*
X60909523Y-54371428D01*
X60957142Y-54323809D01*
X61052380Y-54276190D01*
X61242857Y-54228571D01*
X61338095Y-54180952D01*
X61385714Y-54133333D01*
X61433333Y-54038095D01*
X61433333Y-53942857D01*
X61385714Y-53847619D01*
X61338095Y-53800000D01*
X61242857Y-53752380D01*
X61004761Y-53752380D01*
X60861904Y-53800000D01*
X60576190Y-53752380D02*
X60004761Y-53752380D01*
X60290476Y-54752380D02*
X60290476Y-53752380D01*
X59671428Y-54752380D02*
X59671428Y-53752380D01*
X59338095Y-54466666D01*
X59004761Y-53752380D01*
X59004761Y-54752380D01*
X58623809Y-53752380D02*
X58004761Y-53752380D01*
X58338095Y-54133333D01*
X58195238Y-54133333D01*
X58100000Y-54180952D01*
X58052380Y-54228571D01*
X58004761Y-54323809D01*
X58004761Y-54561904D01*
X58052380Y-54657142D01*
X58100000Y-54704761D01*
X58195238Y-54752380D01*
X58480952Y-54752380D01*
X58576190Y-54704761D01*
X58623809Y-54657142D01*
X57623809Y-53847619D02*
X57576190Y-53800000D01*
X57480952Y-53752380D01*
X57242857Y-53752380D01*
X57147619Y-53800000D01*
X57100000Y-53847619D01*
X57052380Y-53942857D01*
X57052380Y-54038095D01*
X57100000Y-54180952D01*
X57671428Y-54752380D01*
X57052380Y-54752380D01*
X56623809Y-54752380D02*
X56623809Y-53752380D01*
X56290476Y-54466666D01*
X55957142Y-53752380D01*
X55957142Y-54752380D01*
X55480952Y-54752380D02*
X55480952Y-53752380D01*
X55100000Y-53752380D01*
X55004761Y-53800000D01*
X54957142Y-53847619D01*
X54909523Y-53942857D01*
X54909523Y-54085714D01*
X54957142Y-54180952D01*
X55004761Y-54228571D01*
X55100000Y-54276190D01*
X55480952Y-54276190D01*
X53957142Y-54752380D02*
X54528571Y-54752380D01*
X54242857Y-54752380D02*
X54242857Y-53752380D01*
X54338095Y-53895238D01*
X54433333Y-53990476D01*
X54528571Y-54038095D01*
X52814285Y-54466666D02*
X52338095Y-54466666D01*
X52909523Y-54752380D02*
X52576190Y-53752380D01*
X52242857Y-54752380D01*
X51480952Y-54085714D02*
X51480952Y-54752380D01*
X51909523Y-54085714D02*
X51909523Y-54609523D01*
X51861904Y-54704761D01*
X51766666Y-54752380D01*
X51623809Y-54752380D01*
X51528571Y-54704761D01*
X51480952Y-54657142D01*
X50576190Y-54752380D02*
X50576190Y-53752380D01*
X50576190Y-54704761D02*
X50671428Y-54752380D01*
X50861904Y-54752380D01*
X50957142Y-54704761D01*
X51004761Y-54657142D01*
X51052380Y-54561904D01*
X51052380Y-54276190D01*
X51004761Y-54180952D01*
X50957142Y-54133333D01*
X50861904Y-54085714D01*
X50671428Y-54085714D01*
X50576190Y-54133333D01*
X50100000Y-54752380D02*
X50100000Y-54085714D01*
X50100000Y-53752380D02*
X50147619Y-53800000D01*
X50100000Y-53847619D01*
X50052380Y-53800000D01*
X50100000Y-53752380D01*
X50100000Y-53847619D01*
X49480952Y-54752380D02*
X49576190Y-54704761D01*
X49623809Y-54657142D01*
X49671428Y-54561904D01*
X49671428Y-54276190D01*
X49623809Y-54180952D01*
X49576190Y-54133333D01*
X49480952Y-54085714D01*
X49338095Y-54085714D01*
X49242857Y-54133333D01*
X49195238Y-54180952D01*
X49147619Y-54276190D01*
X49147619Y-54561904D01*
X49195238Y-54657142D01*
X49242857Y-54704761D01*
X49338095Y-54752380D01*
X49480952Y-54752380D01*
X47623809Y-54228571D02*
X47480952Y-54276190D01*
X47433333Y-54323809D01*
X47385714Y-54419047D01*
X47385714Y-54561904D01*
X47433333Y-54657142D01*
X47480952Y-54704761D01*
X47576190Y-54752380D01*
X47957142Y-54752380D01*
X47957142Y-53752380D01*
X47623809Y-53752380D01*
X47528571Y-53800000D01*
X47480952Y-53847619D01*
X47433333Y-53942857D01*
X47433333Y-54038095D01*
X47480952Y-54133333D01*
X47528571Y-54180952D01*
X47623809Y-54228571D01*
X47957142Y-54228571D01*
X46814285Y-54752380D02*
X46909523Y-54704761D01*
X46957142Y-54657142D01*
X47004761Y-54561904D01*
X47004761Y-54276190D01*
X46957142Y-54180952D01*
X46909523Y-54133333D01*
X46814285Y-54085714D01*
X46671428Y-54085714D01*
X46576190Y-54133333D01*
X46528571Y-54180952D01*
X46480952Y-54276190D01*
X46480952Y-54561904D01*
X46528571Y-54657142D01*
X46576190Y-54704761D01*
X46671428Y-54752380D01*
X46814285Y-54752380D01*
X46147619Y-54752380D02*
X45623809Y-54085714D01*
X46147619Y-54085714D02*
X45623809Y-54752380D01*
X44576190Y-54085714D02*
X44338095Y-54752380D01*
X44100000Y-54085714D01*
X43195238Y-54752380D02*
X43766666Y-54752380D01*
X43480952Y-54752380D02*
X43480952Y-53752380D01*
X43576190Y-53895238D01*
X43671428Y-53990476D01*
X43766666Y-54038095D01*
X42766666Y-54657142D02*
X42719047Y-54704761D01*
X42766666Y-54752380D01*
X42814285Y-54704761D01*
X42766666Y-54657142D01*
X42766666Y-54752380D01*
X42100000Y-53752380D02*
X42004761Y-53752380D01*
X41909523Y-53800000D01*
X41861904Y-53847619D01*
X41814285Y-53942857D01*
X41766666Y-54133333D01*
X41766666Y-54371428D01*
X41814285Y-54561904D01*
X41861904Y-54657142D01*
X41909523Y-54704761D01*
X42004761Y-54752380D01*
X42100000Y-54752380D01*
X42195238Y-54704761D01*
X42242857Y-54657142D01*
X42290476Y-54561904D01*
X42338095Y-54371428D01*
X42338095Y-54133333D01*
X42290476Y-53942857D01*
X42242857Y-53847619D01*
X42195238Y-53800000D01*
X42100000Y-53752380D01*
D11*
X100424099Y-102000000D02*
G75*
G03X100424099Y-102000000I-381000J0D01*
G01*
X59624099Y-102000000D02*
G75*
G03X59624099Y-102000000I-381000J0D01*
G01*
X39224099Y-102000000D02*
G75*
G03X39224099Y-102000000I-381000J0D01*
G01*
X80024099Y-102000000D02*
G75*
G03X80024099Y-102000000I-381000J0D01*
G01*
D12*
X79071267Y-47810000D02*
X78728733Y-47810000D01*
X79071267Y-46790000D02*
X78728733Y-46790000D01*
X84671267Y-34660000D02*
X84328733Y-34660000D01*
X84671267Y-33640000D02*
X84328733Y-33640000D01*
X78728733Y-44990000D02*
X79071267Y-44990000D01*
X78728733Y-46010000D02*
X79071267Y-46010000D01*
X76810000Y-46228733D02*
X76810000Y-46571267D01*
X75790000Y-46228733D02*
X75790000Y-46571267D01*
X66853733Y-43990000D02*
X67196267Y-43990000D01*
X66853733Y-45010000D02*
X67196267Y-45010000D01*
X66853733Y-42390000D02*
X67196267Y-42390000D01*
X66853733Y-43410000D02*
X67196267Y-43410000D01*
X71390000Y-45471267D02*
X71390000Y-45128733D01*
X72410000Y-45471267D02*
X72410000Y-45128733D01*
X69790000Y-45471267D02*
X69790000Y-45128733D01*
X70810000Y-45471267D02*
X70810000Y-45128733D01*
X86546267Y-39360000D02*
X86203733Y-39360000D01*
X86546267Y-38340000D02*
X86203733Y-38340000D01*
X86546267Y-37810000D02*
X86203733Y-37810000D01*
X86546267Y-36790000D02*
X86203733Y-36790000D01*
X66903733Y-38990000D02*
X67246267Y-38990000D01*
X66903733Y-40010000D02*
X67246267Y-40010000D01*
X66853733Y-40590000D02*
X67196267Y-40590000D01*
X66853733Y-41610000D02*
X67196267Y-41610000D01*
X82546267Y-43710000D02*
X82203733Y-43710000D01*
X82546267Y-42690000D02*
X82203733Y-42690000D01*
X82546267Y-42010000D02*
X82203733Y-42010000D01*
X82546267Y-40990000D02*
X82203733Y-40990000D01*
X85860000Y-31353733D02*
X85860000Y-31696267D01*
X84840000Y-31353733D02*
X84840000Y-31696267D01*
X84160000Y-31353733D02*
X84160000Y-31696267D01*
X83140000Y-31353733D02*
X83140000Y-31696267D01*
X46070000Y-24800000D02*
X46070000Y-26130000D01*
X46070000Y-26130000D02*
X47400000Y-26130000D01*
X46070000Y-23530000D02*
X48670000Y-23530000D01*
X48670000Y-23530000D02*
X48670000Y-26130000D01*
X48670000Y-26130000D02*
X96990000Y-26130000D01*
X96990000Y-20930000D02*
X96990000Y-26130000D01*
X46070000Y-20930000D02*
X96990000Y-20930000D01*
X46070000Y-20930000D02*
X46070000Y-23530000D01*
D10*
X82792857Y-47702380D02*
X83126190Y-47226190D01*
X83364285Y-47702380D02*
X83364285Y-46702380D01*
X82983333Y-46702380D01*
X82888095Y-46750000D01*
X82840476Y-46797619D01*
X82792857Y-46892857D01*
X82792857Y-47035714D01*
X82840476Y-47130952D01*
X82888095Y-47178571D01*
X82983333Y-47226190D01*
X83364285Y-47226190D01*
X82411904Y-46797619D02*
X82364285Y-46750000D01*
X82269047Y-46702380D01*
X82030952Y-46702380D01*
X81935714Y-46750000D01*
X81888095Y-46797619D01*
X81840476Y-46892857D01*
X81840476Y-46988095D01*
X81888095Y-47130952D01*
X82459523Y-47702380D01*
X81840476Y-47702380D01*
X81221428Y-46702380D02*
X81126190Y-46702380D01*
X81030952Y-46750000D01*
X80983333Y-46797619D01*
X80935714Y-46892857D01*
X80888095Y-47083333D01*
X80888095Y-47321428D01*
X80935714Y-47511904D01*
X80983333Y-47607142D01*
X81030952Y-47654761D01*
X81126190Y-47702380D01*
X81221428Y-47702380D01*
X81316666Y-47654761D01*
X81364285Y-47607142D01*
X81411904Y-47511904D01*
X81459523Y-47321428D01*
X81459523Y-47083333D01*
X81411904Y-46892857D01*
X81364285Y-46797619D01*
X81316666Y-46750000D01*
X81221428Y-46702380D01*
X88292857Y-34652380D02*
X88626190Y-34176190D01*
X88864285Y-34652380D02*
X88864285Y-33652380D01*
X88483333Y-33652380D01*
X88388095Y-33700000D01*
X88340476Y-33747619D01*
X88292857Y-33842857D01*
X88292857Y-33985714D01*
X88340476Y-34080952D01*
X88388095Y-34128571D01*
X88483333Y-34176190D01*
X88864285Y-34176190D01*
X87340476Y-34652380D02*
X87911904Y-34652380D01*
X87626190Y-34652380D02*
X87626190Y-33652380D01*
X87721428Y-33795238D01*
X87816666Y-33890476D01*
X87911904Y-33938095D01*
X86864285Y-34652380D02*
X86673809Y-34652380D01*
X86578571Y-34604761D01*
X86530952Y-34557142D01*
X86435714Y-34414285D01*
X86388095Y-34223809D01*
X86388095Y-33842857D01*
X86435714Y-33747619D01*
X86483333Y-33700000D01*
X86578571Y-33652380D01*
X86769047Y-33652380D01*
X86864285Y-33700000D01*
X86911904Y-33747619D01*
X86959523Y-33842857D01*
X86959523Y-34080952D01*
X86911904Y-34176190D01*
X86864285Y-34223809D01*
X86769047Y-34271428D01*
X86578571Y-34271428D01*
X86483333Y-34223809D01*
X86435714Y-34176190D01*
X86388095Y-34080952D01*
X82892857Y-45907142D02*
X82940476Y-45954761D01*
X83083333Y-46002380D01*
X83178571Y-46002380D01*
X83321428Y-45954761D01*
X83416666Y-45859523D01*
X83464285Y-45764285D01*
X83511904Y-45573809D01*
X83511904Y-45430952D01*
X83464285Y-45240476D01*
X83416666Y-45145238D01*
X83321428Y-45050000D01*
X83178571Y-45002380D01*
X83083333Y-45002380D01*
X82940476Y-45050000D01*
X82892857Y-45097619D01*
X82559523Y-45002380D02*
X81940476Y-45002380D01*
X82273809Y-45383333D01*
X82130952Y-45383333D01*
X82035714Y-45430952D01*
X81988095Y-45478571D01*
X81940476Y-45573809D01*
X81940476Y-45811904D01*
X81988095Y-45907142D01*
X82035714Y-45954761D01*
X82130952Y-46002380D01*
X82416666Y-46002380D01*
X82511904Y-45954761D01*
X82559523Y-45907142D01*
X81559523Y-45097619D02*
X81511904Y-45050000D01*
X81416666Y-45002380D01*
X81178571Y-45002380D01*
X81083333Y-45050000D01*
X81035714Y-45097619D01*
X80988095Y-45192857D01*
X80988095Y-45288095D01*
X81035714Y-45430952D01*
X81607142Y-46002380D01*
X80988095Y-46002380D01*
X76707142Y-49557142D02*
X76754761Y-49509523D01*
X76802380Y-49366666D01*
X76802380Y-49271428D01*
X76754761Y-49128571D01*
X76659523Y-49033333D01*
X76564285Y-48985714D01*
X76373809Y-48938095D01*
X76230952Y-48938095D01*
X76040476Y-48985714D01*
X75945238Y-49033333D01*
X75850000Y-49128571D01*
X75802380Y-49271428D01*
X75802380Y-49366666D01*
X75850000Y-49509523D01*
X75897619Y-49557142D01*
X75802380Y-49890476D02*
X75802380Y-50509523D01*
X76183333Y-50176190D01*
X76183333Y-50319047D01*
X76230952Y-50414285D01*
X76278571Y-50461904D01*
X76373809Y-50509523D01*
X76611904Y-50509523D01*
X76707142Y-50461904D01*
X76754761Y-50414285D01*
X76802380Y-50319047D01*
X76802380Y-50033333D01*
X76754761Y-49938095D01*
X76707142Y-49890476D01*
X76802380Y-51461904D02*
X76802380Y-50890476D01*
X76802380Y-51176190D02*
X75802380Y-51176190D01*
X75945238Y-51080952D01*
X76040476Y-50985714D01*
X76088095Y-50890476D01*
X64392857Y-44957142D02*
X64440476Y-45004761D01*
X64583333Y-45052380D01*
X64678571Y-45052380D01*
X64821428Y-45004761D01*
X64916666Y-44909523D01*
X64964285Y-44814285D01*
X65011904Y-44623809D01*
X65011904Y-44480952D01*
X64964285Y-44290476D01*
X64916666Y-44195238D01*
X64821428Y-44100000D01*
X64678571Y-44052380D01*
X64583333Y-44052380D01*
X64440476Y-44100000D01*
X64392857Y-44147619D01*
X64059523Y-44052380D02*
X63440476Y-44052380D01*
X63773809Y-44433333D01*
X63630952Y-44433333D01*
X63535714Y-44480952D01*
X63488095Y-44528571D01*
X63440476Y-44623809D01*
X63440476Y-44861904D01*
X63488095Y-44957142D01*
X63535714Y-45004761D01*
X63630952Y-45052380D01*
X63916666Y-45052380D01*
X64011904Y-45004761D01*
X64059523Y-44957142D01*
X62821428Y-44052380D02*
X62726190Y-44052380D01*
X62630952Y-44100000D01*
X62583333Y-44147619D01*
X62535714Y-44242857D01*
X62488095Y-44433333D01*
X62488095Y-44671428D01*
X62535714Y-44861904D01*
X62583333Y-44957142D01*
X62630952Y-45004761D01*
X62726190Y-45052380D01*
X62821428Y-45052380D01*
X62916666Y-45004761D01*
X62964285Y-44957142D01*
X63011904Y-44861904D01*
X63059523Y-44671428D01*
X63059523Y-44433333D01*
X63011904Y-44242857D01*
X62964285Y-44147619D01*
X62916666Y-44100000D01*
X62821428Y-44052380D01*
X64342857Y-43307142D02*
X64390476Y-43354761D01*
X64533333Y-43402380D01*
X64628571Y-43402380D01*
X64771428Y-43354761D01*
X64866666Y-43259523D01*
X64914285Y-43164285D01*
X64961904Y-42973809D01*
X64961904Y-42830952D01*
X64914285Y-42640476D01*
X64866666Y-42545238D01*
X64771428Y-42450000D01*
X64628571Y-42402380D01*
X64533333Y-42402380D01*
X64390476Y-42450000D01*
X64342857Y-42497619D01*
X63961904Y-42497619D02*
X63914285Y-42450000D01*
X63819047Y-42402380D01*
X63580952Y-42402380D01*
X63485714Y-42450000D01*
X63438095Y-42497619D01*
X63390476Y-42592857D01*
X63390476Y-42688095D01*
X63438095Y-42830952D01*
X64009523Y-43402380D01*
X63390476Y-43402380D01*
X62819047Y-42830952D02*
X62914285Y-42783333D01*
X62961904Y-42735714D01*
X63009523Y-42640476D01*
X63009523Y-42592857D01*
X62961904Y-42497619D01*
X62914285Y-42450000D01*
X62819047Y-42402380D01*
X62628571Y-42402380D01*
X62533333Y-42450000D01*
X62485714Y-42497619D01*
X62438095Y-42592857D01*
X62438095Y-42640476D01*
X62485714Y-42735714D01*
X62533333Y-42783333D01*
X62628571Y-42830952D01*
X62819047Y-42830952D01*
X62914285Y-42878571D01*
X62961904Y-42926190D01*
X63009523Y-43021428D01*
X63009523Y-43211904D01*
X62961904Y-43307142D01*
X62914285Y-43354761D01*
X62819047Y-43402380D01*
X62628571Y-43402380D01*
X62533333Y-43354761D01*
X62485714Y-43307142D01*
X62438095Y-43211904D01*
X62438095Y-43021428D01*
X62485714Y-42926190D01*
X62533333Y-42878571D01*
X62628571Y-42830952D01*
X72207142Y-48307142D02*
X72254761Y-48259523D01*
X72302380Y-48116666D01*
X72302380Y-48021428D01*
X72254761Y-47878571D01*
X72159523Y-47783333D01*
X72064285Y-47735714D01*
X71873809Y-47688095D01*
X71730952Y-47688095D01*
X71540476Y-47735714D01*
X71445238Y-47783333D01*
X71350000Y-47878571D01*
X71302380Y-48021428D01*
X71302380Y-48116666D01*
X71350000Y-48259523D01*
X71397619Y-48307142D01*
X72302380Y-49259523D02*
X72302380Y-48688095D01*
X72302380Y-48973809D02*
X71302380Y-48973809D01*
X71445238Y-48878571D01*
X71540476Y-48783333D01*
X71588095Y-48688095D01*
X71302380Y-49878571D02*
X71302380Y-49973809D01*
X71350000Y-50069047D01*
X71397619Y-50116666D01*
X71492857Y-50164285D01*
X71683333Y-50211904D01*
X71921428Y-50211904D01*
X72111904Y-50164285D01*
X72207142Y-50116666D01*
X72254761Y-50069047D01*
X72302380Y-49973809D01*
X72302380Y-49878571D01*
X72254761Y-49783333D01*
X72207142Y-49735714D01*
X72111904Y-49688095D01*
X71921428Y-49640476D01*
X71683333Y-49640476D01*
X71492857Y-49688095D01*
X71397619Y-49735714D01*
X71350000Y-49783333D01*
X71302380Y-49878571D01*
X70607142Y-48433333D02*
X70654761Y-48385714D01*
X70702380Y-48242857D01*
X70702380Y-48147619D01*
X70654761Y-48004761D01*
X70559523Y-47909523D01*
X70464285Y-47861904D01*
X70273809Y-47814285D01*
X70130952Y-47814285D01*
X69940476Y-47861904D01*
X69845238Y-47909523D01*
X69750000Y-48004761D01*
X69702380Y-48147619D01*
X69702380Y-48242857D01*
X69750000Y-48385714D01*
X69797619Y-48433333D01*
X70702380Y-48909523D02*
X70702380Y-49100000D01*
X70654761Y-49195238D01*
X70607142Y-49242857D01*
X70464285Y-49338095D01*
X70273809Y-49385714D01*
X69892857Y-49385714D01*
X69797619Y-49338095D01*
X69750000Y-49290476D01*
X69702380Y-49195238D01*
X69702380Y-49004761D01*
X69750000Y-48909523D01*
X69797619Y-48861904D01*
X69892857Y-48814285D01*
X70130952Y-48814285D01*
X70226190Y-48861904D01*
X70273809Y-48909523D01*
X70321428Y-49004761D01*
X70321428Y-49195238D01*
X70273809Y-49290476D01*
X70226190Y-49338095D01*
X70130952Y-49385714D01*
X86541666Y-37777142D02*
X86589285Y-37824761D01*
X86732142Y-37872380D01*
X86827380Y-37872380D01*
X86970238Y-37824761D01*
X87065476Y-37729523D01*
X87113095Y-37634285D01*
X87160714Y-37443809D01*
X87160714Y-37300952D01*
X87113095Y-37110476D01*
X87065476Y-37015238D01*
X86970238Y-36920000D01*
X86827380Y-36872380D01*
X86732142Y-36872380D01*
X86589285Y-36920000D01*
X86541666Y-36967619D01*
X85970238Y-37300952D02*
X86065476Y-37253333D01*
X86113095Y-37205714D01*
X86160714Y-37110476D01*
X86160714Y-37062857D01*
X86113095Y-36967619D01*
X86065476Y-36920000D01*
X85970238Y-36872380D01*
X85779761Y-36872380D01*
X85684523Y-36920000D01*
X85636904Y-36967619D01*
X85589285Y-37062857D01*
X85589285Y-37110476D01*
X85636904Y-37205714D01*
X85684523Y-37253333D01*
X85779761Y-37300952D01*
X85970238Y-37300952D01*
X86065476Y-37348571D01*
X86113095Y-37396190D01*
X86160714Y-37491428D01*
X86160714Y-37681904D01*
X86113095Y-37777142D01*
X86065476Y-37824761D01*
X85970238Y-37872380D01*
X85779761Y-37872380D01*
X85684523Y-37824761D01*
X85636904Y-37777142D01*
X85589285Y-37681904D01*
X85589285Y-37491428D01*
X85636904Y-37396190D01*
X85684523Y-37348571D01*
X85779761Y-37300952D01*
X86541666Y-36227142D02*
X86589285Y-36274761D01*
X86732142Y-36322380D01*
X86827380Y-36322380D01*
X86970238Y-36274761D01*
X87065476Y-36179523D01*
X87113095Y-36084285D01*
X87160714Y-35893809D01*
X87160714Y-35750952D01*
X87113095Y-35560476D01*
X87065476Y-35465238D01*
X86970238Y-35370000D01*
X86827380Y-35322380D01*
X86732142Y-35322380D01*
X86589285Y-35370000D01*
X86541666Y-35417619D01*
X86208333Y-35322380D02*
X85541666Y-35322380D01*
X85970238Y-36322380D01*
X64116666Y-39857142D02*
X64164285Y-39904761D01*
X64307142Y-39952380D01*
X64402380Y-39952380D01*
X64545238Y-39904761D01*
X64640476Y-39809523D01*
X64688095Y-39714285D01*
X64735714Y-39523809D01*
X64735714Y-39380952D01*
X64688095Y-39190476D01*
X64640476Y-39095238D01*
X64545238Y-39000000D01*
X64402380Y-38952380D01*
X64307142Y-38952380D01*
X64164285Y-39000000D01*
X64116666Y-39047619D01*
X63259523Y-38952380D02*
X63450000Y-38952380D01*
X63545238Y-39000000D01*
X63592857Y-39047619D01*
X63688095Y-39190476D01*
X63735714Y-39380952D01*
X63735714Y-39761904D01*
X63688095Y-39857142D01*
X63640476Y-39904761D01*
X63545238Y-39952380D01*
X63354761Y-39952380D01*
X63259523Y-39904761D01*
X63211904Y-39857142D01*
X63164285Y-39761904D01*
X63164285Y-39523809D01*
X63211904Y-39428571D01*
X63259523Y-39380952D01*
X63354761Y-39333333D01*
X63545238Y-39333333D01*
X63640476Y-39380952D01*
X63688095Y-39428571D01*
X63735714Y-39523809D01*
X62516666Y-41457142D02*
X62564285Y-41504761D01*
X62707142Y-41552380D01*
X62802380Y-41552380D01*
X62945238Y-41504761D01*
X63040476Y-41409523D01*
X63088095Y-41314285D01*
X63135714Y-41123809D01*
X63135714Y-40980952D01*
X63088095Y-40790476D01*
X63040476Y-40695238D01*
X62945238Y-40600000D01*
X62802380Y-40552380D01*
X62707142Y-40552380D01*
X62564285Y-40600000D01*
X62516666Y-40647619D01*
X61611904Y-40552380D02*
X62088095Y-40552380D01*
X62135714Y-41028571D01*
X62088095Y-40980952D01*
X61992857Y-40933333D01*
X61754761Y-40933333D01*
X61659523Y-40980952D01*
X61611904Y-41028571D01*
X61564285Y-41123809D01*
X61564285Y-41361904D01*
X61611904Y-41457142D01*
X61659523Y-41504761D01*
X61754761Y-41552380D01*
X61992857Y-41552380D01*
X62088095Y-41504761D01*
X62135714Y-41457142D01*
X85416666Y-43557142D02*
X85464285Y-43604761D01*
X85607142Y-43652380D01*
X85702380Y-43652380D01*
X85845238Y-43604761D01*
X85940476Y-43509523D01*
X85988095Y-43414285D01*
X86035714Y-43223809D01*
X86035714Y-43080952D01*
X85988095Y-42890476D01*
X85940476Y-42795238D01*
X85845238Y-42700000D01*
X85702380Y-42652380D01*
X85607142Y-42652380D01*
X85464285Y-42700000D01*
X85416666Y-42747619D01*
X84559523Y-42985714D02*
X84559523Y-43652380D01*
X84797619Y-42604761D02*
X85035714Y-43319047D01*
X84416666Y-43319047D01*
X85316666Y-41807142D02*
X85364285Y-41854761D01*
X85507142Y-41902380D01*
X85602380Y-41902380D01*
X85745238Y-41854761D01*
X85840476Y-41759523D01*
X85888095Y-41664285D01*
X85935714Y-41473809D01*
X85935714Y-41330952D01*
X85888095Y-41140476D01*
X85840476Y-41045238D01*
X85745238Y-40950000D01*
X85602380Y-40902380D01*
X85507142Y-40902380D01*
X85364285Y-40950000D01*
X85316666Y-40997619D01*
X84983333Y-40902380D02*
X84364285Y-40902380D01*
X84697619Y-41283333D01*
X84554761Y-41283333D01*
X84459523Y-41330952D01*
X84411904Y-41378571D01*
X84364285Y-41473809D01*
X84364285Y-41711904D01*
X84411904Y-41807142D01*
X84459523Y-41854761D01*
X84554761Y-41902380D01*
X84840476Y-41902380D01*
X84935714Y-41854761D01*
X84983333Y-41807142D01*
X87307142Y-31483333D02*
X87354761Y-31435714D01*
X87402380Y-31292857D01*
X87402380Y-31197619D01*
X87354761Y-31054761D01*
X87259523Y-30959523D01*
X87164285Y-30911904D01*
X86973809Y-30864285D01*
X86830952Y-30864285D01*
X86640476Y-30911904D01*
X86545238Y-30959523D01*
X86450000Y-31054761D01*
X86402380Y-31197619D01*
X86402380Y-31292857D01*
X86450000Y-31435714D01*
X86497619Y-31483333D01*
X86497619Y-31864285D02*
X86450000Y-31911904D01*
X86402380Y-32007142D01*
X86402380Y-32245238D01*
X86450000Y-32340476D01*
X86497619Y-32388095D01*
X86592857Y-32435714D01*
X86688095Y-32435714D01*
X86830952Y-32388095D01*
X87402380Y-31816666D01*
X87402380Y-32435714D01*
X82557142Y-31583333D02*
X82604761Y-31535714D01*
X82652380Y-31392857D01*
X82652380Y-31297619D01*
X82604761Y-31154761D01*
X82509523Y-31059523D01*
X82414285Y-31011904D01*
X82223809Y-30964285D01*
X82080952Y-30964285D01*
X81890476Y-31011904D01*
X81795238Y-31059523D01*
X81700000Y-31154761D01*
X81652380Y-31297619D01*
X81652380Y-31392857D01*
X81700000Y-31535714D01*
X81747619Y-31583333D01*
X82652380Y-32535714D02*
X82652380Y-31964285D01*
X82652380Y-32250000D02*
X81652380Y-32250000D01*
X81795238Y-32154761D01*
X81890476Y-32059523D01*
X81938095Y-31964285D01*
X47333333Y-27002380D02*
X47333333Y-27716666D01*
X47380952Y-27859523D01*
X47476190Y-27954761D01*
X47619047Y-28002380D01*
X47714285Y-28002380D01*
X46428571Y-27335714D02*
X46428571Y-28002380D01*
X46666666Y-26954761D02*
X46904761Y-27669047D01*
X46285714Y-27669047D01*
M02*
