G04 #@! TF.GenerationSoftware,KiCad,Pcbnew,(5.1.5)-3*
G04 #@! TF.CreationDate,2020-08-29T09:18:06-04:00*
G04 #@! TF.ProjectId,AudioBox,41756469-6f42-46f7-982e-6b696361645f,rev?*
G04 #@! TF.SameCoordinates,Original*
G04 #@! TF.FileFunction,Soldermask,Bot*
G04 #@! TF.FilePolarity,Negative*
%FSLAX46Y46*%
G04 Gerber Fmt 4.6, Leading zero omitted, Abs format (unit mm)*
G04 Created by KiCad (PCBNEW (5.1.5)-3) date 2020-08-29 09:18:06*
%MOMM*%
%LPD*%
G04 APERTURE LIST*
%ADD10C,0.100000*%
G04 APERTURE END LIST*
D10*
G36*
X119115592Y-100916134D02*
G01*
X119222344Y-100937368D01*
X119423459Y-101020673D01*
X119604458Y-101141613D01*
X119758385Y-101295540D01*
X119879325Y-101476539D01*
X119962630Y-101677654D01*
X120005098Y-101891157D01*
X120005098Y-102108843D01*
X119962630Y-102322346D01*
X119879325Y-102523461D01*
X119758385Y-102704460D01*
X119604458Y-102858387D01*
X119423459Y-102979327D01*
X119222344Y-103062632D01*
X119115592Y-103083866D01*
X119008842Y-103105100D01*
X118791154Y-103105100D01*
X118577652Y-103062632D01*
X118376537Y-102979327D01*
X118195538Y-102858387D01*
X118041611Y-102704460D01*
X117920671Y-102523461D01*
X117837366Y-102322346D01*
X117794898Y-102108843D01*
X117794898Y-101891157D01*
X117837366Y-101677654D01*
X117920671Y-101476539D01*
X118041611Y-101295540D01*
X118195538Y-101141613D01*
X118376537Y-101020673D01*
X118577652Y-100937368D01*
X118684404Y-100916134D01*
X118791154Y-100894900D01*
X119008842Y-100894900D01*
X119115592Y-100916134D01*
G37*
G36*
X102915594Y-100916134D02*
G01*
X103022346Y-100937368D01*
X103223461Y-101020673D01*
X103404460Y-101141613D01*
X103558387Y-101295540D01*
X103679327Y-101476539D01*
X103762632Y-101677654D01*
X103805100Y-101891157D01*
X103805100Y-102108843D01*
X103762632Y-102322346D01*
X103679327Y-102523461D01*
X103558387Y-102704460D01*
X103404460Y-102858387D01*
X103223461Y-102979327D01*
X103022346Y-103062632D01*
X102915594Y-103083866D01*
X102808844Y-103105100D01*
X102591156Y-103105100D01*
X102377654Y-103062632D01*
X102176539Y-102979327D01*
X101995540Y-102858387D01*
X101841613Y-102704460D01*
X101720673Y-102523461D01*
X101637368Y-102322346D01*
X101594900Y-102108843D01*
X101594900Y-101891157D01*
X101637368Y-101677654D01*
X101720673Y-101476539D01*
X101841613Y-101295540D01*
X101995540Y-101141613D01*
X102176539Y-101020673D01*
X102377654Y-100937368D01*
X102484406Y-100916134D01*
X102591156Y-100894900D01*
X102808844Y-100894900D01*
X102915594Y-100916134D01*
G37*
G36*
X98715592Y-100916134D02*
G01*
X98822344Y-100937368D01*
X99023459Y-101020673D01*
X99204458Y-101141613D01*
X99358385Y-101295540D01*
X99479325Y-101476539D01*
X99562630Y-101677654D01*
X99605098Y-101891157D01*
X99605098Y-102108843D01*
X99562630Y-102322346D01*
X99479325Y-102523461D01*
X99358385Y-102704460D01*
X99204458Y-102858387D01*
X99023459Y-102979327D01*
X98822344Y-103062632D01*
X98715592Y-103083866D01*
X98608842Y-103105100D01*
X98391154Y-103105100D01*
X98177652Y-103062632D01*
X97976537Y-102979327D01*
X97795538Y-102858387D01*
X97641611Y-102704460D01*
X97520671Y-102523461D01*
X97437366Y-102322346D01*
X97394898Y-102108843D01*
X97394898Y-101891157D01*
X97437366Y-101677654D01*
X97520671Y-101476539D01*
X97641611Y-101295540D01*
X97795538Y-101141613D01*
X97976537Y-101020673D01*
X98177652Y-100937368D01*
X98284404Y-100916134D01*
X98391154Y-100894900D01*
X98608842Y-100894900D01*
X98715592Y-100916134D01*
G37*
G36*
X82515594Y-100916134D02*
G01*
X82622346Y-100937368D01*
X82823461Y-101020673D01*
X83004460Y-101141613D01*
X83158387Y-101295540D01*
X83279327Y-101476539D01*
X83362632Y-101677654D01*
X83405100Y-101891157D01*
X83405100Y-102108843D01*
X83362632Y-102322346D01*
X83279327Y-102523461D01*
X83158387Y-102704460D01*
X83004460Y-102858387D01*
X82823461Y-102979327D01*
X82622346Y-103062632D01*
X82515594Y-103083866D01*
X82408844Y-103105100D01*
X82191156Y-103105100D01*
X81977654Y-103062632D01*
X81776539Y-102979327D01*
X81595540Y-102858387D01*
X81441613Y-102704460D01*
X81320673Y-102523461D01*
X81237368Y-102322346D01*
X81194900Y-102108843D01*
X81194900Y-101891157D01*
X81237368Y-101677654D01*
X81320673Y-101476539D01*
X81441613Y-101295540D01*
X81595540Y-101141613D01*
X81776539Y-101020673D01*
X81977654Y-100937368D01*
X82084406Y-100916134D01*
X82191156Y-100894900D01*
X82408844Y-100894900D01*
X82515594Y-100916134D01*
G37*
G36*
X57915592Y-100916134D02*
G01*
X58022344Y-100937368D01*
X58223459Y-101020673D01*
X58404458Y-101141613D01*
X58558385Y-101295540D01*
X58679325Y-101476539D01*
X58762630Y-101677654D01*
X58805098Y-101891157D01*
X58805098Y-102108843D01*
X58762630Y-102322346D01*
X58679325Y-102523461D01*
X58558385Y-102704460D01*
X58404458Y-102858387D01*
X58223459Y-102979327D01*
X58022344Y-103062632D01*
X57915592Y-103083866D01*
X57808842Y-103105100D01*
X57591154Y-103105100D01*
X57377652Y-103062632D01*
X57176537Y-102979327D01*
X56995538Y-102858387D01*
X56841611Y-102704460D01*
X56720671Y-102523461D01*
X56637366Y-102322346D01*
X56594898Y-102108843D01*
X56594898Y-101891157D01*
X56637366Y-101677654D01*
X56720671Y-101476539D01*
X56841611Y-101295540D01*
X56995538Y-101141613D01*
X57176537Y-101020673D01*
X57377652Y-100937368D01*
X57484404Y-100916134D01*
X57591154Y-100894900D01*
X57808842Y-100894900D01*
X57915592Y-100916134D01*
G37*
G36*
X78315592Y-100916134D02*
G01*
X78422344Y-100937368D01*
X78623459Y-101020673D01*
X78804458Y-101141613D01*
X78958385Y-101295540D01*
X79079325Y-101476539D01*
X79162630Y-101677654D01*
X79205098Y-101891157D01*
X79205098Y-102108843D01*
X79162630Y-102322346D01*
X79079325Y-102523461D01*
X78958385Y-102704460D01*
X78804458Y-102858387D01*
X78623459Y-102979327D01*
X78422344Y-103062632D01*
X78315592Y-103083866D01*
X78208842Y-103105100D01*
X77991154Y-103105100D01*
X77777652Y-103062632D01*
X77576537Y-102979327D01*
X77395538Y-102858387D01*
X77241611Y-102704460D01*
X77120671Y-102523461D01*
X77037366Y-102322346D01*
X76994898Y-102108843D01*
X76994898Y-101891157D01*
X77037366Y-101677654D01*
X77120671Y-101476539D01*
X77241611Y-101295540D01*
X77395538Y-101141613D01*
X77576537Y-101020673D01*
X77777652Y-100937368D01*
X77884404Y-100916134D01*
X77991154Y-100894900D01*
X78208842Y-100894900D01*
X78315592Y-100916134D01*
G37*
G36*
X41715594Y-100916134D02*
G01*
X41822346Y-100937368D01*
X42023461Y-101020673D01*
X42204460Y-101141613D01*
X42358387Y-101295540D01*
X42479327Y-101476539D01*
X42562632Y-101677654D01*
X42605100Y-101891157D01*
X42605100Y-102108843D01*
X42562632Y-102322346D01*
X42479327Y-102523461D01*
X42358387Y-102704460D01*
X42204460Y-102858387D01*
X42023461Y-102979327D01*
X41822346Y-103062632D01*
X41715594Y-103083866D01*
X41608844Y-103105100D01*
X41391156Y-103105100D01*
X41177654Y-103062632D01*
X40976539Y-102979327D01*
X40795540Y-102858387D01*
X40641613Y-102704460D01*
X40520673Y-102523461D01*
X40437368Y-102322346D01*
X40394900Y-102108843D01*
X40394900Y-101891157D01*
X40437368Y-101677654D01*
X40520673Y-101476539D01*
X40641613Y-101295540D01*
X40795540Y-101141613D01*
X40976539Y-101020673D01*
X41177654Y-100937368D01*
X41284406Y-100916134D01*
X41391156Y-100894900D01*
X41608844Y-100894900D01*
X41715594Y-100916134D01*
G37*
G36*
X62115594Y-100916134D02*
G01*
X62222346Y-100937368D01*
X62423461Y-101020673D01*
X62604460Y-101141613D01*
X62758387Y-101295540D01*
X62879327Y-101476539D01*
X62962632Y-101677654D01*
X63005100Y-101891157D01*
X63005100Y-102108843D01*
X62962632Y-102322346D01*
X62879327Y-102523461D01*
X62758387Y-102704460D01*
X62604460Y-102858387D01*
X62423461Y-102979327D01*
X62222346Y-103062632D01*
X62115594Y-103083866D01*
X62008844Y-103105100D01*
X61791156Y-103105100D01*
X61577654Y-103062632D01*
X61376539Y-102979327D01*
X61195540Y-102858387D01*
X61041613Y-102704460D01*
X60920673Y-102523461D01*
X60837368Y-102322346D01*
X60794900Y-102108843D01*
X60794900Y-101891157D01*
X60837368Y-101677654D01*
X60920673Y-101476539D01*
X61041613Y-101295540D01*
X61195540Y-101141613D01*
X61376539Y-101020673D01*
X61577654Y-100937368D01*
X61684406Y-100916134D01*
X61791156Y-100894900D01*
X62008844Y-100894900D01*
X62115594Y-100916134D01*
G37*
G36*
X82515594Y-88316134D02*
G01*
X82622346Y-88337368D01*
X82823461Y-88420673D01*
X83004460Y-88541613D01*
X83158387Y-88695540D01*
X83279327Y-88876539D01*
X83362632Y-89077654D01*
X83405100Y-89291157D01*
X83405100Y-89508843D01*
X83362632Y-89722346D01*
X83279327Y-89923461D01*
X83158387Y-90104460D01*
X83004460Y-90258387D01*
X82823461Y-90379327D01*
X82622346Y-90462632D01*
X82515594Y-90483866D01*
X82408844Y-90505100D01*
X82191156Y-90505100D01*
X81977654Y-90462632D01*
X81776539Y-90379327D01*
X81595540Y-90258387D01*
X81441613Y-90104460D01*
X81320673Y-89923461D01*
X81237368Y-89722346D01*
X81194900Y-89508843D01*
X81194900Y-89291157D01*
X81237368Y-89077654D01*
X81320673Y-88876539D01*
X81441613Y-88695540D01*
X81595540Y-88541613D01*
X81776539Y-88420673D01*
X81977654Y-88337368D01*
X82084406Y-88316134D01*
X82191156Y-88294900D01*
X82408844Y-88294900D01*
X82515594Y-88316134D01*
G37*
G36*
X102915594Y-88316134D02*
G01*
X103022346Y-88337368D01*
X103223461Y-88420673D01*
X103404460Y-88541613D01*
X103558387Y-88695540D01*
X103679327Y-88876539D01*
X103762632Y-89077654D01*
X103805100Y-89291157D01*
X103805100Y-89508843D01*
X103762632Y-89722346D01*
X103679327Y-89923461D01*
X103558387Y-90104460D01*
X103404460Y-90258387D01*
X103223461Y-90379327D01*
X103022346Y-90462632D01*
X102915594Y-90483866D01*
X102808844Y-90505100D01*
X102591156Y-90505100D01*
X102377654Y-90462632D01*
X102176539Y-90379327D01*
X101995540Y-90258387D01*
X101841613Y-90104460D01*
X101720673Y-89923461D01*
X101637368Y-89722346D01*
X101594900Y-89508843D01*
X101594900Y-89291157D01*
X101637368Y-89077654D01*
X101720673Y-88876539D01*
X101841613Y-88695540D01*
X101995540Y-88541613D01*
X102176539Y-88420673D01*
X102377654Y-88337368D01*
X102484406Y-88316134D01*
X102591156Y-88294900D01*
X102808844Y-88294900D01*
X102915594Y-88316134D01*
G37*
G36*
X119115592Y-88316134D02*
G01*
X119222344Y-88337368D01*
X119423459Y-88420673D01*
X119604458Y-88541613D01*
X119758385Y-88695540D01*
X119879325Y-88876539D01*
X119962630Y-89077654D01*
X120005098Y-89291157D01*
X120005098Y-89508843D01*
X119962630Y-89722346D01*
X119879325Y-89923461D01*
X119758385Y-90104460D01*
X119604458Y-90258387D01*
X119423459Y-90379327D01*
X119222344Y-90462632D01*
X119115592Y-90483866D01*
X119008842Y-90505100D01*
X118791154Y-90505100D01*
X118577652Y-90462632D01*
X118376537Y-90379327D01*
X118195538Y-90258387D01*
X118041611Y-90104460D01*
X117920671Y-89923461D01*
X117837366Y-89722346D01*
X117794898Y-89508843D01*
X117794898Y-89291157D01*
X117837366Y-89077654D01*
X117920671Y-88876539D01*
X118041611Y-88695540D01*
X118195538Y-88541613D01*
X118376537Y-88420673D01*
X118577652Y-88337368D01*
X118684404Y-88316134D01*
X118791154Y-88294900D01*
X119008842Y-88294900D01*
X119115592Y-88316134D01*
G37*
G36*
X62115594Y-88316134D02*
G01*
X62222346Y-88337368D01*
X62423461Y-88420673D01*
X62604460Y-88541613D01*
X62758387Y-88695540D01*
X62879327Y-88876539D01*
X62962632Y-89077654D01*
X63005100Y-89291157D01*
X63005100Y-89508843D01*
X62962632Y-89722346D01*
X62879327Y-89923461D01*
X62758387Y-90104460D01*
X62604460Y-90258387D01*
X62423461Y-90379327D01*
X62222346Y-90462632D01*
X62008844Y-90505100D01*
X61791156Y-90505100D01*
X61577654Y-90462632D01*
X61376539Y-90379327D01*
X61195540Y-90258387D01*
X61041613Y-90104460D01*
X60920673Y-89923461D01*
X60837368Y-89722346D01*
X60794900Y-89508843D01*
X60794900Y-89291157D01*
X60837368Y-89077654D01*
X60920673Y-88876539D01*
X61041613Y-88695540D01*
X61195540Y-88541613D01*
X61376539Y-88420673D01*
X61577654Y-88337368D01*
X61684406Y-88316134D01*
X61791156Y-88294900D01*
X62008844Y-88294900D01*
X62115594Y-88316134D01*
G37*
G36*
X78315592Y-88316134D02*
G01*
X78422344Y-88337368D01*
X78623459Y-88420673D01*
X78804458Y-88541613D01*
X78958385Y-88695540D01*
X79079325Y-88876539D01*
X79162630Y-89077654D01*
X79205098Y-89291157D01*
X79205098Y-89508843D01*
X79162630Y-89722346D01*
X79079325Y-89923461D01*
X78958385Y-90104460D01*
X78804458Y-90258387D01*
X78623459Y-90379327D01*
X78422344Y-90462632D01*
X78208842Y-90505100D01*
X77991154Y-90505100D01*
X77777652Y-90462632D01*
X77576537Y-90379327D01*
X77395538Y-90258387D01*
X77241611Y-90104460D01*
X77120671Y-89923461D01*
X77037366Y-89722346D01*
X76994898Y-89508843D01*
X76994898Y-89291157D01*
X77037366Y-89077654D01*
X77120671Y-88876539D01*
X77241611Y-88695540D01*
X77395538Y-88541613D01*
X77576537Y-88420673D01*
X77777652Y-88337368D01*
X77884404Y-88316134D01*
X77991154Y-88294900D01*
X78208842Y-88294900D01*
X78315592Y-88316134D01*
G37*
G36*
X41715594Y-88316134D02*
G01*
X41822346Y-88337368D01*
X42023461Y-88420673D01*
X42204460Y-88541613D01*
X42358387Y-88695540D01*
X42479327Y-88876539D01*
X42562632Y-89077654D01*
X42605100Y-89291157D01*
X42605100Y-89508843D01*
X42562632Y-89722346D01*
X42479327Y-89923461D01*
X42358387Y-90104460D01*
X42204460Y-90258387D01*
X42023461Y-90379327D01*
X41822346Y-90462632D01*
X41608844Y-90505100D01*
X41391156Y-90505100D01*
X41177654Y-90462632D01*
X40976539Y-90379327D01*
X40795540Y-90258387D01*
X40641613Y-90104460D01*
X40520673Y-89923461D01*
X40437368Y-89722346D01*
X40394900Y-89508843D01*
X40394900Y-89291157D01*
X40437368Y-89077654D01*
X40520673Y-88876539D01*
X40641613Y-88695540D01*
X40795540Y-88541613D01*
X40976539Y-88420673D01*
X41177654Y-88337368D01*
X41284406Y-88316134D01*
X41391156Y-88294900D01*
X41608844Y-88294900D01*
X41715594Y-88316134D01*
G37*
G36*
X57915592Y-88316134D02*
G01*
X58022344Y-88337368D01*
X58223459Y-88420673D01*
X58404458Y-88541613D01*
X58558385Y-88695540D01*
X58679325Y-88876539D01*
X58762630Y-89077654D01*
X58805098Y-89291157D01*
X58805098Y-89508843D01*
X58762630Y-89722346D01*
X58679325Y-89923461D01*
X58558385Y-90104460D01*
X58404458Y-90258387D01*
X58223459Y-90379327D01*
X58022344Y-90462632D01*
X57808842Y-90505100D01*
X57591154Y-90505100D01*
X57377652Y-90462632D01*
X57176537Y-90379327D01*
X56995538Y-90258387D01*
X56841611Y-90104460D01*
X56720671Y-89923461D01*
X56637366Y-89722346D01*
X56594898Y-89508843D01*
X56594898Y-89291157D01*
X56637366Y-89077654D01*
X56720671Y-88876539D01*
X56841611Y-88695540D01*
X56995538Y-88541613D01*
X57176537Y-88420673D01*
X57377652Y-88337368D01*
X57484404Y-88316134D01*
X57591154Y-88294900D01*
X57808842Y-88294900D01*
X57915592Y-88316134D01*
G37*
G36*
X98715592Y-88316134D02*
G01*
X98822344Y-88337368D01*
X99023459Y-88420673D01*
X99204458Y-88541613D01*
X99358385Y-88695540D01*
X99479325Y-88876539D01*
X99562630Y-89077654D01*
X99605098Y-89291157D01*
X99605098Y-89508843D01*
X99562630Y-89722346D01*
X99479325Y-89923461D01*
X99358385Y-90104460D01*
X99204458Y-90258387D01*
X99023459Y-90379327D01*
X98822344Y-90462632D01*
X98715592Y-90483866D01*
X98608842Y-90505100D01*
X98391154Y-90505100D01*
X98177652Y-90462632D01*
X97976537Y-90379327D01*
X97795538Y-90258387D01*
X97641611Y-90104460D01*
X97520671Y-89923461D01*
X97437366Y-89722346D01*
X97394898Y-89508843D01*
X97394898Y-89291157D01*
X97437366Y-89077654D01*
X97520671Y-88876539D01*
X97641611Y-88695540D01*
X97795538Y-88541613D01*
X97976537Y-88420673D01*
X98177652Y-88337368D01*
X98284404Y-88316134D01*
X98391154Y-88294900D01*
X98608842Y-88294900D01*
X98715592Y-88316134D01*
G37*
G36*
X43134239Y-69311467D02*
G01*
X43448282Y-69373934D01*
X44039926Y-69619001D01*
X44572392Y-69974784D01*
X45025216Y-70427608D01*
X45380999Y-70960074D01*
X45626066Y-71551718D01*
X45751000Y-72179804D01*
X45751000Y-72820196D01*
X45626066Y-73448282D01*
X45380999Y-74039926D01*
X45025216Y-74572392D01*
X44572392Y-75025216D01*
X44039926Y-75380999D01*
X43448282Y-75626066D01*
X43134239Y-75688533D01*
X42820197Y-75751000D01*
X42179803Y-75751000D01*
X41865761Y-75688533D01*
X41551718Y-75626066D01*
X40960074Y-75380999D01*
X40427608Y-75025216D01*
X39974784Y-74572392D01*
X39619001Y-74039926D01*
X39373934Y-73448282D01*
X39249000Y-72820196D01*
X39249000Y-72179804D01*
X39373934Y-71551718D01*
X39619001Y-70960074D01*
X39974784Y-70427608D01*
X40427608Y-69974784D01*
X40960074Y-69619001D01*
X41551718Y-69373934D01*
X41865761Y-69311467D01*
X42179803Y-69249000D01*
X42820197Y-69249000D01*
X43134239Y-69311467D01*
G37*
G36*
X101134239Y-69311467D02*
G01*
X101448282Y-69373934D01*
X102039926Y-69619001D01*
X102572392Y-69974784D01*
X103025216Y-70427608D01*
X103380999Y-70960074D01*
X103626066Y-71551718D01*
X103751000Y-72179804D01*
X103751000Y-72820196D01*
X103626066Y-73448282D01*
X103380999Y-74039926D01*
X103025216Y-74572392D01*
X102572392Y-75025216D01*
X102039926Y-75380999D01*
X101448282Y-75626066D01*
X101134239Y-75688533D01*
X100820197Y-75751000D01*
X100179803Y-75751000D01*
X99865761Y-75688533D01*
X99551718Y-75626066D01*
X98960074Y-75380999D01*
X98427608Y-75025216D01*
X97974784Y-74572392D01*
X97619001Y-74039926D01*
X97373934Y-73448282D01*
X97249000Y-72820196D01*
X97249000Y-72179804D01*
X97373934Y-71551718D01*
X97619001Y-70960074D01*
X97974784Y-70427608D01*
X98427608Y-69974784D01*
X98960074Y-69619001D01*
X99551718Y-69373934D01*
X99865761Y-69311467D01*
X100179803Y-69249000D01*
X100820197Y-69249000D01*
X101134239Y-69311467D01*
G37*
G36*
X110413512Y-61803927D02*
G01*
X110562812Y-61833624D01*
X110726784Y-61901544D01*
X110874354Y-62000147D01*
X110999853Y-62125646D01*
X111098456Y-62273216D01*
X111166376Y-62437188D01*
X111201000Y-62611259D01*
X111201000Y-62788741D01*
X111166376Y-62962812D01*
X111098456Y-63126784D01*
X110999853Y-63274354D01*
X110874354Y-63399853D01*
X110726784Y-63498456D01*
X110562812Y-63566376D01*
X110413512Y-63596073D01*
X110388742Y-63601000D01*
X110211258Y-63601000D01*
X110186488Y-63596073D01*
X110037188Y-63566376D01*
X109873216Y-63498456D01*
X109725646Y-63399853D01*
X109600147Y-63274354D01*
X109501544Y-63126784D01*
X109433624Y-62962812D01*
X109399000Y-62788741D01*
X109399000Y-62611259D01*
X109433624Y-62437188D01*
X109501544Y-62273216D01*
X109600147Y-62125646D01*
X109725646Y-62000147D01*
X109873216Y-61901544D01*
X110037188Y-61833624D01*
X110186488Y-61803927D01*
X110211258Y-61799000D01*
X110388742Y-61799000D01*
X110413512Y-61803927D01*
G37*
G36*
X117413512Y-61803927D02*
G01*
X117562812Y-61833624D01*
X117726784Y-61901544D01*
X117874354Y-62000147D01*
X117999853Y-62125646D01*
X118098456Y-62273216D01*
X118166376Y-62437188D01*
X118201000Y-62611259D01*
X118201000Y-62788741D01*
X118166376Y-62962812D01*
X118098456Y-63126784D01*
X117999853Y-63274354D01*
X117874354Y-63399853D01*
X117726784Y-63498456D01*
X117562812Y-63566376D01*
X117413512Y-63596073D01*
X117388742Y-63601000D01*
X117211258Y-63601000D01*
X117186488Y-63596073D01*
X117037188Y-63566376D01*
X116873216Y-63498456D01*
X116725646Y-63399853D01*
X116600147Y-63274354D01*
X116501544Y-63126784D01*
X116433624Y-62962812D01*
X116399000Y-62788741D01*
X116399000Y-62611259D01*
X116433624Y-62437188D01*
X116501544Y-62273216D01*
X116600147Y-62125646D01*
X116725646Y-62000147D01*
X116873216Y-61901544D01*
X117037188Y-61833624D01*
X117186488Y-61803927D01*
X117211258Y-61799000D01*
X117388742Y-61799000D01*
X117413512Y-61803927D01*
G37*
G36*
X76664499Y-46703445D02*
G01*
X76701995Y-46714820D01*
X76736554Y-46733292D01*
X76766847Y-46758153D01*
X76791708Y-46788446D01*
X76810180Y-46823005D01*
X76821555Y-46860501D01*
X76826000Y-46905638D01*
X76826000Y-47644362D01*
X76821555Y-47689499D01*
X76810180Y-47726995D01*
X76791708Y-47761554D01*
X76766847Y-47791847D01*
X76736554Y-47816708D01*
X76701995Y-47835180D01*
X76664499Y-47846555D01*
X76619362Y-47851000D01*
X75980638Y-47851000D01*
X75935501Y-47846555D01*
X75898005Y-47835180D01*
X75863446Y-47816708D01*
X75833153Y-47791847D01*
X75808292Y-47761554D01*
X75789820Y-47726995D01*
X75778445Y-47689499D01*
X75774000Y-47644362D01*
X75774000Y-46905638D01*
X75778445Y-46860501D01*
X75789820Y-46823005D01*
X75808292Y-46788446D01*
X75833153Y-46758153D01*
X75863446Y-46733292D01*
X75898005Y-46714820D01*
X75935501Y-46703445D01*
X75980638Y-46699000D01*
X76619362Y-46699000D01*
X76664499Y-46703445D01*
G37*
G36*
X78439499Y-46778445D02*
G01*
X78476995Y-46789820D01*
X78511554Y-46808292D01*
X78541847Y-46833153D01*
X78566708Y-46863446D01*
X78585180Y-46898005D01*
X78596555Y-46935501D01*
X78601000Y-46980638D01*
X78601000Y-47619362D01*
X78596555Y-47664499D01*
X78585180Y-47701995D01*
X78566708Y-47736554D01*
X78541847Y-47766847D01*
X78511554Y-47791708D01*
X78476995Y-47810180D01*
X78439499Y-47821555D01*
X78394362Y-47826000D01*
X77655638Y-47826000D01*
X77610501Y-47821555D01*
X77573005Y-47810180D01*
X77538446Y-47791708D01*
X77508153Y-47766847D01*
X77483292Y-47736554D01*
X77464820Y-47701995D01*
X77453445Y-47664499D01*
X77449000Y-47619362D01*
X77449000Y-46980638D01*
X77453445Y-46935501D01*
X77464820Y-46898005D01*
X77483292Y-46863446D01*
X77508153Y-46833153D01*
X77538446Y-46808292D01*
X77573005Y-46789820D01*
X77610501Y-46778445D01*
X77655638Y-46774000D01*
X78394362Y-46774000D01*
X78439499Y-46778445D01*
G37*
G36*
X80189499Y-46778445D02*
G01*
X80226995Y-46789820D01*
X80261554Y-46808292D01*
X80291847Y-46833153D01*
X80316708Y-46863446D01*
X80335180Y-46898005D01*
X80346555Y-46935501D01*
X80351000Y-46980638D01*
X80351000Y-47619362D01*
X80346555Y-47664499D01*
X80335180Y-47701995D01*
X80316708Y-47736554D01*
X80291847Y-47766847D01*
X80261554Y-47791708D01*
X80226995Y-47810180D01*
X80189499Y-47821555D01*
X80144362Y-47826000D01*
X79405638Y-47826000D01*
X79360501Y-47821555D01*
X79323005Y-47810180D01*
X79288446Y-47791708D01*
X79258153Y-47766847D01*
X79233292Y-47736554D01*
X79214820Y-47701995D01*
X79203445Y-47664499D01*
X79199000Y-47619362D01*
X79199000Y-46980638D01*
X79203445Y-46935501D01*
X79214820Y-46898005D01*
X79233292Y-46863446D01*
X79258153Y-46833153D01*
X79288446Y-46808292D01*
X79323005Y-46789820D01*
X79360501Y-46778445D01*
X79405638Y-46774000D01*
X80144362Y-46774000D01*
X80189499Y-46778445D01*
G37*
G36*
X72264499Y-45603445D02*
G01*
X72301995Y-45614820D01*
X72336554Y-45633292D01*
X72366847Y-45658153D01*
X72391708Y-45688446D01*
X72410180Y-45723005D01*
X72421555Y-45760501D01*
X72426000Y-45805638D01*
X72426000Y-46544362D01*
X72421555Y-46589499D01*
X72410180Y-46626995D01*
X72391708Y-46661554D01*
X72366847Y-46691847D01*
X72336554Y-46716708D01*
X72301995Y-46735180D01*
X72264499Y-46746555D01*
X72219362Y-46751000D01*
X71580638Y-46751000D01*
X71535501Y-46746555D01*
X71498005Y-46735180D01*
X71463446Y-46716708D01*
X71433153Y-46691847D01*
X71408292Y-46661554D01*
X71389820Y-46626995D01*
X71378445Y-46589499D01*
X71374000Y-46544362D01*
X71374000Y-45805638D01*
X71378445Y-45760501D01*
X71389820Y-45723005D01*
X71408292Y-45688446D01*
X71433153Y-45658153D01*
X71463446Y-45633292D01*
X71498005Y-45614820D01*
X71535501Y-45603445D01*
X71580638Y-45599000D01*
X72219362Y-45599000D01*
X72264499Y-45603445D01*
G37*
G36*
X70664499Y-45603445D02*
G01*
X70701995Y-45614820D01*
X70736554Y-45633292D01*
X70766847Y-45658153D01*
X70791708Y-45688446D01*
X70810180Y-45723005D01*
X70821555Y-45760501D01*
X70826000Y-45805638D01*
X70826000Y-46544362D01*
X70821555Y-46589499D01*
X70810180Y-46626995D01*
X70791708Y-46661554D01*
X70766847Y-46691847D01*
X70736554Y-46716708D01*
X70701995Y-46735180D01*
X70664499Y-46746555D01*
X70619362Y-46751000D01*
X69980638Y-46751000D01*
X69935501Y-46746555D01*
X69898005Y-46735180D01*
X69863446Y-46716708D01*
X69833153Y-46691847D01*
X69808292Y-46661554D01*
X69789820Y-46626995D01*
X69778445Y-46589499D01*
X69774000Y-46544362D01*
X69774000Y-45805638D01*
X69778445Y-45760501D01*
X69789820Y-45723005D01*
X69808292Y-45688446D01*
X69833153Y-45658153D01*
X69863446Y-45633292D01*
X69898005Y-45614820D01*
X69935501Y-45603445D01*
X69980638Y-45599000D01*
X70619362Y-45599000D01*
X70664499Y-45603445D01*
G37*
G36*
X76664499Y-44953445D02*
G01*
X76701995Y-44964820D01*
X76736554Y-44983292D01*
X76766847Y-45008153D01*
X76791708Y-45038446D01*
X76810180Y-45073005D01*
X76821555Y-45110501D01*
X76826000Y-45155638D01*
X76826000Y-45894362D01*
X76821555Y-45939499D01*
X76810180Y-45976995D01*
X76791708Y-46011554D01*
X76766847Y-46041847D01*
X76736554Y-46066708D01*
X76701995Y-46085180D01*
X76664499Y-46096555D01*
X76619362Y-46101000D01*
X75980638Y-46101000D01*
X75935501Y-46096555D01*
X75898005Y-46085180D01*
X75863446Y-46066708D01*
X75833153Y-46041847D01*
X75808292Y-46011554D01*
X75789820Y-45976995D01*
X75778445Y-45939499D01*
X75774000Y-45894362D01*
X75774000Y-45155638D01*
X75778445Y-45110501D01*
X75789820Y-45073005D01*
X75808292Y-45038446D01*
X75833153Y-45008153D01*
X75863446Y-44983292D01*
X75898005Y-44964820D01*
X75935501Y-44953445D01*
X75980638Y-44949000D01*
X76619362Y-44949000D01*
X76664499Y-44953445D01*
G37*
G36*
X80189499Y-44978445D02*
G01*
X80226995Y-44989820D01*
X80261554Y-45008292D01*
X80291847Y-45033153D01*
X80316708Y-45063446D01*
X80335180Y-45098005D01*
X80346555Y-45135501D01*
X80351000Y-45180638D01*
X80351000Y-45819362D01*
X80346555Y-45864499D01*
X80335180Y-45901995D01*
X80316708Y-45936554D01*
X80291847Y-45966847D01*
X80261554Y-45991708D01*
X80226995Y-46010180D01*
X80189499Y-46021555D01*
X80144362Y-46026000D01*
X79405638Y-46026000D01*
X79360501Y-46021555D01*
X79323005Y-46010180D01*
X79288446Y-45991708D01*
X79258153Y-45966847D01*
X79233292Y-45936554D01*
X79214820Y-45901995D01*
X79203445Y-45864499D01*
X79199000Y-45819362D01*
X79199000Y-45180638D01*
X79203445Y-45135501D01*
X79214820Y-45098005D01*
X79233292Y-45063446D01*
X79258153Y-45033153D01*
X79288446Y-45008292D01*
X79323005Y-44989820D01*
X79360501Y-44978445D01*
X79405638Y-44974000D01*
X80144362Y-44974000D01*
X80189499Y-44978445D01*
G37*
G36*
X78439499Y-44978445D02*
G01*
X78476995Y-44989820D01*
X78511554Y-45008292D01*
X78541847Y-45033153D01*
X78566708Y-45063446D01*
X78585180Y-45098005D01*
X78596555Y-45135501D01*
X78601000Y-45180638D01*
X78601000Y-45819362D01*
X78596555Y-45864499D01*
X78585180Y-45901995D01*
X78566708Y-45936554D01*
X78541847Y-45966847D01*
X78511554Y-45991708D01*
X78476995Y-46010180D01*
X78439499Y-46021555D01*
X78394362Y-46026000D01*
X77655638Y-46026000D01*
X77610501Y-46021555D01*
X77573005Y-46010180D01*
X77538446Y-45991708D01*
X77508153Y-45966847D01*
X77483292Y-45936554D01*
X77464820Y-45901995D01*
X77453445Y-45864499D01*
X77449000Y-45819362D01*
X77449000Y-45180638D01*
X77453445Y-45135501D01*
X77464820Y-45098005D01*
X77483292Y-45063446D01*
X77508153Y-45033153D01*
X77538446Y-45008292D01*
X77573005Y-44989820D01*
X77610501Y-44978445D01*
X77655638Y-44974000D01*
X78394362Y-44974000D01*
X78439499Y-44978445D01*
G37*
G36*
X68314499Y-43978445D02*
G01*
X68351995Y-43989820D01*
X68386554Y-44008292D01*
X68416847Y-44033153D01*
X68441708Y-44063446D01*
X68460180Y-44098005D01*
X68471555Y-44135501D01*
X68476000Y-44180638D01*
X68476000Y-44819362D01*
X68471555Y-44864499D01*
X68460180Y-44901995D01*
X68441708Y-44936554D01*
X68416847Y-44966847D01*
X68386554Y-44991708D01*
X68351995Y-45010180D01*
X68314499Y-45021555D01*
X68269362Y-45026000D01*
X67530638Y-45026000D01*
X67485501Y-45021555D01*
X67448005Y-45010180D01*
X67413446Y-44991708D01*
X67383153Y-44966847D01*
X67358292Y-44936554D01*
X67339820Y-44901995D01*
X67328445Y-44864499D01*
X67324000Y-44819362D01*
X67324000Y-44180638D01*
X67328445Y-44135501D01*
X67339820Y-44098005D01*
X67358292Y-44063446D01*
X67383153Y-44033153D01*
X67413446Y-44008292D01*
X67448005Y-43989820D01*
X67485501Y-43978445D01*
X67530638Y-43974000D01*
X68269362Y-43974000D01*
X68314499Y-43978445D01*
G37*
G36*
X66564499Y-43978445D02*
G01*
X66601995Y-43989820D01*
X66636554Y-44008292D01*
X66666847Y-44033153D01*
X66691708Y-44063446D01*
X66710180Y-44098005D01*
X66721555Y-44135501D01*
X66726000Y-44180638D01*
X66726000Y-44819362D01*
X66721555Y-44864499D01*
X66710180Y-44901995D01*
X66691708Y-44936554D01*
X66666847Y-44966847D01*
X66636554Y-44991708D01*
X66601995Y-45010180D01*
X66564499Y-45021555D01*
X66519362Y-45026000D01*
X65780638Y-45026000D01*
X65735501Y-45021555D01*
X65698005Y-45010180D01*
X65663446Y-44991708D01*
X65633153Y-44966847D01*
X65608292Y-44936554D01*
X65589820Y-44901995D01*
X65578445Y-44864499D01*
X65574000Y-44819362D01*
X65574000Y-44180638D01*
X65578445Y-44135501D01*
X65589820Y-44098005D01*
X65608292Y-44063446D01*
X65633153Y-44033153D01*
X65663446Y-44008292D01*
X65698005Y-43989820D01*
X65735501Y-43978445D01*
X65780638Y-43974000D01*
X66519362Y-43974000D01*
X66564499Y-43978445D01*
G37*
G36*
X72264499Y-43853445D02*
G01*
X72301995Y-43864820D01*
X72336554Y-43883292D01*
X72366847Y-43908153D01*
X72391708Y-43938446D01*
X72410180Y-43973005D01*
X72421555Y-44010501D01*
X72426000Y-44055638D01*
X72426000Y-44794362D01*
X72421555Y-44839499D01*
X72410180Y-44876995D01*
X72391708Y-44911554D01*
X72366847Y-44941847D01*
X72336554Y-44966708D01*
X72301995Y-44985180D01*
X72264499Y-44996555D01*
X72219362Y-45001000D01*
X71580638Y-45001000D01*
X71535501Y-44996555D01*
X71498005Y-44985180D01*
X71463446Y-44966708D01*
X71433153Y-44941847D01*
X71408292Y-44911554D01*
X71389820Y-44876995D01*
X71378445Y-44839499D01*
X71374000Y-44794362D01*
X71374000Y-44055638D01*
X71378445Y-44010501D01*
X71389820Y-43973005D01*
X71408292Y-43938446D01*
X71433153Y-43908153D01*
X71463446Y-43883292D01*
X71498005Y-43864820D01*
X71535501Y-43853445D01*
X71580638Y-43849000D01*
X72219362Y-43849000D01*
X72264499Y-43853445D01*
G37*
G36*
X70664499Y-43853445D02*
G01*
X70701995Y-43864820D01*
X70736554Y-43883292D01*
X70766847Y-43908153D01*
X70791708Y-43938446D01*
X70810180Y-43973005D01*
X70821555Y-44010501D01*
X70826000Y-44055638D01*
X70826000Y-44794362D01*
X70821555Y-44839499D01*
X70810180Y-44876995D01*
X70791708Y-44911554D01*
X70766847Y-44941847D01*
X70736554Y-44966708D01*
X70701995Y-44985180D01*
X70664499Y-44996555D01*
X70619362Y-45001000D01*
X69980638Y-45001000D01*
X69935501Y-44996555D01*
X69898005Y-44985180D01*
X69863446Y-44966708D01*
X69833153Y-44941847D01*
X69808292Y-44911554D01*
X69789820Y-44876995D01*
X69778445Y-44839499D01*
X69774000Y-44794362D01*
X69774000Y-44055638D01*
X69778445Y-44010501D01*
X69789820Y-43973005D01*
X69808292Y-43938446D01*
X69833153Y-43908153D01*
X69863446Y-43883292D01*
X69898005Y-43864820D01*
X69935501Y-43853445D01*
X69980638Y-43849000D01*
X70619362Y-43849000D01*
X70664499Y-43853445D01*
G37*
G36*
X83664499Y-42678445D02*
G01*
X83701995Y-42689820D01*
X83736554Y-42708292D01*
X83766847Y-42733153D01*
X83791708Y-42763446D01*
X83810180Y-42798005D01*
X83821555Y-42835501D01*
X83826000Y-42880638D01*
X83826000Y-43519362D01*
X83821555Y-43564499D01*
X83810180Y-43601995D01*
X83791708Y-43636554D01*
X83766847Y-43666847D01*
X83736554Y-43691708D01*
X83701995Y-43710180D01*
X83664499Y-43721555D01*
X83619362Y-43726000D01*
X82880638Y-43726000D01*
X82835501Y-43721555D01*
X82798005Y-43710180D01*
X82763446Y-43691708D01*
X82733153Y-43666847D01*
X82708292Y-43636554D01*
X82689820Y-43601995D01*
X82678445Y-43564499D01*
X82674000Y-43519362D01*
X82674000Y-42880638D01*
X82678445Y-42835501D01*
X82689820Y-42798005D01*
X82708292Y-42763446D01*
X82733153Y-42733153D01*
X82763446Y-42708292D01*
X82798005Y-42689820D01*
X82835501Y-42678445D01*
X82880638Y-42674000D01*
X83619362Y-42674000D01*
X83664499Y-42678445D01*
G37*
G36*
X81914499Y-42678445D02*
G01*
X81951995Y-42689820D01*
X81986554Y-42708292D01*
X82016847Y-42733153D01*
X82041708Y-42763446D01*
X82060180Y-42798005D01*
X82071555Y-42835501D01*
X82076000Y-42880638D01*
X82076000Y-43519362D01*
X82071555Y-43564499D01*
X82060180Y-43601995D01*
X82041708Y-43636554D01*
X82016847Y-43666847D01*
X81986554Y-43691708D01*
X81951995Y-43710180D01*
X81914499Y-43721555D01*
X81869362Y-43726000D01*
X81130638Y-43726000D01*
X81085501Y-43721555D01*
X81048005Y-43710180D01*
X81013446Y-43691708D01*
X80983153Y-43666847D01*
X80958292Y-43636554D01*
X80939820Y-43601995D01*
X80928445Y-43564499D01*
X80924000Y-43519362D01*
X80924000Y-42880638D01*
X80928445Y-42835501D01*
X80939820Y-42798005D01*
X80958292Y-42763446D01*
X80983153Y-42733153D01*
X81013446Y-42708292D01*
X81048005Y-42689820D01*
X81085501Y-42678445D01*
X81130638Y-42674000D01*
X81869362Y-42674000D01*
X81914499Y-42678445D01*
G37*
G36*
X68314499Y-42378445D02*
G01*
X68351995Y-42389820D01*
X68386554Y-42408292D01*
X68416847Y-42433153D01*
X68441708Y-42463446D01*
X68460180Y-42498005D01*
X68471555Y-42535501D01*
X68476000Y-42580638D01*
X68476000Y-43219362D01*
X68471555Y-43264499D01*
X68460180Y-43301995D01*
X68441708Y-43336554D01*
X68416847Y-43366847D01*
X68386554Y-43391708D01*
X68351995Y-43410180D01*
X68314499Y-43421555D01*
X68269362Y-43426000D01*
X67530638Y-43426000D01*
X67485501Y-43421555D01*
X67448005Y-43410180D01*
X67413446Y-43391708D01*
X67383153Y-43366847D01*
X67358292Y-43336554D01*
X67339820Y-43301995D01*
X67328445Y-43264499D01*
X67324000Y-43219362D01*
X67324000Y-42580638D01*
X67328445Y-42535501D01*
X67339820Y-42498005D01*
X67358292Y-42463446D01*
X67383153Y-42433153D01*
X67413446Y-42408292D01*
X67448005Y-42389820D01*
X67485501Y-42378445D01*
X67530638Y-42374000D01*
X68269362Y-42374000D01*
X68314499Y-42378445D01*
G37*
G36*
X66564499Y-42378445D02*
G01*
X66601995Y-42389820D01*
X66636554Y-42408292D01*
X66666847Y-42433153D01*
X66691708Y-42463446D01*
X66710180Y-42498005D01*
X66721555Y-42535501D01*
X66726000Y-42580638D01*
X66726000Y-43219362D01*
X66721555Y-43264499D01*
X66710180Y-43301995D01*
X66691708Y-43336554D01*
X66666847Y-43366847D01*
X66636554Y-43391708D01*
X66601995Y-43410180D01*
X66564499Y-43421555D01*
X66519362Y-43426000D01*
X65780638Y-43426000D01*
X65735501Y-43421555D01*
X65698005Y-43410180D01*
X65663446Y-43391708D01*
X65633153Y-43366847D01*
X65608292Y-43336554D01*
X65589820Y-43301995D01*
X65578445Y-43264499D01*
X65574000Y-43219362D01*
X65574000Y-42580638D01*
X65578445Y-42535501D01*
X65589820Y-42498005D01*
X65608292Y-42463446D01*
X65633153Y-42433153D01*
X65663446Y-42408292D01*
X65698005Y-42389820D01*
X65735501Y-42378445D01*
X65780638Y-42374000D01*
X66519362Y-42374000D01*
X66564499Y-42378445D01*
G37*
G36*
X83664499Y-40978445D02*
G01*
X83701995Y-40989820D01*
X83736554Y-41008292D01*
X83766847Y-41033153D01*
X83791708Y-41063446D01*
X83810180Y-41098005D01*
X83821555Y-41135501D01*
X83826000Y-41180638D01*
X83826000Y-41819362D01*
X83821555Y-41864499D01*
X83810180Y-41901995D01*
X83791708Y-41936554D01*
X83766847Y-41966847D01*
X83736554Y-41991708D01*
X83701995Y-42010180D01*
X83664499Y-42021555D01*
X83619362Y-42026000D01*
X82880638Y-42026000D01*
X82835501Y-42021555D01*
X82798005Y-42010180D01*
X82763446Y-41991708D01*
X82733153Y-41966847D01*
X82708292Y-41936554D01*
X82689820Y-41901995D01*
X82678445Y-41864499D01*
X82674000Y-41819362D01*
X82674000Y-41180638D01*
X82678445Y-41135501D01*
X82689820Y-41098005D01*
X82708292Y-41063446D01*
X82733153Y-41033153D01*
X82763446Y-41008292D01*
X82798005Y-40989820D01*
X82835501Y-40978445D01*
X82880638Y-40974000D01*
X83619362Y-40974000D01*
X83664499Y-40978445D01*
G37*
G36*
X81914499Y-40978445D02*
G01*
X81951995Y-40989820D01*
X81986554Y-41008292D01*
X82016847Y-41033153D01*
X82041708Y-41063446D01*
X82060180Y-41098005D01*
X82071555Y-41135501D01*
X82076000Y-41180638D01*
X82076000Y-41819362D01*
X82071555Y-41864499D01*
X82060180Y-41901995D01*
X82041708Y-41936554D01*
X82016847Y-41966847D01*
X81986554Y-41991708D01*
X81951995Y-42010180D01*
X81914499Y-42021555D01*
X81869362Y-42026000D01*
X81130638Y-42026000D01*
X81085501Y-42021555D01*
X81048005Y-42010180D01*
X81013446Y-41991708D01*
X80983153Y-41966847D01*
X80958292Y-41936554D01*
X80939820Y-41901995D01*
X80928445Y-41864499D01*
X80924000Y-41819362D01*
X80924000Y-41180638D01*
X80928445Y-41135501D01*
X80939820Y-41098005D01*
X80958292Y-41063446D01*
X80983153Y-41033153D01*
X81013446Y-41008292D01*
X81048005Y-40989820D01*
X81085501Y-40978445D01*
X81130638Y-40974000D01*
X81869362Y-40974000D01*
X81914499Y-40978445D01*
G37*
G36*
X66564499Y-40578445D02*
G01*
X66601995Y-40589820D01*
X66636554Y-40608292D01*
X66666847Y-40633153D01*
X66691708Y-40663446D01*
X66710180Y-40698005D01*
X66721555Y-40735501D01*
X66726000Y-40780638D01*
X66726000Y-41419362D01*
X66721555Y-41464499D01*
X66710180Y-41501995D01*
X66691708Y-41536554D01*
X66666847Y-41566847D01*
X66636554Y-41591708D01*
X66601995Y-41610180D01*
X66564499Y-41621555D01*
X66519362Y-41626000D01*
X65780638Y-41626000D01*
X65735501Y-41621555D01*
X65698005Y-41610180D01*
X65663446Y-41591708D01*
X65633153Y-41566847D01*
X65608292Y-41536554D01*
X65589820Y-41501995D01*
X65578445Y-41464499D01*
X65574000Y-41419362D01*
X65574000Y-40780638D01*
X65578445Y-40735501D01*
X65589820Y-40698005D01*
X65608292Y-40663446D01*
X65633153Y-40633153D01*
X65663446Y-40608292D01*
X65698005Y-40589820D01*
X65735501Y-40578445D01*
X65780638Y-40574000D01*
X66519362Y-40574000D01*
X66564499Y-40578445D01*
G37*
G36*
X68314499Y-40578445D02*
G01*
X68351995Y-40589820D01*
X68386554Y-40608292D01*
X68416847Y-40633153D01*
X68441708Y-40663446D01*
X68460180Y-40698005D01*
X68471555Y-40735501D01*
X68476000Y-40780638D01*
X68476000Y-41419362D01*
X68471555Y-41464499D01*
X68460180Y-41501995D01*
X68441708Y-41536554D01*
X68416847Y-41566847D01*
X68386554Y-41591708D01*
X68351995Y-41610180D01*
X68314499Y-41621555D01*
X68269362Y-41626000D01*
X67530638Y-41626000D01*
X67485501Y-41621555D01*
X67448005Y-41610180D01*
X67413446Y-41591708D01*
X67383153Y-41566847D01*
X67358292Y-41536554D01*
X67339820Y-41501995D01*
X67328445Y-41464499D01*
X67324000Y-41419362D01*
X67324000Y-40780638D01*
X67328445Y-40735501D01*
X67339820Y-40698005D01*
X67358292Y-40663446D01*
X67383153Y-40633153D01*
X67413446Y-40608292D01*
X67448005Y-40589820D01*
X67485501Y-40578445D01*
X67530638Y-40574000D01*
X68269362Y-40574000D01*
X68314499Y-40578445D01*
G37*
G36*
X68364499Y-38978445D02*
G01*
X68401995Y-38989820D01*
X68436554Y-39008292D01*
X68466847Y-39033153D01*
X68491708Y-39063446D01*
X68510180Y-39098005D01*
X68521555Y-39135501D01*
X68526000Y-39180638D01*
X68526000Y-39819362D01*
X68521555Y-39864499D01*
X68510180Y-39901995D01*
X68491708Y-39936554D01*
X68466847Y-39966847D01*
X68436554Y-39991708D01*
X68401995Y-40010180D01*
X68364499Y-40021555D01*
X68319362Y-40026000D01*
X67580638Y-40026000D01*
X67535501Y-40021555D01*
X67498005Y-40010180D01*
X67463446Y-39991708D01*
X67433153Y-39966847D01*
X67408292Y-39936554D01*
X67389820Y-39901995D01*
X67378445Y-39864499D01*
X67374000Y-39819362D01*
X67374000Y-39180638D01*
X67378445Y-39135501D01*
X67389820Y-39098005D01*
X67408292Y-39063446D01*
X67433153Y-39033153D01*
X67463446Y-39008292D01*
X67498005Y-38989820D01*
X67535501Y-38978445D01*
X67580638Y-38974000D01*
X68319362Y-38974000D01*
X68364499Y-38978445D01*
G37*
G36*
X66614499Y-38978445D02*
G01*
X66651995Y-38989820D01*
X66686554Y-39008292D01*
X66716847Y-39033153D01*
X66741708Y-39063446D01*
X66760180Y-39098005D01*
X66771555Y-39135501D01*
X66776000Y-39180638D01*
X66776000Y-39819362D01*
X66771555Y-39864499D01*
X66760180Y-39901995D01*
X66741708Y-39936554D01*
X66716847Y-39966847D01*
X66686554Y-39991708D01*
X66651995Y-40010180D01*
X66614499Y-40021555D01*
X66569362Y-40026000D01*
X65830638Y-40026000D01*
X65785501Y-40021555D01*
X65748005Y-40010180D01*
X65713446Y-39991708D01*
X65683153Y-39966847D01*
X65658292Y-39936554D01*
X65639820Y-39901995D01*
X65628445Y-39864499D01*
X65624000Y-39819362D01*
X65624000Y-39180638D01*
X65628445Y-39135501D01*
X65639820Y-39098005D01*
X65658292Y-39063446D01*
X65683153Y-39033153D01*
X65713446Y-39008292D01*
X65748005Y-38989820D01*
X65785501Y-38978445D01*
X65830638Y-38974000D01*
X66569362Y-38974000D01*
X66614499Y-38978445D01*
G37*
G36*
X85914499Y-38328445D02*
G01*
X85951995Y-38339820D01*
X85986554Y-38358292D01*
X86016847Y-38383153D01*
X86041708Y-38413446D01*
X86060180Y-38448005D01*
X86071555Y-38485501D01*
X86076000Y-38530638D01*
X86076000Y-39169362D01*
X86071555Y-39214499D01*
X86060180Y-39251995D01*
X86041708Y-39286554D01*
X86016847Y-39316847D01*
X85986554Y-39341708D01*
X85951995Y-39360180D01*
X85914499Y-39371555D01*
X85869362Y-39376000D01*
X85130638Y-39376000D01*
X85085501Y-39371555D01*
X85048005Y-39360180D01*
X85013446Y-39341708D01*
X84983153Y-39316847D01*
X84958292Y-39286554D01*
X84939820Y-39251995D01*
X84928445Y-39214499D01*
X84924000Y-39169362D01*
X84924000Y-38530638D01*
X84928445Y-38485501D01*
X84939820Y-38448005D01*
X84958292Y-38413446D01*
X84983153Y-38383153D01*
X85013446Y-38358292D01*
X85048005Y-38339820D01*
X85085501Y-38328445D01*
X85130638Y-38324000D01*
X85869362Y-38324000D01*
X85914499Y-38328445D01*
G37*
G36*
X87664499Y-38328445D02*
G01*
X87701995Y-38339820D01*
X87736554Y-38358292D01*
X87766847Y-38383153D01*
X87791708Y-38413446D01*
X87810180Y-38448005D01*
X87821555Y-38485501D01*
X87826000Y-38530638D01*
X87826000Y-39169362D01*
X87821555Y-39214499D01*
X87810180Y-39251995D01*
X87791708Y-39286554D01*
X87766847Y-39316847D01*
X87736554Y-39341708D01*
X87701995Y-39360180D01*
X87664499Y-39371555D01*
X87619362Y-39376000D01*
X86880638Y-39376000D01*
X86835501Y-39371555D01*
X86798005Y-39360180D01*
X86763446Y-39341708D01*
X86733153Y-39316847D01*
X86708292Y-39286554D01*
X86689820Y-39251995D01*
X86678445Y-39214499D01*
X86674000Y-39169362D01*
X86674000Y-38530638D01*
X86678445Y-38485501D01*
X86689820Y-38448005D01*
X86708292Y-38413446D01*
X86733153Y-38383153D01*
X86763446Y-38358292D01*
X86798005Y-38339820D01*
X86835501Y-38328445D01*
X86880638Y-38324000D01*
X87619362Y-38324000D01*
X87664499Y-38328445D01*
G37*
G36*
X87664499Y-36778445D02*
G01*
X87701995Y-36789820D01*
X87736554Y-36808292D01*
X87766847Y-36833153D01*
X87791708Y-36863446D01*
X87810180Y-36898005D01*
X87821555Y-36935501D01*
X87826000Y-36980638D01*
X87826000Y-37619362D01*
X87821555Y-37664499D01*
X87810180Y-37701995D01*
X87791708Y-37736554D01*
X87766847Y-37766847D01*
X87736554Y-37791708D01*
X87701995Y-37810180D01*
X87664499Y-37821555D01*
X87619362Y-37826000D01*
X86880638Y-37826000D01*
X86835501Y-37821555D01*
X86798005Y-37810180D01*
X86763446Y-37791708D01*
X86733153Y-37766847D01*
X86708292Y-37736554D01*
X86689820Y-37701995D01*
X86678445Y-37664499D01*
X86674000Y-37619362D01*
X86674000Y-36980638D01*
X86678445Y-36935501D01*
X86689820Y-36898005D01*
X86708292Y-36863446D01*
X86733153Y-36833153D01*
X86763446Y-36808292D01*
X86798005Y-36789820D01*
X86835501Y-36778445D01*
X86880638Y-36774000D01*
X87619362Y-36774000D01*
X87664499Y-36778445D01*
G37*
G36*
X85914499Y-36778445D02*
G01*
X85951995Y-36789820D01*
X85986554Y-36808292D01*
X86016847Y-36833153D01*
X86041708Y-36863446D01*
X86060180Y-36898005D01*
X86071555Y-36935501D01*
X86076000Y-36980638D01*
X86076000Y-37619362D01*
X86071555Y-37664499D01*
X86060180Y-37701995D01*
X86041708Y-37736554D01*
X86016847Y-37766847D01*
X85986554Y-37791708D01*
X85951995Y-37810180D01*
X85914499Y-37821555D01*
X85869362Y-37826000D01*
X85130638Y-37826000D01*
X85085501Y-37821555D01*
X85048005Y-37810180D01*
X85013446Y-37791708D01*
X84983153Y-37766847D01*
X84958292Y-37736554D01*
X84939820Y-37701995D01*
X84928445Y-37664499D01*
X84924000Y-37619362D01*
X84924000Y-36980638D01*
X84928445Y-36935501D01*
X84939820Y-36898005D01*
X84958292Y-36863446D01*
X84983153Y-36833153D01*
X85013446Y-36808292D01*
X85048005Y-36789820D01*
X85085501Y-36778445D01*
X85130638Y-36774000D01*
X85869362Y-36774000D01*
X85914499Y-36778445D01*
G37*
G36*
X85789499Y-33628445D02*
G01*
X85826995Y-33639820D01*
X85861554Y-33658292D01*
X85891847Y-33683153D01*
X85916708Y-33713446D01*
X85935180Y-33748005D01*
X85946555Y-33785501D01*
X85951000Y-33830638D01*
X85951000Y-34469362D01*
X85946555Y-34514499D01*
X85935180Y-34551995D01*
X85916708Y-34586554D01*
X85891847Y-34616847D01*
X85861554Y-34641708D01*
X85826995Y-34660180D01*
X85789499Y-34671555D01*
X85744362Y-34676000D01*
X85005638Y-34676000D01*
X84960501Y-34671555D01*
X84923005Y-34660180D01*
X84888446Y-34641708D01*
X84858153Y-34616847D01*
X84833292Y-34586554D01*
X84814820Y-34551995D01*
X84803445Y-34514499D01*
X84799000Y-34469362D01*
X84799000Y-33830638D01*
X84803445Y-33785501D01*
X84814820Y-33748005D01*
X84833292Y-33713446D01*
X84858153Y-33683153D01*
X84888446Y-33658292D01*
X84923005Y-33639820D01*
X84960501Y-33628445D01*
X85005638Y-33624000D01*
X85744362Y-33624000D01*
X85789499Y-33628445D01*
G37*
G36*
X84039499Y-33628445D02*
G01*
X84076995Y-33639820D01*
X84111554Y-33658292D01*
X84141847Y-33683153D01*
X84166708Y-33713446D01*
X84185180Y-33748005D01*
X84196555Y-33785501D01*
X84201000Y-33830638D01*
X84201000Y-34469362D01*
X84196555Y-34514499D01*
X84185180Y-34551995D01*
X84166708Y-34586554D01*
X84141847Y-34616847D01*
X84111554Y-34641708D01*
X84076995Y-34660180D01*
X84039499Y-34671555D01*
X83994362Y-34676000D01*
X83255638Y-34676000D01*
X83210501Y-34671555D01*
X83173005Y-34660180D01*
X83138446Y-34641708D01*
X83108153Y-34616847D01*
X83083292Y-34586554D01*
X83064820Y-34551995D01*
X83053445Y-34514499D01*
X83049000Y-34469362D01*
X83049000Y-33830638D01*
X83053445Y-33785501D01*
X83064820Y-33748005D01*
X83083292Y-33713446D01*
X83108153Y-33683153D01*
X83138446Y-33658292D01*
X83173005Y-33639820D01*
X83210501Y-33628445D01*
X83255638Y-33624000D01*
X83994362Y-33624000D01*
X84039499Y-33628445D01*
G37*
G36*
X85714499Y-31828445D02*
G01*
X85751995Y-31839820D01*
X85786554Y-31858292D01*
X85816847Y-31883153D01*
X85841708Y-31913446D01*
X85860180Y-31948005D01*
X85871555Y-31985501D01*
X85876000Y-32030638D01*
X85876000Y-32769362D01*
X85871555Y-32814499D01*
X85860180Y-32851995D01*
X85841708Y-32886554D01*
X85816847Y-32916847D01*
X85786554Y-32941708D01*
X85751995Y-32960180D01*
X85714499Y-32971555D01*
X85669362Y-32976000D01*
X85030638Y-32976000D01*
X84985501Y-32971555D01*
X84948005Y-32960180D01*
X84913446Y-32941708D01*
X84883153Y-32916847D01*
X84858292Y-32886554D01*
X84839820Y-32851995D01*
X84828445Y-32814499D01*
X84824000Y-32769362D01*
X84824000Y-32030638D01*
X84828445Y-31985501D01*
X84839820Y-31948005D01*
X84858292Y-31913446D01*
X84883153Y-31883153D01*
X84913446Y-31858292D01*
X84948005Y-31839820D01*
X84985501Y-31828445D01*
X85030638Y-31824000D01*
X85669362Y-31824000D01*
X85714499Y-31828445D01*
G37*
G36*
X84014499Y-31828445D02*
G01*
X84051995Y-31839820D01*
X84086554Y-31858292D01*
X84116847Y-31883153D01*
X84141708Y-31913446D01*
X84160180Y-31948005D01*
X84171555Y-31985501D01*
X84176000Y-32030638D01*
X84176000Y-32769362D01*
X84171555Y-32814499D01*
X84160180Y-32851995D01*
X84141708Y-32886554D01*
X84116847Y-32916847D01*
X84086554Y-32941708D01*
X84051995Y-32960180D01*
X84014499Y-32971555D01*
X83969362Y-32976000D01*
X83330638Y-32976000D01*
X83285501Y-32971555D01*
X83248005Y-32960180D01*
X83213446Y-32941708D01*
X83183153Y-32916847D01*
X83158292Y-32886554D01*
X83139820Y-32851995D01*
X83128445Y-32814499D01*
X83124000Y-32769362D01*
X83124000Y-32030638D01*
X83128445Y-31985501D01*
X83139820Y-31948005D01*
X83158292Y-31913446D01*
X83183153Y-31883153D01*
X83213446Y-31858292D01*
X83248005Y-31839820D01*
X83285501Y-31828445D01*
X83330638Y-31824000D01*
X83969362Y-31824000D01*
X84014499Y-31828445D01*
G37*
G36*
X85714499Y-30078445D02*
G01*
X85751995Y-30089820D01*
X85786554Y-30108292D01*
X85816847Y-30133153D01*
X85841708Y-30163446D01*
X85860180Y-30198005D01*
X85871555Y-30235501D01*
X85876000Y-30280638D01*
X85876000Y-31019362D01*
X85871555Y-31064499D01*
X85860180Y-31101995D01*
X85841708Y-31136554D01*
X85816847Y-31166847D01*
X85786554Y-31191708D01*
X85751995Y-31210180D01*
X85714499Y-31221555D01*
X85669362Y-31226000D01*
X85030638Y-31226000D01*
X84985501Y-31221555D01*
X84948005Y-31210180D01*
X84913446Y-31191708D01*
X84883153Y-31166847D01*
X84858292Y-31136554D01*
X84839820Y-31101995D01*
X84828445Y-31064499D01*
X84824000Y-31019362D01*
X84824000Y-30280638D01*
X84828445Y-30235501D01*
X84839820Y-30198005D01*
X84858292Y-30163446D01*
X84883153Y-30133153D01*
X84913446Y-30108292D01*
X84948005Y-30089820D01*
X84985501Y-30078445D01*
X85030638Y-30074000D01*
X85669362Y-30074000D01*
X85714499Y-30078445D01*
G37*
G36*
X84014499Y-30078445D02*
G01*
X84051995Y-30089820D01*
X84086554Y-30108292D01*
X84116847Y-30133153D01*
X84141708Y-30163446D01*
X84160180Y-30198005D01*
X84171555Y-30235501D01*
X84176000Y-30280638D01*
X84176000Y-31019362D01*
X84171555Y-31064499D01*
X84160180Y-31101995D01*
X84141708Y-31136554D01*
X84116847Y-31166847D01*
X84086554Y-31191708D01*
X84051995Y-31210180D01*
X84014499Y-31221555D01*
X83969362Y-31226000D01*
X83330638Y-31226000D01*
X83285501Y-31221555D01*
X83248005Y-31210180D01*
X83213446Y-31191708D01*
X83183153Y-31166847D01*
X83158292Y-31136554D01*
X83139820Y-31101995D01*
X83128445Y-31064499D01*
X83124000Y-31019362D01*
X83124000Y-30280638D01*
X83128445Y-30235501D01*
X83139820Y-30198005D01*
X83158292Y-30163446D01*
X83183153Y-30133153D01*
X83213446Y-30108292D01*
X83248005Y-30089820D01*
X83285501Y-30078445D01*
X83330638Y-30074000D01*
X83969362Y-30074000D01*
X84014499Y-30078445D01*
G37*
G36*
X43134239Y-20311467D02*
G01*
X43448282Y-20373934D01*
X44039926Y-20619001D01*
X44466477Y-20904014D01*
X44572391Y-20974783D01*
X45025217Y-21427609D01*
X45095986Y-21533523D01*
X45380999Y-21960074D01*
X45626066Y-22551718D01*
X45626066Y-22551719D01*
X45726863Y-23058456D01*
X45751000Y-23179804D01*
X45751000Y-23820196D01*
X45626066Y-24448282D01*
X45380999Y-25039926D01*
X45025216Y-25572392D01*
X44572392Y-26025216D01*
X44039926Y-26380999D01*
X43448282Y-26626066D01*
X43134239Y-26688533D01*
X42820197Y-26751000D01*
X42179803Y-26751000D01*
X41865761Y-26688533D01*
X41551718Y-26626066D01*
X40960074Y-26380999D01*
X40427608Y-26025216D01*
X39974784Y-25572392D01*
X39619001Y-25039926D01*
X39373934Y-24448282D01*
X39249000Y-23820196D01*
X39249000Y-23179804D01*
X39273138Y-23058456D01*
X39373934Y-22551719D01*
X39373934Y-22551718D01*
X39619001Y-21960074D01*
X39904014Y-21533523D01*
X39974783Y-21427609D01*
X40427609Y-20974783D01*
X40533523Y-20904014D01*
X40960074Y-20619001D01*
X41551718Y-20373934D01*
X41865761Y-20311467D01*
X42179803Y-20249000D01*
X42820197Y-20249000D01*
X43134239Y-20311467D01*
G37*
G36*
X101134239Y-20311467D02*
G01*
X101448282Y-20373934D01*
X102039926Y-20619001D01*
X102466477Y-20904014D01*
X102572391Y-20974783D01*
X103025217Y-21427609D01*
X103095986Y-21533523D01*
X103380999Y-21960074D01*
X103626066Y-22551718D01*
X103626066Y-22551719D01*
X103726863Y-23058456D01*
X103751000Y-23179804D01*
X103751000Y-23820196D01*
X103626066Y-24448282D01*
X103380999Y-25039926D01*
X103025216Y-25572392D01*
X102572392Y-26025216D01*
X102039926Y-26380999D01*
X101448282Y-26626066D01*
X101134239Y-26688533D01*
X100820197Y-26751000D01*
X100179803Y-26751000D01*
X99865761Y-26688533D01*
X99551718Y-26626066D01*
X98960074Y-26380999D01*
X98427608Y-26025216D01*
X97974784Y-25572392D01*
X97619001Y-25039926D01*
X97373934Y-24448282D01*
X97249000Y-23820196D01*
X97249000Y-23179804D01*
X97273138Y-23058456D01*
X97373934Y-22551719D01*
X97373934Y-22551718D01*
X97619001Y-21960074D01*
X97904014Y-21533523D01*
X97974783Y-21427609D01*
X98427609Y-20974783D01*
X98533523Y-20904014D01*
X98960074Y-20619001D01*
X99551718Y-20373934D01*
X99865761Y-20311467D01*
X100179803Y-20249000D01*
X100820197Y-20249000D01*
X101134239Y-20311467D01*
G37*
G36*
X93233512Y-23903927D02*
G01*
X93382812Y-23933624D01*
X93546784Y-24001544D01*
X93694354Y-24100147D01*
X93819853Y-24225646D01*
X93918456Y-24373216D01*
X93986376Y-24537188D01*
X94021000Y-24711259D01*
X94021000Y-24888741D01*
X93986376Y-25062812D01*
X93918456Y-25226784D01*
X93819853Y-25374354D01*
X93694354Y-25499853D01*
X93546784Y-25598456D01*
X93382812Y-25666376D01*
X93233512Y-25696073D01*
X93208742Y-25701000D01*
X93031258Y-25701000D01*
X93006488Y-25696073D01*
X92857188Y-25666376D01*
X92693216Y-25598456D01*
X92545646Y-25499853D01*
X92420147Y-25374354D01*
X92321544Y-25226784D01*
X92253624Y-25062812D01*
X92219000Y-24888741D01*
X92219000Y-24711259D01*
X92253624Y-24537188D01*
X92321544Y-24373216D01*
X92420147Y-24225646D01*
X92545646Y-24100147D01*
X92693216Y-24001544D01*
X92857188Y-23933624D01*
X93006488Y-23903927D01*
X93031258Y-23899000D01*
X93208742Y-23899000D01*
X93233512Y-23903927D01*
G37*
G36*
X62753512Y-23903927D02*
G01*
X62902812Y-23933624D01*
X63066784Y-24001544D01*
X63214354Y-24100147D01*
X63339853Y-24225646D01*
X63438456Y-24373216D01*
X63506376Y-24537188D01*
X63541000Y-24711259D01*
X63541000Y-24888741D01*
X63506376Y-25062812D01*
X63438456Y-25226784D01*
X63339853Y-25374354D01*
X63214354Y-25499853D01*
X63066784Y-25598456D01*
X62902812Y-25666376D01*
X62753512Y-25696073D01*
X62728742Y-25701000D01*
X62551258Y-25701000D01*
X62526488Y-25696073D01*
X62377188Y-25666376D01*
X62213216Y-25598456D01*
X62065646Y-25499853D01*
X61940147Y-25374354D01*
X61841544Y-25226784D01*
X61773624Y-25062812D01*
X61739000Y-24888741D01*
X61739000Y-24711259D01*
X61773624Y-24537188D01*
X61841544Y-24373216D01*
X61940147Y-24225646D01*
X62065646Y-24100147D01*
X62213216Y-24001544D01*
X62377188Y-23933624D01*
X62526488Y-23903927D01*
X62551258Y-23899000D01*
X62728742Y-23899000D01*
X62753512Y-23903927D01*
G37*
G36*
X95773512Y-23903927D02*
G01*
X95922812Y-23933624D01*
X96086784Y-24001544D01*
X96234354Y-24100147D01*
X96359853Y-24225646D01*
X96458456Y-24373216D01*
X96526376Y-24537188D01*
X96561000Y-24711259D01*
X96561000Y-24888741D01*
X96526376Y-25062812D01*
X96458456Y-25226784D01*
X96359853Y-25374354D01*
X96234354Y-25499853D01*
X96086784Y-25598456D01*
X95922812Y-25666376D01*
X95773512Y-25696073D01*
X95748742Y-25701000D01*
X95571258Y-25701000D01*
X95546488Y-25696073D01*
X95397188Y-25666376D01*
X95233216Y-25598456D01*
X95085646Y-25499853D01*
X94960147Y-25374354D01*
X94861544Y-25226784D01*
X94793624Y-25062812D01*
X94759000Y-24888741D01*
X94759000Y-24711259D01*
X94793624Y-24537188D01*
X94861544Y-24373216D01*
X94960147Y-24225646D01*
X95085646Y-24100147D01*
X95233216Y-24001544D01*
X95397188Y-23933624D01*
X95546488Y-23903927D01*
X95571258Y-23899000D01*
X95748742Y-23899000D01*
X95773512Y-23903927D01*
G37*
G36*
X75453512Y-23903927D02*
G01*
X75602812Y-23933624D01*
X75766784Y-24001544D01*
X75914354Y-24100147D01*
X76039853Y-24225646D01*
X76138456Y-24373216D01*
X76206376Y-24537188D01*
X76241000Y-24711259D01*
X76241000Y-24888741D01*
X76206376Y-25062812D01*
X76138456Y-25226784D01*
X76039853Y-25374354D01*
X75914354Y-25499853D01*
X75766784Y-25598456D01*
X75602812Y-25666376D01*
X75453512Y-25696073D01*
X75428742Y-25701000D01*
X75251258Y-25701000D01*
X75226488Y-25696073D01*
X75077188Y-25666376D01*
X74913216Y-25598456D01*
X74765646Y-25499853D01*
X74640147Y-25374354D01*
X74541544Y-25226784D01*
X74473624Y-25062812D01*
X74439000Y-24888741D01*
X74439000Y-24711259D01*
X74473624Y-24537188D01*
X74541544Y-24373216D01*
X74640147Y-24225646D01*
X74765646Y-24100147D01*
X74913216Y-24001544D01*
X75077188Y-23933624D01*
X75226488Y-23903927D01*
X75251258Y-23899000D01*
X75428742Y-23899000D01*
X75453512Y-23903927D01*
G37*
G36*
X70373512Y-23903927D02*
G01*
X70522812Y-23933624D01*
X70686784Y-24001544D01*
X70834354Y-24100147D01*
X70959853Y-24225646D01*
X71058456Y-24373216D01*
X71126376Y-24537188D01*
X71161000Y-24711259D01*
X71161000Y-24888741D01*
X71126376Y-25062812D01*
X71058456Y-25226784D01*
X70959853Y-25374354D01*
X70834354Y-25499853D01*
X70686784Y-25598456D01*
X70522812Y-25666376D01*
X70373512Y-25696073D01*
X70348742Y-25701000D01*
X70171258Y-25701000D01*
X70146488Y-25696073D01*
X69997188Y-25666376D01*
X69833216Y-25598456D01*
X69685646Y-25499853D01*
X69560147Y-25374354D01*
X69461544Y-25226784D01*
X69393624Y-25062812D01*
X69359000Y-24888741D01*
X69359000Y-24711259D01*
X69393624Y-24537188D01*
X69461544Y-24373216D01*
X69560147Y-24225646D01*
X69685646Y-24100147D01*
X69833216Y-24001544D01*
X69997188Y-23933624D01*
X70146488Y-23903927D01*
X70171258Y-23899000D01*
X70348742Y-23899000D01*
X70373512Y-23903927D01*
G37*
G36*
X67833512Y-23903927D02*
G01*
X67982812Y-23933624D01*
X68146784Y-24001544D01*
X68294354Y-24100147D01*
X68419853Y-24225646D01*
X68518456Y-24373216D01*
X68586376Y-24537188D01*
X68621000Y-24711259D01*
X68621000Y-24888741D01*
X68586376Y-25062812D01*
X68518456Y-25226784D01*
X68419853Y-25374354D01*
X68294354Y-25499853D01*
X68146784Y-25598456D01*
X67982812Y-25666376D01*
X67833512Y-25696073D01*
X67808742Y-25701000D01*
X67631258Y-25701000D01*
X67606488Y-25696073D01*
X67457188Y-25666376D01*
X67293216Y-25598456D01*
X67145646Y-25499853D01*
X67020147Y-25374354D01*
X66921544Y-25226784D01*
X66853624Y-25062812D01*
X66819000Y-24888741D01*
X66819000Y-24711259D01*
X66853624Y-24537188D01*
X66921544Y-24373216D01*
X67020147Y-24225646D01*
X67145646Y-24100147D01*
X67293216Y-24001544D01*
X67457188Y-23933624D01*
X67606488Y-23903927D01*
X67631258Y-23899000D01*
X67808742Y-23899000D01*
X67833512Y-23903927D01*
G37*
G36*
X65293512Y-23903927D02*
G01*
X65442812Y-23933624D01*
X65606784Y-24001544D01*
X65754354Y-24100147D01*
X65879853Y-24225646D01*
X65978456Y-24373216D01*
X66046376Y-24537188D01*
X66081000Y-24711259D01*
X66081000Y-24888741D01*
X66046376Y-25062812D01*
X65978456Y-25226784D01*
X65879853Y-25374354D01*
X65754354Y-25499853D01*
X65606784Y-25598456D01*
X65442812Y-25666376D01*
X65293512Y-25696073D01*
X65268742Y-25701000D01*
X65091258Y-25701000D01*
X65066488Y-25696073D01*
X64917188Y-25666376D01*
X64753216Y-25598456D01*
X64605646Y-25499853D01*
X64480147Y-25374354D01*
X64381544Y-25226784D01*
X64313624Y-25062812D01*
X64279000Y-24888741D01*
X64279000Y-24711259D01*
X64313624Y-24537188D01*
X64381544Y-24373216D01*
X64480147Y-24225646D01*
X64605646Y-24100147D01*
X64753216Y-24001544D01*
X64917188Y-23933624D01*
X65066488Y-23903927D01*
X65091258Y-23899000D01*
X65268742Y-23899000D01*
X65293512Y-23903927D01*
G37*
G36*
X60213512Y-23903927D02*
G01*
X60362812Y-23933624D01*
X60526784Y-24001544D01*
X60674354Y-24100147D01*
X60799853Y-24225646D01*
X60898456Y-24373216D01*
X60966376Y-24537188D01*
X61001000Y-24711259D01*
X61001000Y-24888741D01*
X60966376Y-25062812D01*
X60898456Y-25226784D01*
X60799853Y-25374354D01*
X60674354Y-25499853D01*
X60526784Y-25598456D01*
X60362812Y-25666376D01*
X60213512Y-25696073D01*
X60188742Y-25701000D01*
X60011258Y-25701000D01*
X59986488Y-25696073D01*
X59837188Y-25666376D01*
X59673216Y-25598456D01*
X59525646Y-25499853D01*
X59400147Y-25374354D01*
X59301544Y-25226784D01*
X59233624Y-25062812D01*
X59199000Y-24888741D01*
X59199000Y-24711259D01*
X59233624Y-24537188D01*
X59301544Y-24373216D01*
X59400147Y-24225646D01*
X59525646Y-24100147D01*
X59673216Y-24001544D01*
X59837188Y-23933624D01*
X59986488Y-23903927D01*
X60011258Y-23899000D01*
X60188742Y-23899000D01*
X60213512Y-23903927D01*
G37*
G36*
X57673512Y-23903927D02*
G01*
X57822812Y-23933624D01*
X57986784Y-24001544D01*
X58134354Y-24100147D01*
X58259853Y-24225646D01*
X58358456Y-24373216D01*
X58426376Y-24537188D01*
X58461000Y-24711259D01*
X58461000Y-24888741D01*
X58426376Y-25062812D01*
X58358456Y-25226784D01*
X58259853Y-25374354D01*
X58134354Y-25499853D01*
X57986784Y-25598456D01*
X57822812Y-25666376D01*
X57673512Y-25696073D01*
X57648742Y-25701000D01*
X57471258Y-25701000D01*
X57446488Y-25696073D01*
X57297188Y-25666376D01*
X57133216Y-25598456D01*
X56985646Y-25499853D01*
X56860147Y-25374354D01*
X56761544Y-25226784D01*
X56693624Y-25062812D01*
X56659000Y-24888741D01*
X56659000Y-24711259D01*
X56693624Y-24537188D01*
X56761544Y-24373216D01*
X56860147Y-24225646D01*
X56985646Y-24100147D01*
X57133216Y-24001544D01*
X57297188Y-23933624D01*
X57446488Y-23903927D01*
X57471258Y-23899000D01*
X57648742Y-23899000D01*
X57673512Y-23903927D01*
G37*
G36*
X55133512Y-23903927D02*
G01*
X55282812Y-23933624D01*
X55446784Y-24001544D01*
X55594354Y-24100147D01*
X55719853Y-24225646D01*
X55818456Y-24373216D01*
X55886376Y-24537188D01*
X55921000Y-24711259D01*
X55921000Y-24888741D01*
X55886376Y-25062812D01*
X55818456Y-25226784D01*
X55719853Y-25374354D01*
X55594354Y-25499853D01*
X55446784Y-25598456D01*
X55282812Y-25666376D01*
X55133512Y-25696073D01*
X55108742Y-25701000D01*
X54931258Y-25701000D01*
X54906488Y-25696073D01*
X54757188Y-25666376D01*
X54593216Y-25598456D01*
X54445646Y-25499853D01*
X54320147Y-25374354D01*
X54221544Y-25226784D01*
X54153624Y-25062812D01*
X54119000Y-24888741D01*
X54119000Y-24711259D01*
X54153624Y-24537188D01*
X54221544Y-24373216D01*
X54320147Y-24225646D01*
X54445646Y-24100147D01*
X54593216Y-24001544D01*
X54757188Y-23933624D01*
X54906488Y-23903927D01*
X54931258Y-23899000D01*
X55108742Y-23899000D01*
X55133512Y-23903927D01*
G37*
G36*
X88153512Y-23903927D02*
G01*
X88302812Y-23933624D01*
X88466784Y-24001544D01*
X88614354Y-24100147D01*
X88739853Y-24225646D01*
X88838456Y-24373216D01*
X88906376Y-24537188D01*
X88941000Y-24711259D01*
X88941000Y-24888741D01*
X88906376Y-25062812D01*
X88838456Y-25226784D01*
X88739853Y-25374354D01*
X88614354Y-25499853D01*
X88466784Y-25598456D01*
X88302812Y-25666376D01*
X88153512Y-25696073D01*
X88128742Y-25701000D01*
X87951258Y-25701000D01*
X87926488Y-25696073D01*
X87777188Y-25666376D01*
X87613216Y-25598456D01*
X87465646Y-25499853D01*
X87340147Y-25374354D01*
X87241544Y-25226784D01*
X87173624Y-25062812D01*
X87139000Y-24888741D01*
X87139000Y-24711259D01*
X87173624Y-24537188D01*
X87241544Y-24373216D01*
X87340147Y-24225646D01*
X87465646Y-24100147D01*
X87613216Y-24001544D01*
X87777188Y-23933624D01*
X87926488Y-23903927D01*
X87951258Y-23899000D01*
X88128742Y-23899000D01*
X88153512Y-23903927D01*
G37*
G36*
X90693512Y-23903927D02*
G01*
X90842812Y-23933624D01*
X91006784Y-24001544D01*
X91154354Y-24100147D01*
X91279853Y-24225646D01*
X91378456Y-24373216D01*
X91446376Y-24537188D01*
X91481000Y-24711259D01*
X91481000Y-24888741D01*
X91446376Y-25062812D01*
X91378456Y-25226784D01*
X91279853Y-25374354D01*
X91154354Y-25499853D01*
X91006784Y-25598456D01*
X90842812Y-25666376D01*
X90693512Y-25696073D01*
X90668742Y-25701000D01*
X90491258Y-25701000D01*
X90466488Y-25696073D01*
X90317188Y-25666376D01*
X90153216Y-25598456D01*
X90005646Y-25499853D01*
X89880147Y-25374354D01*
X89781544Y-25226784D01*
X89713624Y-25062812D01*
X89679000Y-24888741D01*
X89679000Y-24711259D01*
X89713624Y-24537188D01*
X89781544Y-24373216D01*
X89880147Y-24225646D01*
X90005646Y-24100147D01*
X90153216Y-24001544D01*
X90317188Y-23933624D01*
X90466488Y-23903927D01*
X90491258Y-23899000D01*
X90668742Y-23899000D01*
X90693512Y-23903927D01*
G37*
G36*
X50053512Y-23903927D02*
G01*
X50202812Y-23933624D01*
X50366784Y-24001544D01*
X50514354Y-24100147D01*
X50639853Y-24225646D01*
X50738456Y-24373216D01*
X50806376Y-24537188D01*
X50841000Y-24711259D01*
X50841000Y-24888741D01*
X50806376Y-25062812D01*
X50738456Y-25226784D01*
X50639853Y-25374354D01*
X50514354Y-25499853D01*
X50366784Y-25598456D01*
X50202812Y-25666376D01*
X50053512Y-25696073D01*
X50028742Y-25701000D01*
X49851258Y-25701000D01*
X49826488Y-25696073D01*
X49677188Y-25666376D01*
X49513216Y-25598456D01*
X49365646Y-25499853D01*
X49240147Y-25374354D01*
X49141544Y-25226784D01*
X49073624Y-25062812D01*
X49039000Y-24888741D01*
X49039000Y-24711259D01*
X49073624Y-24537188D01*
X49141544Y-24373216D01*
X49240147Y-24225646D01*
X49365646Y-24100147D01*
X49513216Y-24001544D01*
X49677188Y-23933624D01*
X49826488Y-23903927D01*
X49851258Y-23899000D01*
X50028742Y-23899000D01*
X50053512Y-23903927D01*
G37*
G36*
X48301000Y-25701000D02*
G01*
X46499000Y-25701000D01*
X46499000Y-23899000D01*
X48301000Y-23899000D01*
X48301000Y-25701000D01*
G37*
G36*
X52593512Y-23903927D02*
G01*
X52742812Y-23933624D01*
X52906784Y-24001544D01*
X53054354Y-24100147D01*
X53179853Y-24225646D01*
X53278456Y-24373216D01*
X53346376Y-24537188D01*
X53381000Y-24711259D01*
X53381000Y-24888741D01*
X53346376Y-25062812D01*
X53278456Y-25226784D01*
X53179853Y-25374354D01*
X53054354Y-25499853D01*
X52906784Y-25598456D01*
X52742812Y-25666376D01*
X52593512Y-25696073D01*
X52568742Y-25701000D01*
X52391258Y-25701000D01*
X52366488Y-25696073D01*
X52217188Y-25666376D01*
X52053216Y-25598456D01*
X51905646Y-25499853D01*
X51780147Y-25374354D01*
X51681544Y-25226784D01*
X51613624Y-25062812D01*
X51579000Y-24888741D01*
X51579000Y-24711259D01*
X51613624Y-24537188D01*
X51681544Y-24373216D01*
X51780147Y-24225646D01*
X51905646Y-24100147D01*
X52053216Y-24001544D01*
X52217188Y-23933624D01*
X52366488Y-23903927D01*
X52391258Y-23899000D01*
X52568742Y-23899000D01*
X52593512Y-23903927D01*
G37*
G36*
X77993512Y-23903927D02*
G01*
X78142812Y-23933624D01*
X78306784Y-24001544D01*
X78454354Y-24100147D01*
X78579853Y-24225646D01*
X78678456Y-24373216D01*
X78746376Y-24537188D01*
X78781000Y-24711259D01*
X78781000Y-24888741D01*
X78746376Y-25062812D01*
X78678456Y-25226784D01*
X78579853Y-25374354D01*
X78454354Y-25499853D01*
X78306784Y-25598456D01*
X78142812Y-25666376D01*
X77993512Y-25696073D01*
X77968742Y-25701000D01*
X77791258Y-25701000D01*
X77766488Y-25696073D01*
X77617188Y-25666376D01*
X77453216Y-25598456D01*
X77305646Y-25499853D01*
X77180147Y-25374354D01*
X77081544Y-25226784D01*
X77013624Y-25062812D01*
X76979000Y-24888741D01*
X76979000Y-24711259D01*
X77013624Y-24537188D01*
X77081544Y-24373216D01*
X77180147Y-24225646D01*
X77305646Y-24100147D01*
X77453216Y-24001544D01*
X77617188Y-23933624D01*
X77766488Y-23903927D01*
X77791258Y-23899000D01*
X77968742Y-23899000D01*
X77993512Y-23903927D01*
G37*
G36*
X72913512Y-23903927D02*
G01*
X73062812Y-23933624D01*
X73226784Y-24001544D01*
X73374354Y-24100147D01*
X73499853Y-24225646D01*
X73598456Y-24373216D01*
X73666376Y-24537188D01*
X73701000Y-24711259D01*
X73701000Y-24888741D01*
X73666376Y-25062812D01*
X73598456Y-25226784D01*
X73499853Y-25374354D01*
X73374354Y-25499853D01*
X73226784Y-25598456D01*
X73062812Y-25666376D01*
X72913512Y-25696073D01*
X72888742Y-25701000D01*
X72711258Y-25701000D01*
X72686488Y-25696073D01*
X72537188Y-25666376D01*
X72373216Y-25598456D01*
X72225646Y-25499853D01*
X72100147Y-25374354D01*
X72001544Y-25226784D01*
X71933624Y-25062812D01*
X71899000Y-24888741D01*
X71899000Y-24711259D01*
X71933624Y-24537188D01*
X72001544Y-24373216D01*
X72100147Y-24225646D01*
X72225646Y-24100147D01*
X72373216Y-24001544D01*
X72537188Y-23933624D01*
X72686488Y-23903927D01*
X72711258Y-23899000D01*
X72888742Y-23899000D01*
X72913512Y-23903927D01*
G37*
G36*
X80533512Y-23903927D02*
G01*
X80682812Y-23933624D01*
X80846784Y-24001544D01*
X80994354Y-24100147D01*
X81119853Y-24225646D01*
X81218456Y-24373216D01*
X81286376Y-24537188D01*
X81321000Y-24711259D01*
X81321000Y-24888741D01*
X81286376Y-25062812D01*
X81218456Y-25226784D01*
X81119853Y-25374354D01*
X80994354Y-25499853D01*
X80846784Y-25598456D01*
X80682812Y-25666376D01*
X80533512Y-25696073D01*
X80508742Y-25701000D01*
X80331258Y-25701000D01*
X80306488Y-25696073D01*
X80157188Y-25666376D01*
X79993216Y-25598456D01*
X79845646Y-25499853D01*
X79720147Y-25374354D01*
X79621544Y-25226784D01*
X79553624Y-25062812D01*
X79519000Y-24888741D01*
X79519000Y-24711259D01*
X79553624Y-24537188D01*
X79621544Y-24373216D01*
X79720147Y-24225646D01*
X79845646Y-24100147D01*
X79993216Y-24001544D01*
X80157188Y-23933624D01*
X80306488Y-23903927D01*
X80331258Y-23899000D01*
X80508742Y-23899000D01*
X80533512Y-23903927D01*
G37*
G36*
X83073512Y-23903927D02*
G01*
X83222812Y-23933624D01*
X83386784Y-24001544D01*
X83534354Y-24100147D01*
X83659853Y-24225646D01*
X83758456Y-24373216D01*
X83826376Y-24537188D01*
X83861000Y-24711259D01*
X83861000Y-24888741D01*
X83826376Y-25062812D01*
X83758456Y-25226784D01*
X83659853Y-25374354D01*
X83534354Y-25499853D01*
X83386784Y-25598456D01*
X83222812Y-25666376D01*
X83073512Y-25696073D01*
X83048742Y-25701000D01*
X82871258Y-25701000D01*
X82846488Y-25696073D01*
X82697188Y-25666376D01*
X82533216Y-25598456D01*
X82385646Y-25499853D01*
X82260147Y-25374354D01*
X82161544Y-25226784D01*
X82093624Y-25062812D01*
X82059000Y-24888741D01*
X82059000Y-24711259D01*
X82093624Y-24537188D01*
X82161544Y-24373216D01*
X82260147Y-24225646D01*
X82385646Y-24100147D01*
X82533216Y-24001544D01*
X82697188Y-23933624D01*
X82846488Y-23903927D01*
X82871258Y-23899000D01*
X83048742Y-23899000D01*
X83073512Y-23903927D01*
G37*
G36*
X85613512Y-23903927D02*
G01*
X85762812Y-23933624D01*
X85926784Y-24001544D01*
X86074354Y-24100147D01*
X86199853Y-24225646D01*
X86298456Y-24373216D01*
X86366376Y-24537188D01*
X86401000Y-24711259D01*
X86401000Y-24888741D01*
X86366376Y-25062812D01*
X86298456Y-25226784D01*
X86199853Y-25374354D01*
X86074354Y-25499853D01*
X85926784Y-25598456D01*
X85762812Y-25666376D01*
X85613512Y-25696073D01*
X85588742Y-25701000D01*
X85411258Y-25701000D01*
X85386488Y-25696073D01*
X85237188Y-25666376D01*
X85073216Y-25598456D01*
X84925646Y-25499853D01*
X84800147Y-25374354D01*
X84701544Y-25226784D01*
X84633624Y-25062812D01*
X84599000Y-24888741D01*
X84599000Y-24711259D01*
X84633624Y-24537188D01*
X84701544Y-24373216D01*
X84800147Y-24225646D01*
X84925646Y-24100147D01*
X85073216Y-24001544D01*
X85237188Y-23933624D01*
X85386488Y-23903927D01*
X85411258Y-23899000D01*
X85588742Y-23899000D01*
X85613512Y-23903927D01*
G37*
G36*
X72913512Y-21363927D02*
G01*
X73062812Y-21393624D01*
X73226784Y-21461544D01*
X73374354Y-21560147D01*
X73499853Y-21685646D01*
X73598456Y-21833216D01*
X73666376Y-21997188D01*
X73701000Y-22171259D01*
X73701000Y-22348741D01*
X73666376Y-22522812D01*
X73598456Y-22686784D01*
X73499853Y-22834354D01*
X73374354Y-22959853D01*
X73226784Y-23058456D01*
X73062812Y-23126376D01*
X72913512Y-23156073D01*
X72888742Y-23161000D01*
X72711258Y-23161000D01*
X72686488Y-23156073D01*
X72537188Y-23126376D01*
X72373216Y-23058456D01*
X72225646Y-22959853D01*
X72100147Y-22834354D01*
X72001544Y-22686784D01*
X71933624Y-22522812D01*
X71899000Y-22348741D01*
X71899000Y-22171259D01*
X71933624Y-21997188D01*
X72001544Y-21833216D01*
X72100147Y-21685646D01*
X72225646Y-21560147D01*
X72373216Y-21461544D01*
X72537188Y-21393624D01*
X72686488Y-21363927D01*
X72711258Y-21359000D01*
X72888742Y-21359000D01*
X72913512Y-21363927D01*
G37*
G36*
X47513512Y-21363927D02*
G01*
X47662812Y-21393624D01*
X47826784Y-21461544D01*
X47974354Y-21560147D01*
X48099853Y-21685646D01*
X48198456Y-21833216D01*
X48266376Y-21997188D01*
X48301000Y-22171259D01*
X48301000Y-22348741D01*
X48266376Y-22522812D01*
X48198456Y-22686784D01*
X48099853Y-22834354D01*
X47974354Y-22959853D01*
X47826784Y-23058456D01*
X47662812Y-23126376D01*
X47513512Y-23156073D01*
X47488742Y-23161000D01*
X47311258Y-23161000D01*
X47286488Y-23156073D01*
X47137188Y-23126376D01*
X46973216Y-23058456D01*
X46825646Y-22959853D01*
X46700147Y-22834354D01*
X46601544Y-22686784D01*
X46533624Y-22522812D01*
X46499000Y-22348741D01*
X46499000Y-22171259D01*
X46533624Y-21997188D01*
X46601544Y-21833216D01*
X46700147Y-21685646D01*
X46825646Y-21560147D01*
X46973216Y-21461544D01*
X47137188Y-21393624D01*
X47286488Y-21363927D01*
X47311258Y-21359000D01*
X47488742Y-21359000D01*
X47513512Y-21363927D01*
G37*
G36*
X50053512Y-21363927D02*
G01*
X50202812Y-21393624D01*
X50366784Y-21461544D01*
X50514354Y-21560147D01*
X50639853Y-21685646D01*
X50738456Y-21833216D01*
X50806376Y-21997188D01*
X50841000Y-22171259D01*
X50841000Y-22348741D01*
X50806376Y-22522812D01*
X50738456Y-22686784D01*
X50639853Y-22834354D01*
X50514354Y-22959853D01*
X50366784Y-23058456D01*
X50202812Y-23126376D01*
X50053512Y-23156073D01*
X50028742Y-23161000D01*
X49851258Y-23161000D01*
X49826488Y-23156073D01*
X49677188Y-23126376D01*
X49513216Y-23058456D01*
X49365646Y-22959853D01*
X49240147Y-22834354D01*
X49141544Y-22686784D01*
X49073624Y-22522812D01*
X49039000Y-22348741D01*
X49039000Y-22171259D01*
X49073624Y-21997188D01*
X49141544Y-21833216D01*
X49240147Y-21685646D01*
X49365646Y-21560147D01*
X49513216Y-21461544D01*
X49677188Y-21393624D01*
X49826488Y-21363927D01*
X49851258Y-21359000D01*
X50028742Y-21359000D01*
X50053512Y-21363927D01*
G37*
G36*
X95773512Y-21363927D02*
G01*
X95922812Y-21393624D01*
X96086784Y-21461544D01*
X96234354Y-21560147D01*
X96359853Y-21685646D01*
X96458456Y-21833216D01*
X96526376Y-21997188D01*
X96561000Y-22171259D01*
X96561000Y-22348741D01*
X96526376Y-22522812D01*
X96458456Y-22686784D01*
X96359853Y-22834354D01*
X96234354Y-22959853D01*
X96086784Y-23058456D01*
X95922812Y-23126376D01*
X95773512Y-23156073D01*
X95748742Y-23161000D01*
X95571258Y-23161000D01*
X95546488Y-23156073D01*
X95397188Y-23126376D01*
X95233216Y-23058456D01*
X95085646Y-22959853D01*
X94960147Y-22834354D01*
X94861544Y-22686784D01*
X94793624Y-22522812D01*
X94759000Y-22348741D01*
X94759000Y-22171259D01*
X94793624Y-21997188D01*
X94861544Y-21833216D01*
X94960147Y-21685646D01*
X95085646Y-21560147D01*
X95233216Y-21461544D01*
X95397188Y-21393624D01*
X95546488Y-21363927D01*
X95571258Y-21359000D01*
X95748742Y-21359000D01*
X95773512Y-21363927D01*
G37*
G36*
X52593512Y-21363927D02*
G01*
X52742812Y-21393624D01*
X52906784Y-21461544D01*
X53054354Y-21560147D01*
X53179853Y-21685646D01*
X53278456Y-21833216D01*
X53346376Y-21997188D01*
X53381000Y-22171259D01*
X53381000Y-22348741D01*
X53346376Y-22522812D01*
X53278456Y-22686784D01*
X53179853Y-22834354D01*
X53054354Y-22959853D01*
X52906784Y-23058456D01*
X52742812Y-23126376D01*
X52593512Y-23156073D01*
X52568742Y-23161000D01*
X52391258Y-23161000D01*
X52366488Y-23156073D01*
X52217188Y-23126376D01*
X52053216Y-23058456D01*
X51905646Y-22959853D01*
X51780147Y-22834354D01*
X51681544Y-22686784D01*
X51613624Y-22522812D01*
X51579000Y-22348741D01*
X51579000Y-22171259D01*
X51613624Y-21997188D01*
X51681544Y-21833216D01*
X51780147Y-21685646D01*
X51905646Y-21560147D01*
X52053216Y-21461544D01*
X52217188Y-21393624D01*
X52366488Y-21363927D01*
X52391258Y-21359000D01*
X52568742Y-21359000D01*
X52593512Y-21363927D01*
G37*
G36*
X93233512Y-21363927D02*
G01*
X93382812Y-21393624D01*
X93546784Y-21461544D01*
X93694354Y-21560147D01*
X93819853Y-21685646D01*
X93918456Y-21833216D01*
X93986376Y-21997188D01*
X94021000Y-22171259D01*
X94021000Y-22348741D01*
X93986376Y-22522812D01*
X93918456Y-22686784D01*
X93819853Y-22834354D01*
X93694354Y-22959853D01*
X93546784Y-23058456D01*
X93382812Y-23126376D01*
X93233512Y-23156073D01*
X93208742Y-23161000D01*
X93031258Y-23161000D01*
X93006488Y-23156073D01*
X92857188Y-23126376D01*
X92693216Y-23058456D01*
X92545646Y-22959853D01*
X92420147Y-22834354D01*
X92321544Y-22686784D01*
X92253624Y-22522812D01*
X92219000Y-22348741D01*
X92219000Y-22171259D01*
X92253624Y-21997188D01*
X92321544Y-21833216D01*
X92420147Y-21685646D01*
X92545646Y-21560147D01*
X92693216Y-21461544D01*
X92857188Y-21393624D01*
X93006488Y-21363927D01*
X93031258Y-21359000D01*
X93208742Y-21359000D01*
X93233512Y-21363927D01*
G37*
G36*
X55133512Y-21363927D02*
G01*
X55282812Y-21393624D01*
X55446784Y-21461544D01*
X55594354Y-21560147D01*
X55719853Y-21685646D01*
X55818456Y-21833216D01*
X55886376Y-21997188D01*
X55921000Y-22171259D01*
X55921000Y-22348741D01*
X55886376Y-22522812D01*
X55818456Y-22686784D01*
X55719853Y-22834354D01*
X55594354Y-22959853D01*
X55446784Y-23058456D01*
X55282812Y-23126376D01*
X55133512Y-23156073D01*
X55108742Y-23161000D01*
X54931258Y-23161000D01*
X54906488Y-23156073D01*
X54757188Y-23126376D01*
X54593216Y-23058456D01*
X54445646Y-22959853D01*
X54320147Y-22834354D01*
X54221544Y-22686784D01*
X54153624Y-22522812D01*
X54119000Y-22348741D01*
X54119000Y-22171259D01*
X54153624Y-21997188D01*
X54221544Y-21833216D01*
X54320147Y-21685646D01*
X54445646Y-21560147D01*
X54593216Y-21461544D01*
X54757188Y-21393624D01*
X54906488Y-21363927D01*
X54931258Y-21359000D01*
X55108742Y-21359000D01*
X55133512Y-21363927D01*
G37*
G36*
X90693512Y-21363927D02*
G01*
X90842812Y-21393624D01*
X91006784Y-21461544D01*
X91154354Y-21560147D01*
X91279853Y-21685646D01*
X91378456Y-21833216D01*
X91446376Y-21997188D01*
X91481000Y-22171259D01*
X91481000Y-22348741D01*
X91446376Y-22522812D01*
X91378456Y-22686784D01*
X91279853Y-22834354D01*
X91154354Y-22959853D01*
X91006784Y-23058456D01*
X90842812Y-23126376D01*
X90693512Y-23156073D01*
X90668742Y-23161000D01*
X90491258Y-23161000D01*
X90466488Y-23156073D01*
X90317188Y-23126376D01*
X90153216Y-23058456D01*
X90005646Y-22959853D01*
X89880147Y-22834354D01*
X89781544Y-22686784D01*
X89713624Y-22522812D01*
X89679000Y-22348741D01*
X89679000Y-22171259D01*
X89713624Y-21997188D01*
X89781544Y-21833216D01*
X89880147Y-21685646D01*
X90005646Y-21560147D01*
X90153216Y-21461544D01*
X90317188Y-21393624D01*
X90466488Y-21363927D01*
X90491258Y-21359000D01*
X90668742Y-21359000D01*
X90693512Y-21363927D01*
G37*
G36*
X57673512Y-21363927D02*
G01*
X57822812Y-21393624D01*
X57986784Y-21461544D01*
X58134354Y-21560147D01*
X58259853Y-21685646D01*
X58358456Y-21833216D01*
X58426376Y-21997188D01*
X58461000Y-22171259D01*
X58461000Y-22348741D01*
X58426376Y-22522812D01*
X58358456Y-22686784D01*
X58259853Y-22834354D01*
X58134354Y-22959853D01*
X57986784Y-23058456D01*
X57822812Y-23126376D01*
X57673512Y-23156073D01*
X57648742Y-23161000D01*
X57471258Y-23161000D01*
X57446488Y-23156073D01*
X57297188Y-23126376D01*
X57133216Y-23058456D01*
X56985646Y-22959853D01*
X56860147Y-22834354D01*
X56761544Y-22686784D01*
X56693624Y-22522812D01*
X56659000Y-22348741D01*
X56659000Y-22171259D01*
X56693624Y-21997188D01*
X56761544Y-21833216D01*
X56860147Y-21685646D01*
X56985646Y-21560147D01*
X57133216Y-21461544D01*
X57297188Y-21393624D01*
X57446488Y-21363927D01*
X57471258Y-21359000D01*
X57648742Y-21359000D01*
X57673512Y-21363927D01*
G37*
G36*
X88153512Y-21363927D02*
G01*
X88302812Y-21393624D01*
X88466784Y-21461544D01*
X88614354Y-21560147D01*
X88739853Y-21685646D01*
X88838456Y-21833216D01*
X88906376Y-21997188D01*
X88941000Y-22171259D01*
X88941000Y-22348741D01*
X88906376Y-22522812D01*
X88838456Y-22686784D01*
X88739853Y-22834354D01*
X88614354Y-22959853D01*
X88466784Y-23058456D01*
X88302812Y-23126376D01*
X88153512Y-23156073D01*
X88128742Y-23161000D01*
X87951258Y-23161000D01*
X87926488Y-23156073D01*
X87777188Y-23126376D01*
X87613216Y-23058456D01*
X87465646Y-22959853D01*
X87340147Y-22834354D01*
X87241544Y-22686784D01*
X87173624Y-22522812D01*
X87139000Y-22348741D01*
X87139000Y-22171259D01*
X87173624Y-21997188D01*
X87241544Y-21833216D01*
X87340147Y-21685646D01*
X87465646Y-21560147D01*
X87613216Y-21461544D01*
X87777188Y-21393624D01*
X87926488Y-21363927D01*
X87951258Y-21359000D01*
X88128742Y-21359000D01*
X88153512Y-21363927D01*
G37*
G36*
X60213512Y-21363927D02*
G01*
X60362812Y-21393624D01*
X60526784Y-21461544D01*
X60674354Y-21560147D01*
X60799853Y-21685646D01*
X60898456Y-21833216D01*
X60966376Y-21997188D01*
X61001000Y-22171259D01*
X61001000Y-22348741D01*
X60966376Y-22522812D01*
X60898456Y-22686784D01*
X60799853Y-22834354D01*
X60674354Y-22959853D01*
X60526784Y-23058456D01*
X60362812Y-23126376D01*
X60213512Y-23156073D01*
X60188742Y-23161000D01*
X60011258Y-23161000D01*
X59986488Y-23156073D01*
X59837188Y-23126376D01*
X59673216Y-23058456D01*
X59525646Y-22959853D01*
X59400147Y-22834354D01*
X59301544Y-22686784D01*
X59233624Y-22522812D01*
X59199000Y-22348741D01*
X59199000Y-22171259D01*
X59233624Y-21997188D01*
X59301544Y-21833216D01*
X59400147Y-21685646D01*
X59525646Y-21560147D01*
X59673216Y-21461544D01*
X59837188Y-21393624D01*
X59986488Y-21363927D01*
X60011258Y-21359000D01*
X60188742Y-21359000D01*
X60213512Y-21363927D01*
G37*
G36*
X85613512Y-21363927D02*
G01*
X85762812Y-21393624D01*
X85926784Y-21461544D01*
X86074354Y-21560147D01*
X86199853Y-21685646D01*
X86298456Y-21833216D01*
X86366376Y-21997188D01*
X86401000Y-22171259D01*
X86401000Y-22348741D01*
X86366376Y-22522812D01*
X86298456Y-22686784D01*
X86199853Y-22834354D01*
X86074354Y-22959853D01*
X85926784Y-23058456D01*
X85762812Y-23126376D01*
X85613512Y-23156073D01*
X85588742Y-23161000D01*
X85411258Y-23161000D01*
X85386488Y-23156073D01*
X85237188Y-23126376D01*
X85073216Y-23058456D01*
X84925646Y-22959853D01*
X84800147Y-22834354D01*
X84701544Y-22686784D01*
X84633624Y-22522812D01*
X84599000Y-22348741D01*
X84599000Y-22171259D01*
X84633624Y-21997188D01*
X84701544Y-21833216D01*
X84800147Y-21685646D01*
X84925646Y-21560147D01*
X85073216Y-21461544D01*
X85237188Y-21393624D01*
X85386488Y-21363927D01*
X85411258Y-21359000D01*
X85588742Y-21359000D01*
X85613512Y-21363927D01*
G37*
G36*
X62753512Y-21363927D02*
G01*
X62902812Y-21393624D01*
X63066784Y-21461544D01*
X63214354Y-21560147D01*
X63339853Y-21685646D01*
X63438456Y-21833216D01*
X63506376Y-21997188D01*
X63541000Y-22171259D01*
X63541000Y-22348741D01*
X63506376Y-22522812D01*
X63438456Y-22686784D01*
X63339853Y-22834354D01*
X63214354Y-22959853D01*
X63066784Y-23058456D01*
X62902812Y-23126376D01*
X62753512Y-23156073D01*
X62728742Y-23161000D01*
X62551258Y-23161000D01*
X62526488Y-23156073D01*
X62377188Y-23126376D01*
X62213216Y-23058456D01*
X62065646Y-22959853D01*
X61940147Y-22834354D01*
X61841544Y-22686784D01*
X61773624Y-22522812D01*
X61739000Y-22348741D01*
X61739000Y-22171259D01*
X61773624Y-21997188D01*
X61841544Y-21833216D01*
X61940147Y-21685646D01*
X62065646Y-21560147D01*
X62213216Y-21461544D01*
X62377188Y-21393624D01*
X62526488Y-21363927D01*
X62551258Y-21359000D01*
X62728742Y-21359000D01*
X62753512Y-21363927D01*
G37*
G36*
X83073512Y-21363927D02*
G01*
X83222812Y-21393624D01*
X83386784Y-21461544D01*
X83534354Y-21560147D01*
X83659853Y-21685646D01*
X83758456Y-21833216D01*
X83826376Y-21997188D01*
X83861000Y-22171259D01*
X83861000Y-22348741D01*
X83826376Y-22522812D01*
X83758456Y-22686784D01*
X83659853Y-22834354D01*
X83534354Y-22959853D01*
X83386784Y-23058456D01*
X83222812Y-23126376D01*
X83073512Y-23156073D01*
X83048742Y-23161000D01*
X82871258Y-23161000D01*
X82846488Y-23156073D01*
X82697188Y-23126376D01*
X82533216Y-23058456D01*
X82385646Y-22959853D01*
X82260147Y-22834354D01*
X82161544Y-22686784D01*
X82093624Y-22522812D01*
X82059000Y-22348741D01*
X82059000Y-22171259D01*
X82093624Y-21997188D01*
X82161544Y-21833216D01*
X82260147Y-21685646D01*
X82385646Y-21560147D01*
X82533216Y-21461544D01*
X82697188Y-21393624D01*
X82846488Y-21363927D01*
X82871258Y-21359000D01*
X83048742Y-21359000D01*
X83073512Y-21363927D01*
G37*
G36*
X65293512Y-21363927D02*
G01*
X65442812Y-21393624D01*
X65606784Y-21461544D01*
X65754354Y-21560147D01*
X65879853Y-21685646D01*
X65978456Y-21833216D01*
X66046376Y-21997188D01*
X66081000Y-22171259D01*
X66081000Y-22348741D01*
X66046376Y-22522812D01*
X65978456Y-22686784D01*
X65879853Y-22834354D01*
X65754354Y-22959853D01*
X65606784Y-23058456D01*
X65442812Y-23126376D01*
X65293512Y-23156073D01*
X65268742Y-23161000D01*
X65091258Y-23161000D01*
X65066488Y-23156073D01*
X64917188Y-23126376D01*
X64753216Y-23058456D01*
X64605646Y-22959853D01*
X64480147Y-22834354D01*
X64381544Y-22686784D01*
X64313624Y-22522812D01*
X64279000Y-22348741D01*
X64279000Y-22171259D01*
X64313624Y-21997188D01*
X64381544Y-21833216D01*
X64480147Y-21685646D01*
X64605646Y-21560147D01*
X64753216Y-21461544D01*
X64917188Y-21393624D01*
X65066488Y-21363927D01*
X65091258Y-21359000D01*
X65268742Y-21359000D01*
X65293512Y-21363927D01*
G37*
G36*
X80533512Y-21363927D02*
G01*
X80682812Y-21393624D01*
X80846784Y-21461544D01*
X80994354Y-21560147D01*
X81119853Y-21685646D01*
X81218456Y-21833216D01*
X81286376Y-21997188D01*
X81321000Y-22171259D01*
X81321000Y-22348741D01*
X81286376Y-22522812D01*
X81218456Y-22686784D01*
X81119853Y-22834354D01*
X80994354Y-22959853D01*
X80846784Y-23058456D01*
X80682812Y-23126376D01*
X80533512Y-23156073D01*
X80508742Y-23161000D01*
X80331258Y-23161000D01*
X80306488Y-23156073D01*
X80157188Y-23126376D01*
X79993216Y-23058456D01*
X79845646Y-22959853D01*
X79720147Y-22834354D01*
X79621544Y-22686784D01*
X79553624Y-22522812D01*
X79519000Y-22348741D01*
X79519000Y-22171259D01*
X79553624Y-21997188D01*
X79621544Y-21833216D01*
X79720147Y-21685646D01*
X79845646Y-21560147D01*
X79993216Y-21461544D01*
X80157188Y-21393624D01*
X80306488Y-21363927D01*
X80331258Y-21359000D01*
X80508742Y-21359000D01*
X80533512Y-21363927D01*
G37*
G36*
X67833512Y-21363927D02*
G01*
X67982812Y-21393624D01*
X68146784Y-21461544D01*
X68294354Y-21560147D01*
X68419853Y-21685646D01*
X68518456Y-21833216D01*
X68586376Y-21997188D01*
X68621000Y-22171259D01*
X68621000Y-22348741D01*
X68586376Y-22522812D01*
X68518456Y-22686784D01*
X68419853Y-22834354D01*
X68294354Y-22959853D01*
X68146784Y-23058456D01*
X67982812Y-23126376D01*
X67833512Y-23156073D01*
X67808742Y-23161000D01*
X67631258Y-23161000D01*
X67606488Y-23156073D01*
X67457188Y-23126376D01*
X67293216Y-23058456D01*
X67145646Y-22959853D01*
X67020147Y-22834354D01*
X66921544Y-22686784D01*
X66853624Y-22522812D01*
X66819000Y-22348741D01*
X66819000Y-22171259D01*
X66853624Y-21997188D01*
X66921544Y-21833216D01*
X67020147Y-21685646D01*
X67145646Y-21560147D01*
X67293216Y-21461544D01*
X67457188Y-21393624D01*
X67606488Y-21363927D01*
X67631258Y-21359000D01*
X67808742Y-21359000D01*
X67833512Y-21363927D01*
G37*
G36*
X77993512Y-21363927D02*
G01*
X78142812Y-21393624D01*
X78306784Y-21461544D01*
X78454354Y-21560147D01*
X78579853Y-21685646D01*
X78678456Y-21833216D01*
X78746376Y-21997188D01*
X78781000Y-22171259D01*
X78781000Y-22348741D01*
X78746376Y-22522812D01*
X78678456Y-22686784D01*
X78579853Y-22834354D01*
X78454354Y-22959853D01*
X78306784Y-23058456D01*
X78142812Y-23126376D01*
X77993512Y-23156073D01*
X77968742Y-23161000D01*
X77791258Y-23161000D01*
X77766488Y-23156073D01*
X77617188Y-23126376D01*
X77453216Y-23058456D01*
X77305646Y-22959853D01*
X77180147Y-22834354D01*
X77081544Y-22686784D01*
X77013624Y-22522812D01*
X76979000Y-22348741D01*
X76979000Y-22171259D01*
X77013624Y-21997188D01*
X77081544Y-21833216D01*
X77180147Y-21685646D01*
X77305646Y-21560147D01*
X77453216Y-21461544D01*
X77617188Y-21393624D01*
X77766488Y-21363927D01*
X77791258Y-21359000D01*
X77968742Y-21359000D01*
X77993512Y-21363927D01*
G37*
G36*
X75453512Y-21363927D02*
G01*
X75602812Y-21393624D01*
X75766784Y-21461544D01*
X75914354Y-21560147D01*
X76039853Y-21685646D01*
X76138456Y-21833216D01*
X76206376Y-21997188D01*
X76241000Y-22171259D01*
X76241000Y-22348741D01*
X76206376Y-22522812D01*
X76138456Y-22686784D01*
X76039853Y-22834354D01*
X75914354Y-22959853D01*
X75766784Y-23058456D01*
X75602812Y-23126376D01*
X75453512Y-23156073D01*
X75428742Y-23161000D01*
X75251258Y-23161000D01*
X75226488Y-23156073D01*
X75077188Y-23126376D01*
X74913216Y-23058456D01*
X74765646Y-22959853D01*
X74640147Y-22834354D01*
X74541544Y-22686784D01*
X74473624Y-22522812D01*
X74439000Y-22348741D01*
X74439000Y-22171259D01*
X74473624Y-21997188D01*
X74541544Y-21833216D01*
X74640147Y-21685646D01*
X74765646Y-21560147D01*
X74913216Y-21461544D01*
X75077188Y-21393624D01*
X75226488Y-21363927D01*
X75251258Y-21359000D01*
X75428742Y-21359000D01*
X75453512Y-21363927D01*
G37*
G36*
X70373512Y-21363927D02*
G01*
X70522812Y-21393624D01*
X70686784Y-21461544D01*
X70834354Y-21560147D01*
X70959853Y-21685646D01*
X71058456Y-21833216D01*
X71126376Y-21997188D01*
X71161000Y-22171259D01*
X71161000Y-22348741D01*
X71126376Y-22522812D01*
X71058456Y-22686784D01*
X70959853Y-22834354D01*
X70834354Y-22959853D01*
X70686784Y-23058456D01*
X70522812Y-23126376D01*
X70373512Y-23156073D01*
X70348742Y-23161000D01*
X70171258Y-23161000D01*
X70146488Y-23156073D01*
X69997188Y-23126376D01*
X69833216Y-23058456D01*
X69685646Y-22959853D01*
X69560147Y-22834354D01*
X69461544Y-22686784D01*
X69393624Y-22522812D01*
X69359000Y-22348741D01*
X69359000Y-22171259D01*
X69393624Y-21997188D01*
X69461544Y-21833216D01*
X69560147Y-21685646D01*
X69685646Y-21560147D01*
X69833216Y-21461544D01*
X69997188Y-21393624D01*
X70146488Y-21363927D01*
X70171258Y-21359000D01*
X70348742Y-21359000D01*
X70373512Y-21363927D01*
G37*
M02*
