G04 #@! TF.GenerationSoftware,KiCad,Pcbnew,(5.1.5)-3*
G04 #@! TF.CreationDate,2020-08-29T09:18:06-04:00*
G04 #@! TF.ProjectId,AudioBox,41756469-6f42-46f7-982e-6b696361645f,rev?*
G04 #@! TF.SameCoordinates,Original*
G04 #@! TF.FileFunction,Legend,Top*
G04 #@! TF.FilePolarity,Positive*
%FSLAX46Y46*%
G04 Gerber Fmt 4.6, Leading zero omitted, Abs format (unit mm)*
G04 Created by KiCad (PCBNEW (5.1.5)-3) date 2020-08-29 09:18:06*
%MOMM*%
%LPD*%
G04 APERTURE LIST*
%ADD10C,0.120000*%
%ADD11C,0.150000*%
%ADD12C,0.152400*%
G04 APERTURE END LIST*
D10*
X85200000Y-42950000D02*
X85200000Y-43190000D01*
X87000000Y-42950000D02*
X85200000Y-42950000D01*
X85200000Y-39350000D02*
X87000000Y-39350000D01*
X88800000Y-40750000D02*
X88800000Y-41550000D01*
X83400000Y-41550000D02*
X83400000Y-40750000D01*
X83000000Y-41550000D02*
X83400000Y-41550000D01*
D11*
X63750000Y-73250000D02*
X62000000Y-73250000D01*
X63750000Y-79005000D02*
X69250000Y-79005000D01*
X63750000Y-72595000D02*
X69250000Y-72595000D01*
X63750000Y-79005000D02*
X63750000Y-78255000D01*
X69250000Y-79005000D02*
X69250000Y-78255000D01*
X69250000Y-72595000D02*
X69250000Y-73345000D01*
X63750000Y-72595000D02*
X63750000Y-73250000D01*
D10*
X60460000Y-44121267D02*
X60460000Y-43778733D01*
X59440000Y-44121267D02*
X59440000Y-43778733D01*
X58460000Y-44121267D02*
X58460000Y-43778733D01*
X57440000Y-44121267D02*
X57440000Y-43778733D01*
X45360000Y-44121267D02*
X45360000Y-43778733D01*
X44340000Y-44121267D02*
X44340000Y-43778733D01*
X47860000Y-44121267D02*
X47860000Y-43778733D01*
X46840000Y-44121267D02*
X46840000Y-43778733D01*
X61228733Y-48660000D02*
X61571267Y-48660000D01*
X61228733Y-47640000D02*
X61571267Y-47640000D01*
X62760000Y-44121267D02*
X62760000Y-43778733D01*
X61740000Y-44121267D02*
X61740000Y-43778733D01*
X56871267Y-47640000D02*
X56528733Y-47640000D01*
X56871267Y-48660000D02*
X56528733Y-48660000D01*
X56160000Y-44121267D02*
X56160000Y-43778733D01*
X55140000Y-44121267D02*
X55140000Y-43778733D01*
X48153733Y-48710000D02*
X48496267Y-48710000D01*
X48153733Y-47690000D02*
X48496267Y-47690000D01*
X43560000Y-44121267D02*
X43560000Y-43778733D01*
X42540000Y-44121267D02*
X42540000Y-43778733D01*
X44096267Y-47690000D02*
X43753733Y-47690000D01*
X44096267Y-48710000D02*
X43753733Y-48710000D01*
X49660000Y-44121267D02*
X49660000Y-43778733D01*
X48640000Y-44121267D02*
X48640000Y-43778733D01*
X79610000Y-40160000D02*
X80900000Y-40160000D01*
X79610000Y-40610000D02*
X79610000Y-40160000D01*
X79160000Y-40610000D02*
X79610000Y-40610000D01*
X72390000Y-40610000D02*
X72390000Y-40160000D01*
X72840000Y-40610000D02*
X72390000Y-40610000D01*
X79610000Y-33390000D02*
X79610000Y-33840000D01*
X79160000Y-33390000D02*
X79610000Y-33390000D01*
X72390000Y-33390000D02*
X72390000Y-33840000D01*
X72840000Y-33390000D02*
X72390000Y-33390000D01*
X72890000Y-77828733D02*
X72890000Y-78171267D01*
X73910000Y-77828733D02*
X73910000Y-78171267D01*
X76728733Y-79310000D02*
X77071267Y-79310000D01*
X76728733Y-78290000D02*
X77071267Y-78290000D01*
D12*
X100678099Y-114521600D02*
X120921899Y-114521600D01*
X120921899Y-114521600D02*
X120921899Y-81273000D01*
X120921899Y-81273000D02*
X100678099Y-81273000D01*
X100678099Y-81273000D02*
X100678099Y-114521600D01*
X100424099Y-102000000D02*
G75*
G03X100424099Y-102000000I-381000J0D01*
G01*
X59878099Y-114521600D02*
X80121899Y-114521600D01*
X80121899Y-114521600D02*
X80121899Y-81273000D01*
X80121899Y-81273000D02*
X59878099Y-81273000D01*
X59878099Y-81273000D02*
X59878099Y-114521600D01*
X59624099Y-102000000D02*
G75*
G03X59624099Y-102000000I-381000J0D01*
G01*
X39478099Y-114521600D02*
X59721899Y-114521600D01*
X59721899Y-114521600D02*
X59721899Y-81273000D01*
X59721899Y-81273000D02*
X39478099Y-81273000D01*
X39478099Y-81273000D02*
X39478099Y-114521600D01*
X39224099Y-102000000D02*
G75*
G03X39224099Y-102000000I-381000J0D01*
G01*
X80278099Y-114521600D02*
X100521899Y-114521600D01*
X100521899Y-114521600D02*
X100521899Y-81273000D01*
X100521899Y-81273000D02*
X80278099Y-81273000D01*
X80278099Y-81273000D02*
X80278099Y-114521600D01*
X80024099Y-102000000D02*
G75*
G03X80024099Y-102000000I-381000J0D01*
G01*
D10*
X117100000Y-59600000D02*
X117100000Y-57600000D01*
X119700000Y-59600000D02*
X119700000Y-57600000D01*
X110600000Y-59600000D02*
X117100000Y-59600000D01*
X106200000Y-59600000D02*
X107400000Y-59600000D01*
X106200000Y-61850000D02*
X106200000Y-59600000D01*
X106200000Y-65800000D02*
X106200000Y-65050000D01*
X115100000Y-65800000D02*
X106200000Y-65800000D01*
X120900000Y-65800000D02*
X117700000Y-65800000D01*
X120900000Y-65300000D02*
X120900000Y-65800000D01*
X123400000Y-65300000D02*
X120900000Y-65300000D01*
X123400000Y-60100000D02*
X123400000Y-65300000D01*
X120900000Y-60100000D02*
X123400000Y-60100000D01*
X120900000Y-59600000D02*
X120900000Y-60100000D01*
X119700000Y-59600000D02*
X120900000Y-59600000D01*
X98310000Y-34900000D02*
X98310000Y-32450000D01*
X95090000Y-33100000D02*
X95090000Y-34900000D01*
D11*
X61450000Y-60255000D02*
X63200000Y-60255000D01*
X61450000Y-54500000D02*
X55950000Y-54500000D01*
X61450000Y-60910000D02*
X55950000Y-60910000D01*
X61450000Y-54500000D02*
X61450000Y-55250000D01*
X55950000Y-54500000D02*
X55950000Y-55250000D01*
X55950000Y-60910000D02*
X55950000Y-60160000D01*
X61450000Y-60910000D02*
X61450000Y-60255000D01*
X84550000Y-73250000D02*
X82800000Y-73250000D01*
X84550000Y-79005000D02*
X90050000Y-79005000D01*
X84550000Y-72595000D02*
X90050000Y-72595000D01*
X84550000Y-79005000D02*
X84550000Y-78255000D01*
X90050000Y-79005000D02*
X90050000Y-78255000D01*
X90050000Y-72595000D02*
X90050000Y-73345000D01*
X84550000Y-72595000D02*
X84550000Y-73250000D01*
X49050000Y-60255000D02*
X50800000Y-60255000D01*
X49050000Y-54500000D02*
X43550000Y-54500000D01*
X49050000Y-60910000D02*
X43550000Y-60910000D01*
X49050000Y-54500000D02*
X49050000Y-55250000D01*
X43550000Y-54500000D02*
X43550000Y-55250000D01*
X43550000Y-60910000D02*
X43550000Y-60160000D01*
X49050000Y-60910000D02*
X49050000Y-60255000D01*
D10*
X99646267Y-64790000D02*
X99303733Y-64790000D01*
X99646267Y-65810000D02*
X99303733Y-65810000D01*
X100860000Y-54146267D02*
X100860000Y-53803733D01*
X99840000Y-54146267D02*
X99840000Y-53803733D01*
X56253733Y-78510000D02*
X56596267Y-78510000D01*
X56253733Y-77490000D02*
X56596267Y-77490000D01*
X44396267Y-77590000D02*
X44053733Y-77590000D01*
X44396267Y-78610000D02*
X44053733Y-78610000D01*
X94553733Y-62910000D02*
X94896267Y-62910000D01*
X94553733Y-61890000D02*
X94896267Y-61890000D01*
X94553733Y-57910000D02*
X94896267Y-57910000D01*
X94553733Y-56890000D02*
X94896267Y-56890000D01*
X52790000Y-71528733D02*
X52790000Y-71871267D01*
X53810000Y-71528733D02*
X53810000Y-71871267D01*
X47890000Y-71628733D02*
X47890000Y-71971267D01*
X48910000Y-71628733D02*
X48910000Y-71971267D01*
X60510000Y-39146267D02*
X60510000Y-38803733D01*
X59490000Y-39146267D02*
X59490000Y-38803733D01*
X56160000Y-37821267D02*
X56160000Y-37478733D01*
X55140000Y-37821267D02*
X55140000Y-37478733D01*
X84453733Y-38560000D02*
X84796267Y-38560000D01*
X84453733Y-37540000D02*
X84796267Y-37540000D01*
X96871267Y-37190000D02*
X96528733Y-37190000D01*
X96871267Y-38210000D02*
X96528733Y-38210000D01*
X79725710Y-49203733D02*
X79725710Y-49546267D01*
X80745710Y-49203733D02*
X80745710Y-49546267D01*
X78111425Y-49203733D02*
X78111425Y-49546267D01*
X79131425Y-49203733D02*
X79131425Y-49546267D01*
X73240000Y-49203733D02*
X73240000Y-49546267D01*
X74260000Y-49203733D02*
X74260000Y-49546267D01*
X71654285Y-49203733D02*
X71654285Y-49546267D01*
X72674285Y-49203733D02*
X72674285Y-49546267D01*
X78890000Y-74528733D02*
X78890000Y-74871267D01*
X79910000Y-74528733D02*
X79910000Y-74871267D01*
X58990000Y-74428733D02*
X58990000Y-74771267D01*
X60010000Y-74428733D02*
X60010000Y-74771267D01*
X87103733Y-70460000D02*
X87446267Y-70460000D01*
X87103733Y-69440000D02*
X87446267Y-69440000D01*
X67353733Y-70610000D02*
X67696267Y-70610000D01*
X67353733Y-69590000D02*
X67696267Y-69590000D01*
X93790000Y-73353733D02*
X93790000Y-73696267D01*
X94810000Y-73353733D02*
X94810000Y-73696267D01*
X72890000Y-73553733D02*
X72890000Y-73896267D01*
X73910000Y-73553733D02*
X73910000Y-73896267D01*
X93790000Y-77653733D02*
X93790000Y-77996267D01*
X94810000Y-77653733D02*
X94810000Y-77996267D01*
X47760000Y-36796267D02*
X47760000Y-36453733D01*
X46740000Y-36796267D02*
X46740000Y-36453733D01*
X43560000Y-35371267D02*
X43560000Y-35028733D01*
X42540000Y-35371267D02*
X42540000Y-35028733D01*
X99646267Y-61890000D02*
X99303733Y-61890000D01*
X99646267Y-62910000D02*
X99303733Y-62910000D01*
X99671267Y-56890000D02*
X99328733Y-56890000D01*
X99671267Y-57910000D02*
X99328733Y-57910000D01*
X53610000Y-77246267D02*
X53610000Y-76903733D01*
X52590000Y-77246267D02*
X52590000Y-76903733D01*
X91210000Y-41196267D02*
X91210000Y-40853733D01*
X90190000Y-41196267D02*
X90190000Y-40853733D01*
X96528733Y-40410000D02*
X96871267Y-40410000D01*
X96528733Y-39390000D02*
X96871267Y-39390000D01*
X96528733Y-31010000D02*
X96871267Y-31010000D01*
X96528733Y-29990000D02*
X96871267Y-29990000D01*
X81340000Y-49203733D02*
X81340000Y-49546267D01*
X82360000Y-49203733D02*
X82360000Y-49546267D01*
X77517140Y-49546267D02*
X77517140Y-49203733D01*
X76497140Y-49546267D02*
X76497140Y-49203733D01*
X74882855Y-49203733D02*
X74882855Y-49546267D01*
X75902855Y-49203733D02*
X75902855Y-49546267D01*
X71060000Y-49546267D02*
X71060000Y-49203733D01*
X70040000Y-49546267D02*
X70040000Y-49203733D01*
X80745710Y-55996267D02*
X80745710Y-55653733D01*
X79725710Y-55996267D02*
X79725710Y-55653733D01*
X79131425Y-55996267D02*
X79131425Y-55653733D01*
X78111425Y-55996267D02*
X78111425Y-55653733D01*
X74260000Y-55896267D02*
X74260000Y-55553733D01*
X73240000Y-55896267D02*
X73240000Y-55553733D01*
X71654285Y-55553733D02*
X71654285Y-55896267D01*
X72674285Y-55553733D02*
X72674285Y-55896267D01*
X86246267Y-43740000D02*
X85903733Y-43740000D01*
X86246267Y-44760000D02*
X85903733Y-44760000D01*
X49035000Y-77271267D02*
X49035000Y-76928733D01*
X48015000Y-77271267D02*
X48015000Y-76928733D01*
X98853733Y-79210000D02*
X99196267Y-79210000D01*
X98853733Y-78190000D02*
X99196267Y-78190000D01*
D11*
X87873809Y-38326190D02*
X87873809Y-38802380D01*
X87540476Y-37802380D02*
X87873809Y-38326190D01*
X88207142Y-37802380D01*
X89064285Y-38802380D02*
X88492857Y-38802380D01*
X88778571Y-38802380D02*
X88778571Y-37802380D01*
X88683333Y-37945238D01*
X88588095Y-38040476D01*
X88492857Y-38088095D01*
X65738095Y-71122380D02*
X65738095Y-71931904D01*
X65785714Y-72027142D01*
X65833333Y-72074761D01*
X65928571Y-72122380D01*
X66119047Y-72122380D01*
X66214285Y-72074761D01*
X66261904Y-72027142D01*
X66309523Y-71931904D01*
X66309523Y-71122380D01*
X66690476Y-71122380D02*
X67309523Y-71122380D01*
X66976190Y-71503333D01*
X67119047Y-71503333D01*
X67214285Y-71550952D01*
X67261904Y-71598571D01*
X67309523Y-71693809D01*
X67309523Y-71931904D01*
X67261904Y-72027142D01*
X67214285Y-72074761D01*
X67119047Y-72122380D01*
X66833333Y-72122380D01*
X66738095Y-72074761D01*
X66690476Y-72027142D01*
X64452380Y-44692857D02*
X63976190Y-45026190D01*
X64452380Y-45264285D02*
X63452380Y-45264285D01*
X63452380Y-44883333D01*
X63500000Y-44788095D01*
X63547619Y-44740476D01*
X63642857Y-44692857D01*
X63785714Y-44692857D01*
X63880952Y-44740476D01*
X63928571Y-44788095D01*
X63976190Y-44883333D01*
X63976190Y-45264285D01*
X63547619Y-44311904D02*
X63500000Y-44264285D01*
X63452380Y-44169047D01*
X63452380Y-43930952D01*
X63500000Y-43835714D01*
X63547619Y-43788095D01*
X63642857Y-43740476D01*
X63738095Y-43740476D01*
X63880952Y-43788095D01*
X64452380Y-44359523D01*
X64452380Y-43740476D01*
X63452380Y-42835714D02*
X63452380Y-43311904D01*
X63928571Y-43359523D01*
X63880952Y-43311904D01*
X63833333Y-43216666D01*
X63833333Y-42978571D01*
X63880952Y-42883333D01*
X63928571Y-42835714D01*
X64023809Y-42788095D01*
X64261904Y-42788095D01*
X64357142Y-42835714D01*
X64404761Y-42883333D01*
X64452380Y-42978571D01*
X64452380Y-43216666D01*
X64404761Y-43311904D01*
X64357142Y-43359523D01*
X54752380Y-44642857D02*
X54276190Y-44976190D01*
X54752380Y-45214285D02*
X53752380Y-45214285D01*
X53752380Y-44833333D01*
X53800000Y-44738095D01*
X53847619Y-44690476D01*
X53942857Y-44642857D01*
X54085714Y-44642857D01*
X54180952Y-44690476D01*
X54228571Y-44738095D01*
X54276190Y-44833333D01*
X54276190Y-45214285D01*
X53847619Y-44261904D02*
X53800000Y-44214285D01*
X53752380Y-44119047D01*
X53752380Y-43880952D01*
X53800000Y-43785714D01*
X53847619Y-43738095D01*
X53942857Y-43690476D01*
X54038095Y-43690476D01*
X54180952Y-43738095D01*
X54752380Y-44309523D01*
X54752380Y-43690476D01*
X54085714Y-42833333D02*
X54752380Y-42833333D01*
X53704761Y-43071428D02*
X54419047Y-43309523D01*
X54419047Y-42690476D01*
X45302380Y-41516666D02*
X44826190Y-41850000D01*
X45302380Y-42088095D02*
X44302380Y-42088095D01*
X44302380Y-41707142D01*
X44350000Y-41611904D01*
X44397619Y-41564285D01*
X44492857Y-41516666D01*
X44635714Y-41516666D01*
X44730952Y-41564285D01*
X44778571Y-41611904D01*
X44826190Y-41707142D01*
X44826190Y-42088095D01*
X44302380Y-40611904D02*
X44302380Y-41088095D01*
X44778571Y-41135714D01*
X44730952Y-41088095D01*
X44683333Y-40992857D01*
X44683333Y-40754761D01*
X44730952Y-40659523D01*
X44778571Y-40611904D01*
X44873809Y-40564285D01*
X45111904Y-40564285D01*
X45207142Y-40611904D01*
X45254761Y-40659523D01*
X45302380Y-40754761D01*
X45302380Y-40992857D01*
X45254761Y-41088095D01*
X45207142Y-41135714D01*
X47752380Y-41366666D02*
X47276190Y-41700000D01*
X47752380Y-41938095D02*
X46752380Y-41938095D01*
X46752380Y-41557142D01*
X46800000Y-41461904D01*
X46847619Y-41414285D01*
X46942857Y-41366666D01*
X47085714Y-41366666D01*
X47180952Y-41414285D01*
X47228571Y-41461904D01*
X47276190Y-41557142D01*
X47276190Y-41938095D01*
X46752380Y-40509523D02*
X46752380Y-40700000D01*
X46800000Y-40795238D01*
X46847619Y-40842857D01*
X46990476Y-40938095D01*
X47180952Y-40985714D01*
X47561904Y-40985714D01*
X47657142Y-40938095D01*
X47704761Y-40890476D01*
X47752380Y-40795238D01*
X47752380Y-40604761D01*
X47704761Y-40509523D01*
X47657142Y-40461904D01*
X47561904Y-40414285D01*
X47323809Y-40414285D01*
X47228571Y-40461904D01*
X47180952Y-40509523D01*
X47133333Y-40604761D01*
X47133333Y-40795238D01*
X47180952Y-40890476D01*
X47228571Y-40938095D01*
X47323809Y-40985714D01*
X60657142Y-50157142D02*
X60609523Y-50204761D01*
X60466666Y-50252380D01*
X60371428Y-50252380D01*
X60228571Y-50204761D01*
X60133333Y-50109523D01*
X60085714Y-50014285D01*
X60038095Y-49823809D01*
X60038095Y-49680952D01*
X60085714Y-49490476D01*
X60133333Y-49395238D01*
X60228571Y-49300000D01*
X60371428Y-49252380D01*
X60466666Y-49252380D01*
X60609523Y-49300000D01*
X60657142Y-49347619D01*
X60990476Y-49252380D02*
X61609523Y-49252380D01*
X61276190Y-49633333D01*
X61419047Y-49633333D01*
X61514285Y-49680952D01*
X61561904Y-49728571D01*
X61609523Y-49823809D01*
X61609523Y-50061904D01*
X61561904Y-50157142D01*
X61514285Y-50204761D01*
X61419047Y-50252380D01*
X61133333Y-50252380D01*
X61038095Y-50204761D01*
X60990476Y-50157142D01*
X61942857Y-49252380D02*
X62609523Y-49252380D01*
X62180952Y-50252380D01*
X65757142Y-44742857D02*
X65804761Y-44790476D01*
X65852380Y-44933333D01*
X65852380Y-45028571D01*
X65804761Y-45171428D01*
X65709523Y-45266666D01*
X65614285Y-45314285D01*
X65423809Y-45361904D01*
X65280952Y-45361904D01*
X65090476Y-45314285D01*
X64995238Y-45266666D01*
X64900000Y-45171428D01*
X64852380Y-45028571D01*
X64852380Y-44933333D01*
X64900000Y-44790476D01*
X64947619Y-44742857D01*
X64852380Y-44409523D02*
X64852380Y-43790476D01*
X65233333Y-44123809D01*
X65233333Y-43980952D01*
X65280952Y-43885714D01*
X65328571Y-43838095D01*
X65423809Y-43790476D01*
X65661904Y-43790476D01*
X65757142Y-43838095D01*
X65804761Y-43885714D01*
X65852380Y-43980952D01*
X65852380Y-44266666D01*
X65804761Y-44361904D01*
X65757142Y-44409523D01*
X64852380Y-42933333D02*
X64852380Y-43123809D01*
X64900000Y-43219047D01*
X64947619Y-43266666D01*
X65090476Y-43361904D01*
X65280952Y-43409523D01*
X65661904Y-43409523D01*
X65757142Y-43361904D01*
X65804761Y-43314285D01*
X65852380Y-43219047D01*
X65852380Y-43028571D01*
X65804761Y-42933333D01*
X65757142Y-42885714D01*
X65661904Y-42838095D01*
X65423809Y-42838095D01*
X65328571Y-42885714D01*
X65280952Y-42933333D01*
X65233333Y-43028571D01*
X65233333Y-43219047D01*
X65280952Y-43314285D01*
X65328571Y-43361904D01*
X65423809Y-43409523D01*
X56007142Y-50057142D02*
X55959523Y-50104761D01*
X55816666Y-50152380D01*
X55721428Y-50152380D01*
X55578571Y-50104761D01*
X55483333Y-50009523D01*
X55435714Y-49914285D01*
X55388095Y-49723809D01*
X55388095Y-49580952D01*
X55435714Y-49390476D01*
X55483333Y-49295238D01*
X55578571Y-49200000D01*
X55721428Y-49152380D01*
X55816666Y-49152380D01*
X55959523Y-49200000D01*
X56007142Y-49247619D01*
X56340476Y-49152380D02*
X56959523Y-49152380D01*
X56626190Y-49533333D01*
X56769047Y-49533333D01*
X56864285Y-49580952D01*
X56911904Y-49628571D01*
X56959523Y-49723809D01*
X56959523Y-49961904D01*
X56911904Y-50057142D01*
X56864285Y-50104761D01*
X56769047Y-50152380D01*
X56483333Y-50152380D01*
X56388095Y-50104761D01*
X56340476Y-50057142D01*
X57864285Y-49152380D02*
X57388095Y-49152380D01*
X57340476Y-49628571D01*
X57388095Y-49580952D01*
X57483333Y-49533333D01*
X57721428Y-49533333D01*
X57816666Y-49580952D01*
X57864285Y-49628571D01*
X57911904Y-49723809D01*
X57911904Y-49961904D01*
X57864285Y-50057142D01*
X57816666Y-50104761D01*
X57721428Y-50152380D01*
X57483333Y-50152380D01*
X57388095Y-50104761D01*
X57340476Y-50057142D01*
X53207142Y-44642857D02*
X53254761Y-44690476D01*
X53302380Y-44833333D01*
X53302380Y-44928571D01*
X53254761Y-45071428D01*
X53159523Y-45166666D01*
X53064285Y-45214285D01*
X52873809Y-45261904D01*
X52730952Y-45261904D01*
X52540476Y-45214285D01*
X52445238Y-45166666D01*
X52350000Y-45071428D01*
X52302380Y-44928571D01*
X52302380Y-44833333D01*
X52350000Y-44690476D01*
X52397619Y-44642857D01*
X52302380Y-44309523D02*
X52302380Y-43690476D01*
X52683333Y-44023809D01*
X52683333Y-43880952D01*
X52730952Y-43785714D01*
X52778571Y-43738095D01*
X52873809Y-43690476D01*
X53111904Y-43690476D01*
X53207142Y-43738095D01*
X53254761Y-43785714D01*
X53302380Y-43880952D01*
X53302380Y-44166666D01*
X53254761Y-44261904D01*
X53207142Y-44309523D01*
X52635714Y-42833333D02*
X53302380Y-42833333D01*
X52254761Y-43071428D02*
X52969047Y-43309523D01*
X52969047Y-42690476D01*
X47707142Y-50207142D02*
X47659523Y-50254761D01*
X47516666Y-50302380D01*
X47421428Y-50302380D01*
X47278571Y-50254761D01*
X47183333Y-50159523D01*
X47135714Y-50064285D01*
X47088095Y-49873809D01*
X47088095Y-49730952D01*
X47135714Y-49540476D01*
X47183333Y-49445238D01*
X47278571Y-49350000D01*
X47421428Y-49302380D01*
X47516666Y-49302380D01*
X47659523Y-49350000D01*
X47707142Y-49397619D01*
X48659523Y-50302380D02*
X48088095Y-50302380D01*
X48373809Y-50302380D02*
X48373809Y-49302380D01*
X48278571Y-49445238D01*
X48183333Y-49540476D01*
X48088095Y-49588095D01*
X49516666Y-49302380D02*
X49326190Y-49302380D01*
X49230952Y-49350000D01*
X49183333Y-49397619D01*
X49088095Y-49540476D01*
X49040476Y-49730952D01*
X49040476Y-50111904D01*
X49088095Y-50207142D01*
X49135714Y-50254761D01*
X49230952Y-50302380D01*
X49421428Y-50302380D01*
X49516666Y-50254761D01*
X49564285Y-50207142D01*
X49611904Y-50111904D01*
X49611904Y-49873809D01*
X49564285Y-49778571D01*
X49516666Y-49730952D01*
X49421428Y-49683333D01*
X49230952Y-49683333D01*
X49135714Y-49730952D01*
X49088095Y-49778571D01*
X49040476Y-49873809D01*
X43407142Y-41442857D02*
X43454761Y-41490476D01*
X43502380Y-41633333D01*
X43502380Y-41728571D01*
X43454761Y-41871428D01*
X43359523Y-41966666D01*
X43264285Y-42014285D01*
X43073809Y-42061904D01*
X42930952Y-42061904D01*
X42740476Y-42014285D01*
X42645238Y-41966666D01*
X42550000Y-41871428D01*
X42502380Y-41728571D01*
X42502380Y-41633333D01*
X42550000Y-41490476D01*
X42597619Y-41442857D01*
X43502380Y-40490476D02*
X43502380Y-41061904D01*
X43502380Y-40776190D02*
X42502380Y-40776190D01*
X42645238Y-40871428D01*
X42740476Y-40966666D01*
X42788095Y-41061904D01*
X42502380Y-40157142D02*
X42502380Y-39538095D01*
X42883333Y-39871428D01*
X42883333Y-39728571D01*
X42930952Y-39633333D01*
X42978571Y-39585714D01*
X43073809Y-39538095D01*
X43311904Y-39538095D01*
X43407142Y-39585714D01*
X43454761Y-39633333D01*
X43502380Y-39728571D01*
X43502380Y-40014285D01*
X43454761Y-40109523D01*
X43407142Y-40157142D01*
X43307142Y-50157142D02*
X43259523Y-50204761D01*
X43116666Y-50252380D01*
X43021428Y-50252380D01*
X42878571Y-50204761D01*
X42783333Y-50109523D01*
X42735714Y-50014285D01*
X42688095Y-49823809D01*
X42688095Y-49680952D01*
X42735714Y-49490476D01*
X42783333Y-49395238D01*
X42878571Y-49300000D01*
X43021428Y-49252380D01*
X43116666Y-49252380D01*
X43259523Y-49300000D01*
X43307142Y-49347619D01*
X44259523Y-50252380D02*
X43688095Y-50252380D01*
X43973809Y-50252380D02*
X43973809Y-49252380D01*
X43878571Y-49395238D01*
X43783333Y-49490476D01*
X43688095Y-49538095D01*
X45116666Y-49585714D02*
X45116666Y-50252380D01*
X44878571Y-49204761D02*
X44640476Y-49919047D01*
X45259523Y-49919047D01*
X49407142Y-41442857D02*
X49454761Y-41490476D01*
X49502380Y-41633333D01*
X49502380Y-41728571D01*
X49454761Y-41871428D01*
X49359523Y-41966666D01*
X49264285Y-42014285D01*
X49073809Y-42061904D01*
X48930952Y-42061904D01*
X48740476Y-42014285D01*
X48645238Y-41966666D01*
X48550000Y-41871428D01*
X48502380Y-41728571D01*
X48502380Y-41633333D01*
X48550000Y-41490476D01*
X48597619Y-41442857D01*
X49502380Y-40490476D02*
X49502380Y-41061904D01*
X49502380Y-40776190D02*
X48502380Y-40776190D01*
X48645238Y-40871428D01*
X48740476Y-40966666D01*
X48788095Y-41061904D01*
X48502380Y-39585714D02*
X48502380Y-40061904D01*
X48978571Y-40109523D01*
X48930952Y-40061904D01*
X48883333Y-39966666D01*
X48883333Y-39728571D01*
X48930952Y-39633333D01*
X48978571Y-39585714D01*
X49073809Y-39538095D01*
X49311904Y-39538095D01*
X49407142Y-39585714D01*
X49454761Y-39633333D01*
X49502380Y-39728571D01*
X49502380Y-39966666D01*
X49454761Y-40061904D01*
X49407142Y-40109523D01*
X75238095Y-42302380D02*
X75238095Y-43111904D01*
X75285714Y-43207142D01*
X75333333Y-43254761D01*
X75428571Y-43302380D01*
X75619047Y-43302380D01*
X75714285Y-43254761D01*
X75761904Y-43207142D01*
X75809523Y-43111904D01*
X75809523Y-42302380D01*
X76809523Y-43302380D02*
X76238095Y-43302380D01*
X76523809Y-43302380D02*
X76523809Y-42302380D01*
X76428571Y-42445238D01*
X76333333Y-42540476D01*
X76238095Y-42588095D01*
X41416666Y-67952380D02*
X41416666Y-66952380D01*
X41750000Y-67666666D01*
X42083333Y-66952380D01*
X42083333Y-67952380D01*
X42559523Y-67952380D02*
X42559523Y-66952380D01*
X42559523Y-67428571D02*
X43130952Y-67428571D01*
X43130952Y-67952380D02*
X43130952Y-66952380D01*
X44035714Y-67285714D02*
X44035714Y-67952380D01*
X43797619Y-66904761D02*
X43559523Y-67619047D01*
X44178571Y-67619047D01*
X104816666Y-71102380D02*
X104816666Y-70102380D01*
X105150000Y-70816666D01*
X105483333Y-70102380D01*
X105483333Y-71102380D01*
X105959523Y-71102380D02*
X105959523Y-70102380D01*
X105959523Y-70578571D02*
X106530952Y-70578571D01*
X106530952Y-71102380D02*
X106530952Y-70102380D01*
X106911904Y-70102380D02*
X107530952Y-70102380D01*
X107197619Y-70483333D01*
X107340476Y-70483333D01*
X107435714Y-70530952D01*
X107483333Y-70578571D01*
X107530952Y-70673809D01*
X107530952Y-70911904D01*
X107483333Y-71007142D01*
X107435714Y-71054761D01*
X107340476Y-71102380D01*
X107054761Y-71102380D01*
X106959523Y-71054761D01*
X106911904Y-71007142D01*
X99366666Y-28602380D02*
X99366666Y-27602380D01*
X99700000Y-28316666D01*
X100033333Y-27602380D01*
X100033333Y-28602380D01*
X100509523Y-28602380D02*
X100509523Y-27602380D01*
X100509523Y-28078571D02*
X101080952Y-28078571D01*
X101080952Y-28602380D02*
X101080952Y-27602380D01*
X101509523Y-27697619D02*
X101557142Y-27650000D01*
X101652380Y-27602380D01*
X101890476Y-27602380D01*
X101985714Y-27650000D01*
X102033333Y-27697619D01*
X102080952Y-27792857D01*
X102080952Y-27888095D01*
X102033333Y-28030952D01*
X101461904Y-28602380D01*
X102080952Y-28602380D01*
X40216666Y-28902380D02*
X40216666Y-27902380D01*
X40550000Y-28616666D01*
X40883333Y-27902380D01*
X40883333Y-28902380D01*
X41359523Y-28902380D02*
X41359523Y-27902380D01*
X41359523Y-28378571D02*
X41930952Y-28378571D01*
X41930952Y-28902380D02*
X41930952Y-27902380D01*
X42930952Y-28902380D02*
X42359523Y-28902380D01*
X42645238Y-28902380D02*
X42645238Y-27902380D01*
X42550000Y-28045238D01*
X42454761Y-28140476D01*
X42359523Y-28188095D01*
X75102380Y-78066666D02*
X74626190Y-78400000D01*
X75102380Y-78638095D02*
X74102380Y-78638095D01*
X74102380Y-78257142D01*
X74150000Y-78161904D01*
X74197619Y-78114285D01*
X74292857Y-78066666D01*
X74435714Y-78066666D01*
X74530952Y-78114285D01*
X74578571Y-78161904D01*
X74626190Y-78257142D01*
X74626190Y-78638095D01*
X74102380Y-77733333D02*
X74102380Y-77114285D01*
X74483333Y-77447619D01*
X74483333Y-77304761D01*
X74530952Y-77209523D01*
X74578571Y-77161904D01*
X74673809Y-77114285D01*
X74911904Y-77114285D01*
X75007142Y-77161904D01*
X75054761Y-77209523D01*
X75102380Y-77304761D01*
X75102380Y-77590476D01*
X75054761Y-77685714D01*
X75007142Y-77733333D01*
X76257142Y-77727142D02*
X76209523Y-77774761D01*
X76066666Y-77822380D01*
X75971428Y-77822380D01*
X75828571Y-77774761D01*
X75733333Y-77679523D01*
X75685714Y-77584285D01*
X75638095Y-77393809D01*
X75638095Y-77250952D01*
X75685714Y-77060476D01*
X75733333Y-76965238D01*
X75828571Y-76870000D01*
X75971428Y-76822380D01*
X76066666Y-76822380D01*
X76209523Y-76870000D01*
X76257142Y-76917619D01*
X77209523Y-77822380D02*
X76638095Y-77822380D01*
X76923809Y-77822380D02*
X76923809Y-76822380D01*
X76828571Y-76965238D01*
X76733333Y-77060476D01*
X76638095Y-77108095D01*
X77590476Y-76917619D02*
X77638095Y-76870000D01*
X77733333Y-76822380D01*
X77971428Y-76822380D01*
X78066666Y-76870000D01*
X78114285Y-76917619D01*
X78161904Y-77012857D01*
X78161904Y-77108095D01*
X78114285Y-77250952D01*
X77542857Y-77822380D01*
X78161904Y-77822380D01*
X109799999Y-96152380D02*
X109799999Y-95152380D01*
X110276189Y-96152380D02*
X110276189Y-95152380D01*
X110847618Y-96152380D01*
X110847618Y-95152380D01*
X111276189Y-95247619D02*
X111323808Y-95200000D01*
X111419046Y-95152380D01*
X111657141Y-95152380D01*
X111752379Y-95200000D01*
X111799999Y-95247619D01*
X111847618Y-95342857D01*
X111847618Y-95438095D01*
X111799999Y-95580952D01*
X111228570Y-96152380D01*
X111847618Y-96152380D01*
X107895237Y-95485714D02*
X107895237Y-96152380D01*
X107657141Y-95104761D02*
X107419046Y-95819047D01*
X108038094Y-95819047D01*
X108561903Y-95580952D02*
X108466665Y-95533333D01*
X108419046Y-95485714D01*
X108371427Y-95390476D01*
X108371427Y-95342857D01*
X108419046Y-95247619D01*
X108466665Y-95200000D01*
X108561903Y-95152380D01*
X108752379Y-95152380D01*
X108847618Y-95200000D01*
X108895237Y-95247619D01*
X108942856Y-95342857D01*
X108942856Y-95390476D01*
X108895237Y-95485714D01*
X108847618Y-95533333D01*
X108752379Y-95580952D01*
X108561903Y-95580952D01*
X108466665Y-95628571D01*
X108419046Y-95676190D01*
X108371427Y-95771428D01*
X108371427Y-95961904D01*
X108419046Y-96057142D01*
X108466665Y-96104761D01*
X108561903Y-96152380D01*
X108752379Y-96152380D01*
X108847618Y-96104761D01*
X108895237Y-96057142D01*
X108942856Y-95961904D01*
X108942856Y-95771428D01*
X108895237Y-95676190D01*
X108847618Y-95628571D01*
X108752379Y-95580952D01*
X109276189Y-95152380D02*
X109895237Y-95152380D01*
X109561903Y-95533333D01*
X109704760Y-95533333D01*
X109799999Y-95580952D01*
X109847618Y-95628571D01*
X109895237Y-95723809D01*
X109895237Y-95961904D01*
X109847618Y-96057142D01*
X109799999Y-96104761D01*
X109704760Y-96152380D01*
X109419046Y-96152380D01*
X109323808Y-96104761D01*
X109276189Y-96057142D01*
X110228570Y-95152380D02*
X110847618Y-95152380D01*
X110514284Y-95533333D01*
X110657141Y-95533333D01*
X110752379Y-95580952D01*
X110799999Y-95628571D01*
X110847618Y-95723809D01*
X110847618Y-95961904D01*
X110799999Y-96057142D01*
X110752379Y-96104761D01*
X110657141Y-96152380D01*
X110371427Y-96152380D01*
X110276189Y-96104761D01*
X110228570Y-96057142D01*
X111276189Y-96057142D02*
X111323808Y-96104761D01*
X111276189Y-96152380D01*
X111228570Y-96104761D01*
X111276189Y-96057142D01*
X111276189Y-96152380D01*
X111704760Y-95247619D02*
X111752379Y-95200000D01*
X111847618Y-95152380D01*
X112085713Y-95152380D01*
X112180951Y-95200000D01*
X112228570Y-95247619D01*
X112276189Y-95342857D01*
X112276189Y-95438095D01*
X112228570Y-95580952D01*
X111657141Y-96152380D01*
X112276189Y-96152380D01*
X112657141Y-95247619D02*
X112704760Y-95200000D01*
X112799999Y-95152380D01*
X113038094Y-95152380D01*
X113133332Y-95200000D01*
X113180951Y-95247619D01*
X113228570Y-95342857D01*
X113228570Y-95438095D01*
X113180951Y-95580952D01*
X112609522Y-96152380D01*
X113228570Y-96152380D01*
X113609522Y-95247619D02*
X113657141Y-95200000D01*
X113752379Y-95152380D01*
X113990475Y-95152380D01*
X114085713Y-95200000D01*
X114133332Y-95247619D01*
X114180951Y-95342857D01*
X114180951Y-95438095D01*
X114133332Y-95580952D01*
X113561903Y-96152380D01*
X114180951Y-96152380D01*
X68523808Y-95152380D02*
X68714284Y-95152380D01*
X68809522Y-95200000D01*
X68904760Y-95295238D01*
X68952379Y-95485714D01*
X68952379Y-95819047D01*
X68904760Y-96009523D01*
X68809522Y-96104761D01*
X68714284Y-96152380D01*
X68523808Y-96152380D01*
X68428570Y-96104761D01*
X68333332Y-96009523D01*
X68285713Y-95819047D01*
X68285713Y-95485714D01*
X68333332Y-95295238D01*
X68428570Y-95200000D01*
X68523808Y-95152380D01*
X69380951Y-95152380D02*
X69380951Y-95961904D01*
X69428570Y-96057142D01*
X69476189Y-96104761D01*
X69571427Y-96152380D01*
X69761903Y-96152380D01*
X69857141Y-96104761D01*
X69904760Y-96057142D01*
X69952379Y-95961904D01*
X69952379Y-95152380D01*
X70285713Y-95152380D02*
X70857141Y-95152380D01*
X70571427Y-96152380D02*
X70571427Y-95152380D01*
X71142856Y-95247619D02*
X71190475Y-95200000D01*
X71285713Y-95152380D01*
X71523808Y-95152380D01*
X71619046Y-95200000D01*
X71666665Y-95247619D01*
X71714284Y-95342857D01*
X71714284Y-95438095D01*
X71666665Y-95580952D01*
X71095237Y-96152380D01*
X71714284Y-96152380D01*
X67095237Y-95485714D02*
X67095237Y-96152380D01*
X66857141Y-95104761D02*
X66619046Y-95819047D01*
X67238094Y-95819047D01*
X67761903Y-95580952D02*
X67666665Y-95533333D01*
X67619046Y-95485714D01*
X67571427Y-95390476D01*
X67571427Y-95342857D01*
X67619046Y-95247619D01*
X67666665Y-95200000D01*
X67761903Y-95152380D01*
X67952379Y-95152380D01*
X68047618Y-95200000D01*
X68095237Y-95247619D01*
X68142856Y-95342857D01*
X68142856Y-95390476D01*
X68095237Y-95485714D01*
X68047618Y-95533333D01*
X67952379Y-95580952D01*
X67761903Y-95580952D01*
X67666665Y-95628571D01*
X67619046Y-95676190D01*
X67571427Y-95771428D01*
X67571427Y-95961904D01*
X67619046Y-96057142D01*
X67666665Y-96104761D01*
X67761903Y-96152380D01*
X67952379Y-96152380D01*
X68047618Y-96104761D01*
X68095237Y-96057142D01*
X68142856Y-95961904D01*
X68142856Y-95771428D01*
X68095237Y-95676190D01*
X68047618Y-95628571D01*
X67952379Y-95580952D01*
X68476189Y-95152380D02*
X69095237Y-95152380D01*
X68761903Y-95533333D01*
X68904760Y-95533333D01*
X68999999Y-95580952D01*
X69047618Y-95628571D01*
X69095237Y-95723809D01*
X69095237Y-95961904D01*
X69047618Y-96057142D01*
X68999999Y-96104761D01*
X68904760Y-96152380D01*
X68619046Y-96152380D01*
X68523808Y-96104761D01*
X68476189Y-96057142D01*
X69428570Y-95152380D02*
X70047618Y-95152380D01*
X69714284Y-95533333D01*
X69857141Y-95533333D01*
X69952379Y-95580952D01*
X69999999Y-95628571D01*
X70047618Y-95723809D01*
X70047618Y-95961904D01*
X69999999Y-96057142D01*
X69952379Y-96104761D01*
X69857141Y-96152380D01*
X69571427Y-96152380D01*
X69476189Y-96104761D01*
X69428570Y-96057142D01*
X70476189Y-96057142D02*
X70523808Y-96104761D01*
X70476189Y-96152380D01*
X70428570Y-96104761D01*
X70476189Y-96057142D01*
X70476189Y-96152380D01*
X70904760Y-95247619D02*
X70952379Y-95200000D01*
X71047618Y-95152380D01*
X71285713Y-95152380D01*
X71380951Y-95200000D01*
X71428570Y-95247619D01*
X71476189Y-95342857D01*
X71476189Y-95438095D01*
X71428570Y-95580952D01*
X70857141Y-96152380D01*
X71476189Y-96152380D01*
X71857141Y-95247619D02*
X71904760Y-95200000D01*
X71999999Y-95152380D01*
X72238094Y-95152380D01*
X72333332Y-95200000D01*
X72380951Y-95247619D01*
X72428570Y-95342857D01*
X72428570Y-95438095D01*
X72380951Y-95580952D01*
X71809522Y-96152380D01*
X72428570Y-96152380D01*
X72809522Y-95247619D02*
X72857141Y-95200000D01*
X72952379Y-95152380D01*
X73190475Y-95152380D01*
X73285713Y-95200000D01*
X73333332Y-95247619D01*
X73380951Y-95342857D01*
X73380951Y-95438095D01*
X73333332Y-95580952D01*
X72761903Y-96152380D01*
X73380951Y-96152380D01*
X48123808Y-95152380D02*
X48314284Y-95152380D01*
X48409522Y-95200000D01*
X48504760Y-95295238D01*
X48552379Y-95485714D01*
X48552379Y-95819047D01*
X48504760Y-96009523D01*
X48409522Y-96104761D01*
X48314284Y-96152380D01*
X48123808Y-96152380D01*
X48028570Y-96104761D01*
X47933332Y-96009523D01*
X47885713Y-95819047D01*
X47885713Y-95485714D01*
X47933332Y-95295238D01*
X48028570Y-95200000D01*
X48123808Y-95152380D01*
X48980951Y-95152380D02*
X48980951Y-95961904D01*
X49028570Y-96057142D01*
X49076189Y-96104761D01*
X49171427Y-96152380D01*
X49361903Y-96152380D01*
X49457141Y-96104761D01*
X49504760Y-96057142D01*
X49552379Y-95961904D01*
X49552379Y-95152380D01*
X49885713Y-95152380D02*
X50457141Y-95152380D01*
X50171427Y-96152380D02*
X50171427Y-95152380D01*
X51314284Y-96152380D02*
X50742856Y-96152380D01*
X51028570Y-96152380D02*
X51028570Y-95152380D01*
X50933332Y-95295238D01*
X50838094Y-95390476D01*
X50742856Y-95438095D01*
X46695237Y-95485714D02*
X46695237Y-96152380D01*
X46457141Y-95104761D02*
X46219046Y-95819047D01*
X46838094Y-95819047D01*
X47361903Y-95580952D02*
X47266665Y-95533333D01*
X47219046Y-95485714D01*
X47171427Y-95390476D01*
X47171427Y-95342857D01*
X47219046Y-95247619D01*
X47266665Y-95200000D01*
X47361903Y-95152380D01*
X47552379Y-95152380D01*
X47647618Y-95200000D01*
X47695237Y-95247619D01*
X47742856Y-95342857D01*
X47742856Y-95390476D01*
X47695237Y-95485714D01*
X47647618Y-95533333D01*
X47552379Y-95580952D01*
X47361903Y-95580952D01*
X47266665Y-95628571D01*
X47219046Y-95676190D01*
X47171427Y-95771428D01*
X47171427Y-95961904D01*
X47219046Y-96057142D01*
X47266665Y-96104761D01*
X47361903Y-96152380D01*
X47552379Y-96152380D01*
X47647618Y-96104761D01*
X47695237Y-96057142D01*
X47742856Y-95961904D01*
X47742856Y-95771428D01*
X47695237Y-95676190D01*
X47647618Y-95628571D01*
X47552379Y-95580952D01*
X48076189Y-95152380D02*
X48695237Y-95152380D01*
X48361903Y-95533333D01*
X48504760Y-95533333D01*
X48599999Y-95580952D01*
X48647618Y-95628571D01*
X48695237Y-95723809D01*
X48695237Y-95961904D01*
X48647618Y-96057142D01*
X48599999Y-96104761D01*
X48504760Y-96152380D01*
X48219046Y-96152380D01*
X48123808Y-96104761D01*
X48076189Y-96057142D01*
X49028570Y-95152380D02*
X49647618Y-95152380D01*
X49314284Y-95533333D01*
X49457141Y-95533333D01*
X49552379Y-95580952D01*
X49599999Y-95628571D01*
X49647618Y-95723809D01*
X49647618Y-95961904D01*
X49599999Y-96057142D01*
X49552379Y-96104761D01*
X49457141Y-96152380D01*
X49171427Y-96152380D01*
X49076189Y-96104761D01*
X49028570Y-96057142D01*
X50076189Y-96057142D02*
X50123808Y-96104761D01*
X50076189Y-96152380D01*
X50028570Y-96104761D01*
X50076189Y-96057142D01*
X50076189Y-96152380D01*
X50504760Y-95247619D02*
X50552379Y-95200000D01*
X50647618Y-95152380D01*
X50885713Y-95152380D01*
X50980951Y-95200000D01*
X51028570Y-95247619D01*
X51076189Y-95342857D01*
X51076189Y-95438095D01*
X51028570Y-95580952D01*
X50457141Y-96152380D01*
X51076189Y-96152380D01*
X51457141Y-95247619D02*
X51504760Y-95200000D01*
X51599999Y-95152380D01*
X51838094Y-95152380D01*
X51933332Y-95200000D01*
X51980951Y-95247619D01*
X52028570Y-95342857D01*
X52028570Y-95438095D01*
X51980951Y-95580952D01*
X51409522Y-96152380D01*
X52028570Y-96152380D01*
X52409522Y-95247619D02*
X52457141Y-95200000D01*
X52552379Y-95152380D01*
X52790475Y-95152380D01*
X52885713Y-95200000D01*
X52933332Y-95247619D01*
X52980951Y-95342857D01*
X52980951Y-95438095D01*
X52933332Y-95580952D01*
X52361903Y-96152380D01*
X52980951Y-96152380D01*
X89399999Y-96152380D02*
X89399999Y-95152380D01*
X89876189Y-96152380D02*
X89876189Y-95152380D01*
X90447618Y-96152380D01*
X90447618Y-95152380D01*
X91447618Y-96152380D02*
X90876189Y-96152380D01*
X91161903Y-96152380D02*
X91161903Y-95152380D01*
X91066665Y-95295238D01*
X90971427Y-95390476D01*
X90876189Y-95438095D01*
X87495237Y-95485714D02*
X87495237Y-96152380D01*
X87257141Y-95104761D02*
X87019046Y-95819047D01*
X87638094Y-95819047D01*
X88161903Y-95580952D02*
X88066665Y-95533333D01*
X88019046Y-95485714D01*
X87971427Y-95390476D01*
X87971427Y-95342857D01*
X88019046Y-95247619D01*
X88066665Y-95200000D01*
X88161903Y-95152380D01*
X88352379Y-95152380D01*
X88447618Y-95200000D01*
X88495237Y-95247619D01*
X88542856Y-95342857D01*
X88542856Y-95390476D01*
X88495237Y-95485714D01*
X88447618Y-95533333D01*
X88352379Y-95580952D01*
X88161903Y-95580952D01*
X88066665Y-95628571D01*
X88019046Y-95676190D01*
X87971427Y-95771428D01*
X87971427Y-95961904D01*
X88019046Y-96057142D01*
X88066665Y-96104761D01*
X88161903Y-96152380D01*
X88352379Y-96152380D01*
X88447618Y-96104761D01*
X88495237Y-96057142D01*
X88542856Y-95961904D01*
X88542856Y-95771428D01*
X88495237Y-95676190D01*
X88447618Y-95628571D01*
X88352379Y-95580952D01*
X88876189Y-95152380D02*
X89495237Y-95152380D01*
X89161903Y-95533333D01*
X89304760Y-95533333D01*
X89399999Y-95580952D01*
X89447618Y-95628571D01*
X89495237Y-95723809D01*
X89495237Y-95961904D01*
X89447618Y-96057142D01*
X89399999Y-96104761D01*
X89304760Y-96152380D01*
X89019046Y-96152380D01*
X88923808Y-96104761D01*
X88876189Y-96057142D01*
X89828570Y-95152380D02*
X90447618Y-95152380D01*
X90114284Y-95533333D01*
X90257141Y-95533333D01*
X90352379Y-95580952D01*
X90399999Y-95628571D01*
X90447618Y-95723809D01*
X90447618Y-95961904D01*
X90399999Y-96057142D01*
X90352379Y-96104761D01*
X90257141Y-96152380D01*
X89971427Y-96152380D01*
X89876189Y-96104761D01*
X89828570Y-96057142D01*
X90876189Y-96057142D02*
X90923808Y-96104761D01*
X90876189Y-96152380D01*
X90828570Y-96104761D01*
X90876189Y-96057142D01*
X90876189Y-96152380D01*
X91304760Y-95247619D02*
X91352379Y-95200000D01*
X91447618Y-95152380D01*
X91685713Y-95152380D01*
X91780951Y-95200000D01*
X91828570Y-95247619D01*
X91876189Y-95342857D01*
X91876189Y-95438095D01*
X91828570Y-95580952D01*
X91257141Y-96152380D01*
X91876189Y-96152380D01*
X92257141Y-95247619D02*
X92304760Y-95200000D01*
X92399999Y-95152380D01*
X92638094Y-95152380D01*
X92733332Y-95200000D01*
X92780951Y-95247619D01*
X92828570Y-95342857D01*
X92828570Y-95438095D01*
X92780951Y-95580952D01*
X92209522Y-96152380D01*
X92828570Y-96152380D01*
X93209522Y-95247619D02*
X93257141Y-95200000D01*
X93352379Y-95152380D01*
X93590475Y-95152380D01*
X93685713Y-95200000D01*
X93733332Y-95247619D01*
X93780951Y-95342857D01*
X93780951Y-95438095D01*
X93733332Y-95580952D01*
X93161903Y-96152380D01*
X93780951Y-96152380D01*
X103416666Y-57202380D02*
X103416666Y-57916666D01*
X103369047Y-58059523D01*
X103273809Y-58154761D01*
X103130952Y-58202380D01*
X103035714Y-58202380D01*
X103797619Y-57202380D02*
X104416666Y-57202380D01*
X104083333Y-57583333D01*
X104226190Y-57583333D01*
X104321428Y-57630952D01*
X104369047Y-57678571D01*
X104416666Y-57773809D01*
X104416666Y-58011904D01*
X104369047Y-58107142D01*
X104321428Y-58154761D01*
X104226190Y-58202380D01*
X103940476Y-58202380D01*
X103845238Y-58154761D01*
X103797619Y-58107142D01*
X99052380Y-35238095D02*
X99861904Y-35238095D01*
X99957142Y-35190476D01*
X100004761Y-35142857D01*
X100052380Y-35047619D01*
X100052380Y-34857142D01*
X100004761Y-34761904D01*
X99957142Y-34714285D01*
X99861904Y-34666666D01*
X99052380Y-34666666D01*
X100052380Y-33666666D02*
X100052380Y-34238095D01*
X100052380Y-33952380D02*
X99052380Y-33952380D01*
X99195238Y-34047619D01*
X99290476Y-34142857D01*
X99338095Y-34238095D01*
X99052380Y-33047619D02*
X99052380Y-32952380D01*
X99100000Y-32857142D01*
X99147619Y-32809523D01*
X99242857Y-32761904D01*
X99433333Y-32714285D01*
X99671428Y-32714285D01*
X99861904Y-32761904D01*
X99957142Y-32809523D01*
X100004761Y-32857142D01*
X100052380Y-32952380D01*
X100052380Y-33047619D01*
X100004761Y-33142857D01*
X99957142Y-33190476D01*
X99861904Y-33238095D01*
X99671428Y-33285714D01*
X99433333Y-33285714D01*
X99242857Y-33238095D01*
X99147619Y-33190476D01*
X99100000Y-33142857D01*
X99052380Y-33047619D01*
X57938095Y-61287380D02*
X57938095Y-62096904D01*
X57985714Y-62192142D01*
X58033333Y-62239761D01*
X58128571Y-62287380D01*
X58319047Y-62287380D01*
X58414285Y-62239761D01*
X58461904Y-62192142D01*
X58509523Y-62096904D01*
X58509523Y-61287380D01*
X59461904Y-61287380D02*
X58985714Y-61287380D01*
X58938095Y-61763571D01*
X58985714Y-61715952D01*
X59080952Y-61668333D01*
X59319047Y-61668333D01*
X59414285Y-61715952D01*
X59461904Y-61763571D01*
X59509523Y-61858809D01*
X59509523Y-62096904D01*
X59461904Y-62192142D01*
X59414285Y-62239761D01*
X59319047Y-62287380D01*
X59080952Y-62287380D01*
X58985714Y-62239761D01*
X58938095Y-62192142D01*
X86538095Y-71122380D02*
X86538095Y-71931904D01*
X86585714Y-72027142D01*
X86633333Y-72074761D01*
X86728571Y-72122380D01*
X86919047Y-72122380D01*
X87014285Y-72074761D01*
X87061904Y-72027142D01*
X87109523Y-71931904D01*
X87109523Y-71122380D01*
X88014285Y-71455714D02*
X88014285Y-72122380D01*
X87776190Y-71074761D02*
X87538095Y-71789047D01*
X88157142Y-71789047D01*
X45538095Y-61287380D02*
X45538095Y-62096904D01*
X45585714Y-62192142D01*
X45633333Y-62239761D01*
X45728571Y-62287380D01*
X45919047Y-62287380D01*
X46014285Y-62239761D01*
X46061904Y-62192142D01*
X46109523Y-62096904D01*
X46109523Y-61287380D01*
X46538095Y-61382619D02*
X46585714Y-61335000D01*
X46680952Y-61287380D01*
X46919047Y-61287380D01*
X47014285Y-61335000D01*
X47061904Y-61382619D01*
X47109523Y-61477857D01*
X47109523Y-61573095D01*
X47061904Y-61715952D01*
X46490476Y-62287380D01*
X47109523Y-62287380D01*
X98832142Y-67182380D02*
X98498809Y-66706190D01*
X98260714Y-67182380D02*
X98260714Y-66182380D01*
X98641666Y-66182380D01*
X98736904Y-66230000D01*
X98784523Y-66277619D01*
X98832142Y-66372857D01*
X98832142Y-66515714D01*
X98784523Y-66610952D01*
X98736904Y-66658571D01*
X98641666Y-66706190D01*
X98260714Y-66706190D01*
X99165476Y-66182380D02*
X99784523Y-66182380D01*
X99451190Y-66563333D01*
X99594047Y-66563333D01*
X99689285Y-66610952D01*
X99736904Y-66658571D01*
X99784523Y-66753809D01*
X99784523Y-66991904D01*
X99736904Y-67087142D01*
X99689285Y-67134761D01*
X99594047Y-67182380D01*
X99308333Y-67182380D01*
X99213095Y-67134761D01*
X99165476Y-67087142D01*
X100117857Y-66182380D02*
X100736904Y-66182380D01*
X100403571Y-66563333D01*
X100546428Y-66563333D01*
X100641666Y-66610952D01*
X100689285Y-66658571D01*
X100736904Y-66753809D01*
X100736904Y-66991904D01*
X100689285Y-67087142D01*
X100641666Y-67134761D01*
X100546428Y-67182380D01*
X100260714Y-67182380D01*
X100165476Y-67134761D01*
X100117857Y-67087142D01*
X99372380Y-54617857D02*
X98896190Y-54951190D01*
X99372380Y-55189285D02*
X98372380Y-55189285D01*
X98372380Y-54808333D01*
X98420000Y-54713095D01*
X98467619Y-54665476D01*
X98562857Y-54617857D01*
X98705714Y-54617857D01*
X98800952Y-54665476D01*
X98848571Y-54713095D01*
X98896190Y-54808333D01*
X98896190Y-55189285D01*
X98372380Y-54284523D02*
X98372380Y-53665476D01*
X98753333Y-53998809D01*
X98753333Y-53855952D01*
X98800952Y-53760714D01*
X98848571Y-53713095D01*
X98943809Y-53665476D01*
X99181904Y-53665476D01*
X99277142Y-53713095D01*
X99324761Y-53760714D01*
X99372380Y-53855952D01*
X99372380Y-54141666D01*
X99324761Y-54236904D01*
X99277142Y-54284523D01*
X98467619Y-53284523D02*
X98420000Y-53236904D01*
X98372380Y-53141666D01*
X98372380Y-52903571D01*
X98420000Y-52808333D01*
X98467619Y-52760714D01*
X98562857Y-52713095D01*
X98658095Y-52713095D01*
X98800952Y-52760714D01*
X99372380Y-53332142D01*
X99372380Y-52713095D01*
X55782142Y-77022380D02*
X55448809Y-76546190D01*
X55210714Y-77022380D02*
X55210714Y-76022380D01*
X55591666Y-76022380D01*
X55686904Y-76070000D01*
X55734523Y-76117619D01*
X55782142Y-76212857D01*
X55782142Y-76355714D01*
X55734523Y-76450952D01*
X55686904Y-76498571D01*
X55591666Y-76546190D01*
X55210714Y-76546190D01*
X56115476Y-76022380D02*
X56734523Y-76022380D01*
X56401190Y-76403333D01*
X56544047Y-76403333D01*
X56639285Y-76450952D01*
X56686904Y-76498571D01*
X56734523Y-76593809D01*
X56734523Y-76831904D01*
X56686904Y-76927142D01*
X56639285Y-76974761D01*
X56544047Y-77022380D01*
X56258333Y-77022380D01*
X56163095Y-76974761D01*
X56115476Y-76927142D01*
X57686904Y-77022380D02*
X57115476Y-77022380D01*
X57401190Y-77022380D02*
X57401190Y-76022380D01*
X57305952Y-76165238D01*
X57210714Y-76260476D01*
X57115476Y-76308095D01*
X43582142Y-79982380D02*
X43248809Y-79506190D01*
X43010714Y-79982380D02*
X43010714Y-78982380D01*
X43391666Y-78982380D01*
X43486904Y-79030000D01*
X43534523Y-79077619D01*
X43582142Y-79172857D01*
X43582142Y-79315714D01*
X43534523Y-79410952D01*
X43486904Y-79458571D01*
X43391666Y-79506190D01*
X43010714Y-79506190D01*
X43915476Y-78982380D02*
X44534523Y-78982380D01*
X44201190Y-79363333D01*
X44344047Y-79363333D01*
X44439285Y-79410952D01*
X44486904Y-79458571D01*
X44534523Y-79553809D01*
X44534523Y-79791904D01*
X44486904Y-79887142D01*
X44439285Y-79934761D01*
X44344047Y-79982380D01*
X44058333Y-79982380D01*
X43963095Y-79934761D01*
X43915476Y-79887142D01*
X45153571Y-78982380D02*
X45248809Y-78982380D01*
X45344047Y-79030000D01*
X45391666Y-79077619D01*
X45439285Y-79172857D01*
X45486904Y-79363333D01*
X45486904Y-79601428D01*
X45439285Y-79791904D01*
X45391666Y-79887142D01*
X45344047Y-79934761D01*
X45248809Y-79982380D01*
X45153571Y-79982380D01*
X45058333Y-79934761D01*
X45010714Y-79887142D01*
X44963095Y-79791904D01*
X44915476Y-79601428D01*
X44915476Y-79363333D01*
X44963095Y-79172857D01*
X45010714Y-79077619D01*
X45058333Y-79030000D01*
X45153571Y-78982380D01*
X94082142Y-61422380D02*
X93748809Y-60946190D01*
X93510714Y-61422380D02*
X93510714Y-60422380D01*
X93891666Y-60422380D01*
X93986904Y-60470000D01*
X94034523Y-60517619D01*
X94082142Y-60612857D01*
X94082142Y-60755714D01*
X94034523Y-60850952D01*
X93986904Y-60898571D01*
X93891666Y-60946190D01*
X93510714Y-60946190D01*
X94463095Y-60517619D02*
X94510714Y-60470000D01*
X94605952Y-60422380D01*
X94844047Y-60422380D01*
X94939285Y-60470000D01*
X94986904Y-60517619D01*
X95034523Y-60612857D01*
X95034523Y-60708095D01*
X94986904Y-60850952D01*
X94415476Y-61422380D01*
X95034523Y-61422380D01*
X95510714Y-61422380D02*
X95701190Y-61422380D01*
X95796428Y-61374761D01*
X95844047Y-61327142D01*
X95939285Y-61184285D01*
X95986904Y-60993809D01*
X95986904Y-60612857D01*
X95939285Y-60517619D01*
X95891666Y-60470000D01*
X95796428Y-60422380D01*
X95605952Y-60422380D01*
X95510714Y-60470000D01*
X95463095Y-60517619D01*
X95415476Y-60612857D01*
X95415476Y-60850952D01*
X95463095Y-60946190D01*
X95510714Y-60993809D01*
X95605952Y-61041428D01*
X95796428Y-61041428D01*
X95891666Y-60993809D01*
X95939285Y-60946190D01*
X95986904Y-60850952D01*
X94082142Y-56422380D02*
X93748809Y-55946190D01*
X93510714Y-56422380D02*
X93510714Y-55422380D01*
X93891666Y-55422380D01*
X93986904Y-55470000D01*
X94034523Y-55517619D01*
X94082142Y-55612857D01*
X94082142Y-55755714D01*
X94034523Y-55850952D01*
X93986904Y-55898571D01*
X93891666Y-55946190D01*
X93510714Y-55946190D01*
X94463095Y-55517619D02*
X94510714Y-55470000D01*
X94605952Y-55422380D01*
X94844047Y-55422380D01*
X94939285Y-55470000D01*
X94986904Y-55517619D01*
X95034523Y-55612857D01*
X95034523Y-55708095D01*
X94986904Y-55850952D01*
X94415476Y-56422380D01*
X95034523Y-56422380D01*
X95605952Y-55850952D02*
X95510714Y-55803333D01*
X95463095Y-55755714D01*
X95415476Y-55660476D01*
X95415476Y-55612857D01*
X95463095Y-55517619D01*
X95510714Y-55470000D01*
X95605952Y-55422380D01*
X95796428Y-55422380D01*
X95891666Y-55470000D01*
X95939285Y-55517619D01*
X95986904Y-55612857D01*
X95986904Y-55660476D01*
X95939285Y-55755714D01*
X95891666Y-55803333D01*
X95796428Y-55850952D01*
X95605952Y-55850952D01*
X95510714Y-55898571D01*
X95463095Y-55946190D01*
X95415476Y-56041428D01*
X95415476Y-56231904D01*
X95463095Y-56327142D01*
X95510714Y-56374761D01*
X95605952Y-56422380D01*
X95796428Y-56422380D01*
X95891666Y-56374761D01*
X95939285Y-56327142D01*
X95986904Y-56231904D01*
X95986904Y-56041428D01*
X95939285Y-55946190D01*
X95891666Y-55898571D01*
X95796428Y-55850952D01*
X55182380Y-72342857D02*
X54706190Y-72676190D01*
X55182380Y-72914285D02*
X54182380Y-72914285D01*
X54182380Y-72533333D01*
X54230000Y-72438095D01*
X54277619Y-72390476D01*
X54372857Y-72342857D01*
X54515714Y-72342857D01*
X54610952Y-72390476D01*
X54658571Y-72438095D01*
X54706190Y-72533333D01*
X54706190Y-72914285D01*
X54277619Y-71961904D02*
X54230000Y-71914285D01*
X54182380Y-71819047D01*
X54182380Y-71580952D01*
X54230000Y-71485714D01*
X54277619Y-71438095D01*
X54372857Y-71390476D01*
X54468095Y-71390476D01*
X54610952Y-71438095D01*
X55182380Y-72009523D01*
X55182380Y-71390476D01*
X54182380Y-71057142D02*
X54182380Y-70390476D01*
X55182380Y-70819047D01*
X50282380Y-72442857D02*
X49806190Y-72776190D01*
X50282380Y-73014285D02*
X49282380Y-73014285D01*
X49282380Y-72633333D01*
X49330000Y-72538095D01*
X49377619Y-72490476D01*
X49472857Y-72442857D01*
X49615714Y-72442857D01*
X49710952Y-72490476D01*
X49758571Y-72538095D01*
X49806190Y-72633333D01*
X49806190Y-73014285D01*
X49377619Y-72061904D02*
X49330000Y-72014285D01*
X49282380Y-71919047D01*
X49282380Y-71680952D01*
X49330000Y-71585714D01*
X49377619Y-71538095D01*
X49472857Y-71490476D01*
X49568095Y-71490476D01*
X49710952Y-71538095D01*
X50282380Y-72109523D01*
X50282380Y-71490476D01*
X49282380Y-70633333D02*
X49282380Y-70823809D01*
X49330000Y-70919047D01*
X49377619Y-70966666D01*
X49520476Y-71061904D01*
X49710952Y-71109523D01*
X50091904Y-71109523D01*
X50187142Y-71061904D01*
X50234761Y-71014285D01*
X50282380Y-70919047D01*
X50282380Y-70728571D01*
X50234761Y-70633333D01*
X50187142Y-70585714D01*
X50091904Y-70538095D01*
X49853809Y-70538095D01*
X49758571Y-70585714D01*
X49710952Y-70633333D01*
X49663333Y-70728571D01*
X49663333Y-70919047D01*
X49710952Y-71014285D01*
X49758571Y-71061904D01*
X49853809Y-71109523D01*
X59022380Y-39617857D02*
X58546190Y-39951190D01*
X59022380Y-40189285D02*
X58022380Y-40189285D01*
X58022380Y-39808333D01*
X58070000Y-39713095D01*
X58117619Y-39665476D01*
X58212857Y-39617857D01*
X58355714Y-39617857D01*
X58450952Y-39665476D01*
X58498571Y-39713095D01*
X58546190Y-39808333D01*
X58546190Y-40189285D01*
X58117619Y-39236904D02*
X58070000Y-39189285D01*
X58022380Y-39094047D01*
X58022380Y-38855952D01*
X58070000Y-38760714D01*
X58117619Y-38713095D01*
X58212857Y-38665476D01*
X58308095Y-38665476D01*
X58450952Y-38713095D01*
X59022380Y-39284523D01*
X59022380Y-38665476D01*
X58022380Y-38332142D02*
X58022380Y-37713095D01*
X58403333Y-38046428D01*
X58403333Y-37903571D01*
X58450952Y-37808333D01*
X58498571Y-37760714D01*
X58593809Y-37713095D01*
X58831904Y-37713095D01*
X58927142Y-37760714D01*
X58974761Y-37808333D01*
X59022380Y-37903571D01*
X59022380Y-38189285D01*
X58974761Y-38284523D01*
X58927142Y-38332142D01*
X54672380Y-38292857D02*
X54196190Y-38626190D01*
X54672380Y-38864285D02*
X53672380Y-38864285D01*
X53672380Y-38483333D01*
X53720000Y-38388095D01*
X53767619Y-38340476D01*
X53862857Y-38292857D01*
X54005714Y-38292857D01*
X54100952Y-38340476D01*
X54148571Y-38388095D01*
X54196190Y-38483333D01*
X54196190Y-38864285D01*
X53767619Y-37911904D02*
X53720000Y-37864285D01*
X53672380Y-37769047D01*
X53672380Y-37530952D01*
X53720000Y-37435714D01*
X53767619Y-37388095D01*
X53862857Y-37340476D01*
X53958095Y-37340476D01*
X54100952Y-37388095D01*
X54672380Y-37959523D01*
X54672380Y-37340476D01*
X53767619Y-36959523D02*
X53720000Y-36911904D01*
X53672380Y-36816666D01*
X53672380Y-36578571D01*
X53720000Y-36483333D01*
X53767619Y-36435714D01*
X53862857Y-36388095D01*
X53958095Y-36388095D01*
X54100952Y-36435714D01*
X54672380Y-37007142D01*
X54672380Y-36388095D01*
X83982142Y-37072380D02*
X83648809Y-36596190D01*
X83410714Y-37072380D02*
X83410714Y-36072380D01*
X83791666Y-36072380D01*
X83886904Y-36120000D01*
X83934523Y-36167619D01*
X83982142Y-36262857D01*
X83982142Y-36405714D01*
X83934523Y-36500952D01*
X83886904Y-36548571D01*
X83791666Y-36596190D01*
X83410714Y-36596190D01*
X84363095Y-36167619D02*
X84410714Y-36120000D01*
X84505952Y-36072380D01*
X84744047Y-36072380D01*
X84839285Y-36120000D01*
X84886904Y-36167619D01*
X84934523Y-36262857D01*
X84934523Y-36358095D01*
X84886904Y-36500952D01*
X84315476Y-37072380D01*
X84934523Y-37072380D01*
X85886904Y-37072380D02*
X85315476Y-37072380D01*
X85601190Y-37072380D02*
X85601190Y-36072380D01*
X85505952Y-36215238D01*
X85410714Y-36310476D01*
X85315476Y-36358095D01*
X99257142Y-38202380D02*
X98923809Y-37726190D01*
X98685714Y-38202380D02*
X98685714Y-37202380D01*
X99066666Y-37202380D01*
X99161904Y-37250000D01*
X99209523Y-37297619D01*
X99257142Y-37392857D01*
X99257142Y-37535714D01*
X99209523Y-37630952D01*
X99161904Y-37678571D01*
X99066666Y-37726190D01*
X98685714Y-37726190D01*
X100209523Y-38202380D02*
X99638095Y-38202380D01*
X99923809Y-38202380D02*
X99923809Y-37202380D01*
X99828571Y-37345238D01*
X99733333Y-37440476D01*
X99638095Y-37488095D01*
X100780952Y-37630952D02*
X100685714Y-37583333D01*
X100638095Y-37535714D01*
X100590476Y-37440476D01*
X100590476Y-37392857D01*
X100638095Y-37297619D01*
X100685714Y-37250000D01*
X100780952Y-37202380D01*
X100971428Y-37202380D01*
X101066666Y-37250000D01*
X101114285Y-37297619D01*
X101161904Y-37392857D01*
X101161904Y-37440476D01*
X101114285Y-37535714D01*
X101066666Y-37583333D01*
X100971428Y-37630952D01*
X100780952Y-37630952D01*
X100685714Y-37678571D01*
X100638095Y-37726190D01*
X100590476Y-37821428D01*
X100590476Y-38011904D01*
X100638095Y-38107142D01*
X100685714Y-38154761D01*
X100780952Y-38202380D01*
X100971428Y-38202380D01*
X101066666Y-38154761D01*
X101114285Y-38107142D01*
X101161904Y-38011904D01*
X101161904Y-37821428D01*
X101114285Y-37726190D01*
X101066666Y-37678571D01*
X100971428Y-37630952D01*
X80702380Y-46742857D02*
X80226190Y-47076190D01*
X80702380Y-47314285D02*
X79702380Y-47314285D01*
X79702380Y-46933333D01*
X79750000Y-46838095D01*
X79797619Y-46790476D01*
X79892857Y-46742857D01*
X80035714Y-46742857D01*
X80130952Y-46790476D01*
X80178571Y-46838095D01*
X80226190Y-46933333D01*
X80226190Y-47314285D01*
X80702380Y-45790476D02*
X80702380Y-46361904D01*
X80702380Y-46076190D02*
X79702380Y-46076190D01*
X79845238Y-46171428D01*
X79940476Y-46266666D01*
X79988095Y-46361904D01*
X79702380Y-45457142D02*
X79702380Y-44790476D01*
X80702380Y-45219047D01*
X79202380Y-46642857D02*
X78726190Y-46976190D01*
X79202380Y-47214285D02*
X78202380Y-47214285D01*
X78202380Y-46833333D01*
X78250000Y-46738095D01*
X78297619Y-46690476D01*
X78392857Y-46642857D01*
X78535714Y-46642857D01*
X78630952Y-46690476D01*
X78678571Y-46738095D01*
X78726190Y-46833333D01*
X78726190Y-47214285D01*
X79202380Y-45690476D02*
X79202380Y-46261904D01*
X79202380Y-45976190D02*
X78202380Y-45976190D01*
X78345238Y-46071428D01*
X78440476Y-46166666D01*
X78488095Y-46261904D01*
X78202380Y-44833333D02*
X78202380Y-45023809D01*
X78250000Y-45119047D01*
X78297619Y-45166666D01*
X78440476Y-45261904D01*
X78630952Y-45309523D01*
X79011904Y-45309523D01*
X79107142Y-45261904D01*
X79154761Y-45214285D01*
X79202380Y-45119047D01*
X79202380Y-44928571D01*
X79154761Y-44833333D01*
X79107142Y-44785714D01*
X79011904Y-44738095D01*
X78773809Y-44738095D01*
X78678571Y-44785714D01*
X78630952Y-44833333D01*
X78583333Y-44928571D01*
X78583333Y-45119047D01*
X78630952Y-45214285D01*
X78678571Y-45261904D01*
X78773809Y-45309523D01*
X74102380Y-46692857D02*
X73626190Y-47026190D01*
X74102380Y-47264285D02*
X73102380Y-47264285D01*
X73102380Y-46883333D01*
X73150000Y-46788095D01*
X73197619Y-46740476D01*
X73292857Y-46692857D01*
X73435714Y-46692857D01*
X73530952Y-46740476D01*
X73578571Y-46788095D01*
X73626190Y-46883333D01*
X73626190Y-47264285D01*
X74102380Y-45740476D02*
X74102380Y-46311904D01*
X74102380Y-46026190D02*
X73102380Y-46026190D01*
X73245238Y-46121428D01*
X73340476Y-46216666D01*
X73388095Y-46311904D01*
X73102380Y-44835714D02*
X73102380Y-45311904D01*
X73578571Y-45359523D01*
X73530952Y-45311904D01*
X73483333Y-45216666D01*
X73483333Y-44978571D01*
X73530952Y-44883333D01*
X73578571Y-44835714D01*
X73673809Y-44788095D01*
X73911904Y-44788095D01*
X74007142Y-44835714D01*
X74054761Y-44883333D01*
X74102380Y-44978571D01*
X74102380Y-45216666D01*
X74054761Y-45311904D01*
X74007142Y-45359523D01*
X72552380Y-46542857D02*
X72076190Y-46876190D01*
X72552380Y-47114285D02*
X71552380Y-47114285D01*
X71552380Y-46733333D01*
X71600000Y-46638095D01*
X71647619Y-46590476D01*
X71742857Y-46542857D01*
X71885714Y-46542857D01*
X71980952Y-46590476D01*
X72028571Y-46638095D01*
X72076190Y-46733333D01*
X72076190Y-47114285D01*
X72552380Y-45590476D02*
X72552380Y-46161904D01*
X72552380Y-45876190D02*
X71552380Y-45876190D01*
X71695238Y-45971428D01*
X71790476Y-46066666D01*
X71838095Y-46161904D01*
X71885714Y-44733333D02*
X72552380Y-44733333D01*
X71504761Y-44971428D02*
X72219047Y-45209523D01*
X72219047Y-44590476D01*
X81282380Y-75342857D02*
X80806190Y-75676190D01*
X81282380Y-75914285D02*
X80282380Y-75914285D01*
X80282380Y-75533333D01*
X80330000Y-75438095D01*
X80377619Y-75390476D01*
X80472857Y-75342857D01*
X80615714Y-75342857D01*
X80710952Y-75390476D01*
X80758571Y-75438095D01*
X80806190Y-75533333D01*
X80806190Y-75914285D01*
X81282380Y-74390476D02*
X81282380Y-74961904D01*
X81282380Y-74676190D02*
X80282380Y-74676190D01*
X80425238Y-74771428D01*
X80520476Y-74866666D01*
X80568095Y-74961904D01*
X80282380Y-74057142D02*
X80282380Y-73438095D01*
X80663333Y-73771428D01*
X80663333Y-73628571D01*
X80710952Y-73533333D01*
X80758571Y-73485714D01*
X80853809Y-73438095D01*
X81091904Y-73438095D01*
X81187142Y-73485714D01*
X81234761Y-73533333D01*
X81282380Y-73628571D01*
X81282380Y-73914285D01*
X81234761Y-74009523D01*
X81187142Y-74057142D01*
X61382380Y-75242857D02*
X60906190Y-75576190D01*
X61382380Y-75814285D02*
X60382380Y-75814285D01*
X60382380Y-75433333D01*
X60430000Y-75338095D01*
X60477619Y-75290476D01*
X60572857Y-75242857D01*
X60715714Y-75242857D01*
X60810952Y-75290476D01*
X60858571Y-75338095D01*
X60906190Y-75433333D01*
X60906190Y-75814285D01*
X61382380Y-74290476D02*
X61382380Y-74861904D01*
X61382380Y-74576190D02*
X60382380Y-74576190D01*
X60525238Y-74671428D01*
X60620476Y-74766666D01*
X60668095Y-74861904D01*
X60477619Y-73909523D02*
X60430000Y-73861904D01*
X60382380Y-73766666D01*
X60382380Y-73528571D01*
X60430000Y-73433333D01*
X60477619Y-73385714D01*
X60572857Y-73338095D01*
X60668095Y-73338095D01*
X60810952Y-73385714D01*
X61382380Y-73957142D01*
X61382380Y-73338095D01*
X86632142Y-68972380D02*
X86298809Y-68496190D01*
X86060714Y-68972380D02*
X86060714Y-67972380D01*
X86441666Y-67972380D01*
X86536904Y-68020000D01*
X86584523Y-68067619D01*
X86632142Y-68162857D01*
X86632142Y-68305714D01*
X86584523Y-68400952D01*
X86536904Y-68448571D01*
X86441666Y-68496190D01*
X86060714Y-68496190D01*
X87584523Y-68972380D02*
X87013095Y-68972380D01*
X87298809Y-68972380D02*
X87298809Y-67972380D01*
X87203571Y-68115238D01*
X87108333Y-68210476D01*
X87013095Y-68258095D01*
X88536904Y-68972380D02*
X87965476Y-68972380D01*
X88251190Y-68972380D02*
X88251190Y-67972380D01*
X88155952Y-68115238D01*
X88060714Y-68210476D01*
X87965476Y-68258095D01*
X66882142Y-69122380D02*
X66548809Y-68646190D01*
X66310714Y-69122380D02*
X66310714Y-68122380D01*
X66691666Y-68122380D01*
X66786904Y-68170000D01*
X66834523Y-68217619D01*
X66882142Y-68312857D01*
X66882142Y-68455714D01*
X66834523Y-68550952D01*
X66786904Y-68598571D01*
X66691666Y-68646190D01*
X66310714Y-68646190D01*
X67834523Y-69122380D02*
X67263095Y-69122380D01*
X67548809Y-69122380D02*
X67548809Y-68122380D01*
X67453571Y-68265238D01*
X67358333Y-68360476D01*
X67263095Y-68408095D01*
X68453571Y-68122380D02*
X68548809Y-68122380D01*
X68644047Y-68170000D01*
X68691666Y-68217619D01*
X68739285Y-68312857D01*
X68786904Y-68503333D01*
X68786904Y-68741428D01*
X68739285Y-68931904D01*
X68691666Y-69027142D01*
X68644047Y-69074761D01*
X68548809Y-69122380D01*
X68453571Y-69122380D01*
X68358333Y-69074761D01*
X68310714Y-69027142D01*
X68263095Y-68931904D01*
X68215476Y-68741428D01*
X68215476Y-68503333D01*
X68263095Y-68312857D01*
X68310714Y-68217619D01*
X68358333Y-68170000D01*
X68453571Y-68122380D01*
X96182380Y-73691666D02*
X95706190Y-74025000D01*
X96182380Y-74263095D02*
X95182380Y-74263095D01*
X95182380Y-73882142D01*
X95230000Y-73786904D01*
X95277619Y-73739285D01*
X95372857Y-73691666D01*
X95515714Y-73691666D01*
X95610952Y-73739285D01*
X95658571Y-73786904D01*
X95706190Y-73882142D01*
X95706190Y-74263095D01*
X96182380Y-73215476D02*
X96182380Y-73025000D01*
X96134761Y-72929761D01*
X96087142Y-72882142D01*
X95944285Y-72786904D01*
X95753809Y-72739285D01*
X95372857Y-72739285D01*
X95277619Y-72786904D01*
X95230000Y-72834523D01*
X95182380Y-72929761D01*
X95182380Y-73120238D01*
X95230000Y-73215476D01*
X95277619Y-73263095D01*
X95372857Y-73310714D01*
X95610952Y-73310714D01*
X95706190Y-73263095D01*
X95753809Y-73215476D01*
X95801428Y-73120238D01*
X95801428Y-72929761D01*
X95753809Y-72834523D01*
X95706190Y-72786904D01*
X95610952Y-72739285D01*
X75282380Y-73891666D02*
X74806190Y-74225000D01*
X75282380Y-74463095D02*
X74282380Y-74463095D01*
X74282380Y-74082142D01*
X74330000Y-73986904D01*
X74377619Y-73939285D01*
X74472857Y-73891666D01*
X74615714Y-73891666D01*
X74710952Y-73939285D01*
X74758571Y-73986904D01*
X74806190Y-74082142D01*
X74806190Y-74463095D01*
X74710952Y-73320238D02*
X74663333Y-73415476D01*
X74615714Y-73463095D01*
X74520476Y-73510714D01*
X74472857Y-73510714D01*
X74377619Y-73463095D01*
X74330000Y-73415476D01*
X74282380Y-73320238D01*
X74282380Y-73129761D01*
X74330000Y-73034523D01*
X74377619Y-72986904D01*
X74472857Y-72939285D01*
X74520476Y-72939285D01*
X74615714Y-72986904D01*
X74663333Y-73034523D01*
X74710952Y-73129761D01*
X74710952Y-73320238D01*
X74758571Y-73415476D01*
X74806190Y-73463095D01*
X74901428Y-73510714D01*
X75091904Y-73510714D01*
X75187142Y-73463095D01*
X75234761Y-73415476D01*
X75282380Y-73320238D01*
X75282380Y-73129761D01*
X75234761Y-73034523D01*
X75187142Y-72986904D01*
X75091904Y-72939285D01*
X74901428Y-72939285D01*
X74806190Y-72986904D01*
X74758571Y-73034523D01*
X74710952Y-73129761D01*
X96182380Y-77991666D02*
X95706190Y-78325000D01*
X96182380Y-78563095D02*
X95182380Y-78563095D01*
X95182380Y-78182142D01*
X95230000Y-78086904D01*
X95277619Y-78039285D01*
X95372857Y-77991666D01*
X95515714Y-77991666D01*
X95610952Y-78039285D01*
X95658571Y-78086904D01*
X95706190Y-78182142D01*
X95706190Y-78563095D01*
X95515714Y-77134523D02*
X96182380Y-77134523D01*
X95134761Y-77372619D02*
X95849047Y-77610714D01*
X95849047Y-76991666D01*
X46272380Y-36791666D02*
X45796190Y-37125000D01*
X46272380Y-37363095D02*
X45272380Y-37363095D01*
X45272380Y-36982142D01*
X45320000Y-36886904D01*
X45367619Y-36839285D01*
X45462857Y-36791666D01*
X45605714Y-36791666D01*
X45700952Y-36839285D01*
X45748571Y-36886904D01*
X45796190Y-36982142D01*
X45796190Y-37363095D01*
X45367619Y-36410714D02*
X45320000Y-36363095D01*
X45272380Y-36267857D01*
X45272380Y-36029761D01*
X45320000Y-35934523D01*
X45367619Y-35886904D01*
X45462857Y-35839285D01*
X45558095Y-35839285D01*
X45700952Y-35886904D01*
X46272380Y-36458333D01*
X46272380Y-35839285D01*
X42072380Y-35366666D02*
X41596190Y-35700000D01*
X42072380Y-35938095D02*
X41072380Y-35938095D01*
X41072380Y-35557142D01*
X41120000Y-35461904D01*
X41167619Y-35414285D01*
X41262857Y-35366666D01*
X41405714Y-35366666D01*
X41500952Y-35414285D01*
X41548571Y-35461904D01*
X41596190Y-35557142D01*
X41596190Y-35938095D01*
X42072380Y-34414285D02*
X42072380Y-34985714D01*
X42072380Y-34700000D02*
X41072380Y-34700000D01*
X41215238Y-34795238D01*
X41310476Y-34890476D01*
X41358095Y-34985714D01*
X98832142Y-64187142D02*
X98784523Y-64234761D01*
X98641666Y-64282380D01*
X98546428Y-64282380D01*
X98403571Y-64234761D01*
X98308333Y-64139523D01*
X98260714Y-64044285D01*
X98213095Y-63853809D01*
X98213095Y-63710952D01*
X98260714Y-63520476D01*
X98308333Y-63425238D01*
X98403571Y-63330000D01*
X98546428Y-63282380D01*
X98641666Y-63282380D01*
X98784523Y-63330000D01*
X98832142Y-63377619D01*
X99689285Y-63615714D02*
X99689285Y-64282380D01*
X99451190Y-63234761D02*
X99213095Y-63949047D01*
X99832142Y-63949047D01*
X100403571Y-63282380D02*
X100498809Y-63282380D01*
X100594047Y-63330000D01*
X100641666Y-63377619D01*
X100689285Y-63472857D01*
X100736904Y-63663333D01*
X100736904Y-63901428D01*
X100689285Y-64091904D01*
X100641666Y-64187142D01*
X100594047Y-64234761D01*
X100498809Y-64282380D01*
X100403571Y-64282380D01*
X100308333Y-64234761D01*
X100260714Y-64187142D01*
X100213095Y-64091904D01*
X100165476Y-63901428D01*
X100165476Y-63663333D01*
X100213095Y-63472857D01*
X100260714Y-63377619D01*
X100308333Y-63330000D01*
X100403571Y-63282380D01*
X98857142Y-59187142D02*
X98809523Y-59234761D01*
X98666666Y-59282380D01*
X98571428Y-59282380D01*
X98428571Y-59234761D01*
X98333333Y-59139523D01*
X98285714Y-59044285D01*
X98238095Y-58853809D01*
X98238095Y-58710952D01*
X98285714Y-58520476D01*
X98333333Y-58425238D01*
X98428571Y-58330000D01*
X98571428Y-58282380D01*
X98666666Y-58282380D01*
X98809523Y-58330000D01*
X98857142Y-58377619D01*
X99190476Y-58282380D02*
X99809523Y-58282380D01*
X99476190Y-58663333D01*
X99619047Y-58663333D01*
X99714285Y-58710952D01*
X99761904Y-58758571D01*
X99809523Y-58853809D01*
X99809523Y-59091904D01*
X99761904Y-59187142D01*
X99714285Y-59234761D01*
X99619047Y-59282380D01*
X99333333Y-59282380D01*
X99238095Y-59234761D01*
X99190476Y-59187142D01*
X100285714Y-59282380D02*
X100476190Y-59282380D01*
X100571428Y-59234761D01*
X100619047Y-59187142D01*
X100714285Y-59044285D01*
X100761904Y-58853809D01*
X100761904Y-58472857D01*
X100714285Y-58377619D01*
X100666666Y-58330000D01*
X100571428Y-58282380D01*
X100380952Y-58282380D01*
X100285714Y-58330000D01*
X100238095Y-58377619D01*
X100190476Y-58472857D01*
X100190476Y-58710952D01*
X100238095Y-58806190D01*
X100285714Y-58853809D01*
X100380952Y-58901428D01*
X100571428Y-58901428D01*
X100666666Y-58853809D01*
X100714285Y-58806190D01*
X100761904Y-58710952D01*
X52027142Y-77717857D02*
X52074761Y-77765476D01*
X52122380Y-77908333D01*
X52122380Y-78003571D01*
X52074761Y-78146428D01*
X51979523Y-78241666D01*
X51884285Y-78289285D01*
X51693809Y-78336904D01*
X51550952Y-78336904D01*
X51360476Y-78289285D01*
X51265238Y-78241666D01*
X51170000Y-78146428D01*
X51122380Y-78003571D01*
X51122380Y-77908333D01*
X51170000Y-77765476D01*
X51217619Y-77717857D01*
X51122380Y-77384523D02*
X51122380Y-76765476D01*
X51503333Y-77098809D01*
X51503333Y-76955952D01*
X51550952Y-76860714D01*
X51598571Y-76813095D01*
X51693809Y-76765476D01*
X51931904Y-76765476D01*
X52027142Y-76813095D01*
X52074761Y-76860714D01*
X52122380Y-76955952D01*
X52122380Y-77241666D01*
X52074761Y-77336904D01*
X52027142Y-77384523D01*
X51550952Y-76194047D02*
X51503333Y-76289285D01*
X51455714Y-76336904D01*
X51360476Y-76384523D01*
X51312857Y-76384523D01*
X51217619Y-76336904D01*
X51170000Y-76289285D01*
X51122380Y-76194047D01*
X51122380Y-76003571D01*
X51170000Y-75908333D01*
X51217619Y-75860714D01*
X51312857Y-75813095D01*
X51360476Y-75813095D01*
X51455714Y-75860714D01*
X51503333Y-75908333D01*
X51550952Y-76003571D01*
X51550952Y-76194047D01*
X51598571Y-76289285D01*
X51646190Y-76336904D01*
X51741428Y-76384523D01*
X51931904Y-76384523D01*
X52027142Y-76336904D01*
X52074761Y-76289285D01*
X52122380Y-76194047D01*
X52122380Y-76003571D01*
X52074761Y-75908333D01*
X52027142Y-75860714D01*
X51931904Y-75813095D01*
X51741428Y-75813095D01*
X51646190Y-75860714D01*
X51598571Y-75908333D01*
X51550952Y-76003571D01*
X91157142Y-45292857D02*
X91204761Y-45340476D01*
X91252380Y-45483333D01*
X91252380Y-45578571D01*
X91204761Y-45721428D01*
X91109523Y-45816666D01*
X91014285Y-45864285D01*
X90823809Y-45911904D01*
X90680952Y-45911904D01*
X90490476Y-45864285D01*
X90395238Y-45816666D01*
X90300000Y-45721428D01*
X90252380Y-45578571D01*
X90252380Y-45483333D01*
X90300000Y-45340476D01*
X90347619Y-45292857D01*
X90252380Y-44959523D02*
X90252380Y-44340476D01*
X90633333Y-44673809D01*
X90633333Y-44530952D01*
X90680952Y-44435714D01*
X90728571Y-44388095D01*
X90823809Y-44340476D01*
X91061904Y-44340476D01*
X91157142Y-44388095D01*
X91204761Y-44435714D01*
X91252380Y-44530952D01*
X91252380Y-44816666D01*
X91204761Y-44911904D01*
X91157142Y-44959523D01*
X90252380Y-44007142D02*
X90252380Y-43388095D01*
X90633333Y-43721428D01*
X90633333Y-43578571D01*
X90680952Y-43483333D01*
X90728571Y-43435714D01*
X90823809Y-43388095D01*
X91061904Y-43388095D01*
X91157142Y-43435714D01*
X91204761Y-43483333D01*
X91252380Y-43578571D01*
X91252380Y-43864285D01*
X91204761Y-43959523D01*
X91157142Y-44007142D01*
X99207142Y-40257142D02*
X99159523Y-40304761D01*
X99016666Y-40352380D01*
X98921428Y-40352380D01*
X98778571Y-40304761D01*
X98683333Y-40209523D01*
X98635714Y-40114285D01*
X98588095Y-39923809D01*
X98588095Y-39780952D01*
X98635714Y-39590476D01*
X98683333Y-39495238D01*
X98778571Y-39400000D01*
X98921428Y-39352380D01*
X99016666Y-39352380D01*
X99159523Y-39400000D01*
X99207142Y-39447619D01*
X99588095Y-39447619D02*
X99635714Y-39400000D01*
X99730952Y-39352380D01*
X99969047Y-39352380D01*
X100064285Y-39400000D01*
X100111904Y-39447619D01*
X100159523Y-39542857D01*
X100159523Y-39638095D01*
X100111904Y-39780952D01*
X99540476Y-40352380D01*
X100159523Y-40352380D01*
X100635714Y-40352380D02*
X100826190Y-40352380D01*
X100921428Y-40304761D01*
X100969047Y-40257142D01*
X101064285Y-40114285D01*
X101111904Y-39923809D01*
X101111904Y-39542857D01*
X101064285Y-39447619D01*
X101016666Y-39400000D01*
X100921428Y-39352380D01*
X100730952Y-39352380D01*
X100635714Y-39400000D01*
X100588095Y-39447619D01*
X100540476Y-39542857D01*
X100540476Y-39780952D01*
X100588095Y-39876190D01*
X100635714Y-39923809D01*
X100730952Y-39971428D01*
X100921428Y-39971428D01*
X101016666Y-39923809D01*
X101064285Y-39876190D01*
X101111904Y-39780952D01*
X96057142Y-29427142D02*
X96009523Y-29474761D01*
X95866666Y-29522380D01*
X95771428Y-29522380D01*
X95628571Y-29474761D01*
X95533333Y-29379523D01*
X95485714Y-29284285D01*
X95438095Y-29093809D01*
X95438095Y-28950952D01*
X95485714Y-28760476D01*
X95533333Y-28665238D01*
X95628571Y-28570000D01*
X95771428Y-28522380D01*
X95866666Y-28522380D01*
X96009523Y-28570000D01*
X96057142Y-28617619D01*
X96438095Y-28617619D02*
X96485714Y-28570000D01*
X96580952Y-28522380D01*
X96819047Y-28522380D01*
X96914285Y-28570000D01*
X96961904Y-28617619D01*
X97009523Y-28712857D01*
X97009523Y-28808095D01*
X96961904Y-28950952D01*
X96390476Y-29522380D01*
X97009523Y-29522380D01*
X97342857Y-28522380D02*
X98009523Y-28522380D01*
X97580952Y-29522380D01*
X82157142Y-46692857D02*
X82204761Y-46740476D01*
X82252380Y-46883333D01*
X82252380Y-46978571D01*
X82204761Y-47121428D01*
X82109523Y-47216666D01*
X82014285Y-47264285D01*
X81823809Y-47311904D01*
X81680952Y-47311904D01*
X81490476Y-47264285D01*
X81395238Y-47216666D01*
X81300000Y-47121428D01*
X81252380Y-46978571D01*
X81252380Y-46883333D01*
X81300000Y-46740476D01*
X81347619Y-46692857D01*
X81347619Y-46311904D02*
X81300000Y-46264285D01*
X81252380Y-46169047D01*
X81252380Y-45930952D01*
X81300000Y-45835714D01*
X81347619Y-45788095D01*
X81442857Y-45740476D01*
X81538095Y-45740476D01*
X81680952Y-45788095D01*
X82252380Y-46359523D01*
X82252380Y-45740476D01*
X81252380Y-44883333D02*
X81252380Y-45073809D01*
X81300000Y-45169047D01*
X81347619Y-45216666D01*
X81490476Y-45311904D01*
X81680952Y-45359523D01*
X82061904Y-45359523D01*
X82157142Y-45311904D01*
X82204761Y-45264285D01*
X82252380Y-45169047D01*
X82252380Y-44978571D01*
X82204761Y-44883333D01*
X82157142Y-44835714D01*
X82061904Y-44788095D01*
X81823809Y-44788095D01*
X81728571Y-44835714D01*
X81680952Y-44883333D01*
X81633333Y-44978571D01*
X81633333Y-45169047D01*
X81680952Y-45264285D01*
X81728571Y-45311904D01*
X81823809Y-45359523D01*
X77357142Y-46692857D02*
X77404761Y-46740476D01*
X77452380Y-46883333D01*
X77452380Y-46978571D01*
X77404761Y-47121428D01*
X77309523Y-47216666D01*
X77214285Y-47264285D01*
X77023809Y-47311904D01*
X76880952Y-47311904D01*
X76690476Y-47264285D01*
X76595238Y-47216666D01*
X76500000Y-47121428D01*
X76452380Y-46978571D01*
X76452380Y-46883333D01*
X76500000Y-46740476D01*
X76547619Y-46692857D01*
X76547619Y-46311904D02*
X76500000Y-46264285D01*
X76452380Y-46169047D01*
X76452380Y-45930952D01*
X76500000Y-45835714D01*
X76547619Y-45788095D01*
X76642857Y-45740476D01*
X76738095Y-45740476D01*
X76880952Y-45788095D01*
X77452380Y-46359523D01*
X77452380Y-45740476D01*
X76452380Y-44835714D02*
X76452380Y-45311904D01*
X76928571Y-45359523D01*
X76880952Y-45311904D01*
X76833333Y-45216666D01*
X76833333Y-44978571D01*
X76880952Y-44883333D01*
X76928571Y-44835714D01*
X77023809Y-44788095D01*
X77261904Y-44788095D01*
X77357142Y-44835714D01*
X77404761Y-44883333D01*
X77452380Y-44978571D01*
X77452380Y-45216666D01*
X77404761Y-45311904D01*
X77357142Y-45359523D01*
X75657142Y-46642857D02*
X75704761Y-46690476D01*
X75752380Y-46833333D01*
X75752380Y-46928571D01*
X75704761Y-47071428D01*
X75609523Y-47166666D01*
X75514285Y-47214285D01*
X75323809Y-47261904D01*
X75180952Y-47261904D01*
X74990476Y-47214285D01*
X74895238Y-47166666D01*
X74800000Y-47071428D01*
X74752380Y-46928571D01*
X74752380Y-46833333D01*
X74800000Y-46690476D01*
X74847619Y-46642857D01*
X74847619Y-46261904D02*
X74800000Y-46214285D01*
X74752380Y-46119047D01*
X74752380Y-45880952D01*
X74800000Y-45785714D01*
X74847619Y-45738095D01*
X74942857Y-45690476D01*
X75038095Y-45690476D01*
X75180952Y-45738095D01*
X75752380Y-46309523D01*
X75752380Y-45690476D01*
X75085714Y-44833333D02*
X75752380Y-44833333D01*
X74704761Y-45071428D02*
X75419047Y-45309523D01*
X75419047Y-44690476D01*
X70907142Y-46592857D02*
X70954761Y-46640476D01*
X71002380Y-46783333D01*
X71002380Y-46878571D01*
X70954761Y-47021428D01*
X70859523Y-47116666D01*
X70764285Y-47164285D01*
X70573809Y-47211904D01*
X70430952Y-47211904D01*
X70240476Y-47164285D01*
X70145238Y-47116666D01*
X70050000Y-47021428D01*
X70002380Y-46878571D01*
X70002380Y-46783333D01*
X70050000Y-46640476D01*
X70097619Y-46592857D01*
X70097619Y-46211904D02*
X70050000Y-46164285D01*
X70002380Y-46069047D01*
X70002380Y-45830952D01*
X70050000Y-45735714D01*
X70097619Y-45688095D01*
X70192857Y-45640476D01*
X70288095Y-45640476D01*
X70430952Y-45688095D01*
X71002380Y-46259523D01*
X71002380Y-45640476D01*
X70002380Y-45307142D02*
X70002380Y-44688095D01*
X70383333Y-45021428D01*
X70383333Y-44878571D01*
X70430952Y-44783333D01*
X70478571Y-44735714D01*
X70573809Y-44688095D01*
X70811904Y-44688095D01*
X70907142Y-44735714D01*
X70954761Y-44783333D01*
X71002380Y-44878571D01*
X71002380Y-45164285D01*
X70954761Y-45259523D01*
X70907142Y-45307142D01*
X81957142Y-56542857D02*
X82004761Y-56590476D01*
X82052380Y-56733333D01*
X82052380Y-56828571D01*
X82004761Y-56971428D01*
X81909523Y-57066666D01*
X81814285Y-57114285D01*
X81623809Y-57161904D01*
X81480952Y-57161904D01*
X81290476Y-57114285D01*
X81195238Y-57066666D01*
X81100000Y-56971428D01*
X81052380Y-56828571D01*
X81052380Y-56733333D01*
X81100000Y-56590476D01*
X81147619Y-56542857D01*
X81147619Y-56161904D02*
X81100000Y-56114285D01*
X81052380Y-56019047D01*
X81052380Y-55780952D01*
X81100000Y-55685714D01*
X81147619Y-55638095D01*
X81242857Y-55590476D01*
X81338095Y-55590476D01*
X81480952Y-55638095D01*
X82052380Y-56209523D01*
X82052380Y-55590476D01*
X81147619Y-55209523D02*
X81100000Y-55161904D01*
X81052380Y-55066666D01*
X81052380Y-54828571D01*
X81100000Y-54733333D01*
X81147619Y-54685714D01*
X81242857Y-54638095D01*
X81338095Y-54638095D01*
X81480952Y-54685714D01*
X82052380Y-55257142D01*
X82052380Y-54638095D01*
X77548567Y-56467857D02*
X77596186Y-56515476D01*
X77643805Y-56658333D01*
X77643805Y-56753571D01*
X77596186Y-56896428D01*
X77500948Y-56991666D01*
X77405710Y-57039285D01*
X77215234Y-57086904D01*
X77072377Y-57086904D01*
X76881901Y-57039285D01*
X76786663Y-56991666D01*
X76691425Y-56896428D01*
X76643805Y-56753571D01*
X76643805Y-56658333D01*
X76691425Y-56515476D01*
X76739044Y-56467857D01*
X76739044Y-56086904D02*
X76691425Y-56039285D01*
X76643805Y-55944047D01*
X76643805Y-55705952D01*
X76691425Y-55610714D01*
X76739044Y-55563095D01*
X76834282Y-55515476D01*
X76929520Y-55515476D01*
X77072377Y-55563095D01*
X77643805Y-56134523D01*
X77643805Y-55515476D01*
X77643805Y-54563095D02*
X77643805Y-55134523D01*
X77643805Y-54848809D02*
X76643805Y-54848809D01*
X76786663Y-54944047D01*
X76881901Y-55039285D01*
X76929520Y-55134523D01*
X71207142Y-56392857D02*
X71254761Y-56440476D01*
X71302380Y-56583333D01*
X71302380Y-56678571D01*
X71254761Y-56821428D01*
X71159523Y-56916666D01*
X71064285Y-56964285D01*
X70873809Y-57011904D01*
X70730952Y-57011904D01*
X70540476Y-56964285D01*
X70445238Y-56916666D01*
X70350000Y-56821428D01*
X70302380Y-56678571D01*
X70302380Y-56583333D01*
X70350000Y-56440476D01*
X70397619Y-56392857D01*
X70397619Y-56011904D02*
X70350000Y-55964285D01*
X70302380Y-55869047D01*
X70302380Y-55630952D01*
X70350000Y-55535714D01*
X70397619Y-55488095D01*
X70492857Y-55440476D01*
X70588095Y-55440476D01*
X70730952Y-55488095D01*
X71302380Y-56059523D01*
X71302380Y-55440476D01*
X70302380Y-54821428D02*
X70302380Y-54726190D01*
X70350000Y-54630952D01*
X70397619Y-54583333D01*
X70492857Y-54535714D01*
X70683333Y-54488095D01*
X70921428Y-54488095D01*
X71111904Y-54535714D01*
X71207142Y-54583333D01*
X71254761Y-54630952D01*
X71302380Y-54726190D01*
X71302380Y-54821428D01*
X71254761Y-54916666D01*
X71207142Y-54964285D01*
X71111904Y-55011904D01*
X70921428Y-55059523D01*
X70683333Y-55059523D01*
X70492857Y-55011904D01*
X70397619Y-54964285D01*
X70350000Y-54916666D01*
X70302380Y-54821428D01*
X75407142Y-56492857D02*
X75454761Y-56540476D01*
X75502380Y-56683333D01*
X75502380Y-56778571D01*
X75454761Y-56921428D01*
X75359523Y-57016666D01*
X75264285Y-57064285D01*
X75073809Y-57111904D01*
X74930952Y-57111904D01*
X74740476Y-57064285D01*
X74645238Y-57016666D01*
X74550000Y-56921428D01*
X74502380Y-56778571D01*
X74502380Y-56683333D01*
X74550000Y-56540476D01*
X74597619Y-56492857D01*
X75502380Y-55540476D02*
X75502380Y-56111904D01*
X75502380Y-55826190D02*
X74502380Y-55826190D01*
X74645238Y-55921428D01*
X74740476Y-56016666D01*
X74788095Y-56111904D01*
X75502380Y-55064285D02*
X75502380Y-54873809D01*
X75454761Y-54778571D01*
X75407142Y-54730952D01*
X75264285Y-54635714D01*
X75073809Y-54588095D01*
X74692857Y-54588095D01*
X74597619Y-54635714D01*
X74550000Y-54683333D01*
X74502380Y-54778571D01*
X74502380Y-54969047D01*
X74550000Y-55064285D01*
X74597619Y-55111904D01*
X74692857Y-55159523D01*
X74930952Y-55159523D01*
X75026190Y-55111904D01*
X75073809Y-55064285D01*
X75121428Y-54969047D01*
X75121428Y-54778571D01*
X75073809Y-54683333D01*
X75026190Y-54635714D01*
X74930952Y-54588095D01*
X85432142Y-46037142D02*
X85384523Y-46084761D01*
X85241666Y-46132380D01*
X85146428Y-46132380D01*
X85003571Y-46084761D01*
X84908333Y-45989523D01*
X84860714Y-45894285D01*
X84813095Y-45703809D01*
X84813095Y-45560952D01*
X84860714Y-45370476D01*
X84908333Y-45275238D01*
X85003571Y-45180000D01*
X85146428Y-45132380D01*
X85241666Y-45132380D01*
X85384523Y-45180000D01*
X85432142Y-45227619D01*
X86384523Y-46132380D02*
X85813095Y-46132380D01*
X86098809Y-46132380D02*
X86098809Y-45132380D01*
X86003571Y-45275238D01*
X85908333Y-45370476D01*
X85813095Y-45418095D01*
X86955952Y-45560952D02*
X86860714Y-45513333D01*
X86813095Y-45465714D01*
X86765476Y-45370476D01*
X86765476Y-45322857D01*
X86813095Y-45227619D01*
X86860714Y-45180000D01*
X86955952Y-45132380D01*
X87146428Y-45132380D01*
X87241666Y-45180000D01*
X87289285Y-45227619D01*
X87336904Y-45322857D01*
X87336904Y-45370476D01*
X87289285Y-45465714D01*
X87241666Y-45513333D01*
X87146428Y-45560952D01*
X86955952Y-45560952D01*
X86860714Y-45608571D01*
X86813095Y-45656190D01*
X86765476Y-45751428D01*
X86765476Y-45941904D01*
X86813095Y-46037142D01*
X86860714Y-46084761D01*
X86955952Y-46132380D01*
X87146428Y-46132380D01*
X87241666Y-46084761D01*
X87289285Y-46037142D01*
X87336904Y-45941904D01*
X87336904Y-45751428D01*
X87289285Y-45656190D01*
X87241666Y-45608571D01*
X87146428Y-45560952D01*
X47452142Y-77742857D02*
X47499761Y-77790476D01*
X47547380Y-77933333D01*
X47547380Y-78028571D01*
X47499761Y-78171428D01*
X47404523Y-78266666D01*
X47309285Y-78314285D01*
X47118809Y-78361904D01*
X46975952Y-78361904D01*
X46785476Y-78314285D01*
X46690238Y-78266666D01*
X46595000Y-78171428D01*
X46547380Y-78028571D01*
X46547380Y-77933333D01*
X46595000Y-77790476D01*
X46642619Y-77742857D01*
X47547380Y-76790476D02*
X47547380Y-77361904D01*
X47547380Y-77076190D02*
X46547380Y-77076190D01*
X46690238Y-77171428D01*
X46785476Y-77266666D01*
X46833095Y-77361904D01*
X46547380Y-76457142D02*
X46547380Y-75790476D01*
X47547380Y-76219047D01*
X98382142Y-77627142D02*
X98334523Y-77674761D01*
X98191666Y-77722380D01*
X98096428Y-77722380D01*
X97953571Y-77674761D01*
X97858333Y-77579523D01*
X97810714Y-77484285D01*
X97763095Y-77293809D01*
X97763095Y-77150952D01*
X97810714Y-76960476D01*
X97858333Y-76865238D01*
X97953571Y-76770000D01*
X98096428Y-76722380D01*
X98191666Y-76722380D01*
X98334523Y-76770000D01*
X98382142Y-76817619D01*
X99334523Y-77722380D02*
X98763095Y-77722380D01*
X99048809Y-77722380D02*
X99048809Y-76722380D01*
X98953571Y-76865238D01*
X98858333Y-76960476D01*
X98763095Y-77008095D01*
X100286904Y-77722380D02*
X99715476Y-77722380D01*
X100001190Y-77722380D02*
X100001190Y-76722380D01*
X99905952Y-76865238D01*
X99810714Y-76960476D01*
X99715476Y-77008095D01*
M02*
